<svg width="1674" height="245" viewBox="0 0 1674 245" fill="none" xmlns="http://www.w3.org/2000/svg">
<path d="M202.467 204L123.087 4.2H82.8573L2.6673 204H57.4773L68.0073 175.11H137.397L147.117 204H202.467ZM123.897 134.61H82.0473L102.567 66.3H103.107H103.377L123.897 134.61ZM376.837 204L322.567 135.96C354.157 130.83 372.247 103.83 372.247 73.05C372.247 52.26 364.147 31.74 347.677 18.51C330.397 4.73999 307.177 4.2 286.117 4.2H222.937V204H271.807V139.47H272.347L318.517 204H376.837ZM323.377 76.02C323.377 96.54 309.067 104.64 289.897 104.64H271.807V49.02H290.437C307.987 49.02 323.377 56.31 323.377 76.02ZM510.303 204V159.18H448.203V124.89H508.413V80.07H448.203V49.02H510.303V4.2H399.333V204H510.303ZM734.38 49.02V4.2H625.3V204H674.17V127.86H732.22V83.04H674.17V49.02H734.38ZM929.938 204L850.558 4.2H810.328L730.138 204H784.948L795.478 175.11H864.868L874.588 204H929.938ZM851.368 134.61H809.518L830.038 66.3H830.578H830.848L851.368 134.61ZM1001.44 204V4.2H950.407V204H1001.44ZM1149.19 204V159.18H1090.06V4.2H1039.03V204H1149.19ZM1220.29 204V4.2H1169.26V204H1220.29ZM1425.01 204V4.2H1376.14L1378.3 129.21L1377.76 129.75L1300.54 4.2H1256.53V204H1305.4L1304.05 82.77L1304.59 82.5L1380.73 204H1425.01ZM1665.52 100.86C1665.52 97.35 1665.52 93.84 1665.25 90.33H1546.72V131.1H1606.39C1600.18 153.24 1580.47 163.23 1558.6 163.23C1524.58 163.23 1503.79 135.96 1503.79 103.29C1503.79 71.7 1525.66 45.24 1558.33 45.24C1577.23 45.24 1593.16 54.69 1602.34 71.16H1659.58C1647.43 28.5 1602.88 0.419998 1559.68 0.419998C1501.09 0.419998 1452.76 43.35 1452.76 103.29C1452.76 162.42 1500.01 208.05 1558.87 208.05C1620.16 208.05 1665.52 162.15 1665.52 100.86Z" fill="#FFC6C6"/>
<path d="M0.237305 231H1673.89V244.5H0.237305V231Z" fill="#FFC6C6"/>
</svg>
