<svg width="87" height="77" viewBox="0 0 87 77" fill="none" xmlns="http://www.w3.org/2000/svg">
<path d="M12.24 11.5C12.24 9.82 11.42 8.62 9.8 8.06C10.9 7.44 11.52 6.34 11.52 5.08C11.52 4.16 11.26 3.32 10.64 2.64C9.36 1.22 7.68 1.2 5.9 1.2H1.34V16H6.04C7.96 16 9.36 16.02 10.88 14.72C11.8 13.94 12.24 12.68 12.24 11.5ZM7.9 5.64C7.9 6.58 7.22 6.82 6.4 6.82H4.96V4.52H6.42C7.2 4.52 7.9 4.7 7.9 5.64ZM8.62 11.26C8.62 12.36 7.78 12.68 6.84 12.68H4.96V9.98H6.86C7.74 9.98 8.62 10.2 8.62 11.26ZM18.0692 16V1.2H14.2892V16H18.0692ZM31.8941 6.2C31.8941 4.68 31.3141 3.26 30.1541 2.28C28.9341 1.26 27.1141 1.2 25.5941 1.2H20.7541V16H24.3741V11.36H26.0141C27.6741 11.36 29.0541 11.2 30.3341 10.08C31.3741 9.16 31.8941 7.56 31.8941 6.2ZM28.2741 6.26C28.2741 7.76 27.1541 8.04 25.9141 8.04H24.3741V4.52H25.7741C27.0141 4.52 28.2741 4.72 28.2741 6.26ZM48.8395 8.6C48.8395 4.24 45.3395 0.92 41.0195 0.92C38.4995 0.92 36.2795 1.96 34.7595 3.96C34.3795 4.46 34.0195 5.04 33.7995 5.62C33.3995 6.64 33.2195 7.68 33.2195 8.78C33.2195 13.04 36.8195 16.28 40.9995 16.28C45.3395 16.28 48.8395 12.98 48.8395 8.6ZM45.0595 8.62C45.0595 10.88 43.4595 12.96 41.0795 12.96C38.6195 12.96 36.9995 10.92 36.9995 8.56C36.9995 6.24 38.6195 4.24 41.0395 4.24C43.4595 4.24 45.0595 6.32 45.0595 8.62ZM65.5513 10.46H61.5913C60.9313 11.92 59.6913 12.96 58.0313 12.96C55.6113 12.96 54.0513 10.84 54.0513 8.56C54.0513 6.28 55.6113 4.24 58.0113 4.24C59.6713 4.24 61.0113 5.3 61.5913 6.82H65.5513C65.4113 5.96 65.0313 5.12 64.5513 4.4C63.0713 2.16 60.7113 0.92 58.0313 0.92C53.7313 0.92 50.2713 4.24 50.2713 8.58C50.2713 12.92 53.7713 16.28 58.0713 16.28C61.6513 16.28 64.6913 13.96 65.5513 10.46ZM16.02 30.46H12.06C11.4 31.92 10.16 32.96 8.5 32.96C6.08 32.96 4.52 30.84 4.52 28.56C4.52 26.28 6.08 24.24 8.48 24.24C10.14 24.24 11.48 25.3 12.06 26.82H16.02C15.88 25.96 15.5 25.12 15.02 24.4C13.54 22.16 11.18 20.92 8.5 20.92C4.2 20.92 0.74 24.24 0.74 28.58C0.74 32.92 4.24 36.28 8.54 36.28C12.12 36.28 15.16 33.96 16.02 30.46ZM29.3806 36L25.3606 30.96C27.7006 30.58 29.0406 28.58 29.0406 26.3C29.0406 24.76 28.4406 23.24 27.2206 22.26C25.9406 21.24 24.2206 21.2 22.6606 21.2H17.9806V36H21.6006V31.22H21.6406L25.0606 36H29.3806ZM25.4206 26.52C25.4206 28.04 24.3606 28.64 22.9406 28.64H21.6006V24.52H22.9806C24.2806 24.52 25.4206 25.06 25.4206 26.52ZM39.267 36V32.68H34.667V30.14H39.127V26.82H34.667V24.52H39.267V21.2H31.047V36H39.267ZM55.2534 36L49.3734 21.2H46.3934L40.4534 36H44.5134L45.2934 33.86H50.4334L51.1534 36H55.2534ZM49.4334 30.86H46.3334L47.8534 25.8H47.8934H47.9134L49.4334 30.86ZM64.7219 24.52V21.2H55.1219V24.52H58.0419V36H61.8219V24.52H64.7219ZM74.4623 36V32.68H69.8623V30.14H74.3223V26.82H69.8623V24.52H74.4623V21.2H66.2423V36H74.4623ZM9.8 44.52V41.2H0.2V44.52H3.12V56H6.9V44.52H9.8ZM23.7205 56V41.2H19.9405V46.76H15.1005V41.2H11.3205V56H15.1005V50.08H19.9405V56H23.7205ZM34.6186 56V52.68H30.0186V50.14H34.4786V46.82H30.0186V44.52H34.6186V41.2H26.3986V56H34.6186ZM16.02 70.46H12.06C11.4 71.92 10.16 72.96 8.5 72.96C6.08 72.96 4.52 70.84 4.52 68.56C4.52 66.28 6.08 64.24 8.48 64.24C10.14 64.24 11.48 65.3 12.06 66.82H16.02C15.88 65.96 15.5 65.12 15.02 64.4C13.54 62.16 11.18 60.92 8.5 60.92C4.2 60.92 0.74 64.24 0.74 68.58C0.74 72.92 4.24 76.28 8.54 76.28C12.12 76.28 15.16 73.96 16.02 70.46ZM29.3006 70.14V61.2H25.5206V70.14C25.5206 71.54 25.4206 72.96 23.6406 72.96C21.9406 72.96 21.7206 71.48 21.7206 70.14V61.2H17.9406V70.14C17.9406 72.02 18.0806 73.28 19.4206 74.7C20.5006 75.84 22.1406 76.28 23.6806 76.28C25.2606 76.28 26.7006 75.82 27.8206 74.68C29.1006 73.4 29.3006 71.9 29.3006 70.14ZM40.2055 76V72.68H35.8255V61.2H32.0455V76H40.2055ZM49.2336 64.52V61.2H39.6336V64.52H42.5536V76H46.3336V64.52H49.2336ZM62.0741 70.14V61.2H58.2941V70.14C58.2941 71.54 58.1941 72.96 56.4141 72.96C54.7141 72.96 54.4941 71.48 54.4941 70.14V61.2H50.7141V70.14C50.7141 72.02 50.8541 73.28 52.1941 74.7C53.2741 75.84 54.9141 76.28 56.4541 76.28C58.0341 76.28 59.4741 75.82 60.5941 74.68C61.8741 73.4 62.0741 71.9 62.0741 70.14ZM76.1189 76L72.0989 70.96C74.4389 70.58 75.7789 68.58 75.7789 66.3C75.7789 64.76 75.1789 63.24 73.9589 62.26C72.6789 61.24 70.9589 61.2 69.3989 61.2H64.7189V76H68.3389V71.22H68.3789L71.7989 76H76.1189ZM72.1589 66.52C72.1589 68.04 71.0989 68.64 69.6789 68.64H68.3389V64.52H69.7189C71.0189 64.52 72.1589 65.06 72.1589 66.52ZM86.0053 76V72.68H81.4053V70.14H85.8653V66.82H81.4053V64.52H86.0053V61.2H77.7853V76H86.0053Z" fill="#222220"/>
</svg>
