<svg width="1920" height="1080" viewBox="0 0 1920 1080" fill="none" xmlns="http://www.w3.org/2000/svg">
<g clip-path="url(#clip0)">
<rect width="1920" height="1080" fill="#222220"/>
<g opacity="0.5" filter="url(#filter0_f)">
<path d="M1501.51 -151.054C1527.41 -29.3427 1626.31 76.8182 1704.15 168.745C1892.97 391.747 2137.34 614.025 2407.94 732.16C2447.43 749.403 2677.73 846.892 2704.78 763.142C2746.6 633.71 2565.7 498.324 2477.82 445.748C2238.62 302.65 1916.71 279.645 1647.55 324.999C1200.02 400.408 764.316 663.855 521.38 1051.32C452.514 1161.15 333.182 1405.63 460.725 1519.96C503.286 1558.11 560.581 1562.86 614.145 1572.48" stroke="#FFC6C6" strokeWidth="2" stroke-linecap="round" strokeLinejoin="round"/>
</g>
<path d="M827.038 677H829.864V680.044H832.903V682.858H829.864V685.903H827.038V682.858H824V680.044H827.038V677Z" fill="#F4F4F4"/>
<path d="M909.538 677H912.364V680.044H915.403V682.858H912.364V685.903H909.538V682.858H906.5V680.044H909.538V677Z" fill="#F4F4F4"/>
<path d="M1056.14 677H1058.96V680.044H1062V682.858H1058.96V685.903H1056.14V682.858H1053.1V680.044H1056.14V677Z" fill="#F4F4F4"/>
<g opacity="0.6" filter="url(#filter1_f)">
<path d="M90.758 220.792C90.758 219.644 90.478 218.51 89.806 217.572C88.63 215.948 87.104 215.64 85.228 215.64H81.798V226H85.424C88.812 226 90.758 224.194 90.758 220.792ZM88.112 220.834C88.112 222.514 87.384 223.676 85.578 223.676H84.444V217.964H85.592C87.356 217.964 88.112 219.182 88.112 220.834ZM136.975 226V215.64H134.329V226H136.975ZM189.8 215.64H187.07L184.97 222.906H184.942L182.856 215.64H180.14L183.598 226H186.328L189.8 215.64ZM238.712 226V223.676H235.492V221.898H238.614V219.574H235.492V217.964H238.712V215.64H232.958V226H238.712ZM290.334 226L287.52 222.472C289.158 222.206 290.096 220.806 290.096 219.21C290.096 218.132 289.676 217.068 288.822 216.382C287.926 215.668 286.722 215.64 285.63 215.64H282.354V226H284.888V222.654H284.916L287.31 226H290.334ZM287.562 219.364C287.562 220.428 286.82 220.848 285.826 220.848H284.888V217.964H285.854C286.764 217.964 287.562 218.342 287.562 219.364ZM386.583 223.018C386.583 221.394 385.533 220.68 384.161 220.05C383.727 219.854 382.369 219.322 382.117 218.902C382.033 218.776 382.019 218.622 382.019 218.468C382.019 217.978 382.467 217.656 382.929 217.656C383.601 217.656 383.797 218.09 383.881 218.664H386.499C386.471 217.852 386.345 217.278 385.813 216.62C385.155 215.822 384.021 215.444 383.013 215.444C381.249 215.444 379.387 216.564 379.387 218.496C379.387 220.12 380.577 220.904 381.921 221.464C382.229 221.59 382.537 221.716 382.845 221.856C383.391 222.094 383.951 222.318 383.951 222.99C383.951 223.55 383.489 223.984 382.943 223.984C382.173 223.984 381.865 223.242 381.865 222.57H379.233V222.906C379.233 225.118 380.885 226.196 382.971 226.196C385.015 226.196 386.583 225.188 386.583 223.018ZM478.813 226V215.64H476.167V226H478.813ZM620.899 217.964V215.64H614.179V217.964H616.223V226H618.869V217.964H620.899ZM672.162 215.64H669.32L667.766 219.798L666.226 215.64H663.356L666.45 222.234V226H669.096V222.234L672.162 215.64Z" fill="#FFC6C6"/>
</g>
<circle opacity="0.6" cx="960" cy="540" r="296" fill="black"/>
<path d="M1447.82 772.568H1444.65C1444.12 773.736 1443.13 774.568 1441.8 774.568C1439.86 774.568 1438.62 772.872 1438.62 771.048C1438.62 769.224 1439.86 767.592 1441.78 767.592C1443.11 767.592 1444.18 768.44 1444.65 769.656H1447.82C1447.7 768.968 1447.4 768.296 1447.02 767.72C1445.83 765.928 1443.94 764.936 1441.8 764.936C1438.36 764.936 1435.59 767.592 1435.59 771.064C1435.59 774.536 1438.39 777.224 1441.83 777.224C1444.7 777.224 1447.13 775.368 1447.82 772.568ZM1506.44 772.312V765.16H1503.42V772.312C1503.42 773.432 1503.34 774.568 1501.91 774.568C1500.55 774.568 1500.38 773.384 1500.38 772.312V765.16H1497.35V772.312C1497.35 773.816 1497.46 774.824 1498.54 775.96C1499.4 776.872 1500.71 777.224 1501.94 777.224C1503.21 777.224 1504.36 776.856 1505.26 775.944C1506.28 774.92 1506.44 773.72 1506.44 772.312ZM1563.16 777V774.344H1559.66V765.16H1556.64V777H1563.16ZM1620.11 774.232V771.672H1617.36V768.904H1614.8V771.672H1612.05V774.232H1614.8V777H1617.36V774.232H1620.11ZM1442.84 826.816V824.16H1435.16V826.816H1437.5V836H1440.52V826.816H1442.84ZM1501.11 831.312V824.16H1498.09V831.312C1498.09 832.432 1498.01 833.568 1496.58 833.568C1495.22 833.568 1495.05 832.384 1495.05 831.312V824.16H1492.02V831.312C1492.02 832.816 1492.14 833.824 1493.21 834.96C1494.07 835.872 1495.38 836.224 1496.62 836.224C1497.88 836.224 1499.03 835.856 1499.93 834.944C1500.95 833.92 1501.11 832.72 1501.11 831.312ZM1560.35 836L1557.13 831.968C1559 831.664 1560.08 830.064 1560.08 828.24C1560.08 827.008 1559.6 825.792 1558.62 825.008C1557.6 824.192 1556.22 824.16 1554.97 824.16H1551.23V836H1554.12V832.176H1554.16L1556.89 836H1560.35ZM1557.18 828.416C1557.18 829.632 1556.33 830.112 1555.2 830.112H1554.12V826.816H1555.23C1556.27 826.816 1557.18 827.248 1557.18 828.416ZM1616.26 836V833.344H1612.58V831.312H1616.15V828.656H1612.58V826.816H1616.26V824.16H1609.68V836H1616.26Z" fill="#ADAEA5"/>
<rect width="1920" height="1080" fill="url(#paint0_linear)"/>
<g opacity="0.15">
<path d="M175.001 570.999C175.001 560.064 183.866 551.199 194.801 551.199V570.999H175.001Z" fill="#FFC6C6"/>
<path d="M194.802 571C194.802 558.85 203.666 549 214.602 549V571H194.802Z" fill="#FFC6C6"/>
</g>
<rect opacity="0.1" width="85" height="12" transform="matrix(1 0 0 -1 310 908)" fill="#FFC6C6"/>
<rect opacity="0.1" width="85" height="4" transform="matrix(1 0 0 -1 333 896)" fill="#FFC6C6"/>
<rect opacity="0.1" width="36" height="8" transform="matrix(1 0 0 -1 215 902)" fill="#FFC6C6"/>
</g>
<defs>
<filter id="filter0_f" x="201.867" y="-310.133" width="2592.98" height="1913.94" filterUnits="userSpaceOnUse" color-interpolation-filters="sRGB">
<feFlood flood-opacity="0" result="BackgroundImageFix"/>
<feBlend mode="normal" in="SourceGraphic" in2="BackgroundImageFix" result="shape"/>
<feGaussianBlur stdDeviation="2" result="effect1_foregroundBlur"/>
</filter>
<filter id="filter1_f" x="79.8584" y="213.505" width="594.241" height="14.6289" filterUnits="userSpaceOnUse" color-interpolation-filters="sRGB">
<feFlood flood-opacity="0" result="BackgroundImageFix"/>
<feBlend mode="normal" in="SourceGraphic" in2="BackgroundImageFix" result="shape"/>
<feGaussianBlur stdDeviation="0.969231" result="effect1_foregroundBlur"/>
</filter>
<linearGradient id="paint0_linear" x1="580" y1="726" x2="1251.36" y2="-591.001" gradientUnits="userSpaceOnUse">
<stop stop-color="#222220"/>
<stop offset="1" stop-color="#222220" stop-opacity="0"/>
</linearGradient>
<clipPath id="clip0">
<rect width="1920" height="1080" fill="white"/>
</clipPath>
</defs>
</svg>
