<svg width="1920" height="1080" viewBox="0 0 1920 1080" fill="none" xmlns="http://www.w3.org/2000/svg">
<g clip-path="url(#clip0)">
<rect width="1920" height="1080" fill="#222220"/>
<path d="M1920 1080L1920 0L1255 7.93005e-06L1255 1080L1920 1080Z" fill="url(#paint0_linear)"/>
<path d="M0.999953 0L1 1080L485 1080L485 -2.11563e-05L0.999953 0Z" fill="url(#paint1_linear)"/>
<path opacity="0.05" d="M1200.48 621.56C1200.48 538.4 1133.28 469.52 1049.28 469.52C965.28 469.52 897.24 537.56 897.24 621.56C897.24 705.56 965.28 773.6 1049.28 773.6C1132.44 773.6 1200.48 704.72 1200.48 621.56ZM1045.92 139.4H948.48L691.44 761H788.04L1045.92 139.4ZM842.64 278.84C842.64 194.84 775.44 126.8 691.44 126.8C607.44 126.8 540.24 195.68 540.24 278.84C540.24 362 608.28 430.04 691.44 430.04C774.6 430.04 842.64 362 842.64 278.84ZM1107.24 621.56C1107.24 653.48 1081.2 680.36 1049.28 680.36C1017.36 680.36 990.48 653.48 990.48 621.56C990.48 588.8 1016.52 562.76 1049.28 562.76C1082.04 562.76 1107.24 589.64 1107.24 621.56ZM749.4 278C749.4 309.92 723.36 336.8 691.44 336.8C660.36 336.8 633.48 309.92 633.48 278.84C633.48 246.08 658.68 220.04 691.44 220.04C723.36 220.04 749.4 246.08 749.4 278Z" fill="#ADAEA5"/>
<circle opacity="0.6" cx="655" cy="590" r="296" fill="black"/>
<path d="M868.816 487.568H865.648C865.12 488.736 864.128 489.568 862.8 489.568C860.864 489.568 859.616 487.872 859.616 486.048C859.616 484.224 860.864 482.592 862.784 482.592C864.112 482.592 865.184 483.44 865.648 484.656H868.816C868.704 483.968 868.4 483.296 868.016 482.72C866.832 480.928 864.944 479.936 862.8 479.936C859.36 479.936 856.592 482.592 856.592 486.064C856.592 489.536 859.392 492.224 862.832 492.224C865.696 492.224 868.128 490.368 868.816 487.568ZM927.441 487.312V480.16H924.417V487.312C924.417 488.432 924.337 489.568 922.913 489.568C921.553 489.568 921.377 488.384 921.377 487.312V480.16H918.353V487.312C918.353 488.816 918.465 489.824 919.537 490.96C920.401 491.872 921.713 492.224 922.945 492.224C924.209 492.224 925.361 491.856 926.257 490.944C927.281 489.92 927.441 488.72 927.441 487.312ZM984.164 492V489.344H980.66V480.16H977.636V492H984.164ZM1041.11 489.232V486.672H1038.36V483.904H1035.8V486.672H1033.05V489.232H1035.8V492H1038.36V489.232H1041.11ZM863.84 541.816V539.16H856.16V541.816H858.496V551H861.52V541.816H863.84ZM922.112 546.312V539.16H919.088V546.312C919.088 547.432 919.008 548.568 917.584 548.568C916.224 548.568 916.048 547.384 916.048 546.312V539.16H913.024V546.312C913.024 547.816 913.136 548.824 914.208 549.96C915.072 550.872 916.384 551.224 917.616 551.224C918.88 551.224 920.032 550.856 920.928 549.944C921.952 548.92 922.112 547.72 922.112 546.312ZM981.348 551L978.132 546.968C980.004 546.664 981.076 545.064 981.076 543.24C981.076 542.008 980.596 540.792 979.62 540.008C978.596 539.192 977.22 539.16 975.972 539.16H972.228V551H975.124V547.176H975.156L977.892 551H981.348ZM978.18 543.416C978.18 544.632 977.332 545.112 976.196 545.112H975.124V541.816H976.228C977.268 541.816 978.18 542.248 978.18 543.416ZM1037.26 551V548.344H1033.58V546.312H1037.15V543.656H1033.58V541.816H1037.26V539.16H1030.68V551H1037.26Z" fill="#ADAEA5"/>
<rect x="295" width="955" height="1080" fill="url(#paint2_linear)"/>
</g>
<defs>
<linearGradient id="paint0_linear" x1="1920" y1="540" x2="1255" y2="540" gradientUnits="userSpaceOnUse">
<stop stop-color="#222220"/>
<stop offset="1" stop-color="#222220" stop-opacity="0.2"/>
</linearGradient>
<linearGradient id="paint1_linear" x1="0.999976" y1="540" x2="485" y2="540" gradientUnits="userSpaceOnUse">
<stop stop-color="#222220"/>
<stop offset="1" stop-color="#222220" stop-opacity="0"/>
</linearGradient>
<linearGradient id="paint2_linear" x1="695.569" y1="721" x2="1660.11" y2="-306.081" gradientUnits="userSpaceOnUse">
<stop stop-color="#222220"/>
<stop offset="1" stop-color="#222220" stop-opacity="0"/>
</linearGradient>
<clipPath id="clip0">
<rect width="1920" height="1080" fill="white"/>
</clipPath>
</defs>
</svg>
