<svg width="663" height="473" viewBox="0 0 663 473" fill="none" xmlns="http://www.w3.org/2000/svg">
<path d="M180.31 294.05C178.18 294.05 176.455 295.625 176.455 297.785C176.455 298.145 176.545 298.505 176.695 298.82L176.68 298.85L172.915 296.285L172.915 297.545L176.995 300.305C178.015 300.995 178.975 301.64 180.25 301.64C182.47 301.64 184.195 300.11 184.195 297.845C184.195 295.655 182.47 294.05 180.31 294.05ZM180.325 295.16C181.87 295.16 183.19 296.24 183.19 297.845C183.19 299.405 181.87 300.53 180.355 300.53C178.825 300.53 177.46 299.45 177.46 297.845C177.46 296.255 178.795 295.16 180.325 295.16ZM175.42 287.949C173.935 287.949 172.735 289.179 172.735 290.664C172.735 292.149 173.935 293.379 175.42 293.379C176.905 293.379 178.105 292.149 178.105 290.664C178.105 289.179 176.905 287.949 175.42 287.949ZM172.9 284.244L172.9 285.264L184 291.624L184 290.604L172.9 284.244ZM181.51 282.399C180.025 282.399 178.825 283.629 178.825 285.114C178.825 286.599 180.025 287.829 181.51 287.829C182.995 287.829 184.195 286.599 184.195 285.114C184.195 283.629 182.995 282.399 181.51 282.399ZM175.42 288.849C176.44 288.849 177.265 289.644 177.265 290.664C177.265 291.684 176.44 292.479 175.42 292.479C174.4 292.479 173.575 291.684 173.575 290.664C173.575 289.644 174.4 288.849 175.42 288.849ZM181.51 283.299C182.53 283.299 183.355 284.094 183.355 285.114C183.355 286.134 182.53 286.929 181.51 286.929C180.49 286.929 179.665 286.134 179.665 285.114C179.665 284.094 180.49 283.299 181.51 283.299Z" fill="#222220"/>
<path d="M361 236.96L349.9 236.96L349.9 239.975L350.905 239.975L350.905 238.07L361 238.07L361 236.96ZM353.665 225.744C351.445 225.744 349.72 227.274 349.72 229.539C349.72 231.729 351.445 233.334 353.605 233.334C355.735 233.334 357.46 231.759 357.46 229.599C357.46 229.239 357.385 228.879 357.22 228.564L357.235 228.534L361 231.099L361 229.839L356.92 227.079C355.9 226.389 354.94 225.744 353.665 225.744ZM353.56 226.854C355.09 226.854 356.455 227.934 356.455 229.539C356.455 231.129 355.12 232.224 353.59 232.224C352.045 232.224 350.725 231.144 350.725 229.539C350.725 227.979 352.045 226.854 353.56 226.854ZM352.42 219.644C350.935 219.644 349.735 220.874 349.735 222.359C349.735 223.844 350.935 225.074 352.42 225.074C353.905 225.074 355.105 223.844 355.105 222.359C355.105 220.874 353.905 219.644 352.42 219.644ZM349.9 215.939L349.9 216.959L361 223.319L361 222.299L349.9 215.939ZM358.51 214.094C357.025 214.094 355.825 215.324 355.825 216.809C355.825 218.294 357.025 219.524 358.51 219.524C359.995 219.524 361.195 218.294 361.195 216.809C361.195 215.324 359.995 214.094 358.51 214.094ZM352.42 220.544C353.44 220.544 354.265 221.339 354.265 222.359C354.265 223.379 353.44 224.174 352.42 224.174C351.4 224.174 350.575 223.379 350.575 222.359C350.575 221.339 351.4 220.544 352.42 220.544ZM358.51 214.994C359.53 214.994 360.355 215.789 360.355 216.809C360.355 217.829 359.53 218.624 358.51 218.624C357.49 218.624 356.665 217.829 356.665 216.809C356.665 215.789 357.49 214.994 358.51 214.994Z" fill="#222220"/>
<path d="M73.58 319.41C72.305 319.41 71.225 320.175 70.64 321.285C70.085 320.58 69.5 320.145 68.555 320.145C66.95 320.145 65.705 321.33 65.705 322.95C65.705 324.66 67.04 325.71 68.675 325.755L68.675 324.645C67.685 324.645 66.71 324.075 66.71 322.98C66.71 321.96 67.46 321.255 68.465 321.255C69.65 321.255 70.205 322.23 70.205 323.325C70.205 323.445 70.19 323.58 70.19 323.7L71.165 323.7C71.18 323.28 71.165 322.83 71.27 322.41C71.54 321.33 72.515 320.52 73.64 320.52C75.065 320.52 76.19 321.435 76.19 322.905C76.19 323.775 75.755 324.54 75.005 324.99C74.525 325.275 74.075 325.335 73.52 325.38L73.52 326.49C75.08 326.43 76.37 325.74 76.94 324.225C77.105 323.82 77.195 323.355 77.195 322.905C77.195 320.88 75.575 319.41 73.58 319.41ZM68.42 312.949C66.935 312.949 65.735 314.179 65.735 315.664C65.735 317.149 66.935 318.379 68.42 318.379C69.905 318.379 71.105 317.149 71.105 315.664C71.105 314.179 69.905 312.949 68.42 312.949ZM65.9 309.244L65.9 310.264L77 316.624L77 315.604L65.9 309.244ZM74.51 307.399C73.025 307.399 71.825 308.629 71.825 310.114C71.825 311.599 73.025 312.829 74.51 312.829C75.995 312.829 77.195 311.599 77.195 310.114C77.195 308.629 75.995 307.399 74.51 307.399ZM68.42 313.849C69.44 313.849 70.265 314.644 70.265 315.664C70.265 316.684 69.44 317.479 68.42 317.479C67.4 317.479 66.575 316.684 66.575 315.664C66.575 314.644 67.4 313.849 68.42 313.849ZM74.51 308.299C75.53 308.299 76.355 309.094 76.355 310.114C76.355 311.134 75.53 311.929 74.51 311.929C73.49 311.929 72.665 311.134 72.665 310.114C72.665 309.094 73.49 308.299 74.51 308.299Z" fill="#222220"/>
<path d="M250.325 304.05C248.225 304.05 246.44 305.61 246.44 307.755C246.44 308.445 246.635 309.045 246.965 309.645L243.905 309.09L243.905 304.98L242.9 304.98L242.9 309.975L248.375 310.98L248.69 310.11C247.97 309.555 247.43 308.745 247.43 307.8C247.43 306.21 248.825 305.16 250.325 305.16C251.81 305.16 253.19 306.27 253.19 307.815C253.19 309.345 251.96 310.35 250.505 310.5L250.505 311.61C252.08 311.4 253.4 310.65 253.955 309.105C254.105 308.7 254.195 308.25 254.195 307.815C254.195 305.685 252.425 304.05 250.325 304.05ZM245.42 297.949C243.935 297.949 242.735 299.179 242.735 300.664C242.735 302.149 243.935 303.379 245.42 303.379C246.905 303.379 248.105 302.149 248.105 300.664C248.105 299.179 246.905 297.949 245.42 297.949ZM242.9 294.244L242.9 295.264L254 301.624L254 300.604L242.9 294.244ZM251.51 292.399C250.025 292.399 248.825 293.629 248.825 295.114C248.825 296.599 250.025 297.829 251.51 297.829C252.995 297.829 254.195 296.599 254.195 295.114C254.195 293.629 252.995 292.399 251.51 292.399ZM245.42 298.849C246.44 298.849 247.265 299.644 247.265 300.664C247.265 301.684 246.44 302.479 245.42 302.479C244.4 302.479 243.575 301.684 243.575 300.664C243.575 299.644 244.4 298.849 245.42 298.849ZM251.51 293.299C252.53 293.299 253.355 294.094 253.355 295.114C253.355 296.134 252.53 296.929 251.51 296.929C250.49 296.929 249.665 296.134 249.665 295.114C249.665 294.094 250.49 293.299 251.51 293.299Z" fill="#222220"/>
<path d="M429.975 308.08L428.97 308.08L428.97 309.085L420.9 309.085L420.9 310.405L428.97 315.79L429.975 315.79L429.975 310.195L432 310.195L432 309.085L429.975 309.085L429.975 308.08ZM428.97 310.195L428.97 314.515L422.43 310.225L422.43 310.195L428.97 310.195ZM423.42 301.949C421.935 301.949 420.735 303.179 420.735 304.664C420.735 306.149 421.935 307.379 423.42 307.379C424.905 307.379 426.105 306.149 426.105 304.664C426.105 303.179 424.905 301.949 423.42 301.949ZM420.9 298.244L420.9 299.264L432 305.624L432 304.604L420.9 298.244ZM429.51 296.399C428.025 296.399 426.825 297.629 426.825 299.114C426.825 300.599 428.025 301.829 429.51 301.829C430.995 301.829 432.195 300.599 432.195 299.114C432.195 297.629 430.995 296.399 429.51 296.399ZM423.42 302.849C424.44 302.849 425.265 303.644 425.265 304.664C425.265 305.684 424.44 306.479 423.42 306.479C422.4 306.479 421.575 305.684 421.575 304.664C421.575 303.644 422.4 302.849 423.42 302.849ZM429.51 297.299C430.53 297.299 431.355 298.094 431.355 299.114C431.355 300.134 430.53 300.929 429.51 300.929C428.49 300.929 427.665 300.134 427.665 299.114C427.665 298.094 428.49 297.299 429.51 297.299Z" fill="#222220"/>
<path d="M61 371H1V401.001H61V371Z" fill="#222220"/>
<path d="M4.735 434.86L6.13 430.93H6.16L7.51 434.86H4.735ZM4.96 428.29L0.91 439H3.28L4.12 436.615H8.125L8.935 439H11.38L7.375 428.29H4.96ZM12.5436 432.67V439H14.6736V432.67H16.1436V431.245H14.6736V430.78C14.6736 430.46 14.7336 430.235 14.8536 430.105C14.9836 429.965 15.1936 429.895 15.4836 429.895C15.7536 429.895 16.0136 429.91 16.2636 429.94V428.35C16.0836 428.34 15.8986 428.33 15.7086 428.32C15.5186 428.3 15.3286 428.29 15.1386 428.29C14.2686 428.29 13.6186 428.51 13.1886 428.95C12.7586 429.39 12.5436 429.955 12.5436 430.645V431.245H11.2686V432.67H12.5436ZM17.0737 431.245L17.0737 439H19.2037L19.2037 435.505C19.2037 435.155 19.2387 434.83 19.3087 434.53C19.3787 434.23 19.4937 433.97 19.6537 433.75C19.8237 433.52 20.0437 433.34 20.3137 433.21C20.5837 433.08 20.9137 433.015 21.3037 433.015C21.4337 433.015 21.5687 433.025 21.7087 433.045C21.8487 433.055 21.9687 433.07 22.0687 433.09V431.11C21.8987 431.06 21.7437 431.035 21.6037 431.035C21.3337 431.035 21.0737 431.075 20.8237 431.155C20.5737 431.235 20.3387 431.35 20.1187 431.5C19.8987 431.64 19.7037 431.815 19.5337 432.025C19.3637 432.225 19.2287 432.445 19.1287 432.685H19.0987V431.245H17.0737ZM25.0938 430.045V428.29H22.9638V430.045H25.0938ZM22.9638 431.245L22.9638 439H25.0938L25.0938 431.245H22.9638ZM32.0509 433.975H34.1359C34.1059 433.475 33.9859 433.045 33.7759 432.685C33.5659 432.315 33.2909 432.01 32.9509 431.77C32.6209 431.52 32.2409 431.335 31.8109 431.215C31.3909 431.095 30.9509 431.035 30.4909 431.035C29.8609 431.035 29.3009 431.14 28.8109 431.35C28.3209 431.56 27.9059 431.855 27.5659 432.235C27.2259 432.605 26.9659 433.05 26.7859 433.57C26.6159 434.08 26.5309 434.635 26.5309 435.235C26.5309 435.815 26.6259 436.35 26.8159 436.84C27.0059 437.32 27.2709 437.735 27.6109 438.085C27.9509 438.435 28.3609 438.71 28.8409 438.91C29.3309 439.1 29.8659 439.195 30.4459 439.195C31.4759 439.195 32.3209 438.925 32.9809 438.385C33.6409 437.845 34.0409 437.06 34.1809 436.03H32.1259C32.0559 436.51 31.8809 436.895 31.6009 437.185C31.3309 437.465 30.9409 437.605 30.4309 437.605C30.1009 437.605 29.8209 437.53 29.5909 437.38C29.3609 437.23 29.1759 437.04 29.0359 436.81C28.9059 436.57 28.8109 436.305 28.7509 436.015C28.6909 435.725 28.6609 435.44 28.6609 435.16C28.6609 434.87 28.6909 434.58 28.7509 434.29C28.8109 433.99 28.9109 433.72 29.0509 433.48C29.2009 433.23 29.3909 433.03 29.6209 432.88C29.8509 432.72 30.1359 432.64 30.4759 432.64C31.3859 432.64 31.9109 433.085 32.0509 433.975ZM35.2942 433.63H37.4242C37.4642 433.21 37.6042 432.91 37.8442 432.73C38.0842 432.55 38.4142 432.46 38.8342 432.46C39.0242 432.46 39.1992 432.475 39.3592 432.505C39.5292 432.525 39.6742 432.575 39.7942 432.655C39.9242 432.725 40.0242 432.83 40.0942 432.97C40.1742 433.1 40.2142 433.28 40.2142 433.51C40.2242 433.73 40.1592 433.9 40.0192 434.02C39.8792 434.13 39.6892 434.215 39.4492 434.275C39.2092 434.335 38.9342 434.38 38.6242 434.41C38.3142 434.44 37.9992 434.48 37.6792 434.53C37.3592 434.58 37.0392 434.65 36.7192 434.74C36.4092 434.82 36.1292 434.945 35.8792 435.115C35.6392 435.285 35.4392 435.515 35.2792 435.805C35.1292 436.085 35.0542 436.445 35.0542 436.885C35.0542 437.285 35.1192 437.63 35.2492 437.92C35.3892 438.21 35.5792 438.45 35.8192 438.64C36.0592 438.83 36.3392 438.97 36.6592 439.06C36.9792 439.15 37.3242 439.195 37.6942 439.195C38.1742 439.195 38.6442 439.125 39.1042 438.985C39.5642 438.845 39.9642 438.6 40.3042 438.25C40.3142 438.38 40.3292 438.51 40.3492 438.64C40.3792 438.76 40.4142 438.88 40.4542 439H42.6142C42.5142 438.84 42.4442 438.6 42.4042 438.28C42.3642 437.96 42.3442 437.625 42.3442 437.275V433.24C42.3442 432.77 42.2392 432.395 42.0292 432.115C41.8192 431.825 41.5492 431.6 41.2192 431.44C40.8892 431.28 40.5242 431.175 40.1242 431.125C39.7242 431.065 39.3292 431.035 38.9392 431.035C38.5092 431.035 38.0792 431.08 37.6492 431.17C37.2292 431.25 36.8492 431.39 36.5092 431.59C36.1692 431.79 35.8892 432.055 35.6692 432.385C35.4492 432.715 35.3242 433.13 35.2942 433.63ZM40.2142 435.205V436C40.2142 436.12 40.1992 436.28 40.1692 436.48C40.1492 436.68 40.0842 436.88 39.9742 437.08C39.8642 437.27 39.6942 437.435 39.4642 437.575C39.2342 437.715 38.9092 437.785 38.4892 437.785C38.3192 437.785 38.1542 437.77 37.9942 437.74C37.8342 437.71 37.6942 437.66 37.5742 437.59C37.4542 437.51 37.3592 437.405 37.2892 437.275C37.2192 437.145 37.1842 436.985 37.1842 436.795C37.1842 436.595 37.2192 436.43 37.2892 436.3C37.3592 436.17 37.4492 436.065 37.5592 435.985C37.6792 435.895 37.8142 435.825 37.9642 435.775C38.1242 435.725 38.2842 435.685 38.4442 435.655C38.6142 435.625 38.7842 435.6 38.9542 435.58C39.1242 435.56 39.2842 435.535 39.4342 435.505C39.5942 435.475 39.7392 435.44 39.8692 435.4C40.0092 435.35 40.1242 435.285 40.2142 435.205ZM43.9975 431.245V439H46.1275V434.935C46.1275 434.145 46.2575 433.58 46.5175 433.24C46.7775 432.89 47.1975 432.715 47.7775 432.715C48.2875 432.715 48.6425 432.875 48.8425 433.195C49.0425 433.505 49.1425 433.98 49.1425 434.62V439H51.2725V434.23C51.2725 433.75 51.2275 433.315 51.1375 432.925C51.0575 432.525 50.9125 432.19 50.7025 431.92C50.4925 431.64 50.2025 431.425 49.8325 431.275C49.4725 431.115 49.0075 431.035 48.4375 431.035C47.9875 431.035 47.5475 431.14 47.1175 431.35C46.6875 431.55 46.3375 431.875 46.0675 432.325H46.0225V431.245H43.9975ZM4.735 450.86L6.13 446.93H6.16L7.51 450.86H4.735ZM4.96 444.29L0.91 455H3.28L4.12 452.615H8.125L8.935 455H11.38L7.375 444.29H4.96ZM12.1386 447.245L12.1386 455H14.2686L14.2686 450.5C14.2686 450.12 14.3236 449.815 14.4336 449.585C14.5436 449.345 14.6736 449.165 14.8236 449.045C14.9836 448.915 15.1436 448.83 15.3036 448.79C15.4736 448.74 15.6086 448.715 15.7086 448.715C16.0486 448.715 16.3036 448.775 16.4736 448.895C16.6536 449.005 16.7786 449.155 16.8486 449.345C16.9286 449.535 16.9736 449.745 16.9836 449.975C16.9936 450.195 16.9986 450.42 16.9986 450.65L16.9986 455H19.1286V450.68C19.1286 450.44 19.1436 450.205 19.1736 449.975C19.2136 449.735 19.2836 449.525 19.3836 449.345C19.4936 449.155 19.6386 449.005 19.8186 448.895C20.0086 448.775 20.2536 448.715 20.5536 448.715C20.8536 448.715 21.0886 448.765 21.2586 448.865C21.4386 448.965 21.5736 449.1 21.6636 449.27C21.7536 449.44 21.8086 449.64 21.8286 449.87C21.8486 450.1 21.8586 450.345 21.8586 450.605V455H23.9886V449.81C23.9886 449.31 23.9186 448.885 23.7786 448.535C23.6386 448.175 23.4436 447.885 23.1936 447.665C22.9436 447.445 22.6436 447.285 22.2936 447.185C21.9436 447.085 21.5636 447.035 21.1536 447.035C20.6136 447.035 20.1436 447.165 19.7436 447.425C19.3536 447.685 19.0436 447.985 18.8136 448.325C18.6036 447.845 18.2936 447.51 17.8836 447.32C17.4836 447.13 17.0386 447.035 16.5486 447.035C16.0386 447.035 15.5836 447.145 15.1836 447.365C14.7936 447.585 14.4586 447.895 14.1786 448.295H14.1486V447.245H12.1386ZM30.8923 450.29H27.4273C27.4373 450.14 27.4673 449.97 27.5173 449.78C27.5773 449.59 27.6723 449.41 27.8023 449.24C27.9423 449.07 28.1223 448.93 28.3423 448.82C28.5723 448.7 28.8573 448.64 29.1973 448.64C29.7173 448.64 30.1023 448.78 30.3523 449.06C30.6123 449.34 30.7923 449.75 30.8923 450.29ZM27.4273 451.64H33.0223C33.0623 451.04 33.0123 450.465 32.8723 449.915C32.7323 449.365 32.5023 448.875 32.1823 448.445C31.8723 448.015 31.4723 447.675 30.9823 447.425C30.4923 447.165 29.9173 447.035 29.2573 447.035C28.6673 447.035 28.1273 447.14 27.6373 447.35C27.1573 447.56 26.7423 447.85 26.3923 448.22C26.0423 448.58 25.7723 449.01 25.5823 449.51C25.3923 450.01 25.2973 450.55 25.2973 451.13C25.2973 451.73 25.3873 452.28 25.5673 452.78C25.7573 453.28 26.0223 453.71 26.3623 454.07C26.7023 454.43 27.1173 454.71 27.6073 454.91C28.0973 455.1 28.6473 455.195 29.2573 455.195C30.1373 455.195 30.8873 454.995 31.5073 454.595C32.1273 454.195 32.5873 453.53 32.8873 452.6H31.0123C30.9423 452.84 30.7523 453.07 30.4423 453.29C30.1323 453.5 29.7623 453.605 29.3323 453.605C28.7323 453.605 28.2723 453.45 27.9523 453.14C27.6323 452.83 27.4573 452.33 27.4273 451.64ZM34.2856 447.245V455H36.4156V451.505C36.4156 451.155 36.4506 450.83 36.5206 450.53C36.5906 450.23 36.7056 449.97 36.8656 449.75C37.0356 449.52 37.2556 449.34 37.5256 449.21C37.7956 449.08 38.1256 449.015 38.5156 449.015C38.6456 449.015 38.7806 449.025 38.9206 449.045C39.0606 449.055 39.1806 449.07 39.2806 449.09V447.11C39.1106 447.06 38.9556 447.035 38.8156 447.035C38.5456 447.035 38.2856 447.075 38.0356 447.155C37.7856 447.235 37.5506 447.35 37.3306 447.5C37.1106 447.64 36.9156 447.815 36.7456 448.025C36.5756 448.225 36.4406 448.445 36.3406 448.685H36.3106V447.245H34.2856ZM42.3057 446.045V444.29H40.1757V446.045H42.3057ZM40.1757 447.245V455H42.3057V447.245H40.1757ZM49.2629 449.975H51.3479C51.3179 449.475 51.1979 449.045 50.9879 448.685C50.7779 448.315 50.5029 448.01 50.1629 447.77C49.8329 447.52 49.4529 447.335 49.0229 447.215C48.6029 447.095 48.1629 447.035 47.7029 447.035C47.0729 447.035 46.5129 447.14 46.0229 447.35C45.5329 447.56 45.1179 447.855 44.7779 448.235C44.4379 448.605 44.1779 449.05 43.9979 449.57C43.8279 450.08 43.7429 450.635 43.7429 451.235C43.7429 451.815 43.8379 452.35 44.0279 452.84C44.2179 453.32 44.4829 453.735 44.8229 454.085C45.1629 454.435 45.5729 454.71 46.0529 454.91C46.5429 455.1 47.0779 455.195 47.6579 455.195C48.6879 455.195 49.5329 454.925 50.1929 454.385C50.8529 453.845 51.2529 453.06 51.3929 452.03H49.3379C49.2679 452.51 49.0929 452.895 48.8129 453.185C48.5429 453.465 48.1529 453.605 47.6429 453.605C47.3129 453.605 47.0329 453.53 46.8029 453.38C46.5729 453.23 46.3879 453.04 46.2479 452.81C46.1179 452.57 46.0229 452.305 45.9629 452.015C45.9029 451.725 45.8729 451.44 45.8729 451.16C45.8729 450.87 45.9029 450.58 45.9629 450.29C46.0229 449.99 46.1229 449.72 46.2629 449.48C46.4129 449.23 46.6029 449.03 46.8329 448.88C47.0629 448.72 47.3479 448.64 47.6879 448.64C48.5979 448.64 49.1229 449.085 49.2629 449.975ZM52.5061 449.63H54.6361C54.6761 449.21 54.8161 448.91 55.0561 448.73C55.2961 448.55 55.6261 448.46 56.0461 448.46C56.2361 448.46 56.4111 448.475 56.5711 448.505C56.7411 448.525 56.8861 448.575 57.0061 448.655C57.1361 448.725 57.2361 448.83 57.3061 448.97C57.3861 449.1 57.4261 449.28 57.4261 449.51C57.4361 449.73 57.3711 449.9 57.2311 450.02C57.0911 450.13 56.9011 450.215 56.6611 450.275C56.4211 450.335 56.1461 450.38 55.8361 450.41C55.5261 450.44 55.2111 450.48 54.8911 450.53C54.5711 450.58 54.2511 450.65 53.9311 450.74C53.6211 450.82 53.3411 450.945 53.0911 451.115C52.8511 451.285 52.6511 451.515 52.4911 451.805C52.3411 452.085 52.2661 452.445 52.2661 452.885C52.2661 453.285 52.3311 453.63 52.4611 453.92C52.6011 454.21 52.7911 454.45 53.0311 454.64C53.2711 454.83 53.5511 454.97 53.8711 455.06C54.1911 455.15 54.5361 455.195 54.9061 455.195C55.3861 455.195 55.8561 455.125 56.3161 454.985C56.7761 454.845 57.1761 454.6 57.5161 454.25C57.5261 454.38 57.5411 454.51 57.5611 454.64C57.5911 454.76 57.6261 454.88 57.6661 455H59.8261C59.7261 454.84 59.6561 454.6 59.6161 454.28C59.5761 453.96 59.5561 453.625 59.5561 453.275V449.24C59.5561 448.77 59.4511 448.395 59.2411 448.115C59.0311 447.825 58.7611 447.6 58.4311 447.44C58.1011 447.28 57.7361 447.175 57.3361 447.125C56.9361 447.065 56.5411 447.035 56.1511 447.035C55.7211 447.035 55.2911 447.08 54.8611 447.17C54.4411 447.25 54.0611 447.39 53.7211 447.59C53.3811 447.79 53.1011 448.055 52.8811 448.385C52.6611 448.715 52.5361 449.13 52.5061 449.63ZM57.4261 451.205V452C57.4261 452.12 57.4111 452.28 57.3811 452.48C57.3611 452.68 57.2961 452.88 57.1861 453.08C57.0761 453.27 56.9061 453.435 56.6761 453.575C56.4461 453.715 56.1211 453.785 55.7011 453.785C55.5311 453.785 55.3661 453.77 55.2061 453.74C55.0461 453.71 54.9061 453.66 54.7861 453.59C54.6661 453.51 54.5711 453.405 54.5011 453.275C54.4311 453.145 54.3961 452.985 54.3961 452.795C54.3961 452.595 54.4311 452.43 54.5011 452.3C54.5711 452.17 54.6611 452.065 54.7711 451.985C54.8911 451.895 55.0261 451.825 55.1761 451.775C55.3361 451.725 55.4961 451.685 55.6561 451.655C55.8261 451.625 55.9961 451.6 56.1661 451.58C56.3361 451.56 56.4961 451.535 56.6461 451.505C56.8061 451.475 56.9511 451.44 57.0811 451.4C57.2211 451.35 57.3361 451.285 57.4261 451.205ZM61.2094 447.245V455H63.3394V450.935C63.3394 450.145 63.4694 449.58 63.7294 449.24C63.9894 448.89 64.4094 448.715 64.9894 448.715C65.4994 448.715 65.8544 448.875 66.0544 449.195C66.2544 449.505 66.3544 449.98 66.3544 450.62V455H68.4844V450.23C68.4844 449.75 68.4394 449.315 68.3494 448.925C68.2694 448.525 68.1244 448.19 67.9144 447.92C67.7044 447.64 67.4144 447.425 67.0444 447.275C66.6844 447.115 66.2194 447.035 65.6494 447.035C65.1994 447.035 64.7594 447.14 64.3294 447.35C63.8994 447.55 63.5494 447.875 63.2794 448.325H63.2344V447.245H61.2094ZM5.02 460.035L0.85 471.24H2.545L6.73 460.035H5.02ZM9.95641 464.625L9.95641 462.12H12.1614C12.3714 462.12 12.5714 462.14 12.7614 462.18C12.9614 462.21 13.1364 462.27 13.2864 462.36C13.4364 462.45 13.5564 462.575 13.6464 462.735C13.7364 462.895 13.7814 463.1 13.7814 463.35C13.7814 463.8 13.6464 464.125 13.3764 464.325C13.1064 464.525 12.7614 464.625 12.3414 464.625H9.95641ZM7.60141 460.29L7.60141 471H12.7914C13.2714 471 13.7364 470.94 14.1864 470.82C14.6464 470.7 15.0514 470.515 15.4014 470.265C15.7614 470.015 16.0464 469.695 16.2564 469.305C16.4664 468.905 16.5714 468.435 16.5714 467.895C16.5714 467.225 16.4064 466.655 16.0764 466.185C15.7564 465.705 15.2664 465.37 14.6064 465.18C15.0864 464.95 15.4464 464.655 15.6864 464.295C15.9364 463.935 16.0614 463.485 16.0614 462.945C16.0614 462.445 15.9764 462.025 15.8064 461.685C15.6464 461.345 15.4164 461.075 15.1164 460.875C14.8164 460.665 14.4564 460.515 14.0364 460.425C13.6164 460.335 13.1514 460.29 12.6414 460.29H7.60141ZM9.95641 469.17V466.23H12.5214C13.0314 466.23 13.4414 466.35 13.7514 466.59C14.0614 466.82 14.2164 467.21 14.2164 467.76C14.2164 468.04 14.1664 468.27 14.0664 468.45C13.9764 468.63 13.8514 468.775 13.6914 468.885C13.5314 468.985 13.3464 469.06 13.1364 469.11C12.9264 469.15 12.7064 469.17 12.4764 469.17H9.95641ZM17.9979 460.29V471H20.1279V460.29H17.9979ZM21.7151 465.63H23.8451C23.8851 465.21 24.0251 464.91 24.2651 464.73C24.5051 464.55 24.8351 464.46 25.2551 464.46C25.4451 464.46 25.6201 464.475 25.7801 464.505C25.9501 464.525 26.0951 464.575 26.2151 464.655C26.3451 464.725 26.4451 464.83 26.5151 464.97C26.5951 465.1 26.6351 465.28 26.6351 465.51C26.6451 465.73 26.5801 465.9 26.4401 466.02C26.3001 466.13 26.1101 466.215 25.8701 466.275C25.6301 466.335 25.3551 466.38 25.0451 466.41C24.7351 466.44 24.4201 466.48 24.1001 466.53C23.7801 466.58 23.4601 466.65 23.1401 466.74C22.8301 466.82 22.5501 466.945 22.3001 467.115C22.0601 467.285 21.8601 467.515 21.7001 467.805C21.5501 468.085 21.4751 468.445 21.4751 468.885C21.4751 469.285 21.5401 469.63 21.6701 469.92C21.8101 470.21 22.0001 470.45 22.2401 470.64C22.4801 470.83 22.7601 470.97 23.0801 471.06C23.4001 471.15 23.7451 471.195 24.1151 471.195C24.5951 471.195 25.0651 471.125 25.5251 470.985C25.9851 470.845 26.3851 470.6 26.7251 470.25C26.7351 470.38 26.7501 470.51 26.7701 470.64C26.8001 470.76 26.8351 470.88 26.8751 471H29.0351C28.9351 470.84 28.8651 470.6 28.8251 470.28C28.7851 469.96 28.7651 469.625 28.7651 469.275V465.24C28.7651 464.77 28.6601 464.395 28.4501 464.115C28.2401 463.825 27.9701 463.6 27.6401 463.44C27.3101 463.28 26.9451 463.175 26.5451 463.125C26.1451 463.065 25.7501 463.035 25.3601 463.035C24.9301 463.035 24.5001 463.08 24.0701 463.17C23.6501 463.25 23.2701 463.39 22.9301 463.59C22.5901 463.79 22.3101 464.055 22.0901 464.385C21.8701 464.715 21.7451 465.13 21.7151 465.63ZM26.6351 467.205V468C26.6351 468.12 26.6201 468.28 26.5901 468.48C26.5701 468.68 26.5051 468.88 26.3951 469.08C26.2851 469.27 26.1151 469.435 25.8851 469.575C25.6551 469.715 25.3301 469.785 24.9101 469.785C24.7401 469.785 24.5751 469.77 24.4151 469.74C24.2551 469.71 24.1151 469.66 23.9951 469.59C23.8751 469.51 23.7801 469.405 23.7101 469.275C23.6401 469.145 23.6051 468.985 23.6051 468.795C23.6051 468.595 23.6401 468.43 23.7101 468.3C23.7801 468.17 23.8701 468.065 23.9801 467.985C24.1001 467.895 24.2351 467.825 24.3851 467.775C24.5451 467.725 24.7051 467.685 24.8651 467.655C25.0351 467.625 25.2051 467.6 25.3751 467.58C25.5451 467.56 25.7051 467.535 25.8551 467.505C26.0151 467.475 26.1601 467.44 26.2901 467.4C26.4301 467.35 26.5451 467.285 26.6351 467.205ZM35.6984 465.975H37.7834C37.7534 465.475 37.6334 465.045 37.4234 464.685C37.2134 464.315 36.9384 464.01 36.5984 463.77C36.2684 463.52 35.8884 463.335 35.4584 463.215C35.0384 463.095 34.5984 463.035 34.1384 463.035C33.5084 463.035 32.9484 463.14 32.4584 463.35C31.9684 463.56 31.5534 463.855 31.2134 464.235C30.8734 464.605 30.6134 465.05 30.4334 465.57C30.2634 466.08 30.1784 466.635 30.1784 467.235C30.1784 467.815 30.2734 468.35 30.4634 468.84C30.6534 469.32 30.9184 469.735 31.2584 470.085C31.5984 470.435 32.0084 470.71 32.4884 470.91C32.9784 471.1 33.5134 471.195 34.0934 471.195C35.1234 471.195 35.9684 470.925 36.6284 470.385C37.2884 469.845 37.6884 469.06 37.8284 468.03H35.7734C35.7034 468.51 35.5284 468.895 35.2484 469.185C34.9784 469.465 34.5884 469.605 34.0784 469.605C33.7484 469.605 33.4684 469.53 33.2384 469.38C33.0084 469.23 32.8234 469.04 32.6834 468.81C32.5534 468.57 32.4584 468.305 32.3984 468.015C32.3384 467.725 32.3084 467.44 32.3084 467.16C32.3084 466.87 32.3384 466.58 32.3984 466.29C32.4584 465.99 32.5584 465.72 32.6984 465.48C32.8484 465.23 33.0384 465.03 33.2684 464.88C33.4984 464.72 33.7834 464.64 34.1234 464.64C35.0334 464.64 35.5584 465.085 35.6984 465.975ZM39.2267 460.29V471H41.3567V468.33L42.1817 467.535L44.3117 471H46.8917L43.6367 466.095L46.5617 463.245H44.0417L41.3567 466.035V460.29H39.2267Z" fill="#222220"/>
<path d="M358.735 434.86L360.13 430.93H360.16L361.51 434.86H358.735ZM358.96 428.29L354.91 439H357.28L358.12 436.615H362.125L362.935 439H365.38L361.375 428.29H358.96ZM367.729 436.48H365.704C365.724 437 365.839 437.435 366.049 437.785C366.269 438.125 366.544 438.4 366.874 438.61C367.214 438.82 367.599 438.97 368.029 439.06C368.459 439.15 368.899 439.195 369.349 439.195C369.789 439.195 370.219 439.15 370.639 439.06C371.069 438.98 371.449 438.835 371.779 438.625C372.109 438.415 372.374 438.14 372.574 437.8C372.784 437.45 372.889 437.02 372.889 436.51C372.889 436.15 372.819 435.85 372.679 435.61C372.539 435.36 372.354 435.155 372.124 434.995C371.894 434.825 371.629 434.69 371.329 434.59C371.039 434.49 370.739 434.405 370.429 434.335C370.129 434.265 369.834 434.2 369.544 434.14C369.254 434.08 368.994 434.015 368.764 433.945C368.544 433.865 368.364 433.765 368.224 433.645C368.084 433.525 368.014 433.37 368.014 433.18C368.014 433.02 368.054 432.895 368.134 432.805C368.214 432.705 368.309 432.63 368.419 432.58C368.539 432.53 368.669 432.5 368.809 432.49C368.949 432.47 369.079 432.46 369.199 432.46C369.579 432.46 369.909 432.535 370.189 432.685C370.469 432.825 370.624 433.1 370.654 433.51H372.679C372.639 433.03 372.514 432.635 372.304 432.325C372.104 432.005 371.849 431.75 371.539 431.56C371.229 431.37 370.874 431.235 370.474 431.155C370.084 431.075 369.679 431.035 369.259 431.035C368.839 431.035 368.429 431.075 368.029 431.155C367.629 431.225 367.269 431.355 366.949 431.545C366.629 431.725 366.369 431.975 366.169 432.295C365.979 432.615 365.884 433.025 365.884 433.525C365.884 433.865 365.954 434.155 366.094 434.395C366.234 434.625 366.419 434.82 366.649 434.98C366.879 435.13 367.139 435.255 367.429 435.355C367.729 435.445 368.034 435.525 368.344 435.595C369.104 435.755 369.694 435.915 370.114 436.075C370.544 436.235 370.759 436.475 370.759 436.795C370.759 436.985 370.714 437.145 370.624 437.275C370.534 437.395 370.419 437.495 370.279 437.575C370.149 437.645 369.999 437.7 369.829 437.74C369.669 437.77 369.514 437.785 369.364 437.785C369.154 437.785 368.949 437.76 368.749 437.71C368.559 437.66 368.389 437.585 368.239 437.485C368.089 437.375 367.964 437.24 367.864 437.08C367.774 436.91 367.729 436.71 367.729 436.48ZM376.325 430.045V428.29H374.195V430.045H376.325ZM374.195 431.245V439H376.325V431.245H374.195ZM377.912 433.63H380.042C380.082 433.21 380.222 432.91 380.462 432.73C380.702 432.55 381.032 432.46 381.452 432.46C381.642 432.46 381.817 432.475 381.977 432.505C382.147 432.525 382.292 432.575 382.412 432.655C382.542 432.725 382.642 432.83 382.712 432.97C382.792 433.1 382.832 433.28 382.832 433.51C382.842 433.73 382.777 433.9 382.637 434.02C382.497 434.13 382.307 434.215 382.067 434.275C381.827 434.335 381.552 434.38 381.242 434.41C380.932 434.44 380.617 434.48 380.297 434.53C379.977 434.58 379.657 434.65 379.337 434.74C379.027 434.82 378.747 434.945 378.497 435.115C378.257 435.285 378.057 435.515 377.897 435.805C377.747 436.085 377.672 436.445 377.672 436.885C377.672 437.285 377.737 437.63 377.867 437.92C378.007 438.21 378.197 438.45 378.437 438.64C378.677 438.83 378.957 438.97 379.277 439.06C379.597 439.15 379.942 439.195 380.312 439.195C380.792 439.195 381.262 439.125 381.722 438.985C382.182 438.845 382.582 438.6 382.922 438.25C382.932 438.38 382.947 438.51 382.967 438.64C382.997 438.76 383.032 438.88 383.072 439H385.232C385.132 438.84 385.062 438.6 385.022 438.28C384.982 437.96 384.962 437.625 384.962 437.275V433.24C384.962 432.77 384.857 432.395 384.647 432.115C384.437 431.825 384.167 431.6 383.837 431.44C383.507 431.28 383.142 431.175 382.742 431.125C382.342 431.065 381.947 431.035 381.557 431.035C381.127 431.035 380.697 431.08 380.267 431.17C379.847 431.25 379.467 431.39 379.127 431.59C378.787 431.79 378.507 432.055 378.287 432.385C378.067 432.715 377.942 433.13 377.912 433.63ZM382.832 435.205V436C382.832 436.12 382.817 436.28 382.787 436.48C382.767 436.68 382.702 436.88 382.592 437.08C382.482 437.27 382.312 437.435 382.082 437.575C381.852 437.715 381.527 437.785 381.107 437.785C380.937 437.785 380.772 437.77 380.612 437.74C380.452 437.71 380.312 437.66 380.192 437.59C380.072 437.51 379.977 437.405 379.907 437.275C379.837 437.145 379.802 436.985 379.802 436.795C379.802 436.595 379.837 436.43 379.907 436.3C379.977 436.17 380.067 436.065 380.177 435.985C380.297 435.895 380.432 435.825 380.582 435.775C380.742 435.725 380.902 435.685 381.062 435.655C381.232 435.625 381.402 435.6 381.572 435.58C381.742 435.56 381.902 435.535 382.052 435.505C382.212 435.475 382.357 435.44 382.487 435.4C382.627 435.35 382.742 435.285 382.832 435.205ZM386.616 431.245V439H388.746V434.935C388.746 434.145 388.876 433.58 389.136 433.24C389.396 432.89 389.816 432.715 390.396 432.715C390.906 432.715 391.261 432.875 391.461 433.195C391.661 433.505 391.761 433.98 391.761 434.62V439H393.891V434.23C393.891 433.75 393.846 433.315 393.756 432.925C393.676 432.525 393.531 432.19 393.321 431.92C393.111 431.64 392.821 431.425 392.451 431.275C392.091 431.115 391.626 431.035 391.056 431.035C390.606 431.035 390.166 431.14 389.736 431.35C389.306 431.55 388.956 431.875 388.686 432.325H388.641V431.245H386.616Z" fill="#222220"/>
<path d="M544.235 439L547.115 428.29H544.805L543.05 435.67H543.02L541.19 428.29H538.985L537.125 435.58H537.095L535.4 428.29H533.045L535.88 439H538.265L540.05 431.71H540.08L541.895 439H544.235ZM547.975 428.29V439H550.105V434.935C550.105 434.145 550.235 433.58 550.495 433.24C550.755 432.89 551.175 432.715 551.755 432.715C552.265 432.715 552.62 432.875 552.82 433.195C553.02 433.505 553.12 433.98 553.12 434.62V439H555.25V434.23C555.25 433.75 555.205 433.315 555.115 432.925C555.035 432.525 554.89 432.19 554.68 431.92C554.47 431.64 554.18 431.425 553.81 431.275C553.45 431.115 552.985 431.035 552.415 431.035C552.015 431.035 551.605 431.14 551.185 431.35C550.765 431.55 550.42 431.875 550.15 432.325H550.105V428.29H547.975ZM559.057 430.045V428.29H556.927V430.045H559.057ZM556.927 431.245V439H559.057V431.245H556.927ZM563.434 431.245V428.92H561.304V431.245H560.014V432.67H561.304V437.245C561.304 437.635 561.369 437.95 561.499 438.19C561.629 438.43 561.804 438.615 562.024 438.745C562.254 438.875 562.514 438.96 562.804 439C563.104 439.05 563.419 439.075 563.749 439.075C563.959 439.075 564.174 439.07 564.394 439.06C564.614 439.05 564.814 439.03 564.994 439V437.35C564.894 437.37 564.789 437.385 564.679 437.395C564.569 437.405 564.454 437.41 564.334 437.41C563.974 437.41 563.734 437.35 563.614 437.23C563.494 437.11 563.434 436.87 563.434 436.51V432.67H564.994V431.245H563.434ZM571.227 434.29H567.762C567.772 434.14 567.802 433.97 567.852 433.78C567.912 433.59 568.007 433.41 568.137 433.24C568.277 433.07 568.457 432.93 568.677 432.82C568.907 432.7 569.192 432.64 569.532 432.64C570.052 432.64 570.437 432.78 570.687 433.06C570.947 433.34 571.127 433.75 571.227 434.29ZM567.762 435.64H573.357C573.397 435.04 573.347 434.465 573.207 433.915C573.067 433.365 572.837 432.875 572.517 432.445C572.207 432.015 571.807 431.675 571.317 431.425C570.827 431.165 570.252 431.035 569.592 431.035C569.002 431.035 568.462 431.14 567.972 431.35C567.492 431.56 567.077 431.85 566.727 432.22C566.377 432.58 566.107 433.01 565.917 433.51C565.727 434.01 565.632 434.55 565.632 435.13C565.632 435.73 565.722 436.28 565.902 436.78C566.092 437.28 566.357 437.71 566.697 438.07C567.037 438.43 567.452 438.71 567.942 438.91C568.432 439.1 568.982 439.195 569.592 439.195C570.472 439.195 571.222 438.995 571.842 438.595C572.462 438.195 572.922 437.53 573.222 436.6H571.347C571.277 436.84 571.087 437.07 570.777 437.29C570.467 437.5 570.097 437.605 569.667 437.605C569.067 437.605 568.607 437.45 568.287 437.14C567.967 436.83 567.792 436.33 567.762 435.64Z" fill="#222220"/>
<path d="M179.035 428.29V439H181.39V434.38H185.725V439H188.08V428.29H185.725V432.4H181.39V428.29H179.035ZM192.118 430.045V428.29H189.988V430.045H192.118ZM189.988 431.245V439H192.118V431.245H189.988ZM195.445 436.48H193.42C193.44 437 193.555 437.435 193.765 437.785C193.985 438.125 194.26 438.4 194.59 438.61C194.93 438.82 195.315 438.97 195.745 439.06C196.175 439.15 196.615 439.195 197.065 439.195C197.505 439.195 197.935 439.15 198.355 439.06C198.785 438.98 199.165 438.835 199.495 438.625C199.825 438.415 200.09 438.14 200.29 437.8C200.5 437.45 200.605 437.02 200.605 436.51C200.605 436.15 200.535 435.85 200.395 435.61C200.255 435.36 200.07 435.155 199.84 434.995C199.61 434.825 199.345 434.69 199.045 434.59C198.755 434.49 198.455 434.405 198.145 434.335C197.845 434.265 197.55 434.2 197.26 434.14C196.97 434.08 196.71 434.015 196.48 433.945C196.26 433.865 196.08 433.765 195.94 433.645C195.8 433.525 195.73 433.37 195.73 433.18C195.73 433.02 195.77 432.895 195.85 432.805C195.93 432.705 196.025 432.63 196.135 432.58C196.255 432.53 196.385 432.5 196.525 432.49C196.665 432.47 196.795 432.46 196.915 432.46C197.295 432.46 197.625 432.535 197.905 432.685C198.185 432.825 198.34 433.1 198.37 433.51H200.395C200.355 433.03 200.23 432.635 200.02 432.325C199.82 432.005 199.565 431.75 199.255 431.56C198.945 431.37 198.59 431.235 198.19 431.155C197.8 431.075 197.395 431.035 196.975 431.035C196.555 431.035 196.145 431.075 195.745 431.155C195.345 431.225 194.985 431.355 194.665 431.545C194.345 431.725 194.085 431.975 193.885 432.295C193.695 432.615 193.6 433.025 193.6 433.525C193.6 433.865 193.67 434.155 193.81 434.395C193.95 434.625 194.135 434.82 194.365 434.98C194.595 435.13 194.855 435.255 195.145 435.355C195.445 435.445 195.75 435.525 196.06 435.595C196.82 435.755 197.41 435.915 197.83 436.075C198.26 436.235 198.475 436.475 198.475 436.795C198.475 436.985 198.43 437.145 198.34 437.275C198.25 437.395 198.135 437.495 197.995 437.575C197.865 437.645 197.715 437.7 197.545 437.74C197.385 437.77 197.23 437.785 197.08 437.785C196.87 437.785 196.665 437.76 196.465 437.71C196.275 437.66 196.105 437.585 195.955 437.485C195.805 437.375 195.68 437.24 195.58 437.08C195.49 436.91 195.445 436.71 195.445 436.48ZM205.767 437.605C205.427 437.605 205.137 437.535 204.897 437.395C204.657 437.255 204.462 437.075 204.312 436.855C204.172 436.625 204.067 436.36 203.997 436.06C203.937 435.76 203.907 435.455 203.907 435.145C203.907 434.825 203.937 434.515 203.997 434.215C204.057 433.915 204.157 433.65 204.297 433.42C204.447 433.19 204.637 433.005 204.867 432.865C205.107 432.715 205.402 432.64 205.752 432.64C206.092 432.64 206.377 432.715 206.607 432.865C206.847 433.005 207.042 433.195 207.192 433.435C207.342 433.665 207.447 433.93 207.507 434.23C207.577 434.53 207.612 434.835 207.612 435.145C207.612 435.455 207.582 435.76 207.522 436.06C207.462 436.36 207.357 436.625 207.207 436.855C207.067 437.075 206.877 437.255 206.637 437.395C206.407 437.535 206.117 437.605 205.767 437.605ZM201.852 431.245V441.715H203.982V438.04H204.012C204.272 438.42 204.602 438.71 205.002 438.91C205.412 439.1 205.857 439.195 206.337 439.195C206.907 439.195 207.402 439.085 207.822 438.865C208.252 438.645 208.607 438.35 208.887 437.98C209.177 437.61 209.392 437.185 209.532 436.705C209.672 436.225 209.742 435.725 209.742 435.205C209.742 434.655 209.672 434.13 209.532 433.63C209.392 433.12 209.177 432.675 208.887 432.295C208.597 431.915 208.232 431.61 207.792 431.38C207.352 431.15 206.827 431.035 206.217 431.035C205.737 431.035 205.297 431.13 204.897 431.32C204.497 431.51 204.167 431.815 203.907 432.235H203.877V431.245H201.852ZM210.932 433.63H213.062C213.102 433.21 213.242 432.91 213.482 432.73C213.722 432.55 214.052 432.46 214.472 432.46C214.662 432.46 214.837 432.475 214.997 432.505C215.167 432.525 215.312 432.575 215.432 432.655C215.562 432.725 215.662 432.83 215.732 432.97C215.812 433.1 215.852 433.28 215.852 433.51C215.862 433.73 215.797 433.9 215.657 434.02C215.517 434.13 215.327 434.215 215.087 434.275C214.847 434.335 214.572 434.38 214.262 434.41C213.952 434.44 213.637 434.48 213.317 434.53C212.997 434.58 212.677 434.65 212.357 434.74C212.047 434.82 211.767 434.945 211.517 435.115C211.277 435.285 211.077 435.515 210.917 435.805C210.767 436.085 210.692 436.445 210.692 436.885C210.692 437.285 210.757 437.63 210.887 437.92C211.027 438.21 211.217 438.45 211.457 438.64C211.697 438.83 211.977 438.97 212.297 439.06C212.617 439.15 212.962 439.195 213.332 439.195C213.812 439.195 214.282 439.125 214.742 438.985C215.202 438.845 215.602 438.6 215.942 438.25C215.952 438.38 215.967 438.51 215.987 438.64C216.017 438.76 216.052 438.88 216.092 439H218.252C218.152 438.84 218.082 438.6 218.042 438.28C218.002 437.96 217.982 437.625 217.982 437.275V433.24C217.982 432.77 217.877 432.395 217.667 432.115C217.457 431.825 217.187 431.6 216.857 431.44C216.527 431.28 216.162 431.175 215.762 431.125C215.362 431.065 214.967 431.035 214.577 431.035C214.147 431.035 213.717 431.08 213.287 431.17C212.867 431.25 212.487 431.39 212.147 431.59C211.807 431.79 211.527 432.055 211.307 432.385C211.087 432.715 210.962 433.13 210.932 433.63ZM215.852 435.205V436C215.852 436.12 215.837 436.28 215.807 436.48C215.787 436.68 215.722 436.88 215.612 437.08C215.502 437.27 215.332 437.435 215.102 437.575C214.872 437.715 214.547 437.785 214.127 437.785C213.957 437.785 213.792 437.77 213.632 437.74C213.472 437.71 213.332 437.66 213.212 437.59C213.092 437.51 212.997 437.405 212.927 437.275C212.857 437.145 212.822 436.985 212.822 436.795C212.822 436.595 212.857 436.43 212.927 436.3C212.997 436.17 213.087 436.065 213.197 435.985C213.317 435.895 213.452 435.825 213.602 435.775C213.762 435.725 213.922 435.685 214.082 435.655C214.252 435.625 214.422 435.6 214.592 435.58C214.762 435.56 214.922 435.535 215.072 435.505C215.232 435.475 215.377 435.44 215.507 435.4C215.647 435.35 215.762 435.285 215.852 435.205ZM219.635 431.245V439H221.765V434.935C221.765 434.145 221.895 433.58 222.155 433.24C222.415 432.89 222.835 432.715 223.415 432.715C223.925 432.715 224.28 432.875 224.48 433.195C224.68 433.505 224.78 433.98 224.78 434.62V439H226.91V434.23C226.91 433.75 226.865 433.315 226.775 432.925C226.695 432.525 226.55 432.19 226.34 431.92C226.13 431.64 225.84 431.425 225.47 431.275C225.11 431.115 224.645 431.035 224.075 431.035C223.625 431.035 223.185 431.14 222.755 431.35C222.325 431.55 221.975 431.875 221.705 432.325H221.66V431.245H219.635ZM230.717 430.045V428.29H228.587V430.045H230.717ZM228.587 431.245V439H230.717V431.245H228.587ZM237.674 433.975H239.759C239.729 433.475 239.609 433.045 239.399 432.685C239.189 432.315 238.914 432.01 238.574 431.77C238.244 431.52 237.864 431.335 237.434 431.215C237.014 431.095 236.574 431.035 236.114 431.035C235.484 431.035 234.924 431.14 234.434 431.35C233.944 431.56 233.529 431.855 233.189 432.235C232.849 432.605 232.589 433.05 232.409 433.57C232.239 434.08 232.154 434.635 232.154 435.235C232.154 435.815 232.249 436.35 232.439 436.84C232.629 437.32 232.894 437.735 233.234 438.085C233.574 438.435 233.984 438.71 234.464 438.91C234.954 439.1 235.489 439.195 236.069 439.195C237.099 439.195 237.944 438.925 238.604 438.385C239.264 437.845 239.664 437.06 239.804 436.03H237.749C237.679 436.51 237.504 436.895 237.224 437.185C236.954 437.465 236.564 437.605 236.054 437.605C235.724 437.605 235.444 437.53 235.214 437.38C234.984 437.23 234.799 437.04 234.659 436.81C234.529 436.57 234.434 436.305 234.374 436.015C234.314 435.725 234.284 435.44 234.284 435.16C234.284 434.87 234.314 434.58 234.374 434.29C234.434 433.99 234.534 433.72 234.674 433.48C234.824 433.23 235.014 433.03 235.244 432.88C235.474 432.72 235.759 432.64 236.099 432.64C237.009 432.64 237.534 433.085 237.674 433.975ZM182.02 444.035L177.85 455.24H179.545L183.73 444.035H182.02ZM184.601 444.29V455H192.176V453.02H186.956V444.29H184.601ZM193.178 449.63H195.308C195.348 449.21 195.488 448.91 195.728 448.73C195.968 448.55 196.298 448.46 196.718 448.46C196.908 448.46 197.083 448.475 197.243 448.505C197.413 448.525 197.558 448.575 197.678 448.655C197.808 448.725 197.908 448.83 197.978 448.97C198.058 449.1 198.098 449.28 198.098 449.51C198.108 449.73 198.043 449.9 197.903 450.02C197.763 450.13 197.573 450.215 197.333 450.275C197.093 450.335 196.818 450.38 196.508 450.41C196.198 450.44 195.883 450.48 195.563 450.53C195.243 450.58 194.923 450.65 194.603 450.74C194.293 450.82 194.013 450.945 193.763 451.115C193.523 451.285 193.323 451.515 193.163 451.805C193.013 452.085 192.938 452.445 192.938 452.885C192.938 453.285 193.003 453.63 193.133 453.92C193.273 454.21 193.463 454.45 193.703 454.64C193.943 454.83 194.223 454.97 194.543 455.06C194.863 455.15 195.208 455.195 195.578 455.195C196.058 455.195 196.528 455.125 196.988 454.985C197.448 454.845 197.848 454.6 198.188 454.25C198.198 454.38 198.213 454.51 198.233 454.64C198.263 454.76 198.298 454.88 198.338 455H200.498C200.398 454.84 200.328 454.6 200.288 454.28C200.248 453.96 200.228 453.625 200.228 453.275V449.24C200.228 448.77 200.123 448.395 199.913 448.115C199.703 447.825 199.433 447.6 199.103 447.44C198.773 447.28 198.408 447.175 198.008 447.125C197.608 447.065 197.213 447.035 196.823 447.035C196.393 447.035 195.963 447.08 195.533 447.17C195.113 447.25 194.733 447.39 194.393 447.59C194.053 447.79 193.773 448.055 193.553 448.385C193.333 448.715 193.208 449.13 193.178 449.63ZM198.098 451.205V452C198.098 452.12 198.083 452.28 198.053 452.48C198.033 452.68 197.968 452.88 197.858 453.08C197.748 453.27 197.578 453.435 197.348 453.575C197.118 453.715 196.793 453.785 196.373 453.785C196.203 453.785 196.038 453.77 195.878 453.74C195.718 453.71 195.578 453.66 195.458 453.59C195.338 453.51 195.243 453.405 195.173 453.275C195.103 453.145 195.068 452.985 195.068 452.795C195.068 452.595 195.103 452.43 195.173 452.3C195.243 452.17 195.333 452.065 195.443 451.985C195.563 451.895 195.698 451.825 195.848 451.775C196.008 451.725 196.168 451.685 196.328 451.655C196.498 451.625 196.668 451.6 196.838 451.58C197.008 451.56 197.168 451.535 197.318 451.505C197.478 451.475 197.623 451.44 197.753 451.4C197.893 451.35 198.008 451.285 198.098 451.205ZM204.581 447.245V444.92H202.451V447.245H201.161V448.67H202.451V453.245C202.451 453.635 202.516 453.95 202.646 454.19C202.776 454.43 202.951 454.615 203.171 454.745C203.401 454.875 203.661 454.96 203.951 455C204.251 455.05 204.566 455.075 204.896 455.075C205.106 455.075 205.321 455.07 205.541 455.06C205.761 455.05 205.961 455.03 206.141 455V453.35C206.041 453.37 205.936 453.385 205.826 453.395C205.716 453.405 205.601 453.41 205.481 453.41C205.121 453.41 204.881 453.35 204.761 453.23C204.641 453.11 204.581 452.87 204.581 452.51V448.67H206.141V447.245H204.581ZM209.345 446.045V444.29H207.215V446.045H209.345ZM207.215 447.245V455H209.345V447.245H207.215ZM211.022 447.245V455H213.152V450.935C213.152 450.145 213.282 449.58 213.542 449.24C213.802 448.89 214.222 448.715 214.802 448.715C215.312 448.715 215.667 448.875 215.867 449.195C216.067 449.505 216.167 449.98 216.167 450.62V455H218.297V450.23C218.297 449.75 218.252 449.315 218.162 448.925C218.082 448.525 217.937 448.19 217.727 447.92C217.517 447.64 217.227 447.425 216.857 447.275C216.497 447.115 216.032 447.035 215.462 447.035C215.012 447.035 214.572 447.14 214.142 447.35C213.712 447.55 213.362 447.875 213.092 448.325H213.047V447.245H211.022ZM221.804 451.13C221.804 450.82 221.834 450.515 221.894 450.215C221.954 449.915 222.054 449.65 222.194 449.42C222.344 449.19 222.539 449.005 222.779 448.865C223.019 448.715 223.319 448.64 223.679 448.64C224.039 448.64 224.339 448.715 224.579 448.865C224.829 449.005 225.024 449.19 225.164 449.42C225.314 449.65 225.419 449.915 225.479 450.215C225.539 450.515 225.569 450.82 225.569 451.13C225.569 451.44 225.539 451.745 225.479 452.045C225.419 452.335 225.314 452.6 225.164 452.84C225.024 453.07 224.829 453.255 224.579 453.395C224.339 453.535 224.039 453.605 223.679 453.605C223.319 453.605 223.019 453.535 222.779 453.395C222.539 453.255 222.344 453.07 222.194 452.84C222.054 452.6 221.954 452.335 221.894 452.045C221.834 451.745 221.804 451.44 221.804 451.13ZM219.674 451.13C219.674 451.75 219.769 452.31 219.959 452.81C220.149 453.31 220.419 453.74 220.769 454.1C221.119 454.45 221.539 454.72 222.029 454.91C222.519 455.1 223.069 455.195 223.679 455.195C224.289 455.195 224.839 455.1 225.329 454.91C225.829 454.72 226.254 454.45 226.604 454.1C226.954 453.74 227.224 453.31 227.414 452.81C227.604 452.31 227.699 451.75 227.699 451.13C227.699 450.51 227.604 449.95 227.414 449.45C227.224 448.94 226.954 448.51 226.604 448.16C226.254 447.8 225.829 447.525 225.329 447.335C224.839 447.135 224.289 447.035 223.679 447.035C223.069 447.035 222.519 447.135 222.029 447.335C221.539 447.525 221.119 447.8 220.769 448.16C220.419 448.51 220.149 448.94 219.959 449.45C219.769 449.95 219.674 450.51 219.674 451.13Z" fill="#222220"/>
<path d="M238 362H178V401.001H238V362Z" fill="#222220"/>
<path d="M415 303H355V401.001H415V303Z" fill="#222220"/>
<path d="M593 128H533V401.001H593V128Z" fill="#222220"/>
<line x1="178.5" y1="363" x2="178.5" y2="318" stroke="#222220"/>
<line x1="355.5" y1="303" x2="355.5" y2="258" stroke="#222220"/>
<line x1="533.5" y1="130" x2="533.5" y2="85" stroke="#222220"/>
<path d="M71.5 401L71.5 342.5" stroke="#222220"/>
<path d="M248.5 402L248.5 328" stroke="#222220"/>
<path d="M426.5 400L426.5 332" stroke="#222220"/>
<path d="M603.5 401L603.5 0" stroke="#222220"/>
<g clip-path="url(#clip0)">
<path d="M72 421L131 401" stroke="black"/>
<path d="M72 414L131 394" stroke="black"/>
<path d="M72 407L131 387" stroke="black"/>
<path d="M72 400L131 380" stroke="black"/>
<path d="M72 393L131 373" stroke="black"/>
</g>
<g clip-path="url(#clip1)">
<path d="M248 421L307 401" stroke="black"/>
<path d="M248 414L307 394" stroke="black"/>
<path d="M248 407L307 387" stroke="black"/>
<path d="M248 400L307 380" stroke="black"/>
<path d="M248 393L307 373" stroke="black"/>
<path d="M248 386L307 366" stroke="black"/>
<path d="M248 379L307 359" stroke="black"/>
</g>
<g clip-path="url(#clip2)">
<path d="M427 420L486 400" stroke="black"/>
<path d="M427 413L486 393" stroke="black"/>
<path d="M427 406L486 386" stroke="black"/>
<path d="M427 399L486 379" stroke="black"/>
<path d="M427 392L486 372" stroke="black"/>
<path d="M427 385L486 365" stroke="black"/>
</g>
<g clip-path="url(#clip3)">
<path d="M604 415L663 395" stroke="black"/>
<path d="M604 408L663 388" stroke="black"/>
<path d="M604 401L663 381" stroke="black"/>
<path d="M604 394L663 374" stroke="black"/>
<path d="M604 387L663 367" stroke="black"/>
<path d="M604 380L663 360" stroke="black"/>
<path d="M604 373L663 353" stroke="black"/>
<path d="M604 366L663 346" stroke="black"/>
<path d="M604 359L663 339" stroke="black"/>
<path d="M604 352L663 332" stroke="black"/>
<path d="M604 345L663 325" stroke="black"/>
<path d="M604 338L663 318" stroke="black"/>
<path d="M604 331L663 311" stroke="black"/>
<path d="M604 324L663 304" stroke="black"/>
<path d="M604 317L663 297" stroke="black"/>
<path d="M604 310L663 290" stroke="black"/>
<path d="M604 303L663 283" stroke="black"/>
<path d="M604 296L663 276" stroke="black"/>
<path d="M604 289L663 269" stroke="black"/>
<path d="M604 282L663 262" stroke="black"/>
<path d="M604 275L663 255" stroke="black"/>
<path d="M604 268L663 248" stroke="black"/>
<path d="M604 261L663 241" stroke="black"/>
<path d="M604 254L663 234" stroke="black"/>
<path d="M604 247L663 227" stroke="black"/>
<path d="M604 240L663 220" stroke="black"/>
<path d="M604 233L663 213" stroke="black"/>
<path d="M604 226L663 206" stroke="black"/>
<path d="M604 219L663 199" stroke="black"/>
<path d="M604 212L663 192" stroke="black"/>
<path d="M604 205L663 185" stroke="black"/>
<path d="M604 198L663 178" stroke="black"/>
<path d="M604 191L663 171" stroke="black"/>
<path d="M604 184L663 164" stroke="black"/>
<path d="M604 177L663 157" stroke="black"/>
<path d="M604 170L663 150" stroke="black"/>
<path d="M604 163L663 143" stroke="black"/>
<path d="M604 156L663 136" stroke="black"/>
<path d="M604 149L663 129" stroke="black"/>
<path d="M604 142L663 122" stroke="black"/>
<path d="M604 135L663 115" stroke="black"/>
<path d="M604 128L663 108" stroke="black"/>
<path d="M604 121L663 101" stroke="black"/>
<path d="M604 114L663 94" stroke="black"/>
<path d="M604 107L663 87" stroke="black"/>
<path d="M604 100L663 80" stroke="black"/>
<path d="M604 93L663 73" stroke="black"/>
<path d="M604 86L663 66" stroke="black"/>
<path d="M604 79L663 59" stroke="black"/>
<path d="M604 72L663 52" stroke="black"/>
<path d="M604 65L663 45" stroke="black"/>
<path d="M604 58L663 38" stroke="black"/>
<path d="M604 51L663 31" stroke="black"/>
</g>
<defs>
<clipPath id="clip0">
<rect width="59" height="14" fill="white" transform="translate(72 387)"/>
</clipPath>
<clipPath id="clip1">
<rect width="59" height="28" fill="white" transform="translate(248 373)"/>
</clipPath>
<clipPath id="clip2">
<rect width="59" height="22" fill="white" transform="translate(427 379)"/>
</clipPath>
<clipPath id="clip3">
<rect width="59" height="356" fill="white" transform="translate(604 45)"/>
</clipPath>
</defs>
</svg>
