<svg width="579" height="570" viewBox="0 0 579 570" fill="none" xmlns="http://www.w3.org/2000/svg">
<path d="M241.925 285.69C241.925 285.22 241.975 284.765 242.075 284.325C242.185 283.885 242.355 283.495 242.585 283.155C242.815 282.805 243.115 282.53 243.485 282.33C243.855 282.12 244.305 282.015 244.835 282.015C245.365 282.015 245.815 282.12 246.185 282.33C246.555 282.53 246.855 282.805 247.085 283.155C247.315 283.495 247.48 283.885 247.58 284.325C247.69 284.765 247.745 285.22 247.745 285.69C247.745 286.14 247.69 286.58 247.58 287.01C247.48 287.43 247.315 287.81 247.085 288.15C246.855 288.49 246.555 288.765 246.185 288.975C245.815 289.175 245.365 289.275 244.835 289.275C244.305 289.275 243.855 289.175 243.485 288.975C243.115 288.765 242.815 288.49 242.585 288.15C242.355 287.81 242.185 287.43 242.075 287.01C241.975 286.58 241.925 286.14 241.925 285.69ZM239.57 285.69C239.57 286.47 239.69 287.2 239.93 287.88C240.17 288.55 240.515 289.135 240.965 289.635C241.415 290.135 241.965 290.53 242.615 290.82C243.275 291.1 244.015 291.24 244.835 291.24C245.665 291.24 246.405 291.1 247.055 290.82C247.705 290.53 248.255 290.135 248.705 289.635C249.155 289.135 249.5 288.55 249.74 287.88C249.98 287.2 250.1 286.47 250.1 285.69C250.1 284.89 249.98 284.15 249.74 283.47C249.5 282.78 249.155 282.18 248.705 281.67C248.255 281.16 247.705 280.76 247.055 280.47C246.405 280.18 245.665 280.035 244.835 280.035C244.015 280.035 243.275 280.18 242.615 280.47C241.965 280.76 241.415 281.16 240.965 281.67C240.515 282.18 240.17 282.78 239.93 283.47C239.69 284.15 239.57 284.89 239.57 285.69ZM261.91 291L264.79 280.29H262.48L260.725 287.67H260.695L258.865 280.29H256.66L254.8 287.58H254.77L253.075 280.29H250.72L253.555 291H255.94L257.725 283.71H257.755L259.57 291H261.91ZM265.875 280.29V291H268.08V283.83H268.11L272.565 291H274.92V280.29H272.715V287.475H272.685L268.215 280.29H265.875ZM276.993 280.29V291H285.123V289.02H279.348V286.395H284.538V284.565H279.348V282.27H285.003V280.29H276.993ZM289.075 285.135V282.12H291.655C292.195 282.12 292.6 282.24 292.87 282.48C293.14 282.71 293.275 283.085 293.275 283.605C293.275 284.145 293.14 284.535 292.87 284.775C292.6 285.015 292.195 285.135 291.655 285.135H289.075ZM286.72 280.29V291H289.075V286.815H291.43C292.02 286.815 292.445 286.945 292.705 287.205C292.965 287.465 293.135 287.875 293.215 288.435C293.275 288.865 293.32 289.315 293.35 289.785C293.38 290.255 293.46 290.66 293.59 291H295.945C295.835 290.85 295.75 290.67 295.69 290.46C295.64 290.24 295.6 290.01 295.57 289.77C295.55 289.53 295.535 289.295 295.525 289.065C295.515 288.835 295.505 288.635 295.495 288.465C295.475 288.195 295.435 287.925 295.375 287.655C295.325 287.385 295.24 287.14 295.12 286.92C295 286.69 294.845 286.495 294.655 286.335C294.465 286.165 294.225 286.04 293.935 285.96V285.93C294.535 285.69 294.965 285.34 295.225 284.88C295.495 284.42 295.63 283.875 295.63 283.245C295.63 282.835 295.555 282.455 295.405 282.105C295.265 281.745 295.055 281.43 294.775 281.16C294.505 280.89 294.175 280.68 293.785 280.53C293.405 280.37 292.975 280.29 292.495 280.29H286.72ZM299.15 287.445H296.87C296.86 288.105 296.98 288.675 297.23 289.155C297.48 289.635 297.815 290.03 298.235 290.34C298.665 290.65 299.155 290.875 299.705 291.015C300.265 291.165 300.84 291.24 301.43 291.24C302.16 291.24 302.8 291.155 303.35 290.985C303.91 290.815 304.375 290.58 304.745 290.28C305.125 289.97 305.41 289.605 305.6 289.185C305.79 288.765 305.885 288.31 305.885 287.82C305.885 287.22 305.755 286.73 305.495 286.35C305.245 285.96 304.945 285.65 304.595 285.42C304.245 285.19 303.89 285.025 303.53 284.925C303.18 284.815 302.905 284.74 302.705 284.7C302.035 284.53 301.49 284.39 301.07 284.28C300.66 284.17 300.335 284.06 300.095 283.95C299.865 283.84 299.71 283.72 299.63 283.59C299.55 283.46 299.51 283.29 299.51 283.08C299.51 282.85 299.56 282.66 299.66 282.51C299.76 282.36 299.885 282.235 300.035 282.135C300.195 282.035 300.37 281.965 300.56 281.925C300.75 281.885 300.94 281.865 301.13 281.865C301.42 281.865 301.685 281.89 301.925 281.94C302.175 281.99 302.395 282.075 302.585 282.195C302.775 282.315 302.925 282.48 303.035 282.69C303.155 282.9 303.225 283.165 303.245 283.485H305.525C305.525 282.865 305.405 282.34 305.165 281.91C304.935 281.47 304.62 281.11 304.22 280.83C303.82 280.55 303.36 280.35 302.84 280.23C302.33 280.1 301.795 280.035 301.235 280.035C300.755 280.035 300.275 280.1 299.795 280.23C299.315 280.36 298.885 280.56 298.505 280.83C298.125 281.1 297.815 281.44 297.575 281.85C297.345 282.25 297.23 282.725 297.23 283.275C297.23 283.765 297.32 284.185 297.5 284.535C297.69 284.875 297.935 285.16 298.235 285.39C298.535 285.62 298.875 285.81 299.255 285.96C299.635 286.1 300.025 286.22 300.425 286.32C300.815 286.43 301.2 286.53 301.58 286.62C301.96 286.71 302.3 286.815 302.6 286.935C302.9 287.055 303.14 287.205 303.32 287.385C303.51 287.565 303.605 287.8 303.605 288.09C303.605 288.36 303.535 288.585 303.395 288.765C303.255 288.935 303.08 289.07 302.87 289.17C302.66 289.27 302.435 289.34 302.195 289.38C301.955 289.41 301.73 289.425 301.52 289.425C301.21 289.425 300.91 289.39 300.62 289.32C300.33 289.24 300.075 289.125 299.855 288.975C299.645 288.815 299.475 288.61 299.345 288.36C299.215 288.11 299.15 287.805 299.15 287.445ZM307.286 280.29V291H309.641V286.38H313.976V291H316.331V280.29H313.976V284.4H309.641V280.29H307.286ZM318.404 280.29V291H320.759V280.29H318.404ZM325.183 285.33V282.12H327.013C327.283 282.12 327.543 282.14 327.793 282.18C328.043 282.22 328.263 282.3 328.453 282.42C328.643 282.53 328.793 282.69 328.903 282.9C329.023 283.11 329.083 283.385 329.083 283.725C329.083 284.065 329.023 284.34 328.903 284.55C328.793 284.76 328.643 284.925 328.453 285.045C328.263 285.155 328.043 285.23 327.793 285.27C327.543 285.31 327.283 285.33 327.013 285.33H325.183ZM322.828 280.29V291H325.183V287.16H327.658C328.328 287.16 328.898 287.065 329.368 286.875C329.838 286.675 330.218 286.415 330.508 286.095C330.808 285.775 331.023 285.41 331.153 285C331.293 284.58 331.363 284.155 331.363 283.725C331.363 283.285 331.293 282.86 331.153 282.45C331.023 282.04 330.808 281.675 330.508 281.355C330.218 281.035 329.838 280.78 329.368 280.59C328.898 280.39 328.328 280.29 327.658 280.29H322.828Z" fill="#222220"/>
<path opacity="0.2" d="M552 285C552 137.54 432.46 18 285 18C137.54 18 18 137.54 18 285C18 432.46 137.54 552 285 552C357.389 552 423.05 523.192 471.144 476.415" stroke="#232320" stroke-width="36"/>
<path d="M512.362 285C512.362 159.431 410.569 57.6367 285 57.6367C159.431 57.6367 57.6367 159.431 57.6367 285C57.6367 410.569 159.431 512.362 285 512.362C317.357 512.362 348.135 505.603 376 493.42" stroke="#232320" stroke-width="36"/>
<path opacity="0.2" d="M472.725 285C472.725 181.321 388.677 97.2738 284.999 97.2738C181.321 97.2738 97.2734 181.321 97.2734 285C97.2734 374.951 160.539 450.125 245 468.455" stroke="#232320" stroke-width="36"/>
<path opacity="0.2" d="M561.78 133.665C561.428 133.665 561.12 133.607 560.856 133.489C560.592 133.357 560.372 133.181 560.196 132.961C560.02 132.741 559.888 132.492 559.8 132.213C559.697 131.92 559.646 131.619 559.646 131.311C559.646 130.827 559.719 130.439 559.866 130.145C560.013 129.837 560.196 129.603 560.416 129.441C560.636 129.265 560.871 129.148 561.12 129.089C561.355 129.031 561.575 129.001 561.78 129.001C562.44 129.001 562.946 129.221 563.298 129.661C563.635 130.101 563.804 130.651 563.804 131.311C563.804 131.942 563.635 132.492 563.298 132.961C562.946 133.431 562.44 133.665 561.78 133.665ZM561.494 136.503C562.257 136.503 562.924 136.313 563.496 135.931C564.068 135.55 564.457 134.985 564.662 134.237L564.706 134.237C564.926 135.161 565.366 135.88 566.026 136.393C566.686 136.892 567.507 137.141 568.49 137.141C569.326 137.141 570.045 136.98 570.646 136.657C571.247 136.32 571.746 135.88 572.142 135.337C572.538 134.78 572.824 134.157 573 133.467C573.191 132.763 573.286 132.037 573.286 131.289C573.286 130.571 573.191 129.867 573 129.177C572.795 128.488 572.494 127.872 572.098 127.329C571.702 126.787 571.203 126.354 570.602 126.031C570.001 125.694 569.289 125.525 568.468 125.525C567.5 125.525 566.686 125.775 566.026 126.273C565.351 126.772 564.911 127.483 564.706 128.407L564.662 128.407C564.413 127.659 564.002 127.102 563.43 126.735C562.858 126.354 562.191 126.163 561.428 126.163C561.047 126.163 560.621 126.251 560.152 126.427C559.668 126.603 559.221 126.897 558.81 127.307C558.385 127.703 558.025 128.231 557.732 128.891C557.439 129.551 557.292 130.358 557.292 131.311C557.292 131.942 557.38 132.565 557.556 133.181C557.732 133.797 557.996 134.355 558.348 134.853C558.7 135.337 559.14 135.733 559.668 136.041C560.196 136.349 560.805 136.503 561.494 136.503ZM568.336 134.017C567.544 134.017 566.943 133.753 566.532 133.225C566.107 132.697 565.894 132.052 565.894 131.289C565.894 130.923 565.953 130.585 566.07 130.277C566.187 129.955 566.356 129.676 566.576 129.441C566.796 129.192 567.06 129.001 567.368 128.869C567.661 128.723 567.991 128.649 568.358 128.649C568.739 128.649 569.091 128.715 569.414 128.847C569.737 128.979 570.015 129.17 570.25 129.419C570.47 129.654 570.646 129.933 570.778 130.255C570.895 130.563 570.954 130.908 570.954 131.289C570.954 131.656 570.895 132.008 570.778 132.345C570.646 132.683 570.47 132.976 570.25 133.225C570.015 133.46 569.737 133.651 569.414 133.797C569.091 133.944 568.732 134.017 568.336 134.017ZM560.174 114.225L557.6 114.225L557.6 122.827L566.114 124.345L566.114 121.529C565.689 121.221 565.381 120.891 565.19 120.539C564.985 120.187 564.882 119.732 564.882 119.175C564.882 118.749 564.955 118.375 565.102 118.053C565.249 117.73 565.454 117.451 565.718 117.217C565.982 116.982 566.29 116.806 566.642 116.689C566.994 116.571 567.368 116.513 567.764 116.513C568.145 116.513 568.519 116.579 568.886 116.711C569.238 116.828 569.553 117.004 569.832 117.239C570.096 117.459 570.316 117.737 570.492 118.075C570.653 118.397 570.734 118.764 570.734 119.175C570.734 119.879 570.529 120.458 570.118 120.913C569.693 121.367 569.128 121.631 568.424 121.705L568.424 124.829C569.231 124.814 569.942 124.653 570.558 124.345C571.159 124.022 571.665 123.597 572.076 123.069C572.487 122.541 572.795 121.939 573 121.265C573.191 120.575 573.286 119.857 573.286 119.109C573.301 118.331 573.176 117.598 572.912 116.909C572.633 116.219 572.245 115.618 571.746 115.105C571.247 114.577 570.661 114.159 569.986 113.851C569.297 113.543 568.556 113.389 567.764 113.389C567.045 113.389 566.371 113.499 565.74 113.719C565.095 113.924 564.537 114.232 564.068 114.643C563.599 115.039 563.225 115.53 562.946 116.117C562.667 116.703 562.528 117.378 562.528 118.141C562.528 118.757 562.623 119.307 562.814 119.791C562.99 120.275 563.291 120.729 563.716 121.155L563.672 121.199L560.174 120.583L560.174 114.225ZM568.996 97.754C568.747 97.754 568.468 97.7467 568.16 97.732C567.852 97.7027 567.566 97.6367 567.302 97.534C567.038 97.4313 566.818 97.2847 566.642 97.094C566.466 96.8887 566.378 96.61 566.378 96.258C566.378 95.9353 566.481 95.686 566.686 95.51C566.877 95.3193 567.111 95.18 567.39 95.092C567.654 95.004 567.94 94.9527 568.248 94.938C568.541 94.9087 568.798 94.894 569.018 94.894C569.253 94.894 569.524 94.9087 569.832 94.938C570.125 94.9527 570.411 95.0113 570.69 95.114C570.954 95.202 571.181 95.3487 571.372 95.554C571.563 95.7447 571.658 96.0087 571.658 96.346C571.658 96.698 571.563 96.9693 571.372 97.16C571.181 97.3507 570.954 97.49 570.69 97.578C570.411 97.666 570.118 97.7173 569.81 97.732C569.502 97.7467 569.231 97.754 568.996 97.754ZM568.974 99.998C569.575 99.998 570.14 99.9393 570.668 99.822C571.196 99.69 571.658 99.4847 572.054 99.206C572.435 98.9127 572.736 98.5387 572.956 98.084C573.176 97.6147 573.286 97.0427 573.286 96.368C573.286 95.7227 573.183 95.1653 572.978 94.696C572.758 94.2267 572.457 93.8453 572.076 93.552C571.695 93.244 571.247 93.0167 570.734 92.87C570.221 92.7233 569.663 92.65 569.062 92.65C568.461 92.65 567.896 92.7087 567.368 92.826C566.84 92.9433 566.385 93.1487 566.004 93.442C565.608 93.7207 565.3 94.0873 565.08 94.542C564.845 94.9967 564.728 95.5687 564.728 96.258C564.728 96.9033 564.838 97.4607 565.058 97.93C565.278 98.3993 565.579 98.788 565.96 99.096C566.341 99.404 566.789 99.6313 567.302 99.778C567.815 99.9247 568.373 99.998 568.974 99.998ZM557.116 98.304L573.462 107.412L573.462 105.498L557.116 96.434L557.116 98.304ZM561.692 109.106C561.443 109.106 561.157 109.099 560.834 109.084C560.511 109.055 560.211 108.989 559.932 108.886C559.653 108.783 559.419 108.637 559.228 108.446C559.037 108.241 558.942 107.962 558.942 107.61C558.942 107.287 559.045 107.038 559.25 106.862C559.455 106.671 559.705 106.532 559.998 106.444C560.291 106.356 560.599 106.305 560.922 106.29C561.23 106.261 561.494 106.246 561.714 106.246C561.949 106.246 562.213 106.261 562.506 106.29C562.785 106.305 563.056 106.363 563.32 106.466C563.569 106.554 563.782 106.701 563.958 106.906C564.134 107.097 564.222 107.361 564.222 107.698C564.222 108.05 564.134 108.321 563.958 108.512C563.782 108.703 563.569 108.842 563.32 108.93C563.056 109.018 562.777 109.069 562.484 109.084C562.191 109.099 561.927 109.106 561.692 109.106ZM561.648 111.35C562.249 111.35 562.814 111.291 563.342 111.174C563.855 111.042 564.303 110.837 564.684 110.558C565.051 110.265 565.344 109.891 565.564 109.436C565.769 108.967 565.872 108.395 565.872 107.72C565.872 107.075 565.769 106.517 565.564 106.048C565.359 105.579 565.073 105.197 564.706 104.904C564.339 104.596 563.907 104.369 563.408 104.222C562.895 104.075 562.337 104.002 561.736 104.002C561.135 104.002 560.563 104.061 560.02 104.178C559.477 104.295 559.008 104.501 558.612 104.794C558.201 105.073 557.879 105.439 557.644 105.894C557.409 106.349 557.292 106.921 557.292 107.61C557.292 108.255 557.409 108.813 557.644 109.282C557.864 109.751 558.172 110.14 558.568 110.448C558.964 110.756 559.426 110.983 559.954 111.13C560.482 111.277 561.047 111.35 561.648 111.35Z" fill="#222220"/>
<path d="M507.78 351.665C507.428 351.665 507.12 351.607 506.856 351.489C506.592 351.357 506.372 351.181 506.196 350.961C506.02 350.741 505.888 350.492 505.8 350.213C505.697 349.92 505.646 349.619 505.646 349.311C505.646 348.827 505.719 348.439 505.866 348.145C506.013 347.837 506.196 347.603 506.416 347.441C506.636 347.265 506.871 347.148 507.12 347.089C507.355 347.031 507.575 347.001 507.78 347.001C508.44 347.001 508.946 347.221 509.298 347.661C509.635 348.101 509.804 348.651 509.804 349.311C509.804 349.942 509.635 350.492 509.298 350.961C508.946 351.431 508.44 351.665 507.78 351.665ZM507.494 354.503C508.257 354.503 508.924 354.313 509.496 353.931C510.068 353.55 510.457 352.985 510.662 352.237L510.706 352.237C510.926 353.161 511.366 353.88 512.026 354.393C512.686 354.892 513.507 355.141 514.49 355.141C515.326 355.141 516.045 354.98 516.646 354.657C517.247 354.32 517.746 353.88 518.142 353.337C518.538 352.78 518.824 352.157 519 351.467C519.191 350.763 519.286 350.037 519.286 349.289C519.286 348.571 519.191 347.867 519 347.177C518.795 346.488 518.494 345.872 518.098 345.329C517.702 344.787 517.203 344.354 516.602 344.031C516.001 343.694 515.289 343.525 514.468 343.525C513.5 343.525 512.686 343.775 512.026 344.273C511.351 344.772 510.911 345.483 510.706 346.407L510.662 346.407C510.413 345.659 510.002 345.102 509.43 344.735C508.858 344.354 508.191 344.163 507.428 344.163C507.047 344.163 506.621 344.251 506.152 344.427C505.668 344.603 505.221 344.897 504.81 345.307C504.385 345.703 504.025 346.231 503.732 346.891C503.439 347.551 503.292 348.358 503.292 349.311C503.292 349.942 503.38 350.565 503.556 351.181C503.732 351.797 503.996 352.355 504.348 352.853C504.7 353.337 505.14 353.733 505.668 354.041C506.196 354.349 506.805 354.503 507.494 354.503ZM514.336 352.017C513.544 352.017 512.943 351.753 512.532 351.225C512.107 350.697 511.894 350.052 511.894 349.289C511.894 348.923 511.953 348.585 512.07 348.277C512.187 347.955 512.356 347.676 512.576 347.441C512.796 347.192 513.06 347.001 513.368 346.869C513.661 346.723 513.991 346.649 514.358 346.649C514.739 346.649 515.091 346.715 515.414 346.847C515.737 346.979 516.015 347.17 516.25 347.419C516.47 347.654 516.646 347.933 516.778 348.255C516.895 348.563 516.954 348.908 516.954 349.289C516.954 349.656 516.895 350.008 516.778 350.345C516.646 350.683 516.47 350.976 516.25 351.225C516.015 351.46 515.737 351.651 515.414 351.797C515.091 351.944 514.732 352.017 514.336 352.017ZM511.234 339.639C510.97 339.639 510.655 339.639 510.288 339.639C509.907 339.624 509.518 339.595 509.122 339.551C508.726 339.507 508.337 339.433 507.956 339.331C507.56 339.228 507.208 339.089 506.9 338.913C506.592 338.722 506.343 338.487 506.152 338.209C505.961 337.915 505.866 337.556 505.866 337.131C505.866 336.705 505.961 336.346 506.152 336.053C506.343 335.759 506.592 335.517 506.9 335.327C507.208 335.136 507.56 334.997 507.956 334.909C508.337 334.806 508.726 334.733 509.122 334.689C509.518 334.63 509.907 334.601 510.288 334.601C510.655 334.586 510.97 334.579 511.234 334.579C511.674 334.579 512.209 334.593 512.84 334.623C513.456 334.652 514.057 334.747 514.644 334.909C515.216 335.055 515.707 335.305 516.118 335.657C516.529 335.994 516.734 336.485 516.734 337.131C516.734 337.761 516.529 338.245 516.118 338.583C515.707 338.92 515.216 339.169 514.644 339.331C514.057 339.477 513.456 339.565 512.84 339.595C512.209 339.624 511.674 339.639 511.234 339.639ZM511.234 342.763C512.774 342.763 514.065 342.616 515.106 342.323C516.133 342.015 516.954 341.604 517.57 341.091C518.186 340.577 518.626 339.983 518.89 339.309C519.154 338.619 519.286 337.893 519.286 337.131C519.286 336.353 519.154 335.627 518.89 334.953C518.626 334.263 518.186 333.662 517.57 333.149C516.954 332.621 516.133 332.21 515.106 331.917C514.065 331.609 512.774 331.455 511.234 331.455C509.738 331.455 508.484 331.609 507.472 331.917C506.445 332.21 505.624 332.621 505.008 333.149C504.392 333.662 503.952 334.263 503.688 334.953C503.424 335.627 503.292 336.353 503.292 337.131C503.292 337.893 503.424 338.619 503.688 339.309C503.952 339.983 504.392 340.577 505.008 341.091C505.624 341.604 506.445 342.015 507.472 342.323C508.484 342.616 509.738 342.763 511.234 342.763ZM514.996 315.754C514.747 315.754 514.468 315.747 514.16 315.732C513.852 315.703 513.566 315.637 513.302 315.534C513.038 315.431 512.818 315.285 512.642 315.094C512.466 314.889 512.378 314.61 512.378 314.258C512.378 313.935 512.481 313.686 512.686 313.51C512.877 313.319 513.111 313.18 513.39 313.092C513.654 313.004 513.94 312.953 514.248 312.938C514.541 312.909 514.798 312.894 515.018 312.894C515.253 312.894 515.524 312.909 515.832 312.938C516.125 312.953 516.411 313.011 516.69 313.114C516.954 313.202 517.181 313.349 517.372 313.554C517.563 313.745 517.658 314.009 517.658 314.346C517.658 314.698 517.563 314.969 517.372 315.16C517.181 315.351 516.954 315.49 516.69 315.578C516.411 315.666 516.118 315.717 515.81 315.732C515.502 315.747 515.231 315.754 514.996 315.754ZM514.974 317.998C515.575 317.998 516.14 317.939 516.668 317.822C517.196 317.69 517.658 317.485 518.054 317.206C518.435 316.913 518.736 316.539 518.956 316.084C519.176 315.615 519.286 315.043 519.286 314.368C519.286 313.723 519.183 313.165 518.978 312.696C518.758 312.227 518.457 311.845 518.076 311.552C517.695 311.244 517.247 311.017 516.734 310.87C516.221 310.723 515.663 310.65 515.062 310.65C514.461 310.65 513.896 310.709 513.368 310.826C512.84 310.943 512.385 311.149 512.004 311.442C511.608 311.721 511.3 312.087 511.08 312.542C510.845 312.997 510.728 313.569 510.728 314.258C510.728 314.903 510.838 315.461 511.058 315.93C511.278 316.399 511.579 316.788 511.96 317.096C512.341 317.404 512.789 317.631 513.302 317.778C513.815 317.925 514.373 317.998 514.974 317.998ZM503.116 316.304L519.462 325.412L519.462 323.498L503.116 314.434L503.116 316.304ZM507.692 327.106C507.443 327.106 507.157 327.099 506.834 327.084C506.511 327.055 506.211 326.989 505.932 326.886C505.653 326.783 505.419 326.637 505.228 326.446C505.037 326.241 504.942 325.962 504.942 325.61C504.942 325.287 505.045 325.038 505.25 324.862C505.455 324.671 505.705 324.532 505.998 324.444C506.291 324.356 506.599 324.305 506.922 324.29C507.23 324.261 507.494 324.246 507.714 324.246C507.949 324.246 508.213 324.261 508.506 324.29C508.785 324.305 509.056 324.363 509.32 324.466C509.569 324.554 509.782 324.701 509.958 324.906C510.134 325.097 510.222 325.361 510.222 325.698C510.222 326.05 510.134 326.321 509.958 326.512C509.782 326.703 509.569 326.842 509.32 326.93C509.056 327.018 508.777 327.069 508.484 327.084C508.191 327.099 507.927 327.106 507.692 327.106ZM507.648 329.35C508.249 329.35 508.814 329.291 509.342 329.174C509.855 329.042 510.303 328.837 510.684 328.558C511.051 328.265 511.344 327.891 511.564 327.436C511.769 326.967 511.872 326.395 511.872 325.72C511.872 325.075 511.769 324.517 511.564 324.048C511.359 323.579 511.073 323.197 510.706 322.904C510.339 322.596 509.907 322.369 509.408 322.222C508.895 322.075 508.337 322.002 507.736 322.002C507.135 322.002 506.563 322.061 506.02 322.178C505.477 322.295 505.008 322.501 504.612 322.794C504.201 323.073 503.879 323.439 503.644 323.894C503.409 324.349 503.292 324.921 503.292 325.61C503.292 326.255 503.409 326.813 503.644 327.282C503.864 327.751 504.172 328.14 504.568 328.448C504.964 328.756 505.426 328.983 505.954 329.13C506.482 329.277 507.047 329.35 507.648 329.35Z" fill="#222220"/>
<path opacity="0.2" d="M472.014 349.157C472.014 348.761 472.102 348.417 472.278 348.123C472.439 347.815 472.659 347.566 472.938 347.375C473.202 347.185 473.51 347.045 473.862 346.957C474.199 346.855 474.551 346.803 474.918 346.803C475.27 346.803 475.615 346.855 475.952 346.957C476.289 347.06 476.59 347.214 476.854 347.419C477.118 347.625 477.331 347.874 477.492 348.167C477.653 348.446 477.734 348.776 477.734 349.157C477.734 349.553 477.653 349.905 477.492 350.213C477.331 350.521 477.118 350.785 476.854 351.005C476.575 351.211 476.267 351.372 475.93 351.489C475.578 351.592 475.226 351.643 474.874 351.643C474.493 351.643 474.133 351.592 473.796 351.489C473.444 351.387 473.136 351.233 472.872 351.027C472.608 350.822 472.403 350.565 472.256 350.257C472.095 349.935 472.014 349.568 472.014 349.157ZM468.56 346.913L468.56 343.943C467.871 344.031 467.262 344.215 466.734 344.493C466.206 344.772 465.766 345.131 465.414 345.571C465.047 346.011 464.769 346.517 464.578 347.089C464.387 347.661 464.292 348.277 464.292 348.937C464.292 350.037 464.534 350.969 465.018 351.731C465.502 352.494 466.133 353.117 466.91 353.601C467.673 354.085 468.531 354.437 469.484 354.657C470.437 354.877 471.391 354.987 472.344 354.987C473.327 354.987 474.295 354.899 475.248 354.723C476.187 354.547 477.03 354.232 477.778 353.777C478.526 353.323 479.135 352.714 479.604 351.951C480.059 351.189 480.286 350.228 480.286 349.069C480.286 348.263 480.147 347.529 479.868 346.869C479.575 346.209 479.179 345.645 478.68 345.175C478.167 344.691 477.573 344.325 476.898 344.075C476.209 343.811 475.468 343.679 474.676 343.679C474.06 343.679 473.451 343.775 472.85 343.965C472.249 344.156 471.713 344.457 471.244 344.867C470.76 345.307 470.379 345.843 470.1 346.473C469.807 347.104 469.66 347.749 469.66 348.409C469.66 349.157 469.792 349.817 470.056 350.389C470.32 350.961 470.76 351.46 471.376 351.885L471.332 351.929C470.907 351.915 470.423 351.856 469.88 351.753C469.337 351.651 468.831 351.489 468.362 351.269C467.878 351.049 467.475 350.756 467.152 350.389C466.815 350.008 466.646 349.539 466.646 348.981C466.646 348.439 466.837 347.984 467.218 347.617C467.599 347.251 468.047 347.016 468.56 346.913ZM467.284 331.851L464.6 331.851L464.6 342.367L467.504 342.367L467.504 335.063C469.279 336.529 471.229 337.717 473.356 338.627C475.483 339.521 477.697 340.057 480 340.233L480 336.889C478.973 336.874 477.866 336.757 476.678 336.537C475.49 336.302 474.317 335.979 473.158 335.569C471.999 335.143 470.907 334.623 469.88 334.007C468.853 333.376 467.988 332.657 467.284 331.851ZM475.996 315.754C475.747 315.754 475.468 315.747 475.16 315.732C474.852 315.703 474.566 315.637 474.302 315.534C474.038 315.431 473.818 315.285 473.642 315.094C473.466 314.889 473.378 314.61 473.378 314.258C473.378 313.935 473.481 313.686 473.686 313.51C473.877 313.319 474.111 313.18 474.39 313.092C474.654 313.004 474.94 312.953 475.248 312.938C475.541 312.909 475.798 312.894 476.018 312.894C476.253 312.894 476.524 312.909 476.832 312.938C477.125 312.953 477.411 313.011 477.69 313.114C477.954 313.202 478.181 313.349 478.372 313.554C478.563 313.745 478.658 314.009 478.658 314.346C478.658 314.698 478.563 314.969 478.372 315.16C478.181 315.351 477.954 315.49 477.69 315.578C477.411 315.666 477.118 315.717 476.81 315.732C476.502 315.747 476.231 315.754 475.996 315.754ZM475.974 317.998C476.575 317.998 477.14 317.939 477.668 317.822C478.196 317.69 478.658 317.485 479.054 317.206C479.435 316.913 479.736 316.539 479.956 316.084C480.176 315.615 480.286 315.043 480.286 314.368C480.286 313.723 480.183 313.165 479.978 312.696C479.758 312.227 479.457 311.845 479.076 311.552C478.695 311.244 478.247 311.017 477.734 310.87C477.221 310.723 476.663 310.65 476.062 310.65C475.461 310.65 474.896 310.709 474.368 310.826C473.84 310.943 473.385 311.149 473.004 311.442C472.608 311.721 472.3 312.087 472.08 312.542C471.845 312.997 471.728 313.569 471.728 314.258C471.728 314.903 471.838 315.461 472.058 315.93C472.278 316.399 472.579 316.788 472.96 317.096C473.341 317.404 473.789 317.631 474.302 317.778C474.815 317.925 475.373 317.998 475.974 317.998ZM464.116 316.304L480.462 325.412L480.462 323.498L464.116 314.434L464.116 316.304ZM468.692 327.106C468.443 327.106 468.157 327.099 467.834 327.084C467.511 327.055 467.211 326.989 466.932 326.886C466.653 326.783 466.419 326.637 466.228 326.446C466.037 326.241 465.942 325.962 465.942 325.61C465.942 325.287 466.045 325.038 466.25 324.862C466.455 324.671 466.705 324.532 466.998 324.444C467.291 324.356 467.599 324.305 467.922 324.29C468.23 324.261 468.494 324.246 468.714 324.246C468.949 324.246 469.213 324.261 469.506 324.29C469.785 324.305 470.056 324.363 470.32 324.466C470.569 324.554 470.782 324.701 470.958 324.906C471.134 325.097 471.222 325.361 471.222 325.698C471.222 326.05 471.134 326.321 470.958 326.512C470.782 326.703 470.569 326.842 470.32 326.93C470.056 327.018 469.777 327.069 469.484 327.084C469.191 327.099 468.927 327.106 468.692 327.106ZM468.648 329.35C469.249 329.35 469.814 329.291 470.342 329.174C470.855 329.042 471.303 328.837 471.684 328.558C472.051 328.265 472.344 327.891 472.564 327.436C472.769 326.967 472.872 326.395 472.872 325.72C472.872 325.075 472.769 324.517 472.564 324.048C472.359 323.579 472.073 323.197 471.706 322.904C471.339 322.596 470.907 322.369 470.408 322.222C469.895 322.075 469.337 322.002 468.736 322.002C468.135 322.002 467.563 322.061 467.02 322.178C466.477 322.295 466.008 322.501 465.612 322.794C465.201 323.073 464.879 323.439 464.644 323.894C464.409 324.349 464.292 324.921 464.292 325.61C464.292 326.255 464.409 326.813 464.644 327.282C464.864 327.751 465.172 328.14 465.568 328.448C465.964 328.756 466.426 328.983 466.954 329.13C467.482 329.277 468.047 329.35 468.648 329.35Z" fill="#222220"/>
</svg>
