<svg width="570" height="570" viewBox="0 0 570 570" fill="none" xmlns="http://www.w3.org/2000/svg">
<path opacity="0.2" d="M547.78 354.665C547.428 354.665 547.12 354.607 546.856 354.489C546.592 354.357 546.372 354.181 546.196 353.961C546.02 353.741 545.888 353.492 545.8 353.213C545.697 352.92 545.646 352.619 545.646 352.311C545.646 351.827 545.719 351.439 545.866 351.145C546.013 350.837 546.196 350.603 546.416 350.441C546.636 350.265 546.871 350.148 547.12 350.089C547.355 350.031 547.575 350.001 547.78 350.001C548.44 350.001 548.946 350.221 549.298 350.661C549.635 351.101 549.804 351.651 549.804 352.311C549.804 352.942 549.635 353.492 549.298 353.961C548.946 354.431 548.44 354.665 547.78 354.665ZM547.494 357.503C548.257 357.503 548.924 357.313 549.496 356.931C550.068 356.55 550.457 355.985 550.662 355.237L550.706 355.237C550.926 356.161 551.366 356.88 552.026 357.393C552.686 357.892 553.507 358.141 554.49 358.141C555.326 358.141 556.045 357.98 556.646 357.657C557.247 357.32 557.746 356.88 558.142 356.337C558.538 355.78 558.824 355.157 559 354.467C559.191 353.763 559.286 353.037 559.286 352.289C559.286 351.571 559.191 350.867 559 350.177C558.795 349.488 558.494 348.872 558.098 348.329C557.702 347.787 557.203 347.354 556.602 347.031C556.001 346.694 555.289 346.525 554.468 346.525C553.5 346.525 552.686 346.775 552.026 347.273C551.351 347.772 550.911 348.483 550.706 349.407L550.662 349.407C550.413 348.659 550.002 348.102 549.43 347.735C548.858 347.354 548.191 347.163 547.428 347.163C547.047 347.163 546.621 347.251 546.152 347.427C545.668 347.603 545.221 347.897 544.81 348.307C544.385 348.703 544.025 349.231 543.732 349.891C543.439 350.551 543.292 351.358 543.292 352.311C543.292 352.942 543.38 353.565 543.556 354.181C543.732 354.797 543.996 355.355 544.348 355.853C544.7 356.337 545.14 356.733 545.668 357.041C546.196 357.349 546.805 357.503 547.494 357.503ZM554.336 355.017C553.544 355.017 552.943 354.753 552.532 354.225C552.107 353.697 551.894 353.052 551.894 352.289C551.894 351.923 551.953 351.585 552.07 351.277C552.187 350.955 552.356 350.676 552.576 350.441C552.796 350.192 553.06 350.001 553.368 349.869C553.661 349.723 553.991 349.649 554.358 349.649C554.739 349.649 555.091 349.715 555.414 349.847C555.737 349.979 556.015 350.17 556.25 350.419C556.47 350.654 556.646 350.933 556.778 351.255C556.895 351.563 556.954 351.908 556.954 352.289C556.954 352.656 556.895 353.008 556.778 353.345C556.646 353.683 556.47 353.976 556.25 354.225C556.015 354.46 555.737 354.651 555.414 354.797C555.091 354.944 554.732 355.017 554.336 355.017ZM546.174 335.225L543.6 335.225L543.6 343.827L552.114 345.345L552.114 342.529C551.689 342.221 551.381 341.891 551.19 341.539C550.985 341.187 550.882 340.732 550.882 340.175C550.882 339.749 550.955 339.375 551.102 339.053C551.249 338.73 551.454 338.451 551.718 338.217C551.982 337.982 552.29 337.806 552.642 337.689C552.994 337.571 553.368 337.513 553.764 337.513C554.145 337.513 554.519 337.579 554.886 337.711C555.238 337.828 555.553 338.004 555.832 338.239C556.096 338.459 556.316 338.737 556.492 339.075C556.653 339.397 556.734 339.764 556.734 340.175C556.734 340.879 556.529 341.458 556.118 341.913C555.693 342.367 555.128 342.631 554.424 342.705L554.424 345.829C555.231 345.814 555.942 345.653 556.558 345.345C557.159 345.022 557.665 344.597 558.076 344.069C558.487 343.541 558.795 342.939 559 342.265C559.191 341.575 559.286 340.857 559.286 340.109C559.301 339.331 559.176 338.598 558.912 337.909C558.633 337.219 558.245 336.618 557.746 336.105C557.247 335.577 556.661 335.159 555.986 334.851C555.297 334.543 554.556 334.389 553.764 334.389C553.045 334.389 552.371 334.499 551.74 334.719C551.095 334.924 550.537 335.232 550.068 335.643C549.599 336.039 549.225 336.53 548.946 337.117C548.667 337.703 548.528 338.378 548.528 339.141C548.528 339.757 548.623 340.307 548.814 340.791C548.99 341.275 549.291 341.729 549.716 342.155L549.672 342.199L546.174 341.583L546.174 335.225ZM554.996 318.754C554.747 318.754 554.468 318.747 554.16 318.732C553.852 318.703 553.566 318.637 553.302 318.534C553.038 318.431 552.818 318.285 552.642 318.094C552.466 317.889 552.378 317.61 552.378 317.258C552.378 316.935 552.481 316.686 552.686 316.51C552.877 316.319 553.111 316.18 553.39 316.092C553.654 316.004 553.94 315.953 554.248 315.938C554.541 315.909 554.798 315.894 555.018 315.894C555.253 315.894 555.524 315.909 555.832 315.938C556.125 315.953 556.411 316.011 556.69 316.114C556.954 316.202 557.181 316.349 557.372 316.554C557.563 316.745 557.658 317.009 557.658 317.346C557.658 317.698 557.563 317.969 557.372 318.16C557.181 318.351 556.954 318.49 556.69 318.578C556.411 318.666 556.118 318.717 555.81 318.732C555.502 318.747 555.231 318.754 554.996 318.754ZM554.974 320.998C555.575 320.998 556.14 320.939 556.668 320.822C557.196 320.69 557.658 320.485 558.054 320.206C558.435 319.913 558.736 319.539 558.956 319.084C559.176 318.615 559.286 318.043 559.286 317.368C559.286 316.723 559.183 316.165 558.978 315.696C558.758 315.227 558.457 314.845 558.076 314.552C557.695 314.244 557.247 314.017 556.734 313.87C556.221 313.723 555.663 313.65 555.062 313.65C554.461 313.65 553.896 313.709 553.368 313.826C552.84 313.943 552.385 314.149 552.004 314.442C551.608 314.721 551.3 315.087 551.08 315.542C550.845 315.997 550.728 316.569 550.728 317.258C550.728 317.903 550.838 318.461 551.058 318.93C551.278 319.399 551.579 319.788 551.96 320.096C552.341 320.404 552.789 320.631 553.302 320.778C553.815 320.925 554.373 320.998 554.974 320.998ZM543.116 319.304L559.462 328.412L559.462 326.498L543.116 317.434L543.116 319.304ZM547.692 330.106C547.443 330.106 547.157 330.099 546.834 330.084C546.511 330.055 546.211 329.989 545.932 329.886C545.653 329.783 545.419 329.637 545.228 329.446C545.037 329.241 544.942 328.962 544.942 328.61C544.942 328.287 545.045 328.038 545.25 327.862C545.455 327.671 545.705 327.532 545.998 327.444C546.291 327.356 546.599 327.305 546.922 327.29C547.23 327.261 547.494 327.246 547.714 327.246C547.949 327.246 548.213 327.261 548.506 327.29C548.785 327.305 549.056 327.363 549.32 327.466C549.569 327.554 549.782 327.701 549.958 327.906C550.134 328.097 550.222 328.361 550.222 328.698C550.222 329.05 550.134 329.321 549.958 329.512C549.782 329.703 549.569 329.842 549.32 329.93C549.056 330.018 548.777 330.069 548.484 330.084C548.191 330.099 547.927 330.106 547.692 330.106ZM547.648 332.35C548.249 332.35 548.814 332.291 549.342 332.174C549.855 332.042 550.303 331.837 550.684 331.558C551.051 331.265 551.344 330.891 551.564 330.436C551.769 329.967 551.872 329.395 551.872 328.72C551.872 328.075 551.769 327.517 551.564 327.048C551.359 326.579 551.073 326.197 550.706 325.904C550.339 325.596 549.907 325.369 549.408 325.222C548.895 325.075 548.337 325.002 547.736 325.002C547.135 325.002 546.563 325.061 546.02 325.178C545.477 325.295 545.008 325.501 544.612 325.794C544.201 326.073 543.879 326.439 543.644 326.894C543.409 327.349 543.292 327.921 543.292 328.61C543.292 329.255 543.409 329.813 543.644 330.282C543.864 330.751 544.172 331.14 544.568 331.448C544.964 331.756 545.426 331.983 545.954 332.13C546.482 332.277 547.047 332.35 547.648 332.35Z" fill="#222220"/>
<path d="M507.78 354.665C507.428 354.665 507.12 354.607 506.856 354.489C506.592 354.357 506.372 354.181 506.196 353.961C506.02 353.741 505.888 353.492 505.8 353.213C505.697 352.92 505.646 352.619 505.646 352.311C505.646 351.827 505.719 351.439 505.866 351.145C506.013 350.837 506.196 350.603 506.416 350.441C506.636 350.265 506.871 350.148 507.12 350.089C507.355 350.031 507.575 350.001 507.78 350.001C508.44 350.001 508.946 350.221 509.298 350.661C509.635 351.101 509.804 351.651 509.804 352.311C509.804 352.942 509.635 353.492 509.298 353.961C508.946 354.431 508.44 354.665 507.78 354.665ZM507.494 357.503C508.257 357.503 508.924 357.313 509.496 356.931C510.068 356.55 510.457 355.985 510.662 355.237L510.706 355.237C510.926 356.161 511.366 356.88 512.026 357.393C512.686 357.892 513.507 358.141 514.49 358.141C515.326 358.141 516.045 357.98 516.646 357.657C517.247 357.32 517.746 356.88 518.142 356.337C518.538 355.78 518.824 355.157 519 354.467C519.191 353.763 519.286 353.037 519.286 352.289C519.286 351.571 519.191 350.867 519 350.177C518.795 349.488 518.494 348.872 518.098 348.329C517.702 347.787 517.203 347.354 516.602 347.031C516.001 346.694 515.289 346.525 514.468 346.525C513.5 346.525 512.686 346.775 512.026 347.273C511.351 347.772 510.911 348.483 510.706 349.407L510.662 349.407C510.413 348.659 510.002 348.102 509.43 347.735C508.858 347.354 508.191 347.163 507.428 347.163C507.047 347.163 506.621 347.251 506.152 347.427C505.668 347.603 505.221 347.897 504.81 348.307C504.385 348.703 504.025 349.231 503.732 349.891C503.439 350.551 503.292 351.358 503.292 352.311C503.292 352.942 503.38 353.565 503.556 354.181C503.732 354.797 503.996 355.355 504.348 355.853C504.7 356.337 505.14 356.733 505.668 357.041C506.196 357.349 506.805 357.503 507.494 357.503ZM514.336 355.017C513.544 355.017 512.943 354.753 512.532 354.225C512.107 353.697 511.894 353.052 511.894 352.289C511.894 351.923 511.953 351.585 512.07 351.277C512.187 350.955 512.356 350.676 512.576 350.441C512.796 350.192 513.06 350.001 513.368 349.869C513.661 349.723 513.991 349.649 514.358 349.649C514.739 349.649 515.091 349.715 515.414 349.847C515.737 349.979 516.015 350.17 516.25 350.419C516.47 350.654 516.646 350.933 516.778 351.255C516.895 351.563 516.954 351.908 516.954 352.289C516.954 352.656 516.895 353.008 516.778 353.345C516.646 353.683 516.47 353.976 516.25 354.225C516.015 354.46 515.737 354.651 515.414 354.797C515.091 354.944 514.732 355.017 514.336 355.017ZM511.234 342.639C510.97 342.639 510.655 342.639 510.288 342.639C509.907 342.624 509.518 342.595 509.122 342.551C508.726 342.507 508.337 342.433 507.956 342.331C507.56 342.228 507.208 342.089 506.9 341.913C506.592 341.722 506.343 341.487 506.152 341.209C505.961 340.915 505.866 340.556 505.866 340.131C505.866 339.705 505.961 339.346 506.152 339.053C506.343 338.759 506.592 338.517 506.9 338.327C507.208 338.136 507.56 337.997 507.956 337.909C508.337 337.806 508.726 337.733 509.122 337.689C509.518 337.63 509.907 337.601 510.288 337.601C510.655 337.586 510.97 337.579 511.234 337.579C511.674 337.579 512.209 337.593 512.84 337.623C513.456 337.652 514.057 337.747 514.644 337.909C515.216 338.055 515.707 338.305 516.118 338.657C516.529 338.994 516.734 339.485 516.734 340.131C516.734 340.761 516.529 341.245 516.118 341.583C515.707 341.92 515.216 342.169 514.644 342.331C514.057 342.477 513.456 342.565 512.84 342.595C512.209 342.624 511.674 342.639 511.234 342.639ZM511.234 345.763C512.774 345.763 514.065 345.616 515.106 345.323C516.133 345.015 516.954 344.604 517.57 344.091C518.186 343.577 518.626 342.983 518.89 342.309C519.154 341.619 519.286 340.893 519.286 340.131C519.286 339.353 519.154 338.627 518.89 337.953C518.626 337.263 518.186 336.662 517.57 336.149C516.954 335.621 516.133 335.21 515.106 334.917C514.065 334.609 512.774 334.455 511.234 334.455C509.738 334.455 508.484 334.609 507.472 334.917C506.445 335.21 505.624 335.621 505.008 336.149C504.392 336.662 503.952 337.263 503.688 337.953C503.424 338.627 503.292 339.353 503.292 340.131C503.292 340.893 503.424 341.619 503.688 342.309C503.952 342.983 504.392 343.577 505.008 344.091C505.624 344.604 506.445 345.015 507.472 345.323C508.484 345.616 509.738 345.763 511.234 345.763ZM514.996 318.754C514.747 318.754 514.468 318.747 514.16 318.732C513.852 318.703 513.566 318.637 513.302 318.534C513.038 318.431 512.818 318.285 512.642 318.094C512.466 317.889 512.378 317.61 512.378 317.258C512.378 316.935 512.481 316.686 512.686 316.51C512.877 316.319 513.111 316.18 513.39 316.092C513.654 316.004 513.94 315.953 514.248 315.938C514.541 315.909 514.798 315.894 515.018 315.894C515.253 315.894 515.524 315.909 515.832 315.938C516.125 315.953 516.411 316.011 516.69 316.114C516.954 316.202 517.181 316.349 517.372 316.554C517.563 316.745 517.658 317.009 517.658 317.346C517.658 317.698 517.563 317.969 517.372 318.16C517.181 318.351 516.954 318.49 516.69 318.578C516.411 318.666 516.118 318.717 515.81 318.732C515.502 318.747 515.231 318.754 514.996 318.754ZM514.974 320.998C515.575 320.998 516.14 320.939 516.668 320.822C517.196 320.69 517.658 320.485 518.054 320.206C518.435 319.913 518.736 319.539 518.956 319.084C519.176 318.615 519.286 318.043 519.286 317.368C519.286 316.723 519.183 316.165 518.978 315.696C518.758 315.227 518.457 314.845 518.076 314.552C517.695 314.244 517.247 314.017 516.734 313.87C516.221 313.723 515.663 313.65 515.062 313.65C514.461 313.65 513.896 313.709 513.368 313.826C512.84 313.943 512.385 314.149 512.004 314.442C511.608 314.721 511.3 315.087 511.08 315.542C510.845 315.997 510.728 316.569 510.728 317.258C510.728 317.903 510.838 318.461 511.058 318.93C511.278 319.399 511.579 319.788 511.96 320.096C512.341 320.404 512.789 320.631 513.302 320.778C513.815 320.925 514.373 320.998 514.974 320.998ZM503.116 319.304L519.462 328.412L519.462 326.498L503.116 317.434L503.116 319.304ZM507.692 330.106C507.443 330.106 507.157 330.099 506.834 330.084C506.511 330.055 506.211 329.989 505.932 329.886C505.653 329.783 505.419 329.637 505.228 329.446C505.037 329.241 504.942 328.962 504.942 328.61C504.942 328.287 505.045 328.038 505.25 327.862C505.455 327.671 505.705 327.532 505.998 327.444C506.291 327.356 506.599 327.305 506.922 327.29C507.23 327.261 507.494 327.246 507.714 327.246C507.949 327.246 508.213 327.261 508.506 327.29C508.785 327.305 509.056 327.363 509.32 327.466C509.569 327.554 509.782 327.701 509.958 327.906C510.134 328.097 510.222 328.361 510.222 328.698C510.222 329.05 510.134 329.321 509.958 329.512C509.782 329.703 509.569 329.842 509.32 329.93C509.056 330.018 508.777 330.069 508.484 330.084C508.191 330.099 507.927 330.106 507.692 330.106ZM507.648 332.35C508.249 332.35 508.814 332.291 509.342 332.174C509.855 332.042 510.303 331.837 510.684 331.558C511.051 331.265 511.344 330.891 511.564 330.436C511.769 329.967 511.872 329.395 511.872 328.72C511.872 328.075 511.769 327.517 511.564 327.048C511.359 326.579 511.073 326.197 510.706 325.904C510.339 325.596 509.907 325.369 509.408 325.222C508.895 325.075 508.337 325.002 507.736 325.002C507.135 325.002 506.563 325.061 506.02 325.178C505.477 325.295 505.008 325.501 504.612 325.794C504.201 326.073 503.879 326.439 503.644 326.894C503.409 327.349 503.292 327.921 503.292 328.61C503.292 329.255 503.409 329.813 503.644 330.282C503.864 330.751 504.172 331.14 504.568 331.448C504.964 331.756 505.426 331.983 505.954 332.13C506.482 332.277 507.047 332.35 507.648 332.35Z" fill="#222220"/>
<path opacity="0.2" d="M472.014 352.157C472.014 351.761 472.102 351.417 472.278 351.123C472.439 350.815 472.659 350.566 472.938 350.375C473.202 350.185 473.51 350.045 473.862 349.957C474.199 349.855 474.551 349.803 474.918 349.803C475.27 349.803 475.615 349.855 475.952 349.957C476.289 350.06 476.59 350.214 476.854 350.419C477.118 350.625 477.331 350.874 477.492 351.167C477.653 351.446 477.734 351.776 477.734 352.157C477.734 352.553 477.653 352.905 477.492 353.213C477.331 353.521 477.118 353.785 476.854 354.005C476.575 354.211 476.267 354.372 475.93 354.489C475.578 354.592 475.226 354.643 474.874 354.643C474.493 354.643 474.133 354.592 473.796 354.489C473.444 354.387 473.136 354.233 472.872 354.027C472.608 353.822 472.403 353.565 472.256 353.257C472.095 352.935 472.014 352.568 472.014 352.157ZM468.56 349.913L468.56 346.943C467.871 347.031 467.262 347.215 466.734 347.493C466.206 347.772 465.766 348.131 465.414 348.571C465.047 349.011 464.769 349.517 464.578 350.089C464.387 350.661 464.292 351.277 464.292 351.937C464.292 353.037 464.534 353.969 465.018 354.731C465.502 355.494 466.133 356.117 466.91 356.601C467.673 357.085 468.531 357.437 469.484 357.657C470.437 357.877 471.391 357.987 472.344 357.987C473.327 357.987 474.295 357.899 475.248 357.723C476.187 357.547 477.03 357.232 477.778 356.777C478.526 356.323 479.135 355.714 479.604 354.951C480.059 354.189 480.286 353.228 480.286 352.069C480.286 351.263 480.147 350.529 479.868 349.869C479.575 349.209 479.179 348.645 478.68 348.175C478.167 347.691 477.573 347.325 476.898 347.075C476.209 346.811 475.468 346.679 474.676 346.679C474.06 346.679 473.451 346.775 472.85 346.965C472.249 347.156 471.713 347.457 471.244 347.867C470.76 348.307 470.379 348.843 470.1 349.473C469.807 350.104 469.66 350.749 469.66 351.409C469.66 352.157 469.792 352.817 470.056 353.389C470.32 353.961 470.76 354.46 471.376 354.885L471.332 354.929C470.907 354.915 470.423 354.856 469.88 354.753C469.337 354.651 468.831 354.489 468.362 354.269C467.878 354.049 467.475 353.756 467.152 353.389C466.815 353.008 466.646 352.539 466.646 351.981C466.646 351.439 466.837 350.984 467.218 350.617C467.599 350.251 468.047 350.016 468.56 349.913ZM467.284 334.851L464.6 334.851L464.6 345.367L467.504 345.367L467.504 338.063C469.279 339.529 471.229 340.717 473.356 341.627C475.483 342.521 477.697 343.057 480 343.233L480 339.889C478.973 339.874 477.866 339.757 476.678 339.537C475.49 339.302 474.317 338.979 473.158 338.569C471.999 338.143 470.907 337.623 469.88 337.007C468.853 336.376 467.988 335.657 467.284 334.851ZM475.996 318.754C475.747 318.754 475.468 318.747 475.16 318.732C474.852 318.703 474.566 318.637 474.302 318.534C474.038 318.431 473.818 318.285 473.642 318.094C473.466 317.889 473.378 317.61 473.378 317.258C473.378 316.935 473.481 316.686 473.686 316.51C473.877 316.319 474.111 316.18 474.39 316.092C474.654 316.004 474.94 315.953 475.248 315.938C475.541 315.909 475.798 315.894 476.018 315.894C476.253 315.894 476.524 315.909 476.832 315.938C477.125 315.953 477.411 316.011 477.69 316.114C477.954 316.202 478.181 316.349 478.372 316.554C478.563 316.745 478.658 317.009 478.658 317.346C478.658 317.698 478.563 317.969 478.372 318.16C478.181 318.351 477.954 318.49 477.69 318.578C477.411 318.666 477.118 318.717 476.81 318.732C476.502 318.747 476.231 318.754 475.996 318.754ZM475.974 320.998C476.575 320.998 477.14 320.939 477.668 320.822C478.196 320.69 478.658 320.485 479.054 320.206C479.435 319.913 479.736 319.539 479.956 319.084C480.176 318.615 480.286 318.043 480.286 317.368C480.286 316.723 480.183 316.165 479.978 315.696C479.758 315.227 479.457 314.845 479.076 314.552C478.695 314.244 478.247 314.017 477.734 313.87C477.221 313.723 476.663 313.65 476.062 313.65C475.461 313.65 474.896 313.709 474.368 313.826C473.84 313.943 473.385 314.149 473.004 314.442C472.608 314.721 472.3 315.087 472.08 315.542C471.845 315.997 471.728 316.569 471.728 317.258C471.728 317.903 471.838 318.461 472.058 318.93C472.278 319.399 472.579 319.788 472.96 320.096C473.341 320.404 473.789 320.631 474.302 320.778C474.815 320.925 475.373 320.998 475.974 320.998ZM464.116 319.304L480.462 328.412L480.462 326.498L464.116 317.434L464.116 319.304ZM468.692 330.106C468.443 330.106 468.157 330.099 467.834 330.084C467.511 330.055 467.211 329.989 466.932 329.886C466.653 329.783 466.419 329.637 466.228 329.446C466.037 329.241 465.942 328.962 465.942 328.61C465.942 328.287 466.045 328.038 466.25 327.862C466.455 327.671 466.705 327.532 466.998 327.444C467.291 327.356 467.599 327.305 467.922 327.29C468.23 327.261 468.494 327.246 468.714 327.246C468.949 327.246 469.213 327.261 469.506 327.29C469.785 327.305 470.056 327.363 470.32 327.466C470.569 327.554 470.782 327.701 470.958 327.906C471.134 328.097 471.222 328.361 471.222 328.698C471.222 329.05 471.134 329.321 470.958 329.512C470.782 329.703 470.569 329.842 470.32 329.93C470.056 330.018 469.777 330.069 469.484 330.084C469.191 330.099 468.927 330.106 468.692 330.106ZM468.648 332.35C469.249 332.35 469.814 332.291 470.342 332.174C470.855 332.042 471.303 331.837 471.684 331.558C472.051 331.265 472.344 330.891 472.564 330.436C472.769 329.967 472.872 329.395 472.872 328.72C472.872 328.075 472.769 327.517 472.564 327.048C472.359 326.579 472.073 326.197 471.706 325.904C471.339 325.596 470.907 325.369 470.408 325.222C469.895 325.075 469.337 325.002 468.736 325.002C468.135 325.002 467.563 325.061 467.02 325.178C466.477 325.295 466.008 325.501 465.612 325.794C465.201 326.073 464.879 326.439 464.644 326.894C464.409 327.349 464.292 327.921 464.292 328.61C464.292 329.255 464.409 329.813 464.644 330.282C464.864 330.751 465.172 331.14 465.568 331.448C465.964 331.756 466.426 331.983 466.954 332.13C467.482 332.277 468.047 332.35 468.648 332.35Z" fill="#222220"/>
<path d="M241.925 285.69C241.925 285.22 241.975 284.765 242.075 284.325C242.185 283.885 242.355 283.495 242.585 283.155C242.815 282.805 243.115 282.53 243.485 282.33C243.855 282.12 244.305 282.015 244.835 282.015C245.365 282.015 245.815 282.12 246.185 282.33C246.555 282.53 246.855 282.805 247.085 283.155C247.315 283.495 247.48 283.885 247.58 284.325C247.69 284.765 247.745 285.22 247.745 285.69C247.745 286.14 247.69 286.58 247.58 287.01C247.48 287.43 247.315 287.81 247.085 288.15C246.855 288.49 246.555 288.765 246.185 288.975C245.815 289.175 245.365 289.275 244.835 289.275C244.305 289.275 243.855 289.175 243.485 288.975C243.115 288.765 242.815 288.49 242.585 288.15C242.355 287.81 242.185 287.43 242.075 287.01C241.975 286.58 241.925 286.14 241.925 285.69ZM239.57 285.69C239.57 286.47 239.69 287.2 239.93 287.88C240.17 288.55 240.515 289.135 240.965 289.635C241.415 290.135 241.965 290.53 242.615 290.82C243.275 291.1 244.015 291.24 244.835 291.24C245.665 291.24 246.405 291.1 247.055 290.82C247.705 290.53 248.255 290.135 248.705 289.635C249.155 289.135 249.5 288.55 249.74 287.88C249.98 287.2 250.1 286.47 250.1 285.69C250.1 284.89 249.98 284.15 249.74 283.47C249.5 282.78 249.155 282.18 248.705 281.67C248.255 281.16 247.705 280.76 247.055 280.47C246.405 280.18 245.665 280.035 244.835 280.035C244.015 280.035 243.275 280.18 242.615 280.47C241.965 280.76 241.415 281.16 240.965 281.67C240.515 282.18 240.17 282.78 239.93 283.47C239.69 284.15 239.57 284.89 239.57 285.69ZM261.91 291L264.79 280.29H262.48L260.725 287.67H260.695L258.865 280.29H256.66L254.8 287.58H254.77L253.075 280.29H250.72L253.555 291H255.94L257.725 283.71H257.755L259.57 291H261.91ZM265.875 280.29V291H268.08V283.83H268.11L272.565 291H274.92V280.29H272.715V287.475H272.685L268.215 280.29H265.875ZM276.993 280.29V291H285.123V289.02H279.348V286.395H284.538V284.565H279.348V282.27H285.003V280.29H276.993ZM289.075 285.135V282.12H291.655C292.195 282.12 292.6 282.24 292.87 282.48C293.14 282.71 293.275 283.085 293.275 283.605C293.275 284.145 293.14 284.535 292.87 284.775C292.6 285.015 292.195 285.135 291.655 285.135H289.075ZM286.72 280.29V291H289.075V286.815H291.43C292.02 286.815 292.445 286.945 292.705 287.205C292.965 287.465 293.135 287.875 293.215 288.435C293.275 288.865 293.32 289.315 293.35 289.785C293.38 290.255 293.46 290.66 293.59 291H295.945C295.835 290.85 295.75 290.67 295.69 290.46C295.64 290.24 295.6 290.01 295.57 289.77C295.55 289.53 295.535 289.295 295.525 289.065C295.515 288.835 295.505 288.635 295.495 288.465C295.475 288.195 295.435 287.925 295.375 287.655C295.325 287.385 295.24 287.14 295.12 286.92C295 286.69 294.845 286.495 294.655 286.335C294.465 286.165 294.225 286.04 293.935 285.96V285.93C294.535 285.69 294.965 285.34 295.225 284.88C295.495 284.42 295.63 283.875 295.63 283.245C295.63 282.835 295.555 282.455 295.405 282.105C295.265 281.745 295.055 281.43 294.775 281.16C294.505 280.89 294.175 280.68 293.785 280.53C293.405 280.37 292.975 280.29 292.495 280.29H286.72ZM299.15 287.445H296.87C296.86 288.105 296.98 288.675 297.23 289.155C297.48 289.635 297.815 290.03 298.235 290.34C298.665 290.65 299.155 290.875 299.705 291.015C300.265 291.165 300.84 291.24 301.43 291.24C302.16 291.24 302.8 291.155 303.35 290.985C303.91 290.815 304.375 290.58 304.745 290.28C305.125 289.97 305.41 289.605 305.6 289.185C305.79 288.765 305.885 288.31 305.885 287.82C305.885 287.22 305.755 286.73 305.495 286.35C305.245 285.96 304.945 285.65 304.595 285.42C304.245 285.19 303.89 285.025 303.53 284.925C303.18 284.815 302.905 284.74 302.705 284.7C302.035 284.53 301.49 284.39 301.07 284.28C300.66 284.17 300.335 284.06 300.095 283.95C299.865 283.84 299.71 283.72 299.63 283.59C299.55 283.46 299.51 283.29 299.51 283.08C299.51 282.85 299.56 282.66 299.66 282.51C299.76 282.36 299.885 282.235 300.035 282.135C300.195 282.035 300.37 281.965 300.56 281.925C300.75 281.885 300.94 281.865 301.13 281.865C301.42 281.865 301.685 281.89 301.925 281.94C302.175 281.99 302.395 282.075 302.585 282.195C302.775 282.315 302.925 282.48 303.035 282.69C303.155 282.9 303.225 283.165 303.245 283.485H305.525C305.525 282.865 305.405 282.34 305.165 281.91C304.935 281.47 304.62 281.11 304.22 280.83C303.82 280.55 303.36 280.35 302.84 280.23C302.33 280.1 301.795 280.035 301.235 280.035C300.755 280.035 300.275 280.1 299.795 280.23C299.315 280.36 298.885 280.56 298.505 280.83C298.125 281.1 297.815 281.44 297.575 281.85C297.345 282.25 297.23 282.725 297.23 283.275C297.23 283.765 297.32 284.185 297.5 284.535C297.69 284.875 297.935 285.16 298.235 285.39C298.535 285.62 298.875 285.81 299.255 285.96C299.635 286.1 300.025 286.22 300.425 286.32C300.815 286.43 301.2 286.53 301.58 286.62C301.96 286.71 302.3 286.815 302.6 286.935C302.9 287.055 303.14 287.205 303.32 287.385C303.51 287.565 303.605 287.8 303.605 288.09C303.605 288.36 303.535 288.585 303.395 288.765C303.255 288.935 303.08 289.07 302.87 289.17C302.66 289.27 302.435 289.34 302.195 289.38C301.955 289.41 301.73 289.425 301.52 289.425C301.21 289.425 300.91 289.39 300.62 289.32C300.33 289.24 300.075 289.125 299.855 288.975C299.645 288.815 299.475 288.61 299.345 288.36C299.215 288.11 299.15 287.805 299.15 287.445ZM307.286 280.29V291H309.641V286.38H313.976V291H316.331V280.29H313.976V284.4H309.641V280.29H307.286ZM318.404 280.29V291H320.759V280.29H318.404ZM325.183 285.33V282.12H327.013C327.283 282.12 327.543 282.14 327.793 282.18C328.043 282.22 328.263 282.3 328.453 282.42C328.643 282.53 328.793 282.69 328.903 282.9C329.023 283.11 329.083 283.385 329.083 283.725C329.083 284.065 329.023 284.34 328.903 284.55C328.793 284.76 328.643 284.925 328.453 285.045C328.263 285.155 328.043 285.23 327.793 285.27C327.543 285.31 327.283 285.33 327.013 285.33H325.183ZM322.828 280.29V291H325.183V287.16H327.658C328.328 287.16 328.898 287.065 329.368 286.875C329.838 286.675 330.218 286.415 330.508 286.095C330.808 285.775 331.023 285.41 331.153 285C331.293 284.58 331.363 284.155 331.363 283.725C331.363 283.285 331.293 282.86 331.153 282.45C331.023 282.04 330.808 281.675 330.508 281.355C330.218 281.035 329.838 280.78 329.368 280.59C328.898 280.39 328.328 280.29 327.658 280.29H322.828Z" fill="#222220"/>
<path opacity="0.2" d="M552 285C552 137.54 432.46 18 285 18C137.54 18 18 137.54 18 285C18 432.46 137.54 552 285 552C357.389 552 423.05 523.192 471.144 476.415" stroke="#232320" stroke-width="36"/>
<path d="M512.362 285C512.362 159.43 410.569 57.6367 285 57.6367C159.431 57.6367 57.6367 159.43 57.6367 285C57.6367 410.569 159.431 512.362 285 512.362C317.357 512.362 348.135 505.603 376 493.42" stroke="#232320" stroke-width="36"/>
<path opacity="0.2" d="M472.725 285C472.725 181.321 388.677 97.2738 284.999 97.2738C181.321 97.2738 97.2734 181.321 97.2734 285C97.2734 374.951 160.539 450.125 245 468.455" stroke="#232320" stroke-width="36"/>
</svg>
