<svg width="570" height="570" viewBox="0 0 570 570" fill="none" xmlns="http://www.w3.org/2000/svg">
<path d="M240.035 280.29V291H248.165V289.02H242.39V286.395H247.58V284.565H242.39V282.27H248.045V280.29H240.035ZM252.387 285.39L248.652 291H251.292L253.677 287.295L256.017 291H258.822L255.087 285.405L258.522 280.29H255.942L253.767 283.71L251.667 280.29H248.937L252.387 285.39ZM262.121 285.33V282.12H263.951C264.221 282.12 264.481 282.14 264.731 282.18C264.981 282.22 265.201 282.3 265.391 282.42C265.581 282.53 265.731 282.69 265.841 282.9C265.961 283.11 266.021 283.385 266.021 283.725C266.021 284.065 265.961 284.34 265.841 284.55C265.731 284.76 265.581 284.925 265.391 285.045C265.201 285.155 264.981 285.23 264.731 285.27C264.481 285.31 264.221 285.33 263.951 285.33H262.121ZM259.766 280.29V291H262.121V287.16H264.596C265.266 287.16 265.836 287.065 266.306 286.875C266.776 286.675 267.156 286.415 267.446 286.095C267.746 285.775 267.961 285.41 268.091 285C268.231 284.58 268.301 284.155 268.301 283.725C268.301 283.285 268.231 282.86 268.091 282.45C267.961 282.04 267.746 281.675 267.446 281.355C267.156 281.035 266.776 280.78 266.306 280.59C265.836 280.39 265.266 280.29 264.596 280.29H259.766ZM269.771 280.29V291H277.901V289.02H272.126V286.395H277.316V284.565H272.126V282.27H277.781V280.29H269.771ZM286.638 283.89H288.918C288.848 283.27 288.678 282.72 288.408 282.24C288.138 281.76 287.793 281.36 287.373 281.04C286.963 280.71 286.493 280.46 285.963 280.29C285.443 280.12 284.888 280.035 284.298 280.035C283.478 280.035 282.738 280.18 282.078 280.47C281.428 280.76 280.878 281.16 280.428 281.67C279.978 282.18 279.633 282.78 279.393 283.47C279.153 284.15 279.033 284.89 279.033 285.69C279.033 286.47 279.153 287.2 279.393 287.88C279.633 288.55 279.978 289.135 280.428 289.635C280.878 290.135 281.428 290.53 282.078 290.82C282.738 291.1 283.478 291.24 284.298 291.24C284.958 291.24 285.563 291.14 286.113 290.94C286.663 290.74 287.143 290.45 287.553 290.07C287.963 289.69 288.293 289.23 288.543 288.69C288.793 288.15 288.948 287.545 289.008 286.875H286.728C286.638 287.595 286.388 288.175 285.978 288.615C285.578 289.055 285.018 289.275 284.298 289.275C283.768 289.275 283.318 289.175 282.948 288.975C282.578 288.765 282.278 288.49 282.048 288.15C281.818 287.81 281.648 287.43 281.538 287.01C281.438 286.58 281.388 286.14 281.388 285.69C281.388 285.22 281.438 284.765 281.538 284.325C281.648 283.885 281.818 283.495 282.048 283.155C282.278 282.805 282.578 282.53 282.948 282.33C283.318 282.12 283.768 282.015 284.298 282.015C284.588 282.015 284.863 282.065 285.123 282.165C285.393 282.255 285.633 282.385 285.843 282.555C286.053 282.725 286.228 282.925 286.368 283.155C286.508 283.375 286.598 283.62 286.638 283.89ZM292.986 282.27V291H295.341V282.27H298.551V280.29H289.776V282.27H292.986ZM301.109 286.86L302.504 282.93H302.534L303.884 286.86H301.109ZM301.334 280.29L297.284 291H299.654L300.494 288.615H304.499L305.309 291H307.754L303.749 280.29H301.334ZM309.671 282.27V291H312.026V282.27H315.236V280.29H306.461V282.27H309.671ZM316.471 280.29V291H318.826V280.29H316.471ZM322.784 285.69C322.784 285.22 322.834 284.765 322.934 284.325C323.044 283.885 323.214 283.495 323.444 283.155C323.674 282.805 323.974 282.53 324.344 282.33C324.714 282.12 325.164 282.015 325.694 282.015C326.224 282.015 326.674 282.12 327.044 282.33C327.414 282.53 327.714 282.805 327.944 283.155C328.174 283.495 328.339 283.885 328.439 284.325C328.549 284.765 328.604 285.22 328.604 285.69C328.604 286.14 328.549 286.58 328.439 287.01C328.339 287.43 328.174 287.81 327.944 288.15C327.714 288.49 327.414 288.765 327.044 288.975C326.674 289.175 326.224 289.275 325.694 289.275C325.164 289.275 324.714 289.175 324.344 288.975C323.974 288.765 323.674 288.49 323.444 288.15C323.214 287.81 323.044 287.43 322.934 287.01C322.834 286.58 322.784 286.14 322.784 285.69ZM320.429 285.69C320.429 286.47 320.549 287.2 320.789 287.88C321.029 288.55 321.374 289.135 321.824 289.635C322.274 290.135 322.824 290.53 323.474 290.82C324.134 291.1 324.874 291.24 325.694 291.24C326.524 291.24 327.264 291.1 327.914 290.82C328.564 290.53 329.114 290.135 329.564 289.635C330.014 289.135 330.359 288.55 330.599 287.88C330.839 287.2 330.959 286.47 330.959 285.69C330.959 284.89 330.839 284.15 330.599 283.47C330.359 282.78 330.014 282.18 329.564 281.67C329.114 281.16 328.564 280.76 327.914 280.47C327.264 280.18 326.524 280.035 325.694 280.035C324.874 280.035 324.134 280.18 323.474 280.47C322.824 280.76 322.274 281.16 321.824 281.67C321.374 282.18 321.029 282.78 320.789 283.47C320.549 284.15 320.429 284.89 320.429 285.69ZM332.569 280.29V291H334.774V283.83H334.804L339.259 291H341.614V280.29H339.409V287.475H339.379L334.909 280.29H332.569Z" fill="#222220"/>
<path opacity="0.2" d="M552 285C552 137.54 432.46 18 285 18C137.54 18 18 137.54 18 285C18 432.46 137.54 552 285 552C357.389 552 423.05 523.192 471.144 476.415" stroke="#232320" stroke-width="36"/>
<path opacity="0.2" d="M512.362 285C512.362 159.43 410.569 57.6367 285 57.6367C159.431 57.6367 57.6367 159.43 57.6367 285C57.6367 410.569 159.431 512.362 285 512.362C317.357 512.362 348.135 505.603 376 493.42" stroke="#232320" stroke-width="36"/>
<path d="M472.725 285C472.725 181.321 388.677 97.2738 284.999 97.2738C181.321 97.2738 97.2734 181.321 97.2734 285C97.2734 374.951 160.539 450.125 245 468.455" stroke="#232320" stroke-width="36"/>
<path opacity="0.2" d="M547.78 351.665C547.428 351.665 547.12 351.607 546.856 351.489C546.592 351.357 546.372 351.181 546.196 350.961C546.02 350.741 545.888 350.492 545.8 350.213C545.697 349.92 545.646 349.619 545.646 349.311C545.646 348.827 545.719 348.439 545.866 348.145C546.013 347.837 546.196 347.603 546.416 347.441C546.636 347.265 546.871 347.148 547.12 347.089C547.355 347.031 547.575 347.001 547.78 347.001C548.44 347.001 548.946 347.221 549.298 347.661C549.635 348.101 549.804 348.651 549.804 349.311C549.804 349.942 549.635 350.492 549.298 350.961C548.946 351.431 548.44 351.665 547.78 351.665ZM547.494 354.503C548.257 354.503 548.924 354.313 549.496 353.931C550.068 353.55 550.457 352.985 550.662 352.237L550.706 352.237C550.926 353.161 551.366 353.88 552.026 354.393C552.686 354.892 553.507 355.141 554.49 355.141C555.326 355.141 556.045 354.98 556.646 354.657C557.247 354.32 557.746 353.88 558.142 353.337C558.538 352.78 558.824 352.157 559 351.467C559.191 350.763 559.286 350.037 559.286 349.289C559.286 348.571 559.191 347.867 559 347.177C558.795 346.488 558.494 345.872 558.098 345.329C557.702 344.787 557.203 344.354 556.602 344.031C556.001 343.694 555.289 343.525 554.468 343.525C553.5 343.525 552.686 343.775 552.026 344.273C551.351 344.772 550.911 345.483 550.706 346.407L550.662 346.407C550.413 345.659 550.002 345.102 549.43 344.735C548.858 344.354 548.191 344.163 547.428 344.163C547.047 344.163 546.621 344.251 546.152 344.427C545.668 344.603 545.221 344.897 544.81 345.307C544.385 345.703 544.025 346.231 543.732 346.891C543.439 347.551 543.292 348.358 543.292 349.311C543.292 349.942 543.38 350.565 543.556 351.181C543.732 351.797 543.996 352.355 544.348 352.853C544.7 353.337 545.14 353.733 545.668 354.041C546.196 354.349 546.805 354.503 547.494 354.503ZM554.336 352.017C553.544 352.017 552.943 351.753 552.532 351.225C552.107 350.697 551.894 350.052 551.894 349.289C551.894 348.923 551.953 348.585 552.07 348.277C552.187 347.955 552.356 347.676 552.576 347.441C552.796 347.192 553.06 347.001 553.368 346.869C553.661 346.723 553.991 346.649 554.358 346.649C554.739 346.649 555.091 346.715 555.414 346.847C555.737 346.979 556.015 347.17 556.25 347.419C556.47 347.654 556.646 347.933 556.778 348.255C556.895 348.563 556.954 348.908 556.954 349.289C556.954 349.656 556.895 350.008 556.778 350.345C556.646 350.683 556.47 350.976 556.25 351.225C556.015 351.46 555.737 351.651 555.414 351.797C555.091 351.944 554.732 352.017 554.336 352.017ZM546.174 332.225L543.6 332.225L543.6 340.827L552.114 342.345L552.114 339.529C551.689 339.221 551.381 338.891 551.19 338.539C550.985 338.187 550.882 337.732 550.882 337.175C550.882 336.749 550.955 336.375 551.102 336.053C551.249 335.73 551.454 335.451 551.718 335.217C551.982 334.982 552.29 334.806 552.642 334.689C552.994 334.571 553.368 334.513 553.764 334.513C554.145 334.513 554.519 334.579 554.886 334.711C555.238 334.828 555.553 335.004 555.832 335.239C556.096 335.459 556.316 335.737 556.492 336.075C556.653 336.397 556.734 336.764 556.734 337.175C556.734 337.879 556.529 338.458 556.118 338.913C555.693 339.367 555.128 339.631 554.424 339.705L554.424 342.829C555.231 342.814 555.942 342.653 556.558 342.345C557.159 342.022 557.665 341.597 558.076 341.069C558.487 340.541 558.795 339.939 559 339.265C559.191 338.575 559.286 337.857 559.286 337.109C559.301 336.331 559.176 335.598 558.912 334.909C558.633 334.219 558.245 333.618 557.746 333.105C557.247 332.577 556.661 332.159 555.986 331.851C555.297 331.543 554.556 331.389 553.764 331.389C553.045 331.389 552.371 331.499 551.74 331.719C551.095 331.924 550.537 332.232 550.068 332.643C549.599 333.039 549.225 333.53 548.946 334.117C548.667 334.703 548.528 335.378 548.528 336.141C548.528 336.757 548.623 337.307 548.814 337.791C548.99 338.275 549.291 338.729 549.716 339.155L549.672 339.199L546.174 338.583L546.174 332.225ZM554.996 315.754C554.747 315.754 554.468 315.747 554.16 315.732C553.852 315.703 553.566 315.637 553.302 315.534C553.038 315.431 552.818 315.285 552.642 315.094C552.466 314.889 552.378 314.61 552.378 314.258C552.378 313.935 552.481 313.686 552.686 313.51C552.877 313.319 553.111 313.18 553.39 313.092C553.654 313.004 553.94 312.953 554.248 312.938C554.541 312.909 554.798 312.894 555.018 312.894C555.253 312.894 555.524 312.909 555.832 312.938C556.125 312.953 556.411 313.011 556.69 313.114C556.954 313.202 557.181 313.349 557.372 313.554C557.563 313.745 557.658 314.009 557.658 314.346C557.658 314.698 557.563 314.969 557.372 315.16C557.181 315.351 556.954 315.49 556.69 315.578C556.411 315.666 556.118 315.717 555.81 315.732C555.502 315.747 555.231 315.754 554.996 315.754ZM554.974 317.998C555.575 317.998 556.14 317.939 556.668 317.822C557.196 317.69 557.658 317.485 558.054 317.206C558.435 316.913 558.736 316.539 558.956 316.084C559.176 315.615 559.286 315.043 559.286 314.368C559.286 313.723 559.183 313.165 558.978 312.696C558.758 312.227 558.457 311.845 558.076 311.552C557.695 311.244 557.247 311.017 556.734 310.87C556.221 310.723 555.663 310.65 555.062 310.65C554.461 310.65 553.896 310.709 553.368 310.826C552.84 310.943 552.385 311.149 552.004 311.442C551.608 311.721 551.3 312.087 551.08 312.542C550.845 312.997 550.728 313.569 550.728 314.258C550.728 314.903 550.838 315.461 551.058 315.93C551.278 316.399 551.579 316.788 551.96 317.096C552.341 317.404 552.789 317.631 553.302 317.778C553.815 317.925 554.373 317.998 554.974 317.998ZM543.116 316.304L559.462 325.412L559.462 323.498L543.116 314.434L543.116 316.304ZM547.692 327.106C547.443 327.106 547.157 327.099 546.834 327.084C546.511 327.055 546.211 326.989 545.932 326.886C545.653 326.783 545.419 326.637 545.228 326.446C545.037 326.241 544.942 325.962 544.942 325.61C544.942 325.287 545.045 325.038 545.25 324.862C545.455 324.671 545.705 324.532 545.998 324.444C546.291 324.356 546.599 324.305 546.922 324.29C547.23 324.261 547.494 324.246 547.714 324.246C547.949 324.246 548.213 324.261 548.506 324.29C548.785 324.305 549.056 324.363 549.32 324.466C549.569 324.554 549.782 324.701 549.958 324.906C550.134 325.097 550.222 325.361 550.222 325.698C550.222 326.05 550.134 326.321 549.958 326.512C549.782 326.703 549.569 326.842 549.32 326.93C549.056 327.018 548.777 327.069 548.484 327.084C548.191 327.099 547.927 327.106 547.692 327.106ZM547.648 329.35C548.249 329.35 548.814 329.291 549.342 329.174C549.855 329.042 550.303 328.837 550.684 328.558C551.051 328.265 551.344 327.891 551.564 327.436C551.769 326.967 551.872 326.395 551.872 325.72C551.872 325.075 551.769 324.517 551.564 324.048C551.359 323.579 551.073 323.197 550.706 322.904C550.339 322.596 549.907 322.369 549.408 322.222C548.895 322.075 548.337 322.002 547.736 322.002C547.135 322.002 546.563 322.061 546.02 322.178C545.477 322.295 545.008 322.501 544.612 322.794C544.201 323.073 543.879 323.439 543.644 323.894C543.409 324.349 543.292 324.921 543.292 325.61C543.292 326.255 543.409 326.813 543.644 327.282C543.864 327.751 544.172 328.14 544.568 328.448C544.964 328.756 545.426 328.983 545.954 329.13C546.482 329.277 547.047 329.35 547.648 329.35Z" fill="#222220"/>
<path opacity="0.2" d="M507.78 351.665C507.428 351.665 507.12 351.607 506.856 351.489C506.592 351.357 506.372 351.181 506.196 350.961C506.02 350.741 505.888 350.492 505.8 350.213C505.697 349.92 505.646 349.619 505.646 349.311C505.646 348.827 505.719 348.439 505.866 348.145C506.013 347.837 506.196 347.603 506.416 347.441C506.636 347.265 506.871 347.148 507.12 347.089C507.355 347.031 507.575 347.001 507.78 347.001C508.44 347.001 508.946 347.221 509.298 347.661C509.635 348.101 509.804 348.651 509.804 349.311C509.804 349.942 509.635 350.492 509.298 350.961C508.946 351.431 508.44 351.665 507.78 351.665ZM507.494 354.503C508.257 354.503 508.924 354.313 509.496 353.931C510.068 353.55 510.457 352.985 510.662 352.237L510.706 352.237C510.926 353.161 511.366 353.88 512.026 354.393C512.686 354.892 513.507 355.141 514.49 355.141C515.326 355.141 516.045 354.98 516.646 354.657C517.247 354.32 517.746 353.88 518.142 353.337C518.538 352.78 518.824 352.157 519 351.467C519.191 350.763 519.286 350.037 519.286 349.289C519.286 348.571 519.191 347.867 519 347.177C518.795 346.488 518.494 345.872 518.098 345.329C517.702 344.787 517.203 344.354 516.602 344.031C516.001 343.694 515.289 343.525 514.468 343.525C513.5 343.525 512.686 343.775 512.026 344.273C511.351 344.772 510.911 345.483 510.706 346.407L510.662 346.407C510.413 345.659 510.002 345.102 509.43 344.735C508.858 344.354 508.191 344.163 507.428 344.163C507.047 344.163 506.621 344.251 506.152 344.427C505.668 344.603 505.221 344.897 504.81 345.307C504.385 345.703 504.025 346.231 503.732 346.891C503.439 347.551 503.292 348.358 503.292 349.311C503.292 349.942 503.38 350.565 503.556 351.181C503.732 351.797 503.996 352.355 504.348 352.853C504.7 353.337 505.14 353.733 505.668 354.041C506.196 354.349 506.805 354.503 507.494 354.503ZM514.336 352.017C513.544 352.017 512.943 351.753 512.532 351.225C512.107 350.697 511.894 350.052 511.894 349.289C511.894 348.923 511.953 348.585 512.07 348.277C512.187 347.955 512.356 347.676 512.576 347.441C512.796 347.192 513.06 347.001 513.368 346.869C513.661 346.723 513.991 346.649 514.358 346.649C514.739 346.649 515.091 346.715 515.414 346.847C515.737 346.979 516.015 347.17 516.25 347.419C516.47 347.654 516.646 347.933 516.778 348.255C516.895 348.563 516.954 348.908 516.954 349.289C516.954 349.656 516.895 350.008 516.778 350.345C516.646 350.683 516.47 350.976 516.25 351.225C516.015 351.46 515.737 351.651 515.414 351.797C515.091 351.944 514.732 352.017 514.336 352.017ZM511.234 339.639C510.97 339.639 510.655 339.639 510.288 339.639C509.907 339.624 509.518 339.595 509.122 339.551C508.726 339.507 508.337 339.433 507.956 339.331C507.56 339.228 507.208 339.089 506.9 338.913C506.592 338.722 506.343 338.487 506.152 338.209C505.961 337.915 505.866 337.556 505.866 337.131C505.866 336.705 505.961 336.346 506.152 336.053C506.343 335.759 506.592 335.517 506.9 335.327C507.208 335.136 507.56 334.997 507.956 334.909C508.337 334.806 508.726 334.733 509.122 334.689C509.518 334.63 509.907 334.601 510.288 334.601C510.655 334.586 510.97 334.579 511.234 334.579C511.674 334.579 512.209 334.593 512.84 334.623C513.456 334.652 514.057 334.747 514.644 334.909C515.216 335.055 515.707 335.305 516.118 335.657C516.529 335.994 516.734 336.485 516.734 337.131C516.734 337.761 516.529 338.245 516.118 338.583C515.707 338.92 515.216 339.169 514.644 339.331C514.057 339.477 513.456 339.565 512.84 339.595C512.209 339.624 511.674 339.639 511.234 339.639ZM511.234 342.763C512.774 342.763 514.065 342.616 515.106 342.323C516.133 342.015 516.954 341.604 517.57 341.091C518.186 340.577 518.626 339.983 518.89 339.309C519.154 338.619 519.286 337.893 519.286 337.131C519.286 336.353 519.154 335.627 518.89 334.953C518.626 334.263 518.186 333.662 517.57 333.149C516.954 332.621 516.133 332.21 515.106 331.917C514.065 331.609 512.774 331.455 511.234 331.455C509.738 331.455 508.484 331.609 507.472 331.917C506.445 332.21 505.624 332.621 505.008 333.149C504.392 333.662 503.952 334.263 503.688 334.953C503.424 335.627 503.292 336.353 503.292 337.131C503.292 337.893 503.424 338.619 503.688 339.309C503.952 339.983 504.392 340.577 505.008 341.091C505.624 341.604 506.445 342.015 507.472 342.323C508.484 342.616 509.738 342.763 511.234 342.763ZM514.996 315.754C514.747 315.754 514.468 315.747 514.16 315.732C513.852 315.703 513.566 315.637 513.302 315.534C513.038 315.431 512.818 315.285 512.642 315.094C512.466 314.889 512.378 314.61 512.378 314.258C512.378 313.935 512.481 313.686 512.686 313.51C512.877 313.319 513.111 313.18 513.39 313.092C513.654 313.004 513.94 312.953 514.248 312.938C514.541 312.909 514.798 312.894 515.018 312.894C515.253 312.894 515.524 312.909 515.832 312.938C516.125 312.953 516.411 313.011 516.69 313.114C516.954 313.202 517.181 313.349 517.372 313.554C517.563 313.745 517.658 314.009 517.658 314.346C517.658 314.698 517.563 314.969 517.372 315.16C517.181 315.351 516.954 315.49 516.69 315.578C516.411 315.666 516.118 315.717 515.81 315.732C515.502 315.747 515.231 315.754 514.996 315.754ZM514.974 317.998C515.575 317.998 516.14 317.939 516.668 317.822C517.196 317.69 517.658 317.485 518.054 317.206C518.435 316.913 518.736 316.539 518.956 316.084C519.176 315.615 519.286 315.043 519.286 314.368C519.286 313.723 519.183 313.165 518.978 312.696C518.758 312.227 518.457 311.845 518.076 311.552C517.695 311.244 517.247 311.017 516.734 310.87C516.221 310.723 515.663 310.65 515.062 310.65C514.461 310.65 513.896 310.709 513.368 310.826C512.84 310.943 512.385 311.149 512.004 311.442C511.608 311.721 511.3 312.087 511.08 312.542C510.845 312.997 510.728 313.569 510.728 314.258C510.728 314.903 510.838 315.461 511.058 315.93C511.278 316.399 511.579 316.788 511.96 317.096C512.341 317.404 512.789 317.631 513.302 317.778C513.815 317.925 514.373 317.998 514.974 317.998ZM503.116 316.304L519.462 325.412L519.462 323.498L503.116 314.434L503.116 316.304ZM507.692 327.106C507.443 327.106 507.157 327.099 506.834 327.084C506.511 327.055 506.211 326.989 505.932 326.886C505.653 326.783 505.419 326.637 505.228 326.446C505.037 326.241 504.942 325.962 504.942 325.61C504.942 325.287 505.045 325.038 505.25 324.862C505.455 324.671 505.705 324.532 505.998 324.444C506.291 324.356 506.599 324.305 506.922 324.29C507.23 324.261 507.494 324.246 507.714 324.246C507.949 324.246 508.213 324.261 508.506 324.29C508.785 324.305 509.056 324.363 509.32 324.466C509.569 324.554 509.782 324.701 509.958 324.906C510.134 325.097 510.222 325.361 510.222 325.698C510.222 326.05 510.134 326.321 509.958 326.512C509.782 326.703 509.569 326.842 509.32 326.93C509.056 327.018 508.777 327.069 508.484 327.084C508.191 327.099 507.927 327.106 507.692 327.106ZM507.648 329.35C508.249 329.35 508.814 329.291 509.342 329.174C509.855 329.042 510.303 328.837 510.684 328.558C511.051 328.265 511.344 327.891 511.564 327.436C511.769 326.967 511.872 326.395 511.872 325.72C511.872 325.075 511.769 324.517 511.564 324.048C511.359 323.579 511.073 323.197 510.706 322.904C510.339 322.596 509.907 322.369 509.408 322.222C508.895 322.075 508.337 322.002 507.736 322.002C507.135 322.002 506.563 322.061 506.02 322.178C505.477 322.295 505.008 322.501 504.612 322.794C504.201 323.073 503.879 323.439 503.644 323.894C503.409 324.349 503.292 324.921 503.292 325.61C503.292 326.255 503.409 326.813 503.644 327.282C503.864 327.751 504.172 328.14 504.568 328.448C504.964 328.756 505.426 328.983 505.954 329.13C506.482 329.277 507.047 329.35 507.648 329.35Z" fill="#222220"/>
<path d="M472.014 349.157C472.014 348.761 472.102 348.417 472.278 348.123C472.439 347.815 472.659 347.566 472.938 347.375C473.202 347.185 473.51 347.045 473.862 346.957C474.199 346.855 474.551 346.803 474.918 346.803C475.27 346.803 475.615 346.855 475.952 346.957C476.289 347.06 476.59 347.214 476.854 347.419C477.118 347.625 477.331 347.874 477.492 348.167C477.653 348.446 477.734 348.776 477.734 349.157C477.734 349.553 477.653 349.905 477.492 350.213C477.331 350.521 477.118 350.785 476.854 351.005C476.575 351.211 476.267 351.372 475.93 351.489C475.578 351.592 475.226 351.643 474.874 351.643C474.493 351.643 474.133 351.592 473.796 351.489C473.444 351.387 473.136 351.233 472.872 351.027C472.608 350.822 472.403 350.565 472.256 350.257C472.095 349.935 472.014 349.568 472.014 349.157ZM468.56 346.913L468.56 343.943C467.871 344.031 467.262 344.215 466.734 344.493C466.206 344.772 465.766 345.131 465.414 345.571C465.047 346.011 464.769 346.517 464.578 347.089C464.387 347.661 464.292 348.277 464.292 348.937C464.292 350.037 464.534 350.969 465.018 351.731C465.502 352.494 466.133 353.117 466.91 353.601C467.673 354.085 468.531 354.437 469.484 354.657C470.437 354.877 471.391 354.987 472.344 354.987C473.327 354.987 474.295 354.899 475.248 354.723C476.187 354.547 477.03 354.232 477.778 353.777C478.526 353.323 479.135 352.714 479.604 351.951C480.059 351.189 480.286 350.228 480.286 349.069C480.286 348.263 480.147 347.529 479.868 346.869C479.575 346.209 479.179 345.645 478.68 345.175C478.167 344.691 477.573 344.325 476.898 344.075C476.209 343.811 475.468 343.679 474.676 343.679C474.06 343.679 473.451 343.775 472.85 343.965C472.249 344.156 471.713 344.457 471.244 344.867C470.76 345.307 470.379 345.843 470.1 346.473C469.807 347.104 469.66 347.749 469.66 348.409C469.66 349.157 469.792 349.817 470.056 350.389C470.32 350.961 470.76 351.46 471.376 351.885L471.332 351.929C470.907 351.915 470.423 351.856 469.88 351.753C469.337 351.651 468.831 351.489 468.362 351.269C467.878 351.049 467.475 350.756 467.152 350.389C466.815 350.008 466.646 349.539 466.646 348.981C466.646 348.439 466.837 347.984 467.218 347.617C467.599 347.251 468.047 347.016 468.56 346.913ZM467.284 331.851L464.6 331.851L464.6 342.367L467.504 342.367L467.504 335.063C469.279 336.529 471.229 337.717 473.356 338.627C475.483 339.521 477.697 340.057 480 340.233L480 336.889C478.973 336.874 477.866 336.757 476.678 336.537C475.49 336.302 474.317 335.979 473.158 335.569C471.999 335.143 470.907 334.623 469.88 334.007C468.853 333.376 467.988 332.657 467.284 331.851ZM475.996 315.754C475.747 315.754 475.468 315.747 475.16 315.732C474.852 315.703 474.566 315.637 474.302 315.534C474.038 315.431 473.818 315.285 473.642 315.094C473.466 314.889 473.378 314.61 473.378 314.258C473.378 313.935 473.481 313.686 473.686 313.51C473.877 313.319 474.111 313.18 474.39 313.092C474.654 313.004 474.94 312.953 475.248 312.938C475.541 312.909 475.798 312.894 476.018 312.894C476.253 312.894 476.524 312.909 476.832 312.938C477.125 312.953 477.411 313.011 477.69 313.114C477.954 313.202 478.181 313.349 478.372 313.554C478.563 313.745 478.658 314.009 478.658 314.346C478.658 314.698 478.563 314.969 478.372 315.16C478.181 315.351 477.954 315.49 477.69 315.578C477.411 315.666 477.118 315.717 476.81 315.732C476.502 315.747 476.231 315.754 475.996 315.754ZM475.974 317.998C476.575 317.998 477.14 317.939 477.668 317.822C478.196 317.69 478.658 317.485 479.054 317.206C479.435 316.913 479.736 316.539 479.956 316.084C480.176 315.615 480.286 315.043 480.286 314.368C480.286 313.723 480.183 313.165 479.978 312.696C479.758 312.227 479.457 311.845 479.076 311.552C478.695 311.244 478.247 311.017 477.734 310.87C477.221 310.723 476.663 310.65 476.062 310.65C475.461 310.65 474.896 310.709 474.368 310.826C473.84 310.943 473.385 311.149 473.004 311.442C472.608 311.721 472.3 312.087 472.08 312.542C471.845 312.997 471.728 313.569 471.728 314.258C471.728 314.903 471.838 315.461 472.058 315.93C472.278 316.399 472.579 316.788 472.96 317.096C473.341 317.404 473.789 317.631 474.302 317.778C474.815 317.925 475.373 317.998 475.974 317.998ZM464.116 316.304L480.462 325.412L480.462 323.498L464.116 314.434L464.116 316.304ZM468.692 327.106C468.443 327.106 468.157 327.099 467.834 327.084C467.511 327.055 467.211 326.989 466.932 326.886C466.653 326.783 466.419 326.637 466.228 326.446C466.037 326.241 465.942 325.962 465.942 325.61C465.942 325.287 466.045 325.038 466.25 324.862C466.455 324.671 466.705 324.532 466.998 324.444C467.291 324.356 467.599 324.305 467.922 324.29C468.23 324.261 468.494 324.246 468.714 324.246C468.949 324.246 469.213 324.261 469.506 324.29C469.785 324.305 470.056 324.363 470.32 324.466C470.569 324.554 470.782 324.701 470.958 324.906C471.134 325.097 471.222 325.361 471.222 325.698C471.222 326.05 471.134 326.321 470.958 326.512C470.782 326.703 470.569 326.842 470.32 326.93C470.056 327.018 469.777 327.069 469.484 327.084C469.191 327.099 468.927 327.106 468.692 327.106ZM468.648 329.35C469.249 329.35 469.814 329.291 470.342 329.174C470.855 329.042 471.303 328.837 471.684 328.558C472.051 328.265 472.344 327.891 472.564 327.436C472.769 326.967 472.872 326.395 472.872 325.72C472.872 325.075 472.769 324.517 472.564 324.048C472.359 323.579 472.073 323.197 471.706 322.904C471.339 322.596 470.907 322.369 470.408 322.222C469.895 322.075 469.337 322.002 468.736 322.002C468.135 322.002 467.563 322.061 467.02 322.178C466.477 322.295 466.008 322.501 465.612 322.794C465.201 323.073 464.879 323.439 464.644 323.894C464.409 324.349 464.292 324.921 464.292 325.61C464.292 326.255 464.409 326.813 464.644 327.282C464.864 327.751 465.172 328.14 465.568 328.448C465.964 328.756 466.426 328.983 466.954 329.13C467.482 329.277 468.047 329.35 468.648 329.35Z" fill="#222220"/>
</svg>
