<svg width="570" height="570" viewBox="0 0 570 570" fill="none" xmlns="http://www.w3.org/2000/svg">
<path d="M223.39 285.135V282.12H225.97C226.51 282.12 226.915 282.24 227.185 282.48C227.455 282.71 227.59 283.085 227.59 283.605C227.59 284.145 227.455 284.535 227.185 284.775C226.915 285.015 226.51 285.135 225.97 285.135H223.39ZM221.035 280.29V291H223.39V286.815H225.745C226.335 286.815 226.76 286.945 227.02 287.205C227.28 287.465 227.45 287.875 227.53 288.435C227.59 288.865 227.635 289.315 227.665 289.785C227.695 290.255 227.775 290.66 227.905 291H230.26C230.15 290.85 230.065 290.67 230.005 290.46C229.955 290.24 229.915 290.01 229.885 289.77C229.865 289.53 229.85 289.295 229.84 289.065C229.83 288.835 229.82 288.635 229.81 288.465C229.79 288.195 229.75 287.925 229.69 287.655C229.64 287.385 229.555 287.14 229.435 286.92C229.315 286.69 229.16 286.495 228.97 286.335C228.78 286.165 228.54 286.04 228.25 285.96V285.93C228.85 285.69 229.28 285.34 229.54 284.88C229.81 284.42 229.945 283.875 229.945 283.245C229.945 282.835 229.87 282.455 229.72 282.105C229.58 281.745 229.37 281.43 229.09 281.16C228.82 280.89 228.49 280.68 228.1 280.53C227.72 280.37 227.29 280.29 226.81 280.29H221.035ZM231.86 280.29V291H239.99V289.02H234.215V286.395H239.405V284.565H234.215V282.27H239.87V280.29H231.86ZM243.192 287.445H240.912C240.902 288.105 241.022 288.675 241.272 289.155C241.522 289.635 241.857 290.03 242.277 290.34C242.707 290.65 243.197 290.875 243.747 291.015C244.307 291.165 244.882 291.24 245.472 291.24C246.202 291.24 246.842 291.155 247.392 290.985C247.952 290.815 248.417 290.58 248.787 290.28C249.167 289.97 249.452 289.605 249.642 289.185C249.832 288.765 249.927 288.31 249.927 287.82C249.927 287.22 249.797 286.73 249.537 286.35C249.287 285.96 248.987 285.65 248.637 285.42C248.287 285.19 247.932 285.025 247.572 284.925C247.222 284.815 246.947 284.74 246.747 284.7C246.077 284.53 245.532 284.39 245.112 284.28C244.702 284.17 244.377 284.06 244.137 283.95C243.907 283.84 243.752 283.72 243.672 283.59C243.592 283.46 243.552 283.29 243.552 283.08C243.552 282.85 243.602 282.66 243.702 282.51C243.802 282.36 243.927 282.235 244.077 282.135C244.237 282.035 244.412 281.965 244.602 281.925C244.792 281.885 244.982 281.865 245.172 281.865C245.462 281.865 245.727 281.89 245.967 281.94C246.217 281.99 246.437 282.075 246.627 282.195C246.817 282.315 246.967 282.48 247.077 282.69C247.197 282.9 247.267 283.165 247.287 283.485H249.567C249.567 282.865 249.447 282.34 249.207 281.91C248.977 281.47 248.662 281.11 248.262 280.83C247.862 280.55 247.402 280.35 246.882 280.23C246.372 280.1 245.837 280.035 245.277 280.035C244.797 280.035 244.317 280.1 243.837 280.23C243.357 280.36 242.927 280.56 242.547 280.83C242.167 281.1 241.857 281.44 241.617 281.85C241.387 282.25 241.272 282.725 241.272 283.275C241.272 283.765 241.362 284.185 241.542 284.535C241.732 284.875 241.977 285.16 242.277 285.39C242.577 285.62 242.917 285.81 243.297 285.96C243.677 286.1 244.067 286.22 244.467 286.32C244.857 286.43 245.242 286.53 245.622 286.62C246.002 286.71 246.342 286.815 246.642 286.935C246.942 287.055 247.182 287.205 247.362 287.385C247.552 287.565 247.647 287.8 247.647 288.09C247.647 288.36 247.577 288.585 247.437 288.765C247.297 288.935 247.122 289.07 246.912 289.17C246.702 289.27 246.477 289.34 246.237 289.38C245.997 289.41 245.772 289.425 245.562 289.425C245.252 289.425 244.952 289.39 244.662 289.32C244.372 289.24 244.117 289.125 243.897 288.975C243.687 288.815 243.517 288.61 243.387 288.36C243.257 288.11 243.192 287.805 243.192 287.445ZM253.683 285.33V282.12H255.513C255.783 282.12 256.043 282.14 256.293 282.18C256.543 282.22 256.763 282.3 256.953 282.42C257.143 282.53 257.293 282.69 257.403 282.9C257.523 283.11 257.583 283.385 257.583 283.725C257.583 284.065 257.523 284.34 257.403 284.55C257.293 284.76 257.143 284.925 256.953 285.045C256.763 285.155 256.543 285.23 256.293 285.27C256.043 285.31 255.783 285.33 255.513 285.33H253.683ZM251.328 280.29V291H253.683V287.16H256.158C256.828 287.16 257.398 287.065 257.868 286.875C258.338 286.675 258.718 286.415 259.008 286.095C259.308 285.775 259.523 285.41 259.653 285C259.793 284.58 259.863 284.155 259.863 283.725C259.863 283.285 259.793 282.86 259.653 282.45C259.523 282.04 259.308 281.675 259.008 281.355C258.718 281.035 258.338 280.78 257.868 280.59C257.398 280.39 256.828 280.29 256.158 280.29H251.328ZM263.223 285.69C263.223 285.22 263.273 284.765 263.373 284.325C263.483 283.885 263.653 283.495 263.883 283.155C264.113 282.805 264.413 282.53 264.783 282.33C265.153 282.12 265.603 282.015 266.133 282.015C266.663 282.015 267.113 282.12 267.483 282.33C267.853 282.53 268.153 282.805 268.383 283.155C268.613 283.495 268.778 283.885 268.878 284.325C268.988 284.765 269.043 285.22 269.043 285.69C269.043 286.14 268.988 286.58 268.878 287.01C268.778 287.43 268.613 287.81 268.383 288.15C268.153 288.49 267.853 288.765 267.483 288.975C267.113 289.175 266.663 289.275 266.133 289.275C265.603 289.275 265.153 289.175 264.783 288.975C264.413 288.765 264.113 288.49 263.883 288.15C263.653 287.81 263.483 287.43 263.373 287.01C263.273 286.58 263.223 286.14 263.223 285.69ZM260.868 285.69C260.868 286.47 260.988 287.2 261.228 287.88C261.468 288.55 261.813 289.135 262.263 289.635C262.713 290.135 263.263 290.53 263.913 290.82C264.573 291.1 265.313 291.24 266.133 291.24C266.963 291.24 267.703 291.1 268.353 290.82C269.003 290.53 269.553 290.135 270.003 289.635C270.453 289.135 270.798 288.55 271.038 287.88C271.278 287.2 271.398 286.47 271.398 285.69C271.398 284.89 271.278 284.15 271.038 283.47C270.798 282.78 270.453 282.18 270.003 281.67C269.553 281.16 269.003 280.76 268.353 280.47C267.703 280.18 266.963 280.035 266.133 280.035C265.313 280.035 264.573 280.18 263.913 280.47C263.263 280.76 262.713 281.16 262.263 281.67C261.813 282.18 261.468 282.78 261.228 283.47C260.988 284.15 260.868 284.89 260.868 285.69ZM273.008 280.29V291H275.213V283.83H275.243L279.698 291H282.053V280.29H279.848V287.475H279.818L275.348 280.29H273.008ZM285.731 287.445H283.451C283.441 288.105 283.561 288.675 283.811 289.155C284.061 289.635 284.396 290.03 284.816 290.34C285.246 290.65 285.736 290.875 286.286 291.015C286.846 291.165 287.421 291.24 288.011 291.24C288.741 291.24 289.381 291.155 289.931 290.985C290.491 290.815 290.956 290.58 291.326 290.28C291.706 289.97 291.991 289.605 292.181 289.185C292.371 288.765 292.466 288.31 292.466 287.82C292.466 287.22 292.336 286.73 292.076 286.35C291.826 285.96 291.526 285.65 291.176 285.42C290.826 285.19 290.471 285.025 290.111 284.925C289.761 284.815 289.486 284.74 289.286 284.7C288.616 284.53 288.071 284.39 287.651 284.28C287.241 284.17 286.916 284.06 286.676 283.95C286.446 283.84 286.291 283.72 286.211 283.59C286.131 283.46 286.091 283.29 286.091 283.08C286.091 282.85 286.141 282.66 286.241 282.51C286.341 282.36 286.466 282.235 286.616 282.135C286.776 282.035 286.951 281.965 287.141 281.925C287.331 281.885 287.521 281.865 287.711 281.865C288.001 281.865 288.266 281.89 288.506 281.94C288.756 281.99 288.976 282.075 289.166 282.195C289.356 282.315 289.506 282.48 289.616 282.69C289.736 282.9 289.806 283.165 289.826 283.485H292.106C292.106 282.865 291.986 282.34 291.746 281.91C291.516 281.47 291.201 281.11 290.801 280.83C290.401 280.55 289.941 280.35 289.421 280.23C288.911 280.1 288.376 280.035 287.816 280.035C287.336 280.035 286.856 280.1 286.376 280.23C285.896 280.36 285.466 280.56 285.086 280.83C284.706 281.1 284.396 281.44 284.156 281.85C283.926 282.25 283.811 282.725 283.811 283.275C283.811 283.765 283.901 284.185 284.081 284.535C284.271 284.875 284.516 285.16 284.816 285.39C285.116 285.62 285.456 285.81 285.836 285.96C286.216 286.1 286.606 286.22 287.006 286.32C287.396 286.43 287.781 286.53 288.161 286.62C288.541 286.71 288.881 286.815 289.181 286.935C289.481 287.055 289.721 287.205 289.901 287.385C290.091 287.565 290.186 287.8 290.186 288.09C290.186 288.36 290.116 288.585 289.976 288.765C289.836 288.935 289.661 289.07 289.451 289.17C289.241 289.27 289.016 289.34 288.776 289.38C288.536 289.41 288.311 289.425 288.101 289.425C287.791 289.425 287.491 289.39 287.201 289.32C286.911 289.24 286.656 289.125 286.436 288.975C286.226 288.815 286.056 288.61 285.926 288.36C285.796 288.11 285.731 287.805 285.731 287.445ZM296.567 286.86L297.962 282.93H297.992L299.342 286.86H296.567ZM296.792 280.29L292.742 291H295.112L295.952 288.615H299.957L300.767 291H303.212L299.207 280.29H296.792ZM306.491 284.625V282.12H308.696C308.906 282.12 309.106 282.14 309.296 282.18C309.496 282.21 309.671 282.27 309.821 282.36C309.971 282.45 310.091 282.575 310.181 282.735C310.271 282.895 310.316 283.1 310.316 283.35C310.316 283.8 310.181 284.125 309.911 284.325C309.641 284.525 309.296 284.625 308.876 284.625H306.491ZM304.136 280.29V291H309.326C309.806 291 310.271 290.94 310.721 290.82C311.181 290.7 311.586 290.515 311.936 290.265C312.296 290.015 312.581 289.695 312.791 289.305C313.001 288.905 313.106 288.435 313.106 287.895C313.106 287.225 312.941 286.655 312.611 286.185C312.291 285.705 311.801 285.37 311.141 285.18C311.621 284.95 311.981 284.655 312.221 284.295C312.471 283.935 312.596 283.485 312.596 282.945C312.596 282.445 312.511 282.025 312.341 281.685C312.181 281.345 311.951 281.075 311.651 280.875C311.351 280.665 310.991 280.515 310.571 280.425C310.151 280.335 309.686 280.29 309.176 280.29H304.136ZM306.491 289.17V286.23H309.056C309.566 286.23 309.976 286.35 310.286 286.59C310.596 286.82 310.751 287.21 310.751 287.76C310.751 288.04 310.701 288.27 310.601 288.45C310.511 288.63 310.386 288.775 310.226 288.885C310.066 288.985 309.881 289.06 309.671 289.11C309.461 289.15 309.241 289.17 309.011 289.17H306.491ZM314.697 280.29V291H317.052V280.29H314.697ZM319.121 280.29V291H326.696V289.02H321.476V280.29H319.121ZM328.013 280.29V291H330.368V280.29H328.013ZM334.806 282.27V291H337.161V282.27H340.371V280.29H331.596V282.27H334.806ZM344.381 286.83V291H346.736V286.89L350.711 280.29H348.086L345.596 284.52L343.091 280.29H340.451L344.381 286.83Z" fill="#222220"/>
<path d="M552 285C552 137.54 432.46 18 285 18C137.54 18 18 137.54 18 285C18 432.46 137.54 552 285 552C357.389 552 423.05 523.192 471.144 476.415" stroke="#232320" stroke-width="36"/>
<path opacity="0.2" d="M512.362 285C512.362 159.43 410.569 57.6367 285 57.6367C159.431 57.6367 57.6367 159.43 57.6367 285C57.6367 410.569 159.431 512.362 285 512.362C317.357 512.362 348.135 505.603 376 493.42" stroke="#232320" stroke-width="36"/>
<path opacity="0.2" d="M472.725 285C472.725 181.321 388.677 97.2738 284.999 97.2738C181.321 97.2738 97.2734 181.321 97.2734 285C97.2734 374.951 160.539 450.125 245 468.455" stroke="#232320" stroke-width="36"/>
<path d="M547.78 351.665C547.428 351.665 547.12 351.607 546.856 351.489C546.592 351.357 546.372 351.181 546.196 350.961C546.02 350.741 545.888 350.492 545.8 350.213C545.697 349.92 545.646 349.619 545.646 349.311C545.646 348.827 545.719 348.439 545.866 348.145C546.013 347.837 546.196 347.603 546.416 347.441C546.636 347.265 546.871 347.148 547.12 347.089C547.355 347.031 547.575 347.001 547.78 347.001C548.44 347.001 548.946 347.221 549.298 347.661C549.635 348.101 549.804 348.651 549.804 349.311C549.804 349.942 549.635 350.492 549.298 350.961C548.946 351.431 548.44 351.665 547.78 351.665ZM547.494 354.503C548.257 354.503 548.924 354.313 549.496 353.931C550.068 353.55 550.457 352.985 550.662 352.237L550.706 352.237C550.926 353.161 551.366 353.88 552.026 354.393C552.686 354.892 553.507 355.141 554.49 355.141C555.326 355.141 556.045 354.98 556.646 354.657C557.247 354.32 557.746 353.88 558.142 353.337C558.538 352.78 558.824 352.157 559 351.467C559.191 350.763 559.286 350.037 559.286 349.289C559.286 348.571 559.191 347.867 559 347.177C558.795 346.488 558.494 345.872 558.098 345.329C557.702 344.787 557.203 344.354 556.602 344.031C556.001 343.694 555.289 343.525 554.468 343.525C553.5 343.525 552.686 343.775 552.026 344.273C551.351 344.772 550.911 345.483 550.706 346.407L550.662 346.407C550.413 345.659 550.002 345.102 549.43 344.735C548.858 344.354 548.191 344.163 547.428 344.163C547.047 344.163 546.621 344.251 546.152 344.427C545.668 344.603 545.221 344.897 544.81 345.307C544.385 345.703 544.025 346.231 543.732 346.891C543.439 347.551 543.292 348.358 543.292 349.311C543.292 349.942 543.38 350.565 543.556 351.181C543.732 351.797 543.996 352.355 544.348 352.853C544.7 353.337 545.14 353.733 545.668 354.041C546.196 354.349 546.805 354.503 547.494 354.503ZM554.336 352.017C553.544 352.017 552.943 351.753 552.532 351.225C552.107 350.697 551.894 350.052 551.894 349.289C551.894 348.923 551.953 348.585 552.07 348.277C552.187 347.955 552.356 347.676 552.576 347.441C552.796 347.192 553.06 347.001 553.368 346.869C553.661 346.723 553.991 346.649 554.358 346.649C554.739 346.649 555.091 346.715 555.414 346.847C555.737 346.979 556.015 347.17 556.25 347.419C556.47 347.654 556.646 347.933 556.778 348.255C556.895 348.563 556.954 348.908 556.954 349.289C556.954 349.656 556.895 350.008 556.778 350.345C556.646 350.683 556.47 350.976 556.25 351.225C556.015 351.46 555.737 351.651 555.414 351.797C555.091 351.944 554.732 352.017 554.336 352.017ZM546.174 332.225L543.6 332.225L543.6 340.827L552.114 342.345L552.114 339.529C551.689 339.221 551.381 338.891 551.19 338.539C550.985 338.187 550.882 337.732 550.882 337.175C550.882 336.749 550.955 336.375 551.102 336.053C551.249 335.73 551.454 335.451 551.718 335.217C551.982 334.982 552.29 334.806 552.642 334.689C552.994 334.571 553.368 334.513 553.764 334.513C554.145 334.513 554.519 334.579 554.886 334.711C555.238 334.828 555.553 335.004 555.832 335.239C556.096 335.459 556.316 335.737 556.492 336.075C556.653 336.397 556.734 336.764 556.734 337.175C556.734 337.879 556.529 338.458 556.118 338.913C555.693 339.367 555.128 339.631 554.424 339.705L554.424 342.829C555.231 342.814 555.942 342.653 556.558 342.345C557.159 342.022 557.665 341.597 558.076 341.069C558.487 340.541 558.795 339.939 559 339.265C559.191 338.575 559.286 337.857 559.286 337.109C559.301 336.331 559.176 335.598 558.912 334.909C558.633 334.219 558.245 333.618 557.746 333.105C557.247 332.577 556.661 332.159 555.986 331.851C555.297 331.543 554.556 331.389 553.764 331.389C553.045 331.389 552.371 331.499 551.74 331.719C551.095 331.924 550.537 332.232 550.068 332.643C549.599 333.039 549.225 333.53 548.946 334.117C548.667 334.703 548.528 335.378 548.528 336.141C548.528 336.757 548.623 337.307 548.814 337.791C548.99 338.275 549.291 338.729 549.716 339.155L549.672 339.199L546.174 338.583L546.174 332.225ZM554.996 315.754C554.747 315.754 554.468 315.747 554.16 315.732C553.852 315.703 553.566 315.637 553.302 315.534C553.038 315.431 552.818 315.285 552.642 315.094C552.466 314.889 552.378 314.61 552.378 314.258C552.378 313.935 552.481 313.686 552.686 313.51C552.877 313.319 553.111 313.18 553.39 313.092C553.654 313.004 553.94 312.953 554.248 312.938C554.541 312.909 554.798 312.894 555.018 312.894C555.253 312.894 555.524 312.909 555.832 312.938C556.125 312.953 556.411 313.011 556.69 313.114C556.954 313.202 557.181 313.349 557.372 313.554C557.563 313.745 557.658 314.009 557.658 314.346C557.658 314.698 557.563 314.969 557.372 315.16C557.181 315.351 556.954 315.49 556.69 315.578C556.411 315.666 556.118 315.717 555.81 315.732C555.502 315.747 555.231 315.754 554.996 315.754ZM554.974 317.998C555.575 317.998 556.14 317.939 556.668 317.822C557.196 317.69 557.658 317.485 558.054 317.206C558.435 316.913 558.736 316.539 558.956 316.084C559.176 315.615 559.286 315.043 559.286 314.368C559.286 313.723 559.183 313.165 558.978 312.696C558.758 312.227 558.457 311.845 558.076 311.552C557.695 311.244 557.247 311.017 556.734 310.87C556.221 310.723 555.663 310.65 555.062 310.65C554.461 310.65 553.896 310.709 553.368 310.826C552.84 310.943 552.385 311.149 552.004 311.442C551.608 311.721 551.3 312.087 551.08 312.542C550.845 312.997 550.728 313.569 550.728 314.258C550.728 314.903 550.838 315.461 551.058 315.93C551.278 316.399 551.579 316.788 551.96 317.096C552.341 317.404 552.789 317.631 553.302 317.778C553.815 317.925 554.373 317.998 554.974 317.998ZM543.116 316.304L559.462 325.412L559.462 323.498L543.116 314.434L543.116 316.304ZM547.692 327.106C547.443 327.106 547.157 327.099 546.834 327.084C546.511 327.055 546.211 326.989 545.932 326.886C545.653 326.783 545.419 326.637 545.228 326.446C545.037 326.241 544.942 325.962 544.942 325.61C544.942 325.287 545.045 325.038 545.25 324.862C545.455 324.671 545.705 324.532 545.998 324.444C546.291 324.356 546.599 324.305 546.922 324.29C547.23 324.261 547.494 324.246 547.714 324.246C547.949 324.246 548.213 324.261 548.506 324.29C548.785 324.305 549.056 324.363 549.32 324.466C549.569 324.554 549.782 324.701 549.958 324.906C550.134 325.097 550.222 325.361 550.222 325.698C550.222 326.05 550.134 326.321 549.958 326.512C549.782 326.703 549.569 326.842 549.32 326.93C549.056 327.018 548.777 327.069 548.484 327.084C548.191 327.099 547.927 327.106 547.692 327.106ZM547.648 329.35C548.249 329.35 548.814 329.291 549.342 329.174C549.855 329.042 550.303 328.837 550.684 328.558C551.051 328.265 551.344 327.891 551.564 327.436C551.769 326.967 551.872 326.395 551.872 325.72C551.872 325.075 551.769 324.517 551.564 324.048C551.359 323.579 551.073 323.197 550.706 322.904C550.339 322.596 549.907 322.369 549.408 322.222C548.895 322.075 548.337 322.002 547.736 322.002C547.135 322.002 546.563 322.061 546.02 322.178C545.477 322.295 545.008 322.501 544.612 322.794C544.201 323.073 543.879 323.439 543.644 323.894C543.409 324.349 543.292 324.921 543.292 325.61C543.292 326.255 543.409 326.813 543.644 327.282C543.864 327.751 544.172 328.14 544.568 328.448C544.964 328.756 545.426 328.983 545.954 329.13C546.482 329.277 547.047 329.35 547.648 329.35Z" fill="#222220"/>
<path opacity="0.2" d="M507.78 351.665C507.428 351.665 507.12 351.607 506.856 351.489C506.592 351.357 506.372 351.181 506.196 350.961C506.02 350.741 505.888 350.492 505.8 350.213C505.697 349.92 505.646 349.619 505.646 349.311C505.646 348.827 505.719 348.439 505.866 348.145C506.013 347.837 506.196 347.603 506.416 347.441C506.636 347.265 506.871 347.148 507.12 347.089C507.355 347.031 507.575 347.001 507.78 347.001C508.44 347.001 508.946 347.221 509.298 347.661C509.635 348.101 509.804 348.651 509.804 349.311C509.804 349.942 509.635 350.492 509.298 350.961C508.946 351.431 508.44 351.665 507.78 351.665ZM507.494 354.503C508.257 354.503 508.924 354.313 509.496 353.931C510.068 353.55 510.457 352.985 510.662 352.237L510.706 352.237C510.926 353.161 511.366 353.88 512.026 354.393C512.686 354.892 513.507 355.141 514.49 355.141C515.326 355.141 516.045 354.98 516.646 354.657C517.247 354.32 517.746 353.88 518.142 353.337C518.538 352.78 518.824 352.157 519 351.467C519.191 350.763 519.286 350.037 519.286 349.289C519.286 348.571 519.191 347.867 519 347.177C518.795 346.488 518.494 345.872 518.098 345.329C517.702 344.787 517.203 344.354 516.602 344.031C516.001 343.694 515.289 343.525 514.468 343.525C513.5 343.525 512.686 343.775 512.026 344.273C511.351 344.772 510.911 345.483 510.706 346.407L510.662 346.407C510.413 345.659 510.002 345.102 509.43 344.735C508.858 344.354 508.191 344.163 507.428 344.163C507.047 344.163 506.621 344.251 506.152 344.427C505.668 344.603 505.221 344.897 504.81 345.307C504.385 345.703 504.025 346.231 503.732 346.891C503.439 347.551 503.292 348.358 503.292 349.311C503.292 349.942 503.38 350.565 503.556 351.181C503.732 351.797 503.996 352.355 504.348 352.853C504.7 353.337 505.14 353.733 505.668 354.041C506.196 354.349 506.805 354.503 507.494 354.503ZM514.336 352.017C513.544 352.017 512.943 351.753 512.532 351.225C512.107 350.697 511.894 350.052 511.894 349.289C511.894 348.923 511.953 348.585 512.07 348.277C512.187 347.955 512.356 347.676 512.576 347.441C512.796 347.192 513.06 347.001 513.368 346.869C513.661 346.723 513.991 346.649 514.358 346.649C514.739 346.649 515.091 346.715 515.414 346.847C515.737 346.979 516.015 347.17 516.25 347.419C516.47 347.654 516.646 347.933 516.778 348.255C516.895 348.563 516.954 348.908 516.954 349.289C516.954 349.656 516.895 350.008 516.778 350.345C516.646 350.683 516.47 350.976 516.25 351.225C516.015 351.46 515.737 351.651 515.414 351.797C515.091 351.944 514.732 352.017 514.336 352.017ZM511.234 339.639C510.97 339.639 510.655 339.639 510.288 339.639C509.907 339.624 509.518 339.595 509.122 339.551C508.726 339.507 508.337 339.433 507.956 339.331C507.56 339.228 507.208 339.089 506.9 338.913C506.592 338.722 506.343 338.487 506.152 338.209C505.961 337.915 505.866 337.556 505.866 337.131C505.866 336.705 505.961 336.346 506.152 336.053C506.343 335.759 506.592 335.517 506.9 335.327C507.208 335.136 507.56 334.997 507.956 334.909C508.337 334.806 508.726 334.733 509.122 334.689C509.518 334.63 509.907 334.601 510.288 334.601C510.655 334.586 510.97 334.579 511.234 334.579C511.674 334.579 512.209 334.593 512.84 334.623C513.456 334.652 514.057 334.747 514.644 334.909C515.216 335.055 515.707 335.305 516.118 335.657C516.529 335.994 516.734 336.485 516.734 337.131C516.734 337.761 516.529 338.245 516.118 338.583C515.707 338.92 515.216 339.169 514.644 339.331C514.057 339.477 513.456 339.565 512.84 339.595C512.209 339.624 511.674 339.639 511.234 339.639ZM511.234 342.763C512.774 342.763 514.065 342.616 515.106 342.323C516.133 342.015 516.954 341.604 517.57 341.091C518.186 340.577 518.626 339.983 518.89 339.309C519.154 338.619 519.286 337.893 519.286 337.131C519.286 336.353 519.154 335.627 518.89 334.953C518.626 334.263 518.186 333.662 517.57 333.149C516.954 332.621 516.133 332.21 515.106 331.917C514.065 331.609 512.774 331.455 511.234 331.455C509.738 331.455 508.484 331.609 507.472 331.917C506.445 332.21 505.624 332.621 505.008 333.149C504.392 333.662 503.952 334.263 503.688 334.953C503.424 335.627 503.292 336.353 503.292 337.131C503.292 337.893 503.424 338.619 503.688 339.309C503.952 339.983 504.392 340.577 505.008 341.091C505.624 341.604 506.445 342.015 507.472 342.323C508.484 342.616 509.738 342.763 511.234 342.763ZM514.996 315.754C514.747 315.754 514.468 315.747 514.16 315.732C513.852 315.703 513.566 315.637 513.302 315.534C513.038 315.431 512.818 315.285 512.642 315.094C512.466 314.889 512.378 314.61 512.378 314.258C512.378 313.935 512.481 313.686 512.686 313.51C512.877 313.319 513.111 313.18 513.39 313.092C513.654 313.004 513.94 312.953 514.248 312.938C514.541 312.909 514.798 312.894 515.018 312.894C515.253 312.894 515.524 312.909 515.832 312.938C516.125 312.953 516.411 313.011 516.69 313.114C516.954 313.202 517.181 313.349 517.372 313.554C517.563 313.745 517.658 314.009 517.658 314.346C517.658 314.698 517.563 314.969 517.372 315.16C517.181 315.351 516.954 315.49 516.69 315.578C516.411 315.666 516.118 315.717 515.81 315.732C515.502 315.747 515.231 315.754 514.996 315.754ZM514.974 317.998C515.575 317.998 516.14 317.939 516.668 317.822C517.196 317.69 517.658 317.485 518.054 317.206C518.435 316.913 518.736 316.539 518.956 316.084C519.176 315.615 519.286 315.043 519.286 314.368C519.286 313.723 519.183 313.165 518.978 312.696C518.758 312.227 518.457 311.845 518.076 311.552C517.695 311.244 517.247 311.017 516.734 310.87C516.221 310.723 515.663 310.65 515.062 310.65C514.461 310.65 513.896 310.709 513.368 310.826C512.84 310.943 512.385 311.149 512.004 311.442C511.608 311.721 511.3 312.087 511.08 312.542C510.845 312.997 510.728 313.569 510.728 314.258C510.728 314.903 510.838 315.461 511.058 315.93C511.278 316.399 511.579 316.788 511.96 317.096C512.341 317.404 512.789 317.631 513.302 317.778C513.815 317.925 514.373 317.998 514.974 317.998ZM503.116 316.304L519.462 325.412L519.462 323.498L503.116 314.434L503.116 316.304ZM507.692 327.106C507.443 327.106 507.157 327.099 506.834 327.084C506.511 327.055 506.211 326.989 505.932 326.886C505.653 326.783 505.419 326.637 505.228 326.446C505.037 326.241 504.942 325.962 504.942 325.61C504.942 325.287 505.045 325.038 505.25 324.862C505.455 324.671 505.705 324.532 505.998 324.444C506.291 324.356 506.599 324.305 506.922 324.29C507.23 324.261 507.494 324.246 507.714 324.246C507.949 324.246 508.213 324.261 508.506 324.29C508.785 324.305 509.056 324.363 509.32 324.466C509.569 324.554 509.782 324.701 509.958 324.906C510.134 325.097 510.222 325.361 510.222 325.698C510.222 326.05 510.134 326.321 509.958 326.512C509.782 326.703 509.569 326.842 509.32 326.93C509.056 327.018 508.777 327.069 508.484 327.084C508.191 327.099 507.927 327.106 507.692 327.106ZM507.648 329.35C508.249 329.35 508.814 329.291 509.342 329.174C509.855 329.042 510.303 328.837 510.684 328.558C511.051 328.265 511.344 327.891 511.564 327.436C511.769 326.967 511.872 326.395 511.872 325.72C511.872 325.075 511.769 324.517 511.564 324.048C511.359 323.579 511.073 323.197 510.706 322.904C510.339 322.596 509.907 322.369 509.408 322.222C508.895 322.075 508.337 322.002 507.736 322.002C507.135 322.002 506.563 322.061 506.02 322.178C505.477 322.295 505.008 322.501 504.612 322.794C504.201 323.073 503.879 323.439 503.644 323.894C503.409 324.349 503.292 324.921 503.292 325.61C503.292 326.255 503.409 326.813 503.644 327.282C503.864 327.751 504.172 328.14 504.568 328.448C504.964 328.756 505.426 328.983 505.954 329.13C506.482 329.277 507.047 329.35 507.648 329.35Z" fill="#222220"/>
<path opacity="0.2" d="M472.014 349.157C472.014 348.761 472.102 348.417 472.278 348.123C472.439 347.815 472.659 347.566 472.938 347.375C473.202 347.185 473.51 347.045 473.862 346.957C474.199 346.855 474.551 346.803 474.918 346.803C475.27 346.803 475.615 346.855 475.952 346.957C476.289 347.06 476.59 347.214 476.854 347.419C477.118 347.625 477.331 347.874 477.492 348.167C477.653 348.446 477.734 348.776 477.734 349.157C477.734 349.553 477.653 349.905 477.492 350.213C477.331 350.521 477.118 350.785 476.854 351.005C476.575 351.211 476.267 351.372 475.93 351.489C475.578 351.592 475.226 351.643 474.874 351.643C474.493 351.643 474.133 351.592 473.796 351.489C473.444 351.387 473.136 351.233 472.872 351.027C472.608 350.822 472.403 350.565 472.256 350.257C472.095 349.935 472.014 349.568 472.014 349.157ZM468.56 346.913L468.56 343.943C467.871 344.031 467.262 344.215 466.734 344.493C466.206 344.772 465.766 345.131 465.414 345.571C465.047 346.011 464.769 346.517 464.578 347.089C464.387 347.661 464.292 348.277 464.292 348.937C464.292 350.037 464.534 350.969 465.018 351.731C465.502 352.494 466.133 353.117 466.91 353.601C467.673 354.085 468.531 354.437 469.484 354.657C470.437 354.877 471.391 354.987 472.344 354.987C473.327 354.987 474.295 354.899 475.248 354.723C476.187 354.547 477.03 354.232 477.778 353.777C478.526 353.323 479.135 352.714 479.604 351.951C480.059 351.189 480.286 350.228 480.286 349.069C480.286 348.263 480.147 347.529 479.868 346.869C479.575 346.209 479.179 345.645 478.68 345.175C478.167 344.691 477.573 344.325 476.898 344.075C476.209 343.811 475.468 343.679 474.676 343.679C474.06 343.679 473.451 343.775 472.85 343.965C472.249 344.156 471.713 344.457 471.244 344.867C470.76 345.307 470.379 345.843 470.1 346.473C469.807 347.104 469.66 347.749 469.66 348.409C469.66 349.157 469.792 349.817 470.056 350.389C470.32 350.961 470.76 351.46 471.376 351.885L471.332 351.929C470.907 351.915 470.423 351.856 469.88 351.753C469.337 351.651 468.831 351.489 468.362 351.269C467.878 351.049 467.475 350.756 467.152 350.389C466.815 350.008 466.646 349.539 466.646 348.981C466.646 348.439 466.837 347.984 467.218 347.617C467.599 347.251 468.047 347.016 468.56 346.913ZM467.284 331.851L464.6 331.851L464.6 342.367L467.504 342.367L467.504 335.063C469.279 336.529 471.229 337.717 473.356 338.627C475.483 339.521 477.697 340.057 480 340.233L480 336.889C478.973 336.874 477.866 336.757 476.678 336.537C475.49 336.302 474.317 335.979 473.158 335.569C471.999 335.143 470.907 334.623 469.88 334.007C468.853 333.376 467.988 332.657 467.284 331.851ZM475.996 315.754C475.747 315.754 475.468 315.747 475.16 315.732C474.852 315.703 474.566 315.637 474.302 315.534C474.038 315.431 473.818 315.285 473.642 315.094C473.466 314.889 473.378 314.61 473.378 314.258C473.378 313.935 473.481 313.686 473.686 313.51C473.877 313.319 474.111 313.18 474.39 313.092C474.654 313.004 474.94 312.953 475.248 312.938C475.541 312.909 475.798 312.894 476.018 312.894C476.253 312.894 476.524 312.909 476.832 312.938C477.125 312.953 477.411 313.011 477.69 313.114C477.954 313.202 478.181 313.349 478.372 313.554C478.563 313.745 478.658 314.009 478.658 314.346C478.658 314.698 478.563 314.969 478.372 315.16C478.181 315.351 477.954 315.49 477.69 315.578C477.411 315.666 477.118 315.717 476.81 315.732C476.502 315.747 476.231 315.754 475.996 315.754ZM475.974 317.998C476.575 317.998 477.14 317.939 477.668 317.822C478.196 317.69 478.658 317.485 479.054 317.206C479.435 316.913 479.736 316.539 479.956 316.084C480.176 315.615 480.286 315.043 480.286 314.368C480.286 313.723 480.183 313.165 479.978 312.696C479.758 312.227 479.457 311.845 479.076 311.552C478.695 311.244 478.247 311.017 477.734 310.87C477.221 310.723 476.663 310.65 476.062 310.65C475.461 310.65 474.896 310.709 474.368 310.826C473.84 310.943 473.385 311.149 473.004 311.442C472.608 311.721 472.3 312.087 472.08 312.542C471.845 312.997 471.728 313.569 471.728 314.258C471.728 314.903 471.838 315.461 472.058 315.93C472.278 316.399 472.579 316.788 472.96 317.096C473.341 317.404 473.789 317.631 474.302 317.778C474.815 317.925 475.373 317.998 475.974 317.998ZM464.116 316.304L480.462 325.412L480.462 323.498L464.116 314.434L464.116 316.304ZM468.692 327.106C468.443 327.106 468.157 327.099 467.834 327.084C467.511 327.055 467.211 326.989 466.932 326.886C466.653 326.783 466.419 326.637 466.228 326.446C466.037 326.241 465.942 325.962 465.942 325.61C465.942 325.287 466.045 325.038 466.25 324.862C466.455 324.671 466.705 324.532 466.998 324.444C467.291 324.356 467.599 324.305 467.922 324.29C468.23 324.261 468.494 324.246 468.714 324.246C468.949 324.246 469.213 324.261 469.506 324.29C469.785 324.305 470.056 324.363 470.32 324.466C470.569 324.554 470.782 324.701 470.958 324.906C471.134 325.097 471.222 325.361 471.222 325.698C471.222 326.05 471.134 326.321 470.958 326.512C470.782 326.703 470.569 326.842 470.32 326.93C470.056 327.018 469.777 327.069 469.484 327.084C469.191 327.099 468.927 327.106 468.692 327.106ZM468.648 329.35C469.249 329.35 469.814 329.291 470.342 329.174C470.855 329.042 471.303 328.837 471.684 328.558C472.051 328.265 472.344 327.891 472.564 327.436C472.769 326.967 472.872 326.395 472.872 325.72C472.872 325.075 472.769 324.517 472.564 324.048C472.359 323.579 472.073 323.197 471.706 322.904C471.339 322.596 470.907 322.369 470.408 322.222C469.895 322.075 469.337 322.002 468.736 322.002C468.135 322.002 467.563 322.061 467.02 322.178C466.477 322.295 466.008 322.501 465.612 322.794C465.201 323.073 464.879 323.439 464.644 323.894C464.409 324.349 464.292 324.921 464.292 325.61C464.292 326.255 464.409 326.813 464.644 327.282C464.864 327.751 465.172 328.14 465.568 328.448C465.964 328.756 466.426 328.983 466.954 329.13C467.482 329.277 468.047 329.35 468.648 329.35Z" fill="#222220"/>
</svg>
