<svg width="776" height="489" viewBox="0 0 776 489" fill="none" xmlns="http://www.w3.org/2000/svg">
<path d="M9.31 318.05C7.18 318.05 5.455 319.625 5.455 321.785C5.455 322.145 5.545 322.505 5.695 322.82L5.68 322.85L1.915 320.285L1.915 321.545L5.995 324.305C7.015 324.995 7.975 325.64 9.25 325.64C11.47 325.64 13.195 324.11 13.195 321.845C13.195 319.655 11.47 318.05 9.31 318.05ZM9.325 319.16C10.87 319.16 12.19 320.24 12.19 321.845C12.19 323.405 10.87 324.53 9.355 324.53C7.825 324.53 6.46 323.45 6.46 321.845C6.46 320.255 7.795 319.16 9.325 319.16ZM4.42 311.949C2.935 311.949 1.735 313.179 1.735 314.664C1.735 316.149 2.935 317.379 4.42 317.379C5.905 317.379 7.105 316.149 7.105 314.664C7.105 313.179 5.905 311.949 4.42 311.949ZM1.9 308.244L1.9 309.264L13 315.624L13 314.604L1.9 308.244ZM10.51 306.399C9.025 306.399 7.825 307.629 7.825 309.114C7.825 310.599 9.025 311.829 10.51 311.829C11.995 311.829 13.195 310.599 13.195 309.114C13.195 307.629 11.995 306.399 10.51 306.399ZM4.42 312.849C5.44 312.849 6.265 313.644 6.265 314.664C6.265 315.684 5.44 316.479 4.42 316.479C3.4 316.479 2.575 315.684 2.575 314.664C2.575 313.644 3.4 312.849 4.42 312.849ZM10.51 307.299C11.53 307.299 12.355 308.094 12.355 309.114C12.355 310.134 11.53 310.929 10.51 310.929C9.49 310.929 8.665 310.134 8.665 309.114C8.665 308.094 9.49 307.299 10.51 307.299Z" fill="#222220"/>
<path d="M186.325 320.05C184.225 320.05 182.44 321.61 182.44 323.755C182.44 324.445 182.635 325.045 182.965 325.645L179.905 325.09L179.905 320.98L178.9 320.98L178.9 325.975L184.375 326.98L184.69 326.11C183.97 325.555 183.43 324.745 183.43 323.8C183.43 322.21 184.825 321.16 186.325 321.16C187.81 321.16 189.19 322.27 189.19 323.815C189.19 325.345 187.96 326.35 186.505 326.5L186.505 327.61C188.08 327.4 189.4 326.65 189.955 325.105C190.105 324.7 190.195 324.25 190.195 323.815C190.195 321.685 188.425 320.05 186.325 320.05ZM181.42 313.949C179.935 313.949 178.735 315.179 178.735 316.664C178.735 318.149 179.935 319.379 181.42 319.379C182.905 319.379 184.105 318.149 184.105 316.664C184.105 315.179 182.905 313.949 181.42 313.949ZM178.9 310.244L178.9 311.264L190 317.624L190 316.604L178.9 310.244ZM187.51 308.399C186.025 308.399 184.825 309.629 184.825 311.114C184.825 312.599 186.025 313.829 187.51 313.829C188.995 313.829 190.195 312.599 190.195 311.114C190.195 309.629 188.995 308.399 187.51 308.399ZM181.42 314.849C182.44 314.849 183.265 315.644 183.265 316.664C183.265 317.684 182.44 318.479 181.42 318.479C180.4 318.479 179.575 317.684 179.575 316.664C179.575 315.644 180.4 314.849 181.42 314.849ZM187.51 309.299C188.53 309.299 189.355 310.094 189.355 311.114C189.355 312.134 188.53 312.929 187.51 312.929C186.49 312.929 185.665 312.134 185.665 311.114C185.665 310.094 186.49 309.299 187.51 309.299Z" fill="#222220"/>
<path d="M363.775 304.305C362.47 304.305 361.36 305.055 360.805 306.225C360.385 305.46 359.515 304.905 358.63 304.905C356.98 304.905 355.705 306.195 355.705 307.845C355.705 309.48 356.935 310.785 358.585 310.785C359.515 310.785 360.31 310.245 360.805 309.48C361.27 310.65 362.53 311.385 363.775 311.385C365.71 311.385 367.195 309.72 367.195 307.83C367.195 305.94 365.695 304.305 363.775 304.305ZM358.54 306.015C359.545 306.015 360.34 306.84 360.34 307.83C360.34 308.805 359.53 309.675 358.54 309.675C357.505 309.675 356.71 308.85 356.71 307.815C356.71 306.81 357.55 306.015 358.54 306.015ZM363.775 305.415C365.095 305.415 366.19 306.48 366.19 307.815C366.19 309.225 365.14 310.275 363.73 310.275C362.44 310.275 361.375 309.135 361.375 307.86C361.375 306.525 362.425 305.415 363.775 305.415ZM358.42 297.949C356.935 297.949 355.735 299.179 355.735 300.664C355.735 302.149 356.935 303.379 358.42 303.379C359.905 303.379 361.105 302.149 361.105 300.664C361.105 299.179 359.905 297.949 358.42 297.949ZM355.9 294.244L355.9 295.264L367 301.624L367 300.604L355.9 294.244ZM364.51 292.399C363.025 292.399 361.825 293.629 361.825 295.114C361.825 296.599 363.025 297.829 364.51 297.829C365.995 297.829 367.195 296.599 367.195 295.114C367.195 293.629 365.995 292.399 364.51 292.399ZM358.42 298.849C359.44 298.849 360.265 299.644 360.265 300.664C360.265 301.684 359.44 302.479 358.42 302.479C357.4 302.479 356.575 301.684 356.575 300.664C356.575 299.644 357.4 298.849 358.42 298.849ZM364.51 293.299C365.53 293.299 366.355 294.094 366.355 295.114C366.355 296.134 365.53 296.929 364.51 296.929C363.49 296.929 362.665 296.134 362.665 295.114C362.665 294.094 363.49 293.299 364.51 293.299Z" fill="#222220"/>
<path d="M714.08 335.29C713.645 335.29 713.21 335.395 712.82 335.56C711.5 336.115 710.705 337.3 710.705 338.74C710.705 339.22 710.795 339.7 710.975 340.15C711.56 341.665 712.88 342.31 714.455 342.31L714.485 342.31L714.485 341.2C712.985 341.2 711.71 340.405 711.71 338.8C711.71 337.51 712.76 336.4 714.065 336.4C715.385 336.4 716.405 337.63 717.245 338.5L720.995 342.4L722 342.4L722 335.35L720.995 335.35L720.995 340.9L717.59 337.33C716.615 336.295 715.595 335.29 714.08 335.29ZM713.42 328.949C711.935 328.949 710.735 330.179 710.735 331.664C710.735 333.149 711.935 334.379 713.42 334.379C714.905 334.379 716.105 333.149 716.105 331.664C716.105 330.179 714.905 328.949 713.42 328.949ZM710.9 325.244L710.9 326.264L722 332.624L722 331.604L710.9 325.244ZM719.51 323.399C718.025 323.399 716.825 324.629 716.825 326.114C716.825 327.599 718.025 328.829 719.51 328.829C720.995 328.829 722.195 327.599 722.195 326.114C722.195 324.629 720.995 323.399 719.51 323.399ZM713.42 329.849C714.44 329.849 715.265 330.644 715.265 331.664C715.265 332.684 714.44 333.479 713.42 333.479C712.4 333.479 711.575 332.684 711.575 331.664C711.575 330.644 712.4 329.849 713.42 329.849ZM719.51 324.299C720.53 324.299 721.355 325.094 721.355 326.114C721.355 327.134 720.53 327.929 719.51 327.929C718.49 327.929 717.665 327.134 717.665 326.114C717.665 325.094 718.49 324.299 719.51 324.299Z" fill="#222220"/>
<path d="M79.58 335.41C78.305 335.41 77.225 336.175 76.64 337.285C76.085 336.58 75.5 336.145 74.555 336.145C72.95 336.145 71.705 337.33 71.705 338.95C71.705 340.66 73.04 341.71 74.675 341.755L74.675 340.645C73.685 340.645 72.71 340.075 72.71 338.98C72.71 337.96 73.46 337.255 74.465 337.255C75.65 337.255 76.205 338.23 76.205 339.325C76.205 339.445 76.19 339.58 76.19 339.7L77.165 339.7C77.18 339.28 77.165 338.83 77.27 338.41C77.54 337.33 78.515 336.52 79.64 336.52C81.065 336.52 82.19 337.435 82.19 338.905C82.19 339.775 81.755 340.54 81.005 340.99C80.525 341.275 80.075 341.335 79.52 341.38L79.52 342.49C81.08 342.43 82.37 341.74 82.94 340.225C83.105 339.82 83.195 339.355 83.195 338.905C83.195 336.88 81.575 335.41 79.58 335.41ZM74.42 328.949C72.935 328.949 71.735 330.179 71.735 331.664C71.735 333.149 72.935 334.379 74.42 334.379C75.905 334.379 77.105 333.149 77.105 331.664C77.105 330.179 75.905 328.949 74.42 328.949ZM71.9 325.244L71.9 326.264L83 332.624L83 331.604L71.9 325.244ZM80.51 323.399C79.025 323.399 77.825 324.629 77.825 326.114C77.825 327.599 79.025 328.829 80.51 328.829C81.995 328.829 83.195 327.599 83.195 326.114C83.195 324.629 81.995 323.399 80.51 323.399ZM74.42 329.849C75.44 329.849 76.265 330.644 76.265 331.664C76.265 332.684 75.44 333.479 74.42 333.479C73.4 333.479 72.575 332.684 72.575 331.664C72.575 330.644 73.4 329.849 74.42 329.849ZM80.51 324.299C81.53 324.299 82.355 325.094 82.355 326.114C82.355 327.134 81.53 327.929 80.51 327.929C79.49 327.929 78.665 327.134 78.665 326.114C78.665 325.094 79.49 324.299 80.51 324.299Z" fill="#222220"/>
<path d="M256.325 320.05C254.225 320.05 252.44 321.61 252.44 323.755C252.44 324.445 252.635 325.045 252.965 325.645L249.905 325.09L249.905 320.98L248.9 320.98L248.9 325.975L254.375 326.98L254.69 326.11C253.97 325.555 253.43 324.745 253.43 323.8C253.43 322.21 254.825 321.16 256.325 321.16C257.81 321.16 259.19 322.27 259.19 323.815C259.19 325.345 257.96 326.35 256.505 326.5L256.505 327.61C258.08 327.4 259.4 326.65 259.955 325.105C260.105 324.7 260.195 324.25 260.195 323.815C260.195 321.685 258.425 320.05 256.325 320.05ZM251.42 313.949C249.935 313.949 248.735 315.179 248.735 316.664C248.735 318.149 249.935 319.379 251.42 319.379C252.905 319.379 254.105 318.149 254.105 316.664C254.105 315.179 252.905 313.949 251.42 313.949ZM248.9 310.244L248.9 311.264L260 317.624L260 316.604L248.9 310.244ZM257.51 308.399C256.025 308.399 254.825 309.629 254.825 311.114C254.825 312.599 256.025 313.829 257.51 313.829C258.995 313.829 260.195 312.599 260.195 311.114C260.195 309.629 258.995 308.399 257.51 308.399ZM251.42 314.849C252.44 314.849 253.265 315.644 253.265 316.664C253.265 317.684 252.44 318.479 251.42 318.479C250.4 318.479 249.575 317.684 249.575 316.664C249.575 315.644 250.4 314.849 251.42 314.849ZM257.51 309.299C258.53 309.299 259.355 310.094 259.355 311.114C259.355 312.134 258.53 312.929 257.51 312.929C256.49 312.929 255.665 312.134 255.665 311.114C255.665 310.094 256.49 309.299 257.51 309.299Z" fill="#222220"/>
<path d="M435.975 324.08L434.97 324.08L434.97 325.085L426.9 325.085L426.9 326.405L434.97 331.79L435.975 331.79L435.975 326.195L438 326.195L438 325.085L435.975 325.085L435.975 324.08ZM434.97 326.195L434.97 330.515L428.43 326.225L428.43 326.195L434.97 326.195ZM429.42 317.949C427.935 317.949 426.735 319.179 426.735 320.664C426.735 322.149 427.935 323.379 429.42 323.379C430.905 323.379 432.105 322.149 432.105 320.664C432.105 319.179 430.905 317.949 429.42 317.949ZM426.9 314.244L426.9 315.264L438 321.624L438 320.604L426.9 314.244ZM435.51 312.399C434.025 312.399 432.825 313.629 432.825 315.114C432.825 316.599 434.025 317.829 435.51 317.829C436.995 317.829 438.195 316.599 438.195 315.114C438.195 313.629 436.995 312.399 435.51 312.399ZM429.42 318.849C430.44 318.849 431.265 319.644 431.265 320.664C431.265 321.684 430.44 322.479 429.42 322.479C428.4 322.479 427.575 321.684 427.575 320.664C427.575 319.644 428.4 318.849 429.42 318.849ZM435.51 313.299C436.53 313.299 437.355 314.094 437.355 315.114C437.355 316.134 436.53 316.929 435.51 316.929C434.49 316.929 433.665 316.134 433.665 315.114C433.665 314.094 434.49 313.299 435.51 313.299Z" fill="#222220"/>
<path d="M67 387H7V417.001H67V387Z" fill="#222220"/>
<path d="M10.735 450.86L12.13 446.93H12.16L13.51 450.86H10.735ZM10.96 444.29L6.91 455H9.28L10.12 452.615H14.125L14.935 455H17.38L13.375 444.29H10.96ZM18.5436 448.67V455H20.6736V448.67H22.1436V447.245H20.6736V446.78C20.6736 446.46 20.7336 446.235 20.8536 446.105C20.9836 445.965 21.1936 445.895 21.4836 445.895C21.7536 445.895 22.0136 445.91 22.2636 445.94V444.35C22.0836 444.34 21.8986 444.33 21.7086 444.32C21.5186 444.3 21.3286 444.29 21.1386 444.29C20.2686 444.29 19.6186 444.51 19.1886 444.95C18.7586 445.39 18.5436 445.955 18.5436 446.645V447.245H17.2686V448.67H18.5436ZM23.0737 447.245L23.0737 455H25.2037L25.2037 451.505C25.2037 451.155 25.2387 450.83 25.3087 450.53C25.3787 450.23 25.4937 449.97 25.6537 449.75C25.8237 449.52 26.0437 449.34 26.3137 449.21C26.5837 449.08 26.9137 449.015 27.3037 449.015C27.4337 449.015 27.5687 449.025 27.7087 449.045C27.8487 449.055 27.9687 449.07 28.0687 449.09V447.11C27.8987 447.06 27.7437 447.035 27.6037 447.035C27.3337 447.035 27.0737 447.075 26.8237 447.155C26.5737 447.235 26.3387 447.35 26.1187 447.5C25.8987 447.64 25.7037 447.815 25.5337 448.025C25.3637 448.225 25.2287 448.445 25.1287 448.685H25.0987V447.245H23.0737ZM31.0938 446.045V444.29H28.9638V446.045H31.0938ZM28.9638 447.245L28.9638 455H31.0938L31.0938 447.245H28.9638ZM38.0509 449.975H40.1359C40.1059 449.475 39.9859 449.045 39.7759 448.685C39.5659 448.315 39.2909 448.01 38.9509 447.77C38.6209 447.52 38.2409 447.335 37.8109 447.215C37.3909 447.095 36.9509 447.035 36.4909 447.035C35.8609 447.035 35.3009 447.14 34.8109 447.35C34.3209 447.56 33.9059 447.855 33.5659 448.235C33.2259 448.605 32.9659 449.05 32.7859 449.57C32.6159 450.08 32.5309 450.635 32.5309 451.235C32.5309 451.815 32.6259 452.35 32.8159 452.84C33.0059 453.32 33.2709 453.735 33.6109 454.085C33.9509 454.435 34.3609 454.71 34.8409 454.91C35.3309 455.1 35.8659 455.195 36.4459 455.195C37.4759 455.195 38.3209 454.925 38.9809 454.385C39.6409 453.845 40.0409 453.06 40.1809 452.03H38.1259C38.0559 452.51 37.8809 452.895 37.6009 453.185C37.3309 453.465 36.9409 453.605 36.4309 453.605C36.1009 453.605 35.8209 453.53 35.5909 453.38C35.3609 453.23 35.1759 453.04 35.0359 452.81C34.9059 452.57 34.8109 452.305 34.7509 452.015C34.6909 451.725 34.6609 451.44 34.6609 451.16C34.6609 450.87 34.6909 450.58 34.7509 450.29C34.8109 449.99 34.9109 449.72 35.0509 449.48C35.2009 449.23 35.3909 449.03 35.6209 448.88C35.8509 448.72 36.1359 448.64 36.4759 448.64C37.3859 448.64 37.9109 449.085 38.0509 449.975ZM41.2942 449.63H43.4242C43.4642 449.21 43.6042 448.91 43.8442 448.73C44.0842 448.55 44.4142 448.46 44.8342 448.46C45.0242 448.46 45.1992 448.475 45.3592 448.505C45.5292 448.525 45.6742 448.575 45.7942 448.655C45.9242 448.725 46.0242 448.83 46.0942 448.97C46.1742 449.1 46.2142 449.28 46.2142 449.51C46.2242 449.73 46.1592 449.9 46.0192 450.02C45.8792 450.13 45.6892 450.215 45.4492 450.275C45.2092 450.335 44.9342 450.38 44.6242 450.41C44.3142 450.44 43.9992 450.48 43.6792 450.53C43.3592 450.58 43.0392 450.65 42.7192 450.74C42.4092 450.82 42.1292 450.945 41.8792 451.115C41.6392 451.285 41.4392 451.515 41.2792 451.805C41.1292 452.085 41.0542 452.445 41.0542 452.885C41.0542 453.285 41.1192 453.63 41.2492 453.92C41.3892 454.21 41.5792 454.45 41.8192 454.64C42.0592 454.83 42.3392 454.97 42.6592 455.06C42.9792 455.15 43.3242 455.195 43.6942 455.195C44.1742 455.195 44.6442 455.125 45.1042 454.985C45.5642 454.845 45.9642 454.6 46.3042 454.25C46.3142 454.38 46.3292 454.51 46.3492 454.64C46.3792 454.76 46.4142 454.88 46.4542 455H48.6142C48.5142 454.84 48.4442 454.6 48.4042 454.28C48.3642 453.96 48.3442 453.625 48.3442 453.275V449.24C48.3442 448.77 48.2392 448.395 48.0292 448.115C47.8192 447.825 47.5492 447.6 47.2192 447.44C46.8892 447.28 46.5242 447.175 46.1242 447.125C45.7242 447.065 45.3292 447.035 44.9392 447.035C44.5092 447.035 44.0792 447.08 43.6492 447.17C43.2292 447.25 42.8492 447.39 42.5092 447.59C42.1692 447.79 41.8892 448.055 41.6692 448.385C41.4492 448.715 41.3242 449.13 41.2942 449.63ZM46.2142 451.205V452C46.2142 452.12 46.1992 452.28 46.1692 452.48C46.1492 452.68 46.0842 452.88 45.9742 453.08C45.8642 453.27 45.6942 453.435 45.4642 453.575C45.2342 453.715 44.9092 453.785 44.4892 453.785C44.3192 453.785 44.1542 453.77 43.9942 453.74C43.8342 453.71 43.6942 453.66 43.5742 453.59C43.4542 453.51 43.3592 453.405 43.2892 453.275C43.2192 453.145 43.1842 452.985 43.1842 452.795C43.1842 452.595 43.2192 452.43 43.2892 452.3C43.3592 452.17 43.4492 452.065 43.5592 451.985C43.6792 451.895 43.8142 451.825 43.9642 451.775C44.1242 451.725 44.2842 451.685 44.4442 451.655C44.6142 451.625 44.7842 451.6 44.9542 451.58C45.1242 451.56 45.2842 451.535 45.4342 451.505C45.5942 451.475 45.7392 451.44 45.8692 451.4C46.0092 451.35 46.1242 451.285 46.2142 451.205ZM49.9975 447.245V455H52.1275V450.935C52.1275 450.145 52.2575 449.58 52.5175 449.24C52.7775 448.89 53.1975 448.715 53.7775 448.715C54.2875 448.715 54.6425 448.875 54.8425 449.195C55.0425 449.505 55.1425 449.98 55.1425 450.62V455H57.2725V450.23C57.2725 449.75 57.2275 449.315 57.1375 448.925C57.0575 448.525 56.9125 448.19 56.7025 447.92C56.4925 447.64 56.2025 447.425 55.8325 447.275C55.4725 447.115 55.0075 447.035 54.4375 447.035C53.9875 447.035 53.5475 447.14 53.1175 447.35C52.6875 447.55 52.3375 447.875 52.0675 448.325H52.0225V447.245H49.9975ZM10.735 466.86L12.13 462.93H12.16L13.51 466.86H10.735ZM10.96 460.29L6.91 471H9.28L10.12 468.615H14.125L14.935 471H17.38L13.375 460.29H10.96ZM18.1386 463.245L18.1386 471H20.2686L20.2686 466.5C20.2686 466.12 20.3236 465.815 20.4336 465.585C20.5436 465.345 20.6736 465.165 20.8236 465.045C20.9836 464.915 21.1436 464.83 21.3036 464.79C21.4736 464.74 21.6086 464.715 21.7086 464.715C22.0486 464.715 22.3036 464.775 22.4736 464.895C22.6536 465.005 22.7786 465.155 22.8486 465.345C22.9286 465.535 22.9736 465.745 22.9836 465.975C22.9936 466.195 22.9986 466.42 22.9986 466.65L22.9986 471H25.1286V466.68C25.1286 466.44 25.1436 466.205 25.1736 465.975C25.2136 465.735 25.2836 465.525 25.3836 465.345C25.4936 465.155 25.6386 465.005 25.8186 464.895C26.0086 464.775 26.2536 464.715 26.5536 464.715C26.8536 464.715 27.0886 464.765 27.2586 464.865C27.4386 464.965 27.5736 465.1 27.6636 465.27C27.7536 465.44 27.8086 465.64 27.8286 465.87C27.8486 466.1 27.8586 466.345 27.8586 466.605V471H29.9886V465.81C29.9886 465.31 29.9186 464.885 29.7786 464.535C29.6386 464.175 29.4436 463.885 29.1936 463.665C28.9436 463.445 28.6436 463.285 28.2936 463.185C27.9436 463.085 27.5636 463.035 27.1536 463.035C26.6136 463.035 26.1436 463.165 25.7436 463.425C25.3536 463.685 25.0436 463.985 24.8136 464.325C24.6036 463.845 24.2936 463.51 23.8836 463.32C23.4836 463.13 23.0386 463.035 22.5486 463.035C22.0386 463.035 21.5836 463.145 21.1836 463.365C20.7936 463.585 20.4586 463.895 20.1786 464.295H20.1486V463.245H18.1386ZM36.8923 466.29H33.4273C33.4373 466.14 33.4673 465.97 33.5173 465.78C33.5773 465.59 33.6723 465.41 33.8023 465.24C33.9423 465.07 34.1223 464.93 34.3423 464.82C34.5723 464.7 34.8573 464.64 35.1973 464.64C35.7173 464.64 36.1023 464.78 36.3523 465.06C36.6123 465.34 36.7923 465.75 36.8923 466.29ZM33.4273 467.64H39.0223C39.0623 467.04 39.0123 466.465 38.8723 465.915C38.7323 465.365 38.5023 464.875 38.1823 464.445C37.8723 464.015 37.4723 463.675 36.9823 463.425C36.4923 463.165 35.9173 463.035 35.2573 463.035C34.6673 463.035 34.1273 463.14 33.6373 463.35C33.1573 463.56 32.7423 463.85 32.3923 464.22C32.0423 464.58 31.7723 465.01 31.5823 465.51C31.3923 466.01 31.2973 466.55 31.2973 467.13C31.2973 467.73 31.3873 468.28 31.5673 468.78C31.7573 469.28 32.0223 469.71 32.3623 470.07C32.7023 470.43 33.1173 470.71 33.6073 470.91C34.0973 471.1 34.6473 471.195 35.2573 471.195C36.1373 471.195 36.8873 470.995 37.5073 470.595C38.1273 470.195 38.5873 469.53 38.8873 468.6H37.0123C36.9423 468.84 36.7523 469.07 36.4423 469.29C36.1323 469.5 35.7623 469.605 35.3323 469.605C34.7323 469.605 34.2723 469.45 33.9523 469.14C33.6323 468.83 33.4573 468.33 33.4273 467.64ZM40.2856 463.245V471H42.4156V467.505C42.4156 467.155 42.4506 466.83 42.5206 466.53C42.5906 466.23 42.7056 465.97 42.8656 465.75C43.0356 465.52 43.2556 465.34 43.5256 465.21C43.7956 465.08 44.1256 465.015 44.5156 465.015C44.6456 465.015 44.7806 465.025 44.9206 465.045C45.0606 465.055 45.1806 465.07 45.2806 465.09V463.11C45.1106 463.06 44.9556 463.035 44.8156 463.035C44.5456 463.035 44.2856 463.075 44.0356 463.155C43.7856 463.235 43.5506 463.35 43.3306 463.5C43.1106 463.64 42.9156 463.815 42.7456 464.025C42.5756 464.225 42.4406 464.445 42.3406 464.685H42.3106V463.245H40.2856ZM48.3057 462.045V460.29H46.1757V462.045H48.3057ZM46.1757 463.245V471H48.3057V463.245H46.1757ZM55.2629 465.975H57.3479C57.3179 465.475 57.1979 465.045 56.9879 464.685C56.7779 464.315 56.5029 464.01 56.1629 463.77C55.8329 463.52 55.4529 463.335 55.0229 463.215C54.6029 463.095 54.1629 463.035 53.7029 463.035C53.0729 463.035 52.5129 463.14 52.0229 463.35C51.5329 463.56 51.1179 463.855 50.7779 464.235C50.4379 464.605 50.1779 465.05 49.9979 465.57C49.8279 466.08 49.7429 466.635 49.7429 467.235C49.7429 467.815 49.8379 468.35 50.0279 468.84C50.2179 469.32 50.4829 469.735 50.8229 470.085C51.1629 470.435 51.5729 470.71 52.0529 470.91C52.5429 471.1 53.0779 471.195 53.6579 471.195C54.6879 471.195 55.5329 470.925 56.1929 470.385C56.8529 469.845 57.2529 469.06 57.3929 468.03H55.3379C55.2679 468.51 55.0929 468.895 54.8129 469.185C54.5429 469.465 54.1529 469.605 53.6429 469.605C53.3129 469.605 53.0329 469.53 52.8029 469.38C52.5729 469.23 52.3879 469.04 52.2479 468.81C52.1179 468.57 52.0229 468.305 51.9629 468.015C51.9029 467.725 51.8729 467.44 51.8729 467.16C51.8729 466.87 51.9029 466.58 51.9629 466.29C52.0229 465.99 52.1229 465.72 52.2629 465.48C52.4129 465.23 52.6029 465.03 52.8329 464.88C53.0629 464.72 53.3479 464.64 53.6879 464.64C54.5979 464.64 55.1229 465.085 55.2629 465.975ZM58.5061 465.63H60.6361C60.6761 465.21 60.8161 464.91 61.0561 464.73C61.2961 464.55 61.6261 464.46 62.0461 464.46C62.2361 464.46 62.4111 464.475 62.5711 464.505C62.7411 464.525 62.8861 464.575 63.0061 464.655C63.1361 464.725 63.2361 464.83 63.3061 464.97C63.3861 465.1 63.4261 465.28 63.4261 465.51C63.4361 465.73 63.3711 465.9 63.2311 466.02C63.0911 466.13 62.9011 466.215 62.6611 466.275C62.4211 466.335 62.1461 466.38 61.8361 466.41C61.5261 466.44 61.2111 466.48 60.8911 466.53C60.5711 466.58 60.2511 466.65 59.9311 466.74C59.6211 466.82 59.3411 466.945 59.0911 467.115C58.8511 467.285 58.6511 467.515 58.4911 467.805C58.3411 468.085 58.2661 468.445 58.2661 468.885C58.2661 469.285 58.3311 469.63 58.4611 469.92C58.6011 470.21 58.7911 470.45 59.0311 470.64C59.2711 470.83 59.5511 470.97 59.8711 471.06C60.1911 471.15 60.5361 471.195 60.9061 471.195C61.3861 471.195 61.8561 471.125 62.3161 470.985C62.7761 470.845 63.1761 470.6 63.5161 470.25C63.5261 470.38 63.5411 470.51 63.5611 470.64C63.5911 470.76 63.6261 470.88 63.6661 471H65.8261C65.7261 470.84 65.6561 470.6 65.6161 470.28C65.5761 469.96 65.5561 469.625 65.5561 469.275V465.24C65.5561 464.77 65.4511 464.395 65.2411 464.115C65.0311 463.825 64.7611 463.6 64.4311 463.44C64.1011 463.28 63.7361 463.175 63.3361 463.125C62.9361 463.065 62.5411 463.035 62.1511 463.035C61.7211 463.035 61.2911 463.08 60.8611 463.17C60.4411 463.25 60.0611 463.39 59.7211 463.59C59.3811 463.79 59.1011 464.055 58.8811 464.385C58.6611 464.715 58.5361 465.13 58.5061 465.63ZM63.4261 467.205V468C63.4261 468.12 63.4111 468.28 63.3811 468.48C63.3611 468.68 63.2961 468.88 63.1861 469.08C63.0761 469.27 62.9061 469.435 62.6761 469.575C62.4461 469.715 62.1211 469.785 61.7011 469.785C61.5311 469.785 61.3661 469.77 61.2061 469.74C61.0461 469.71 60.9061 469.66 60.7861 469.59C60.6661 469.51 60.5711 469.405 60.5011 469.275C60.4311 469.145 60.3961 468.985 60.3961 468.795C60.3961 468.595 60.4311 468.43 60.5011 468.3C60.5711 468.17 60.6611 468.065 60.7711 467.985C60.8911 467.895 61.0261 467.825 61.1761 467.775C61.3361 467.725 61.4961 467.685 61.6561 467.655C61.8261 467.625 61.9961 467.6 62.1661 467.58C62.3361 467.56 62.4961 467.535 62.6461 467.505C62.8061 467.475 62.9511 467.44 63.0811 467.4C63.2211 467.35 63.3361 467.285 63.4261 467.205ZM67.2094 463.245V471H69.3394V466.935C69.3394 466.145 69.4694 465.58 69.7294 465.24C69.9894 464.89 70.4094 464.715 70.9894 464.715C71.4994 464.715 71.8544 464.875 72.0544 465.195C72.2544 465.505 72.3544 465.98 72.3544 466.62V471H74.4844V466.23C74.4844 465.75 74.4394 465.315 74.3494 464.925C74.2694 464.525 74.1244 464.19 73.9144 463.92C73.7044 463.64 73.4144 463.425 73.0444 463.275C72.6844 463.115 72.2194 463.035 71.6494 463.035C71.1994 463.035 70.7594 463.14 70.3294 463.35C69.8994 463.55 69.5494 463.875 69.2794 464.325H69.2344V463.245H67.2094ZM11.02 476.035L6.85 487.24H8.545L12.73 476.035H11.02ZM15.9564 480.625L15.9564 478.12H18.1614C18.3714 478.12 18.5714 478.14 18.7614 478.18C18.9614 478.21 19.1364 478.27 19.2864 478.36C19.4364 478.45 19.5564 478.575 19.6464 478.735C19.7364 478.895 19.7814 479.1 19.7814 479.35C19.7814 479.8 19.6464 480.125 19.3764 480.325C19.1064 480.525 18.7614 480.625 18.3414 480.625H15.9564ZM13.6014 476.29L13.6014 487H18.7914C19.2714 487 19.7364 486.94 20.1864 486.82C20.6464 486.7 21.0514 486.515 21.4014 486.265C21.7614 486.015 22.0464 485.695 22.2564 485.305C22.4664 484.905 22.5714 484.435 22.5714 483.895C22.5714 483.225 22.4064 482.655 22.0764 482.185C21.7564 481.705 21.2664 481.37 20.6064 481.18C21.0864 480.95 21.4464 480.655 21.6864 480.295C21.9364 479.935 22.0614 479.485 22.0614 478.945C22.0614 478.445 21.9764 478.025 21.8064 477.685C21.6464 477.345 21.4164 477.075 21.1164 476.875C20.8164 476.665 20.4564 476.515 20.0364 476.425C19.6164 476.335 19.1514 476.29 18.6414 476.29H13.6014ZM15.9564 485.17V482.23H18.5214C19.0314 482.23 19.4414 482.35 19.7514 482.59C20.0614 482.82 20.2164 483.21 20.2164 483.76C20.2164 484.04 20.1664 484.27 20.0664 484.45C19.9764 484.63 19.8514 484.775 19.6914 484.885C19.5314 484.985 19.3464 485.06 19.1364 485.11C18.9264 485.15 18.7064 485.17 18.4764 485.17H15.9564ZM23.9979 476.29V487H26.1279V476.29H23.9979ZM27.7151 481.63H29.8451C29.8851 481.21 30.0251 480.91 30.2651 480.73C30.5051 480.55 30.8351 480.46 31.2551 480.46C31.4451 480.46 31.6201 480.475 31.7801 480.505C31.9501 480.525 32.0951 480.575 32.2151 480.655C32.3451 480.725 32.4451 480.83 32.5151 480.97C32.5951 481.1 32.6351 481.28 32.6351 481.51C32.6451 481.73 32.5801 481.9 32.4401 482.02C32.3001 482.13 32.1101 482.215 31.8701 482.275C31.6301 482.335 31.3551 482.38 31.0451 482.41C30.7351 482.44 30.4201 482.48 30.1001 482.53C29.7801 482.58 29.4601 482.65 29.1401 482.74C28.8301 482.82 28.5501 482.945 28.3001 483.115C28.0601 483.285 27.8601 483.515 27.7001 483.805C27.5501 484.085 27.4751 484.445 27.4751 484.885C27.4751 485.285 27.5401 485.63 27.6701 485.92C27.8101 486.21 28.0001 486.45 28.2401 486.64C28.4801 486.83 28.7601 486.97 29.0801 487.06C29.4001 487.15 29.7451 487.195 30.1151 487.195C30.5951 487.195 31.0651 487.125 31.5251 486.985C31.9851 486.845 32.3851 486.6 32.7251 486.25C32.7351 486.38 32.7501 486.51 32.7701 486.64C32.8001 486.76 32.8351 486.88 32.8751 487H35.0351C34.9351 486.84 34.8651 486.6 34.8251 486.28C34.7851 485.96 34.7651 485.625 34.7651 485.275V481.24C34.7651 480.77 34.6601 480.395 34.4501 480.115C34.2401 479.825 33.9701 479.6 33.6401 479.44C33.3101 479.28 32.9451 479.175 32.5451 479.125C32.1451 479.065 31.7501 479.035 31.3601 479.035C30.9301 479.035 30.5001 479.08 30.0701 479.17C29.6501 479.25 29.2701 479.39 28.9301 479.59C28.5901 479.79 28.3101 480.055 28.0901 480.385C27.8701 480.715 27.7451 481.13 27.7151 481.63ZM32.6351 483.205V484C32.6351 484.12 32.6201 484.28 32.5901 484.48C32.5701 484.68 32.5051 484.88 32.3951 485.08C32.2851 485.27 32.1151 485.435 31.8851 485.575C31.6551 485.715 31.3301 485.785 30.9101 485.785C30.7401 485.785 30.5751 485.77 30.4151 485.74C30.2551 485.71 30.1151 485.66 29.9951 485.59C29.8751 485.51 29.7801 485.405 29.7101 485.275C29.6401 485.145 29.6051 484.985 29.6051 484.795C29.6051 484.595 29.6401 484.43 29.7101 484.3C29.7801 484.17 29.8701 484.065 29.9801 483.985C30.1001 483.895 30.2351 483.825 30.3851 483.775C30.5451 483.725 30.7051 483.685 30.8651 483.655C31.0351 483.625 31.2051 483.6 31.3751 483.58C31.5451 483.56 31.7051 483.535 31.8551 483.505C32.0151 483.475 32.1601 483.44 32.2901 483.4C32.4301 483.35 32.5451 483.285 32.6351 483.205ZM41.6984 481.975H43.7834C43.7534 481.475 43.6334 481.045 43.4234 480.685C43.2134 480.315 42.9384 480.01 42.5984 479.77C42.2684 479.52 41.8884 479.335 41.4584 479.215C41.0384 479.095 40.5984 479.035 40.1384 479.035C39.5084 479.035 38.9484 479.14 38.4584 479.35C37.9684 479.56 37.5534 479.855 37.2134 480.235C36.8734 480.605 36.6134 481.05 36.4334 481.57C36.2634 482.08 36.1784 482.635 36.1784 483.235C36.1784 483.815 36.2734 484.35 36.4634 484.84C36.6534 485.32 36.9184 485.735 37.2584 486.085C37.5984 486.435 38.0084 486.71 38.4884 486.91C38.9784 487.1 39.5134 487.195 40.0934 487.195C41.1234 487.195 41.9684 486.925 42.6284 486.385C43.2884 485.845 43.6884 485.06 43.8284 484.03H41.7734C41.7034 484.51 41.5284 484.895 41.2484 485.185C40.9784 485.465 40.5884 485.605 40.0784 485.605C39.7484 485.605 39.4684 485.53 39.2384 485.38C39.0084 485.23 38.8234 485.04 38.6834 484.81C38.5534 484.57 38.4584 484.305 38.3984 484.015C38.3384 483.725 38.3084 483.44 38.3084 483.16C38.3084 482.87 38.3384 482.58 38.3984 482.29C38.4584 481.99 38.5584 481.72 38.6984 481.48C38.8484 481.23 39.0384 481.03 39.2684 480.88C39.4984 480.72 39.7834 480.64 40.1234 480.64C41.0334 480.64 41.5584 481.085 41.6984 481.975ZM45.2267 476.29V487H47.3567V484.33L48.1817 483.535L50.3117 487H52.8917L49.6367 482.095L52.5617 479.245H50.0417L47.3567 482.035V476.29H45.2267Z" fill="#222220"/>
<path d="M364.735 450.86L366.13 446.93H366.16L367.51 450.86H364.735ZM364.96 444.29L360.91 455H363.28L364.12 452.615H368.125L368.935 455H371.38L367.375 444.29H364.96ZM373.729 452.48H371.704C371.724 453 371.839 453.435 372.049 453.785C372.269 454.125 372.544 454.4 372.874 454.61C373.214 454.82 373.599 454.97 374.029 455.06C374.459 455.15 374.899 455.195 375.349 455.195C375.789 455.195 376.219 455.15 376.639 455.06C377.069 454.98 377.449 454.835 377.779 454.625C378.109 454.415 378.374 454.14 378.574 453.8C378.784 453.45 378.889 453.02 378.889 452.51C378.889 452.15 378.819 451.85 378.679 451.61C378.539 451.36 378.354 451.155 378.124 450.995C377.894 450.825 377.629 450.69 377.329 450.59C377.039 450.49 376.739 450.405 376.429 450.335C376.129 450.265 375.834 450.2 375.544 450.14C375.254 450.08 374.994 450.015 374.764 449.945C374.544 449.865 374.364 449.765 374.224 449.645C374.084 449.525 374.014 449.37 374.014 449.18C374.014 449.02 374.054 448.895 374.134 448.805C374.214 448.705 374.309 448.63 374.419 448.58C374.539 448.53 374.669 448.5 374.809 448.49C374.949 448.47 375.079 448.46 375.199 448.46C375.579 448.46 375.909 448.535 376.189 448.685C376.469 448.825 376.624 449.1 376.654 449.51H378.679C378.639 449.03 378.514 448.635 378.304 448.325C378.104 448.005 377.849 447.75 377.539 447.56C377.229 447.37 376.874 447.235 376.474 447.155C376.084 447.075 375.679 447.035 375.259 447.035C374.839 447.035 374.429 447.075 374.029 447.155C373.629 447.225 373.269 447.355 372.949 447.545C372.629 447.725 372.369 447.975 372.169 448.295C371.979 448.615 371.884 449.025 371.884 449.525C371.884 449.865 371.954 450.155 372.094 450.395C372.234 450.625 372.419 450.82 372.649 450.98C372.879 451.13 373.139 451.255 373.429 451.355C373.729 451.445 374.034 451.525 374.344 451.595C375.104 451.755 375.694 451.915 376.114 452.075C376.544 452.235 376.759 452.475 376.759 452.795C376.759 452.985 376.714 453.145 376.624 453.275C376.534 453.395 376.419 453.495 376.279 453.575C376.149 453.645 375.999 453.7 375.829 453.74C375.669 453.77 375.514 453.785 375.364 453.785C375.154 453.785 374.949 453.76 374.749 453.71C374.559 453.66 374.389 453.585 374.239 453.485C374.089 453.375 373.964 453.24 373.864 453.08C373.774 452.91 373.729 452.71 373.729 452.48ZM382.325 446.045V444.29H380.195V446.045H382.325ZM380.195 447.245V455H382.325V447.245H380.195ZM383.912 449.63H386.042C386.082 449.21 386.222 448.91 386.462 448.73C386.702 448.55 387.032 448.46 387.452 448.46C387.642 448.46 387.817 448.475 387.977 448.505C388.147 448.525 388.292 448.575 388.412 448.655C388.542 448.725 388.642 448.83 388.712 448.97C388.792 449.1 388.832 449.28 388.832 449.51C388.842 449.73 388.777 449.9 388.637 450.02C388.497 450.13 388.307 450.215 388.067 450.275C387.827 450.335 387.552 450.38 387.242 450.41C386.932 450.44 386.617 450.48 386.297 450.53C385.977 450.58 385.657 450.65 385.337 450.74C385.027 450.82 384.747 450.945 384.497 451.115C384.257 451.285 384.057 451.515 383.897 451.805C383.747 452.085 383.672 452.445 383.672 452.885C383.672 453.285 383.737 453.63 383.867 453.92C384.007 454.21 384.197 454.45 384.437 454.64C384.677 454.83 384.957 454.97 385.277 455.06C385.597 455.15 385.942 455.195 386.312 455.195C386.792 455.195 387.262 455.125 387.722 454.985C388.182 454.845 388.582 454.6 388.922 454.25C388.932 454.38 388.947 454.51 388.967 454.64C388.997 454.76 389.032 454.88 389.072 455H391.232C391.132 454.84 391.062 454.6 391.022 454.28C390.982 453.96 390.962 453.625 390.962 453.275V449.24C390.962 448.77 390.857 448.395 390.647 448.115C390.437 447.825 390.167 447.6 389.837 447.44C389.507 447.28 389.142 447.175 388.742 447.125C388.342 447.065 387.947 447.035 387.557 447.035C387.127 447.035 386.697 447.08 386.267 447.17C385.847 447.25 385.467 447.39 385.127 447.59C384.787 447.79 384.507 448.055 384.287 448.385C384.067 448.715 383.942 449.13 383.912 449.63ZM388.832 451.205V452C388.832 452.12 388.817 452.28 388.787 452.48C388.767 452.68 388.702 452.88 388.592 453.08C388.482 453.27 388.312 453.435 388.082 453.575C387.852 453.715 387.527 453.785 387.107 453.785C386.937 453.785 386.772 453.77 386.612 453.74C386.452 453.71 386.312 453.66 386.192 453.59C386.072 453.51 385.977 453.405 385.907 453.275C385.837 453.145 385.802 452.985 385.802 452.795C385.802 452.595 385.837 452.43 385.907 452.3C385.977 452.17 386.067 452.065 386.177 451.985C386.297 451.895 386.432 451.825 386.582 451.775C386.742 451.725 386.902 451.685 387.062 451.655C387.232 451.625 387.402 451.6 387.572 451.58C387.742 451.56 387.902 451.535 388.052 451.505C388.212 451.475 388.357 451.44 388.487 451.4C388.627 451.35 388.742 451.285 388.832 451.205ZM392.616 447.245V455H394.746V450.935C394.746 450.145 394.876 449.58 395.136 449.24C395.396 448.89 395.816 448.715 396.396 448.715C396.906 448.715 397.261 448.875 397.461 449.195C397.661 449.505 397.761 449.98 397.761 450.62V455H399.891V450.23C399.891 449.75 399.846 449.315 399.756 448.925C399.676 448.525 399.531 448.19 399.321 447.92C399.111 447.64 398.821 447.425 398.451 447.275C398.091 447.115 397.626 447.035 397.056 447.035C396.606 447.035 396.166 447.14 395.736 447.35C395.306 447.55 394.956 447.875 394.686 448.325H394.641V447.245H392.616Z" fill="#222220"/>
<path d="M550.235 455L553.115 444.29H550.805L549.05 451.67H549.02L547.19 444.29H544.985L543.125 451.58H543.095L541.4 444.29H539.045L541.88 455H544.265L546.05 447.71H546.08L547.895 455H550.235ZM553.975 444.29V455H556.105V450.935C556.105 450.145 556.235 449.58 556.495 449.24C556.755 448.89 557.175 448.715 557.755 448.715C558.265 448.715 558.62 448.875 558.82 449.195C559.02 449.505 559.12 449.98 559.12 450.62V455H561.25V450.23C561.25 449.75 561.205 449.315 561.115 448.925C561.035 448.525 560.89 448.19 560.68 447.92C560.47 447.64 560.18 447.425 559.81 447.275C559.45 447.115 558.985 447.035 558.415 447.035C558.015 447.035 557.605 447.14 557.185 447.35C556.765 447.55 556.42 447.875 556.15 448.325H556.105V444.29H553.975ZM565.057 446.045V444.29H562.927V446.045H565.057ZM562.927 447.245V455H565.057V447.245H562.927ZM569.434 447.245V444.92H567.304V447.245H566.014V448.67H567.304V453.245C567.304 453.635 567.369 453.95 567.499 454.19C567.629 454.43 567.804 454.615 568.024 454.745C568.254 454.875 568.514 454.96 568.804 455C569.104 455.05 569.419 455.075 569.749 455.075C569.959 455.075 570.174 455.07 570.394 455.06C570.614 455.05 570.814 455.03 570.994 455V453.35C570.894 453.37 570.789 453.385 570.679 453.395C570.569 453.405 570.454 453.41 570.334 453.41C569.974 453.41 569.734 453.35 569.614 453.23C569.494 453.11 569.434 452.87 569.434 452.51V448.67H570.994V447.245H569.434ZM577.227 450.29H573.762C573.772 450.14 573.802 449.97 573.852 449.78C573.912 449.59 574.007 449.41 574.137 449.24C574.277 449.07 574.457 448.93 574.677 448.82C574.907 448.7 575.192 448.64 575.532 448.64C576.052 448.64 576.437 448.78 576.687 449.06C576.947 449.34 577.127 449.75 577.227 450.29ZM573.762 451.64H579.357C579.397 451.04 579.347 450.465 579.207 449.915C579.067 449.365 578.837 448.875 578.517 448.445C578.207 448.015 577.807 447.675 577.317 447.425C576.827 447.165 576.252 447.035 575.592 447.035C575.002 447.035 574.462 447.14 573.972 447.35C573.492 447.56 573.077 447.85 572.727 448.22C572.377 448.58 572.107 449.01 571.917 449.51C571.727 450.01 571.632 450.55 571.632 451.13C571.632 451.73 571.722 452.28 571.902 452.78C572.092 453.28 572.357 453.71 572.697 454.07C573.037 454.43 573.452 454.71 573.942 454.91C574.432 455.1 574.982 455.195 575.592 455.195C576.472 455.195 577.222 454.995 577.842 454.595C578.462 454.195 578.922 453.53 579.222 452.6H577.347C577.277 452.84 577.087 453.07 576.777 453.29C576.467 453.5 576.097 453.605 575.667 453.605C575.067 453.605 574.607 453.45 574.287 453.14C573.967 452.83 573.792 452.33 573.762 451.64Z" fill="#222220"/>
<path d="M718.925 449.69C718.925 449.22 718.975 448.765 719.075 448.325C719.185 447.885 719.355 447.495 719.585 447.155C719.815 446.805 720.115 446.53 720.485 446.33C720.855 446.12 721.305 446.015 721.835 446.015C722.365 446.015 722.815 446.12 723.185 446.33C723.555 446.53 723.855 446.805 724.085 447.155C724.315 447.495 724.48 447.885 724.58 448.325C724.69 448.765 724.745 449.22 724.745 449.69C724.745 450.14 724.69 450.58 724.58 451.01C724.48 451.43 724.315 451.81 724.085 452.15C723.855 452.49 723.555 452.765 723.185 452.975C722.815 453.175 722.365 453.275 721.835 453.275C721.305 453.275 720.855 453.175 720.485 452.975C720.115 452.765 719.815 452.49 719.585 452.15C719.355 451.81 719.185 451.43 719.075 451.01C718.975 450.58 718.925 450.14 718.925 449.69ZM716.57 449.69C716.57 450.47 716.69 451.2 716.93 451.88C717.17 452.55 717.515 453.135 717.965 453.635C718.415 454.135 718.965 454.53 719.615 454.82C720.275 455.1 721.015 455.24 721.835 455.24C722.665 455.24 723.405 455.1 724.055 454.82C724.705 454.53 725.255 454.135 725.705 453.635C726.155 453.135 726.5 452.55 726.74 451.88C726.98 451.2 727.1 450.47 727.1 449.69C727.1 448.89 726.98 448.15 726.74 447.47C726.5 446.78 726.155 446.18 725.705 445.67C725.255 445.16 724.705 444.76 724.055 444.47C723.405 444.18 722.665 444.035 721.835 444.035C721.015 444.035 720.275 444.18 719.615 444.47C718.965 444.76 718.415 445.16 717.965 445.67C717.515 446.18 717.17 446.78 716.93 447.47C716.69 448.15 716.57 448.89 716.57 449.69ZM731.185 447.245V444.92H729.055V447.245H727.765V448.67H729.055V453.245C729.055 453.635 729.12 453.95 729.25 454.19C729.38 454.43 729.555 454.615 729.775 454.745C730.005 454.875 730.265 454.96 730.555 455C730.855 455.05 731.17 455.075 731.5 455.075C731.71 455.075 731.925 455.07 732.145 455.06C732.365 455.05 732.565 455.03 732.745 455V453.35C732.645 453.37 732.54 453.385 732.43 453.395C732.32 453.405 732.205 453.41 732.085 453.41C731.725 453.41 731.485 453.35 731.365 453.23C731.245 453.11 731.185 452.87 731.185 452.51V448.67H732.745V447.245H731.185ZM733.758 444.29V455H735.888V450.935C735.888 450.145 736.018 449.58 736.278 449.24C736.538 448.89 736.958 448.715 737.538 448.715C738.048 448.715 738.403 448.875 738.603 449.195C738.803 449.505 738.903 449.98 738.903 450.62V455H741.033V450.23C741.033 449.75 740.988 449.315 740.898 448.925C740.818 448.525 740.673 448.19 740.463 447.92C740.253 447.64 739.963 447.425 739.593 447.275C739.233 447.115 738.768 447.035 738.198 447.035C737.798 447.035 737.388 447.14 736.968 447.35C736.548 447.55 736.203 447.875 735.933 448.325H735.888V444.29H733.758ZM747.87 450.29H744.405C744.415 450.14 744.445 449.97 744.495 449.78C744.555 449.59 744.65 449.41 744.78 449.24C744.92 449.07 745.1 448.93 745.32 448.82C745.55 448.7 745.835 448.64 746.175 448.64C746.695 448.64 747.08 448.78 747.33 449.06C747.59 449.34 747.77 449.75 747.87 450.29ZM744.405 451.64H750C750.04 451.04 749.99 450.465 749.85 449.915C749.71 449.365 749.48 448.875 749.16 448.445C748.85 448.015 748.45 447.675 747.96 447.425C747.47 447.165 746.895 447.035 746.235 447.035C745.645 447.035 745.105 447.14 744.615 447.35C744.135 447.56 743.72 447.85 743.37 448.22C743.02 448.58 742.75 449.01 742.56 449.51C742.37 450.01 742.275 450.55 742.275 451.13C742.275 451.73 742.365 452.28 742.545 452.78C742.735 453.28 743 453.71 743.34 454.07C743.68 454.43 744.095 454.71 744.585 454.91C745.075 455.1 745.625 455.195 746.235 455.195C747.115 455.195 747.865 454.995 748.485 454.595C749.105 454.195 749.565 453.53 749.865 452.6H747.99C747.92 452.84 747.73 453.07 747.42 453.29C747.11 453.5 746.74 453.605 746.31 453.605C745.71 453.605 745.25 453.45 744.93 453.14C744.61 452.83 744.435 452.33 744.405 451.64ZM751.263 447.245V455H753.393V451.505C753.393 451.155 753.428 450.83 753.498 450.53C753.568 450.23 753.683 449.97 753.843 449.75C754.013 449.52 754.233 449.34 754.503 449.21C754.773 449.08 755.103 449.015 755.493 449.015C755.623 449.015 755.758 449.025 755.898 449.045C756.038 449.055 756.158 449.07 756.258 449.09V447.11C756.088 447.06 755.933 447.035 755.793 447.035C755.523 447.035 755.263 447.075 755.013 447.155C754.763 447.235 754.528 447.35 754.308 447.5C754.088 447.64 753.893 447.815 753.723 448.025C753.553 448.225 753.418 448.445 753.318 448.685H753.288V447.245H751.263Z" fill="#222220"/>
<path d="M185.035 444.29V455H187.39V450.38H191.725V455H194.08V444.29H191.725V448.4H187.39V444.29H185.035ZM198.118 446.045V444.29H195.988V446.045H198.118ZM195.988 447.245V455H198.118V447.245H195.988ZM201.445 452.48H199.42C199.44 453 199.555 453.435 199.765 453.785C199.985 454.125 200.26 454.4 200.59 454.61C200.93 454.82 201.315 454.97 201.745 455.06C202.175 455.15 202.615 455.195 203.065 455.195C203.505 455.195 203.935 455.15 204.355 455.06C204.785 454.98 205.165 454.835 205.495 454.625C205.825 454.415 206.09 454.14 206.29 453.8C206.5 453.45 206.605 453.02 206.605 452.51C206.605 452.15 206.535 451.85 206.395 451.61C206.255 451.36 206.07 451.155 205.84 450.995C205.61 450.825 205.345 450.69 205.045 450.59C204.755 450.49 204.455 450.405 204.145 450.335C203.845 450.265 203.55 450.2 203.26 450.14C202.97 450.08 202.71 450.015 202.48 449.945C202.26 449.865 202.08 449.765 201.94 449.645C201.8 449.525 201.73 449.37 201.73 449.18C201.73 449.02 201.77 448.895 201.85 448.805C201.93 448.705 202.025 448.63 202.135 448.58C202.255 448.53 202.385 448.5 202.525 448.49C202.665 448.47 202.795 448.46 202.915 448.46C203.295 448.46 203.625 448.535 203.905 448.685C204.185 448.825 204.34 449.1 204.37 449.51H206.395C206.355 449.03 206.23 448.635 206.02 448.325C205.82 448.005 205.565 447.75 205.255 447.56C204.945 447.37 204.59 447.235 204.19 447.155C203.8 447.075 203.395 447.035 202.975 447.035C202.555 447.035 202.145 447.075 201.745 447.155C201.345 447.225 200.985 447.355 200.665 447.545C200.345 447.725 200.085 447.975 199.885 448.295C199.695 448.615 199.6 449.025 199.6 449.525C199.6 449.865 199.67 450.155 199.81 450.395C199.95 450.625 200.135 450.82 200.365 450.98C200.595 451.13 200.855 451.255 201.145 451.355C201.445 451.445 201.75 451.525 202.06 451.595C202.82 451.755 203.41 451.915 203.83 452.075C204.26 452.235 204.475 452.475 204.475 452.795C204.475 452.985 204.43 453.145 204.34 453.275C204.25 453.395 204.135 453.495 203.995 453.575C203.865 453.645 203.715 453.7 203.545 453.74C203.385 453.77 203.23 453.785 203.08 453.785C202.87 453.785 202.665 453.76 202.465 453.71C202.275 453.66 202.105 453.585 201.955 453.485C201.805 453.375 201.68 453.24 201.58 453.08C201.49 452.91 201.445 452.71 201.445 452.48ZM211.767 453.605C211.427 453.605 211.137 453.535 210.897 453.395C210.657 453.255 210.462 453.075 210.312 452.855C210.172 452.625 210.067 452.36 209.997 452.06C209.937 451.76 209.907 451.455 209.907 451.145C209.907 450.825 209.937 450.515 209.997 450.215C210.057 449.915 210.157 449.65 210.297 449.42C210.447 449.19 210.637 449.005 210.867 448.865C211.107 448.715 211.402 448.64 211.752 448.64C212.092 448.64 212.377 448.715 212.607 448.865C212.847 449.005 213.042 449.195 213.192 449.435C213.342 449.665 213.447 449.93 213.507 450.23C213.577 450.53 213.612 450.835 213.612 451.145C213.612 451.455 213.582 451.76 213.522 452.06C213.462 452.36 213.357 452.625 213.207 452.855C213.067 453.075 212.877 453.255 212.637 453.395C212.407 453.535 212.117 453.605 211.767 453.605ZM207.852 447.245V457.715H209.982V454.04H210.012C210.272 454.42 210.602 454.71 211.002 454.91C211.412 455.1 211.857 455.195 212.337 455.195C212.907 455.195 213.402 455.085 213.822 454.865C214.252 454.645 214.607 454.35 214.887 453.98C215.177 453.61 215.392 453.185 215.532 452.705C215.672 452.225 215.742 451.725 215.742 451.205C215.742 450.655 215.672 450.13 215.532 449.63C215.392 449.12 215.177 448.675 214.887 448.295C214.597 447.915 214.232 447.61 213.792 447.38C213.352 447.15 212.827 447.035 212.217 447.035C211.737 447.035 211.297 447.13 210.897 447.32C210.497 447.51 210.167 447.815 209.907 448.235H209.877V447.245H207.852ZM216.932 449.63H219.062C219.102 449.21 219.242 448.91 219.482 448.73C219.722 448.55 220.052 448.46 220.472 448.46C220.662 448.46 220.837 448.475 220.997 448.505C221.167 448.525 221.312 448.575 221.432 448.655C221.562 448.725 221.662 448.83 221.732 448.97C221.812 449.1 221.852 449.28 221.852 449.51C221.862 449.73 221.797 449.9 221.657 450.02C221.517 450.13 221.327 450.215 221.087 450.275C220.847 450.335 220.572 450.38 220.262 450.41C219.952 450.44 219.637 450.48 219.317 450.53C218.997 450.58 218.677 450.65 218.357 450.74C218.047 450.82 217.767 450.945 217.517 451.115C217.277 451.285 217.077 451.515 216.917 451.805C216.767 452.085 216.692 452.445 216.692 452.885C216.692 453.285 216.757 453.63 216.887 453.92C217.027 454.21 217.217 454.45 217.457 454.64C217.697 454.83 217.977 454.97 218.297 455.06C218.617 455.15 218.962 455.195 219.332 455.195C219.812 455.195 220.282 455.125 220.742 454.985C221.202 454.845 221.602 454.6 221.942 454.25C221.952 454.38 221.967 454.51 221.987 454.64C222.017 454.76 222.052 454.88 222.092 455H224.252C224.152 454.84 224.082 454.6 224.042 454.28C224.002 453.96 223.982 453.625 223.982 453.275V449.24C223.982 448.77 223.877 448.395 223.667 448.115C223.457 447.825 223.187 447.6 222.857 447.44C222.527 447.28 222.162 447.175 221.762 447.125C221.362 447.065 220.967 447.035 220.577 447.035C220.147 447.035 219.717 447.08 219.287 447.17C218.867 447.25 218.487 447.39 218.147 447.59C217.807 447.79 217.527 448.055 217.307 448.385C217.087 448.715 216.962 449.13 216.932 449.63ZM221.852 451.205V452C221.852 452.12 221.837 452.28 221.807 452.48C221.787 452.68 221.722 452.88 221.612 453.08C221.502 453.27 221.332 453.435 221.102 453.575C220.872 453.715 220.547 453.785 220.127 453.785C219.957 453.785 219.792 453.77 219.632 453.74C219.472 453.71 219.332 453.66 219.212 453.59C219.092 453.51 218.997 453.405 218.927 453.275C218.857 453.145 218.822 452.985 218.822 452.795C218.822 452.595 218.857 452.43 218.927 452.3C218.997 452.17 219.087 452.065 219.197 451.985C219.317 451.895 219.452 451.825 219.602 451.775C219.762 451.725 219.922 451.685 220.082 451.655C220.252 451.625 220.422 451.6 220.592 451.58C220.762 451.56 220.922 451.535 221.072 451.505C221.232 451.475 221.377 451.44 221.507 451.4C221.647 451.35 221.762 451.285 221.852 451.205ZM225.635 447.245V455H227.765V450.935C227.765 450.145 227.895 449.58 228.155 449.24C228.415 448.89 228.835 448.715 229.415 448.715C229.925 448.715 230.28 448.875 230.48 449.195C230.68 449.505 230.78 449.98 230.78 450.62V455H232.91V450.23C232.91 449.75 232.865 449.315 232.775 448.925C232.695 448.525 232.55 448.19 232.34 447.92C232.13 447.64 231.84 447.425 231.47 447.275C231.11 447.115 230.645 447.035 230.075 447.035C229.625 447.035 229.185 447.14 228.755 447.35C228.325 447.55 227.975 447.875 227.705 448.325H227.66V447.245H225.635ZM236.717 446.045V444.29H234.587V446.045H236.717ZM234.587 447.245V455H236.717V447.245H234.587ZM243.674 449.975H245.759C245.729 449.475 245.609 449.045 245.399 448.685C245.189 448.315 244.914 448.01 244.574 447.77C244.244 447.52 243.864 447.335 243.434 447.215C243.014 447.095 242.574 447.035 242.114 447.035C241.484 447.035 240.924 447.14 240.434 447.35C239.944 447.56 239.529 447.855 239.189 448.235C238.849 448.605 238.589 449.05 238.409 449.57C238.239 450.08 238.154 450.635 238.154 451.235C238.154 451.815 238.249 452.35 238.439 452.84C238.629 453.32 238.894 453.735 239.234 454.085C239.574 454.435 239.984 454.71 240.464 454.91C240.954 455.1 241.489 455.195 242.069 455.195C243.099 455.195 243.944 454.925 244.604 454.385C245.264 453.845 245.664 453.06 245.804 452.03H243.749C243.679 452.51 243.504 452.895 243.224 453.185C242.954 453.465 242.564 453.605 242.054 453.605C241.724 453.605 241.444 453.53 241.214 453.38C240.984 453.23 240.799 453.04 240.659 452.81C240.529 452.57 240.434 452.305 240.374 452.015C240.314 451.725 240.284 451.44 240.284 451.16C240.284 450.87 240.314 450.58 240.374 450.29C240.434 449.99 240.534 449.72 240.674 449.48C240.824 449.23 241.014 449.03 241.244 448.88C241.474 448.72 241.759 448.64 242.099 448.64C243.009 448.64 243.534 449.085 243.674 449.975ZM188.02 460.035L183.85 471.24H185.545L189.73 460.035H188.02ZM190.601 460.29V471H198.176V469.02H192.956V460.29H190.601ZM199.178 465.63H201.308C201.348 465.21 201.488 464.91 201.728 464.73C201.968 464.55 202.298 464.46 202.718 464.46C202.908 464.46 203.083 464.475 203.243 464.505C203.413 464.525 203.558 464.575 203.678 464.655C203.808 464.725 203.908 464.83 203.978 464.97C204.058 465.1 204.098 465.28 204.098 465.51C204.108 465.73 204.043 465.9 203.903 466.02C203.763 466.13 203.573 466.215 203.333 466.275C203.093 466.335 202.818 466.38 202.508 466.41C202.198 466.44 201.883 466.48 201.563 466.53C201.243 466.58 200.923 466.65 200.603 466.74C200.293 466.82 200.013 466.945 199.763 467.115C199.523 467.285 199.323 467.515 199.163 467.805C199.013 468.085 198.938 468.445 198.938 468.885C198.938 469.285 199.003 469.63 199.133 469.92C199.273 470.21 199.463 470.45 199.703 470.64C199.943 470.83 200.223 470.97 200.543 471.06C200.863 471.15 201.208 471.195 201.578 471.195C202.058 471.195 202.528 471.125 202.988 470.985C203.448 470.845 203.848 470.6 204.188 470.25C204.198 470.38 204.213 470.51 204.233 470.64C204.263 470.76 204.298 470.88 204.338 471H206.498C206.398 470.84 206.328 470.6 206.288 470.28C206.248 469.96 206.228 469.625 206.228 469.275V465.24C206.228 464.77 206.123 464.395 205.913 464.115C205.703 463.825 205.433 463.6 205.103 463.44C204.773 463.28 204.408 463.175 204.008 463.125C203.608 463.065 203.213 463.035 202.823 463.035C202.393 463.035 201.963 463.08 201.533 463.17C201.113 463.25 200.733 463.39 200.393 463.59C200.053 463.79 199.773 464.055 199.553 464.385C199.333 464.715 199.208 465.13 199.178 465.63ZM204.098 467.205V468C204.098 468.12 204.083 468.28 204.053 468.48C204.033 468.68 203.968 468.88 203.858 469.08C203.748 469.27 203.578 469.435 203.348 469.575C203.118 469.715 202.793 469.785 202.373 469.785C202.203 469.785 202.038 469.77 201.878 469.74C201.718 469.71 201.578 469.66 201.458 469.59C201.338 469.51 201.243 469.405 201.173 469.275C201.103 469.145 201.068 468.985 201.068 468.795C201.068 468.595 201.103 468.43 201.173 468.3C201.243 468.17 201.333 468.065 201.443 467.985C201.563 467.895 201.698 467.825 201.848 467.775C202.008 467.725 202.168 467.685 202.328 467.655C202.498 467.625 202.668 467.6 202.838 467.58C203.008 467.56 203.168 467.535 203.318 467.505C203.478 467.475 203.623 467.44 203.753 467.4C203.893 467.35 204.008 467.285 204.098 467.205ZM210.581 463.245V460.92H208.451V463.245H207.161V464.67H208.451V469.245C208.451 469.635 208.516 469.95 208.646 470.19C208.776 470.43 208.951 470.615 209.171 470.745C209.401 470.875 209.661 470.96 209.951 471C210.251 471.05 210.566 471.075 210.896 471.075C211.106 471.075 211.321 471.07 211.541 471.06C211.761 471.05 211.961 471.03 212.141 471V469.35C212.041 469.37 211.936 469.385 211.826 469.395C211.716 469.405 211.601 469.41 211.481 469.41C211.121 469.41 210.881 469.35 210.761 469.23C210.641 469.11 210.581 468.87 210.581 468.51V464.67H212.141V463.245H210.581ZM215.345 462.045V460.29H213.215V462.045H215.345ZM213.215 463.245V471H215.345V463.245H213.215ZM217.022 463.245V471H219.152V466.935C219.152 466.145 219.282 465.58 219.542 465.24C219.802 464.89 220.222 464.715 220.802 464.715C221.312 464.715 221.667 464.875 221.867 465.195C222.067 465.505 222.167 465.98 222.167 466.62V471H224.297V466.23C224.297 465.75 224.252 465.315 224.162 464.925C224.082 464.525 223.937 464.19 223.727 463.92C223.517 463.64 223.227 463.425 222.857 463.275C222.497 463.115 222.032 463.035 221.462 463.035C221.012 463.035 220.572 463.14 220.142 463.35C219.712 463.55 219.362 463.875 219.092 464.325H219.047V463.245H217.022ZM227.804 467.13C227.804 466.82 227.834 466.515 227.894 466.215C227.954 465.915 228.054 465.65 228.194 465.42C228.344 465.19 228.539 465.005 228.779 464.865C229.019 464.715 229.319 464.64 229.679 464.64C230.039 464.64 230.339 464.715 230.579 464.865C230.829 465.005 231.024 465.19 231.164 465.42C231.314 465.65 231.419 465.915 231.479 466.215C231.539 466.515 231.569 466.82 231.569 467.13C231.569 467.44 231.539 467.745 231.479 468.045C231.419 468.335 231.314 468.6 231.164 468.84C231.024 469.07 230.829 469.255 230.579 469.395C230.339 469.535 230.039 469.605 229.679 469.605C229.319 469.605 229.019 469.535 228.779 469.395C228.539 469.255 228.344 469.07 228.194 468.84C228.054 468.6 227.954 468.335 227.894 468.045C227.834 467.745 227.804 467.44 227.804 467.13ZM225.674 467.13C225.674 467.75 225.769 468.31 225.959 468.81C226.149 469.31 226.419 469.74 226.769 470.1C227.119 470.45 227.539 470.72 228.029 470.91C228.519 471.1 229.069 471.195 229.679 471.195C230.289 471.195 230.839 471.1 231.329 470.91C231.829 470.72 232.254 470.45 232.604 470.1C232.954 469.74 233.224 469.31 233.414 468.81C233.604 468.31 233.699 467.75 233.699 467.13C233.699 466.51 233.604 465.95 233.414 465.45C233.224 464.94 232.954 464.51 232.604 464.16C232.254 463.8 231.829 463.525 231.329 463.335C230.839 463.135 230.289 463.035 229.679 463.035C229.069 463.035 228.519 463.135 228.029 463.335C227.539 463.525 227.119 463.8 226.769 464.16C226.419 464.51 226.149 464.94 225.959 465.45C225.769 465.95 225.674 466.51 225.674 467.13Z" fill="#222220"/>
<path d="M244 389H184V417.001H244V389Z" fill="#222220"/>
<path d="M421 373H361V417.001H421V373Z" fill="#222220"/>
<path d="M599 76H539V417.001H599V76Z" fill="#222220"/>
<path d="M776 404H716V417.001H776V404Z" fill="#222220"/>
<line x1="7.5" y1="387" x2="7.5" y2="342" stroke="#222220"/>
<line x1="184.5" y1="389" x2="184.5" y2="344" stroke="#222220"/>
<line x1="361.5" y1="373" x2="361.5" y2="328" stroke="#222220"/>
<line x1="539.5" y1="76" x2="539.5" y2="31" stroke="#222220"/>
<line x1="716.5" y1="404" x2="716.5" y2="359" stroke="#222220"/>
<path d="M77.5 417L77.5 358.5" stroke="#222220"/>
<path d="M254.5 418L254.5 344" stroke="#222220"/>
<path d="M432.5 416L432.5 348" stroke="#222220"/>
<path d="M609.5 417L609.5 0" stroke="#222220"/>
<g clip-path="url(#clip0)">
<path d="M78 437L137 417" stroke="black"/>
<path d="M78 430L137 410" stroke="black"/>
<path d="M78 423L137 403" stroke="black"/>
<path d="M78 416L137 396" stroke="black"/>
<path d="M78 409L137 389" stroke="black"/>
</g>
<g clip-path="url(#clip1)">
<path d="M254 437L313 417" stroke="black"/>
<path d="M254 430L313 410" stroke="black"/>
<path d="M254 423L313 403" stroke="black"/>
<path d="M254 416L313 396" stroke="black"/>
<path d="M254 409L313 389" stroke="black"/>
<path d="M254 402L313 382" stroke="black"/>
<path d="M254 395L313 375" stroke="black"/>
</g>
<g clip-path="url(#clip2)">
<path d="M433 436L492 416" stroke="black"/>
<path d="M433 429L492 409" stroke="black"/>
<path d="M433 422L492 402" stroke="black"/>
<path d="M433 415L492 395" stroke="black"/>
<path d="M433 408L492 388" stroke="black"/>
<path d="M433 401L492 381" stroke="black"/>
</g>
<g clip-path="url(#clip3)">
<path d="M610 436L669 416" stroke="black"/>
<path d="M610 429L669 409" stroke="black"/>
<path d="M610 422L669 402" stroke="black"/>
<path d="M610 415L669 395" stroke="black"/>
<path d="M610 408L669 388" stroke="black"/>
<path d="M610 401L669 381" stroke="black"/>
<path d="M610 394L669 374" stroke="black"/>
<path d="M610 387L669 367" stroke="black"/>
<path d="M610 380L669 360" stroke="black"/>
<path d="M610 373L669 353" stroke="black"/>
<path d="M610 366L669 346" stroke="black"/>
<path d="M610 359L669 339" stroke="black"/>
<path d="M610 352L669 332" stroke="black"/>
<path d="M610 345L669 325" stroke="black"/>
<path d="M610 338L669 318" stroke="black"/>
<path d="M610 331L669 311" stroke="black"/>
<path d="M610 324L669 304" stroke="black"/>
<path d="M610 317L669 297" stroke="black"/>
<path d="M610 310L669 290" stroke="black"/>
<path d="M610 303L669 283" stroke="black"/>
<path d="M610 296L669 276" stroke="black"/>
<path d="M610 289L669 269" stroke="black"/>
<path d="M610 282L669 262" stroke="black"/>
<path d="M610 275L669 255" stroke="black"/>
<path d="M610 268L669 248" stroke="black"/>
<path d="M610 261L669 241" stroke="black"/>
<path d="M610 254L669 234" stroke="black"/>
<path d="M610 247L669 227" stroke="black"/>
<path d="M610 240L669 220" stroke="black"/>
<path d="M610 233L669 213" stroke="black"/>
<path d="M610 226L669 206" stroke="black"/>
<path d="M610 219L669 199" stroke="black"/>
<path d="M610 212L669 192" stroke="black"/>
<path d="M610 205L669 185" stroke="black"/>
<path d="M610 198L669 178" stroke="black"/>
<path d="M610 191L669 171" stroke="black"/>
<path d="M610 184L669 164" stroke="black"/>
<path d="M610 177L669 157" stroke="black"/>
<path d="M610 170L669 150" stroke="black"/>
<path d="M610 163L669 143" stroke="black"/>
<path d="M610 156L669 136" stroke="black"/>
<path d="M610 149L669 129" stroke="black"/>
<path d="M610 142L669 122" stroke="black"/>
<path d="M610 135L669 115" stroke="black"/>
<path d="M610 128L669 108" stroke="black"/>
<path d="M610 121L669 101" stroke="black"/>
<path d="M610 114L669 94" stroke="black"/>
<path d="M610 107L669 87" stroke="black"/>
<path d="M610 100L669 80" stroke="black"/>
<path d="M610 93L669 73" stroke="black"/>
<path d="M610 86L669 66" stroke="black"/>
<path d="M610 79L669 59" stroke="black"/>
<path d="M610 72L669 52" stroke="black"/>
<path d="M610 65L669 45" stroke="black"/>
<path d="M610 58L669 38" stroke="black"/>
<path d="M610 51L669 31" stroke="black"/>
</g>
<defs>
<clipPath id="clip0">
<rect width="59" height="14" fill="white" transform="translate(78 403)"/>
</clipPath>
<clipPath id="clip1">
<rect width="59" height="28" fill="white" transform="translate(254 389)"/>
</clipPath>
<clipPath id="clip2">
<rect width="59" height="22" fill="white" transform="translate(433 395)"/>
</clipPath>
<clipPath id="clip3">
<rect width="59" height="372" fill="white" transform="translate(610 45)"/>
</clipPath>
</defs>
</svg>
