<svg width="617" height="629" viewBox="0 0 617 629" fill="none" xmlns="http://www.w3.org/2000/svg">
<path d="M48.16 22.92C48.16 17.64 46.8 12.52 43.2 8.44C38.56 3.16 31.52 0.679999 24.56 0.679999C11.6 0.679999 1.6 10.04 1.6 23.16C1.6 30.92 5.28 37.8 12.4 41.32C14.8 42.52 17.52 43.24 20.24 43.24C21.12 43.24 22.24 43.24 23.12 42.92L23.28 43.08L10.24 61H27.76L42.48 39.32C45.92 34.28 48.16 29.08 48.16 22.92ZM33.04 22.12C33.04 26.76 29.36 29.96 24.88 29.96C20.24 29.96 16.72 26.52 16.72 21.88C16.72 17.32 20.4 13.96 24.88 13.96C29.52 13.96 33.04 17.48 33.04 22.12ZM95.7731 43.56C95.7731 36.28 91.4531 31.56 84.6531 29.24C89.6931 26.52 92.4931 22.76 92.4931 16.84C92.4931 6.68 83.2931 0.679999 73.9331 0.679999C62.8131 0.679999 53.8531 7.32 53.6931 19.08H68.5731C68.6531 16.04 69.8531 13.96 73.2131 13.96C76.1731 13.96 77.3731 16.6 77.3731 19.16C77.3731 25.24 71.6931 25.08 67.3731 25.08V36.2C72.0931 36.2 80.6531 35.16 80.6531 42.2C80.6531 46.2 78.3331 48.84 74.2531 48.84C70.4931 48.84 68.1731 46.92 67.3731 43.32H52.0931C52.4931 47.16 53.2131 50.52 55.3731 53.8C59.2131 59.56 67.2131 62.12 73.8531 62.12C84.3331 62.12 95.7731 55 95.7731 43.56ZM118.426 61V47.4H104.586V61H118.426ZM170.383 43.4C170.383 36.84 167.343 31.08 161.103 28.44C164.863 25.48 166.863 22.12 166.863 17.16C166.863 7.08 158.303 0.679999 148.783 0.679999C139.103 0.679999 130.703 7.16 130.703 17.32C130.703 22.12 132.703 25.56 136.463 28.44C130.303 31.08 127.183 36.84 127.183 43.4C127.183 54.92 138.223 62.12 148.863 62.12C159.503 62.12 170.383 54.92 170.383 43.4ZM154.223 18.2C154.223 21.24 151.823 23.8 148.703 23.8C145.583 23.8 143.343 21.48 143.343 18.36C143.343 15.32 145.823 12.92 148.863 12.92C151.743 12.92 154.223 15.32 154.223 18.2ZM155.263 42.12C155.263 45.56 152.623 48.84 149.023 48.84C145.103 48.84 142.303 45.88 142.303 42.04C142.303 38.28 144.943 35.32 148.783 35.32C152.543 35.32 155.263 38.44 155.263 42.12ZM239.276 47.72C239.276 39.8 232.876 33.24 224.876 33.24C216.876 33.24 210.396 39.72 210.396 47.72C210.396 55.72 216.876 62.2 224.876 62.2C232.796 62.2 239.276 55.64 239.276 47.72ZM224.556 1.8H215.276L190.796 61H199.996L224.556 1.8ZM205.196 15.08C205.196 7.08 198.796 0.599996 190.796 0.599996C182.796 0.599996 176.396 7.16 176.396 15.08C176.396 23 182.876 29.48 190.796 29.48C198.716 29.48 205.196 23 205.196 15.08ZM230.396 47.72C230.396 50.76 227.916 53.32 224.876 53.32C221.836 53.32 219.276 50.76 219.276 47.72C219.276 44.6 221.756 42.12 224.876 42.12C227.996 42.12 230.396 44.68 230.396 47.72ZM196.316 15C196.316 18.04 193.836 20.6 190.796 20.6C187.836 20.6 185.276 18.04 185.276 15.08C185.276 11.96 187.676 9.48 190.796 9.48C193.836 9.48 196.316 11.96 196.316 15ZM65.28 111.4C65.28 93.96 51.28 80.68 34 80.68C23.92 80.68 15.04 84.84 8.96 92.84C7.44 94.84 6 97.16 5.12 99.48C3.52 103.56 2.8 107.72 2.8 112.12C2.8 129.16 17.2 142.12 33.92 142.12C51.28 142.12 65.28 128.92 65.28 111.4ZM50.16 111.48C50.16 120.52 43.76 128.84 34.24 128.84C24.4 128.84 17.92 120.68 17.92 111.24C17.92 101.96 24.4 93.96 34.08 93.96C43.76 93.96 50.16 102.28 50.16 111.48ZM105.727 95.08V81.8H73.4069V141H87.8869V118.44H105.087V105.16H87.8869V95.08H105.727ZM170.372 95.08V81.8H131.972V95.08H143.652V141H158.772V95.08H170.372ZM226.054 141V81.8H210.934V104.04H191.574V81.8H176.454V141H191.574V117.32H210.934V141H226.054ZM269.646 141V127.72H251.246V117.56H269.086V104.28H251.246V95.08H269.646V81.8H236.766V141H269.646ZM348.279 101.8C348.279 95.72 345.959 90.04 341.319 86.12C336.439 82.04 329.159 81.8 323.079 81.8H303.719V141H318.199V122.44H324.759C331.399 122.44 336.919 121.8 342.039 117.32C346.199 113.64 348.279 107.24 348.279 101.8ZM333.799 102.04C333.799 108.04 329.319 109.16 324.359 109.16H318.199V95.08H323.799C328.759 95.08 333.799 95.88 333.799 102.04ZM387.459 141V127.72H369.059V117.56H386.899V104.28H369.059V95.08H387.459V81.8H354.579V141H387.459ZM456.764 111.4C456.764 93.96 442.764 80.68 425.484 80.68C415.404 80.68 406.524 84.84 400.444 92.84C398.924 94.84 397.484 97.16 396.604 99.48C395.004 103.56 394.284 107.72 394.284 112.12C394.284 129.16 408.684 142.12 425.404 142.12C442.764 142.12 456.764 128.92 456.764 111.4ZM441.644 111.48C441.644 120.52 435.244 128.84 425.724 128.84C415.884 128.84 409.404 120.68 409.404 111.24C409.404 101.96 415.884 93.96 425.564 93.96C435.244 93.96 441.644 102.28 441.644 111.48ZM509.451 101.8C509.451 95.72 507.131 90.04 502.491 86.12C497.611 82.04 490.331 81.8 484.251 81.8H464.891V141H479.371V122.44H485.931C492.571 122.44 498.091 121.8 503.211 117.32C507.371 113.64 509.451 107.24 509.451 101.8ZM494.971 102.04C494.971 108.04 490.491 109.16 485.531 109.16H479.371V95.08H484.971C489.931 95.08 494.971 95.88 494.971 102.04ZM548.791 141V127.72H531.271V81.8H516.151V141H548.791ZM587.615 141V127.72H569.215V117.56H587.055V104.28H569.215V95.08H587.615V81.8H554.735V141H587.615ZM20.48 221V161.8H5.36V221H20.48ZM81.1394 221V161.8H66.6594L67.2994 198.84L67.1394 199L44.2594 161.8H31.2194V221H45.6994L45.2994 185.08L45.4594 185L68.0194 221H81.1394ZM149.49 221V207.72H131.09V197.56H148.93V184.28H131.09V175.08H149.49V161.8H116.61V221H149.49ZM213.356 221L192.876 189.8L210.956 161.8H193.916L184.076 178.68L173.916 161.8H156.796L175.116 189.48L154.396 221H171.276L183.436 200.04L196.236 221H213.356ZM252.459 221V207.72H234.059V197.56H251.899V184.28H234.059V175.08H252.459V161.8H219.579V221H252.459ZM320.564 198.84H304.724C302.084 204.68 297.124 208.84 290.484 208.84C280.804 208.84 274.564 200.36 274.564 191.24C274.564 182.12 280.804 173.96 290.404 173.96C297.044 173.96 302.404 178.2 304.724 184.28H320.564C320.004 180.84 318.484 177.48 316.564 174.6C310.644 165.64 301.204 160.68 290.484 160.68C273.284 160.68 259.444 173.96 259.444 191.32C259.444 208.68 273.444 222.12 290.644 222.12C304.964 222.12 317.124 212.84 320.564 198.84ZM373.687 197.56V161.8H358.567V197.56C358.567 203.16 358.167 208.84 351.047 208.84C344.247 208.84 343.367 202.92 343.367 197.56V161.8H328.247V197.56C328.247 205.08 328.807 210.12 334.167 215.8C338.487 220.36 345.047 222.12 351.207 222.12C357.527 222.12 363.287 220.28 367.767 215.72C372.887 210.6 373.687 204.6 373.687 197.56ZM418.106 175.08V161.8H379.706V175.08H391.386V221H406.506V175.08H418.106ZM439.308 221V161.8H424.188V221H439.308ZM501.168 161.8H485.568L473.568 203.32H473.408L461.488 161.8H445.968L465.728 221H481.328L501.168 161.8ZM540.662 221V207.72H522.262V197.56H540.102V184.28H522.262V175.08H540.662V161.8H507.782V221H540.662ZM49.92 261.8C49.92 255.72 47.6 250.04 42.96 246.12C38.08 242.04 30.8 241.8 24.72 241.8H5.36V301H19.84V282.44H26.4C33.04 282.44 38.56 281.8 43.68 277.32C47.84 273.64 49.92 267.24 49.92 261.8ZM35.44 262.04C35.44 268.04 30.96 269.16 26 269.16H19.84V255.08H25.44C30.4 255.08 35.44 255.88 35.44 262.04ZM117.702 271.4C117.702 253.96 103.702 240.68 86.4219 240.68C76.3419 240.68 67.4619 244.84 61.3819 252.84C59.8619 254.84 58.4219 257.16 57.5419 259.48C55.9419 263.56 55.2219 267.72 55.2219 272.12C55.2219 289.16 69.6219 302.12 86.3419 302.12C103.702 302.12 117.702 288.92 117.702 271.4ZM102.582 271.48C102.582 280.52 96.1819 288.84 86.6619 288.84C76.8219 288.84 70.3419 280.68 70.3419 271.24C70.3419 261.96 76.8219 253.96 86.5019 253.96C96.1819 253.96 102.582 262.28 102.582 271.48ZM164.469 283.96C164.469 274.68 158.469 270.6 150.629 267C148.149 265.88 140.389 262.84 138.949 260.44C138.469 259.72 138.389 258.84 138.389 257.96C138.389 255.16 140.949 253.32 143.589 253.32C147.429 253.32 148.549 255.8 149.029 259.08H163.989C163.829 254.44 163.109 251.16 160.069 247.4C156.309 242.84 149.829 240.68 144.069 240.68C133.989 240.68 123.349 247.08 123.349 258.12C123.349 267.4 130.149 271.88 137.829 275.08C139.589 275.8 141.349 276.52 143.109 277.32C146.229 278.68 149.429 279.96 149.429 283.8C149.429 287 146.789 289.48 143.669 289.48C139.269 289.48 137.509 285.24 137.509 281.4H122.469V283.32C122.469 295.96 131.909 302.12 143.829 302.12C155.509 302.12 164.469 296.36 164.469 283.96ZM186.808 301V241.8H171.688V301H186.808ZM231.388 255.08V241.8H192.988V255.08H204.668V301H219.788V255.08H231.388ZM252.589 301V241.8H237.469V301H252.589ZM323.249 271.4C323.249 253.96 309.249 240.68 291.969 240.68C281.889 240.68 273.009 244.84 266.929 252.84C265.409 254.84 263.969 257.16 263.089 259.48C261.489 263.56 260.769 267.72 260.769 272.12C260.769 289.16 275.169 302.12 291.889 302.12C309.249 302.12 323.249 288.92 323.249 271.4ZM308.129 271.48C308.129 280.52 301.729 288.84 292.209 288.84C282.369 288.84 275.889 280.68 275.889 271.24C275.889 261.96 282.369 253.96 292.049 253.96C301.729 253.96 308.129 262.28 308.129 271.48ZM381.296 301V241.8H366.816L367.456 278.84L367.296 279L344.416 241.8H331.376V301H345.856L345.456 265.08L345.616 265L368.176 301H381.296ZM430.719 283.96C430.719 274.68 424.719 270.6 416.879 267C414.399 265.88 406.639 262.84 405.199 260.44C404.719 259.72 404.639 258.84 404.639 257.96C404.639 255.16 407.199 253.32 409.839 253.32C413.679 253.32 414.799 255.8 415.279 259.08H430.239C430.079 254.44 429.359 251.16 426.319 247.4C422.559 242.84 416.079 240.68 410.319 240.68C400.239 240.68 389.599 247.08 389.599 258.12C389.599 267.4 396.399 271.88 404.079 275.08C405.839 275.8 407.599 276.52 409.359 277.32C412.479 278.68 415.679 279.96 415.679 283.8C415.679 287 413.039 289.48 409.919 289.48C405.519 289.48 403.759 285.24 403.759 281.4H388.719V283.32C388.719 295.96 398.159 302.12 410.079 302.12C421.759 302.12 430.719 296.36 430.719 283.96ZM20.48 381V321.8H5.36V381H20.48ZM81.1394 381V321.8H66.6594L67.2994 358.84L67.1394 359L44.2594 321.8H31.2194V381H45.6994L45.2994 345.08L45.4594 345L68.0194 381H81.1394ZM148.419 335.08V321.8H110.019V335.08H121.699V381H136.819V335.08H148.419ZM204.101 381V321.8H188.981V344.04H169.621V321.8H154.501V381H169.621V357.32H188.981V381H204.101ZM247.693 381V367.72H229.293V357.56H247.133V344.28H229.293V335.08H247.693V321.8H214.813V381H247.693ZM313.575 335.08V321.8H275.175V335.08H286.855V381H301.975V335.08H313.575ZM378.405 351.4C378.405 333.96 364.405 320.68 347.125 320.68C337.045 320.68 328.165 324.84 322.085 332.84C320.565 334.84 319.125 337.16 318.245 339.48C316.645 343.56 315.925 347.72 315.925 352.12C315.925 369.16 330.325 382.12 347.045 382.12C364.405 382.12 378.405 368.92 378.405 351.4ZM363.285 351.48C363.285 360.52 356.885 368.84 347.365 368.84C337.525 368.84 331.045 360.68 331.045 351.24C331.045 341.96 337.525 333.96 347.205 333.96C356.885 333.96 363.285 342.28 363.285 351.48ZM431.092 341.8C431.092 335.72 428.772 330.04 424.132 326.12C419.252 322.04 411.972 321.8 405.892 321.8H386.532V381H401.012V362.44H407.572C414.212 362.44 419.732 361.8 424.852 357.32C429.012 353.64 431.092 347.24 431.092 341.8ZM416.612 342.04C416.612 348.04 412.132 349.16 407.172 349.16H401.012V335.08H406.612C411.572 335.08 416.612 335.88 416.612 342.04ZM47.36 440.68C47.36 437.96 46.8 435.24 45.76 432.76C42.56 425.08 35.92 420.84 27.6 420.84C24.64 420.84 22.24 421.16 19.6 422.6L20.88 414.52H42V401.8H9.28L4.16 435.32L16.4 438.36C17.84 435 20.48 433.24 24.16 433.24C28.64 433.24 32.24 436.36 32.24 441C32.24 445.32 28.56 448.84 24.24 448.84C21.36 448.84 18.96 447.48 17.28 445.16H2.08C4.16 456.2 13.84 462.2 24.64 462.2C33.92 462.2 41.84 457.72 45.6 449C46.72 446.44 47.36 443.56 47.36 440.68ZM96.2531 439.64V423.16C96.2531 413.88 92.0931 406.36 83.4531 402.6C80.6531 401.4 77.4531 400.68 74.4131 400.68C71.3731 400.68 68.3331 401.32 65.4531 402.44C56.4931 406.04 52.0931 413.64 52.0931 423.16V439.64C52.0931 449.08 56.5731 456.6 65.3731 460.28C68.2531 461.48 71.2931 462.12 74.4131 462.12C77.7731 462.12 81.1331 461.4 84.1731 459.96C92.4931 456.12 96.2531 448.52 96.2531 439.64ZM81.1331 440.04C81.1331 444.68 79.6131 448.84 74.1731 448.84C68.9731 448.84 67.2131 444.6 67.2131 440.04V422.76C67.2131 418.28 68.9731 413.96 74.1731 413.96C79.6131 413.96 81.1331 418.12 81.1331 422.76V440.04ZM181.951 461L158.431 401.8H146.511L122.751 461H138.991L142.111 452.44H162.671L165.551 461H181.951ZM158.671 440.44H146.271L152.351 420.2H152.511H152.591L158.671 440.44ZM244.512 430.44C244.512 429.4 244.512 428.36 244.432 427.32H209.312V439.4H226.992C225.152 445.96 219.312 448.92 212.832 448.92C202.752 448.92 196.592 440.84 196.592 431.16C196.592 421.8 203.072 413.96 212.752 413.96C218.352 413.96 223.072 416.76 225.792 421.64H242.752C239.152 409 225.952 400.68 213.152 400.68C195.792 400.68 181.472 413.4 181.472 431.16C181.472 448.68 195.472 462.2 212.912 462.2C231.072 462.2 244.512 448.6 244.512 430.44ZM285.193 461V447.72H266.793V437.56H284.633V424.28H266.793V415.08H285.193V401.8H252.313V461H285.193ZM344.499 461V401.8H330.019L330.659 438.84L330.499 439L307.619 401.8H294.579V461H309.059L308.659 425.08L308.819 425L331.379 461H344.499ZM414.002 438.84H398.162C395.522 444.68 390.562 448.84 383.922 448.84C374.242 448.84 368.002 440.36 368.002 431.24C368.002 422.12 374.242 413.96 383.842 413.96C390.482 413.96 395.842 418.2 398.162 424.28H414.002C413.442 420.84 411.922 417.48 410.002 414.6C404.082 405.64 394.642 400.68 383.922 400.68C366.722 400.68 352.882 413.96 352.882 431.32C352.882 448.68 366.882 462.12 384.082 462.12C398.402 462.12 410.562 452.84 414.002 438.84ZM436.964 461V401.8H421.844V461H436.964ZM480.584 461V447.72H462.184V437.56H480.024V424.28H462.184V415.08H480.584V401.8H447.704V461H480.584ZM528.609 443.96C528.609 434.68 522.609 430.6 514.769 427C512.289 425.88 504.529 422.84 503.089 420.44C502.609 419.72 502.529 418.84 502.529 417.96C502.529 415.16 505.089 413.32 507.729 413.32C511.569 413.32 512.689 415.8 513.169 419.08H528.129C527.969 414.44 527.249 411.16 524.209 407.4C520.449 402.84 513.969 400.68 508.209 400.68C498.129 400.68 487.489 407.08 487.489 418.12C487.489 427.4 494.289 431.88 501.969 435.08C503.729 435.8 505.489 436.52 507.249 437.32C510.369 438.68 513.569 439.96 513.569 443.8C513.569 447 510.929 449.48 507.809 449.48C503.409 449.48 501.649 445.24 501.649 441.4H486.609V443.32C486.609 455.96 496.049 462.12 507.969 462.12C519.649 462.12 528.609 456.36 528.609 443.96ZM59.92 541L36.4 481.8H24.48L0.72 541H16.96L20.08 532.44H40.64L43.52 541H59.92ZM36.64 520.44H24.24L30.32 500.2H30.48H30.56L36.64 520.44ZM111.585 541L95.505 520.84C104.865 519.32 110.225 511.32 110.225 502.2C110.225 496.04 107.825 489.96 102.945 486.04C97.825 481.96 90.945 481.8 84.705 481.8H65.985V541H80.465V521.88H80.625L94.305 541H111.585ZM95.745 503.08C95.745 509.16 91.505 511.56 85.825 511.56H80.465V495.08H85.985C91.185 495.08 95.745 497.24 95.745 503.08ZM151.131 541V527.72H132.731V517.56H150.571V504.28H132.731V495.08H151.131V481.8H118.251V541H151.131Z" fill="#FFC6C6"/>
<path d="M256.964 481.8H241.684L233.604 520.44H233.444L224.884 481.8H213.284L204.564 520.28H204.404L196.484 481.8H181.124L196.404 541H210.084L218.964 502.68H219.124L228.004 541H241.284L256.964 481.8ZM313.319 541V481.8H298.199V504.04H278.839V481.8H263.719V541H278.839V517.32H298.199V541H313.319ZM339.152 541V481.8H324.032V541H339.152ZM383.731 495.08V481.8H345.331V495.08H357.011V541H372.131V495.08H383.731ZM422.693 541V527.72H404.293V517.56H422.133V504.28H404.293V495.08H422.693V481.8H389.813V541H422.693ZM446.239 541V527.4H432.399V541H446.239Z" fill="#F4F4F4"/>
<path d="M4.31633 615.985L4.69133 614.29H3.88133L3.55133 615.865L2.11133 615.13L1.73633 615.82L3.16133 616.54L2.00633 617.8L2.56133 618.355L3.73133 617.05L4.43633 618.595L5.17133 618.25L4.43633 616.75L6.04133 616.54L5.96633 615.82L4.31633 615.985ZM13.6698 617.455H15.0948C15.1148 616.855 15.0198 616.34 14.8098 615.91C14.6098 615.48 14.3298 615.13 13.9698 614.86C13.6098 614.58 13.1898 614.375 12.7098 614.245C12.2398 614.105 11.7398 614.035 11.2098 614.035C10.7298 614.035 10.2548 614.1 9.78477 614.23C9.32477 614.36 8.90977 614.555 8.53977 614.815C8.17977 615.075 7.88477 615.4 7.65477 615.79C7.42477 616.17 7.30977 616.62 7.30977 617.14C7.30977 617.54 7.37477 617.89 7.50477 618.19C7.63477 618.48 7.80977 618.735 8.02977 618.955C8.24977 619.165 8.50477 619.345 8.79477 619.495C9.08477 619.635 9.38977 619.75 9.70977 619.84L11.1648 620.23C11.4248 620.3 11.6698 620.38 11.8998 620.47C12.1298 620.56 12.3298 620.675 12.4998 620.815C12.6798 620.945 12.8198 621.11 12.9198 621.31C13.0198 621.5 13.0698 621.73 13.0698 622C13.0698 622.36 12.9898 622.67 12.8298 622.93C12.6798 623.19 12.4798 623.405 12.2298 623.575C11.9798 623.735 11.6898 623.855 11.3598 623.935C11.0398 624.015 10.7148 624.055 10.3848 624.055C9.95477 624.055 9.55977 624.015 9.19977 623.935C8.83977 623.845 8.52977 623.7 8.26977 623.5C8.01977 623.3 7.82977 623.035 7.69977 622.705C7.56977 622.375 7.51477 621.97 7.53477 621.49H6.10977C6.05977 622.15 6.12977 622.72 6.31977 623.2C6.51977 623.67 6.80477 624.055 7.17477 624.355C7.55477 624.655 8.01477 624.875 8.55477 625.015C9.09477 625.165 9.68477 625.24 10.3248 625.24C10.8048 625.24 11.2898 625.175 11.7798 625.045C12.2798 624.915 12.7298 624.72 13.1298 624.46C13.5298 624.19 13.8548 623.855 14.1048 623.455C14.3648 623.045 14.4948 622.56 14.4948 622C14.4948 621.52 14.4198 621.115 14.2698 620.785C14.1298 620.455 13.9398 620.185 13.6998 619.975C13.4598 619.755 13.1848 619.58 12.8748 619.45C12.5648 619.31 12.2448 619.195 11.9148 619.105L10.4748 618.715C10.2348 618.645 10.0048 618.565 9.78477 618.475C9.57477 618.385 9.38977 618.275 9.22977 618.145C9.07977 618.005 8.95977 617.845 8.86977 617.665C8.77977 617.475 8.73477 617.25 8.73477 616.99C8.73477 616.67 8.81477 616.4 8.97477 616.18C9.13477 615.96 9.33477 615.78 9.57477 615.64C9.82477 615.5 10.0948 615.4 10.3848 615.34C10.6748 615.27 10.9498 615.235 11.2098 615.235C11.5798 615.235 11.9198 615.27 12.2298 615.34C12.5398 615.41 12.7998 615.535 13.0098 615.715C13.2298 615.885 13.3948 616.115 13.5048 616.405C13.6248 616.685 13.6798 617.035 13.6698 617.455ZM15.8663 621.94C15.8663 622.41 15.9413 622.845 16.0913 623.245C16.2413 623.635 16.4563 623.975 16.7363 624.265C17.0163 624.545 17.3563 624.765 17.7563 624.925C18.1663 625.085 18.6263 625.165 19.1363 625.165C19.8163 625.165 20.4213 625.03 20.9513 624.76C21.4813 624.49 21.9313 624.13 22.3013 623.68C22.6713 623.22 22.9513 622.695 23.1413 622.105C23.3313 621.515 23.4263 620.905 23.4263 620.275C23.4263 619.225 23.1513 618.43 22.6013 617.89C22.0513 617.34 21.2513 617.065 20.2013 617.065C19.5213 617.065 18.9113 617.2 18.3713 617.47C17.8413 617.74 17.3863 618.1 17.0063 618.55C16.6363 619 16.3513 619.52 16.1513 620.11C15.9613 620.7 15.8663 621.31 15.8663 621.94ZM17.1413 621.925C17.1413 621.525 17.2013 621.105 17.3213 620.665C17.4513 620.225 17.6413 619.825 17.8913 619.465C18.1413 619.095 18.4513 618.79 18.8213 618.55C19.1913 618.31 19.6213 618.19 20.1113 618.19C20.4613 618.19 20.7613 618.25 21.0113 618.37C21.2713 618.48 21.4863 618.635 21.6563 618.835C21.8263 619.025 21.9513 619.255 22.0313 619.525C22.1113 619.795 22.1513 620.08 22.1513 620.38C22.1513 620.76 22.0863 621.165 21.9563 621.595C21.8363 622.025 21.6513 622.425 21.4013 622.795C21.1613 623.155 20.8613 623.455 20.5013 623.695C20.1513 623.935 19.7413 624.055 19.2713 624.055C18.5713 624.055 18.0413 623.86 17.6813 623.47C17.3213 623.08 17.1413 622.565 17.1413 621.925ZM30.3896 625L32.0246 617.245H30.7496L29.8496 621.535C29.7796 621.855 29.6596 622.17 29.4896 622.48C29.3296 622.78 29.1296 623.05 28.8896 623.29C28.6496 623.52 28.3746 623.705 28.0646 623.845C27.7646 623.985 27.4346 624.055 27.0746 624.055C26.6946 624.055 26.3746 623.97 26.1146 623.8C25.8546 623.62 25.7246 623.345 25.7246 622.975C25.7246 622.905 25.7296 622.82 25.7396 622.72C25.7496 622.61 25.7646 622.5 25.7846 622.39C25.8046 622.27 25.8246 622.155 25.8446 622.045C25.8646 621.935 25.8846 621.845 25.9046 621.775L26.8946 617.245H25.6196L24.6746 621.67C24.6046 621.97 24.5496 622.255 24.5096 622.525C24.4696 622.795 24.4496 623.015 24.4496 623.185C24.4496 623.875 24.6246 624.38 24.9746 624.7C25.3346 625.01 25.8796 625.165 26.6096 625.165C27.1496 625.165 27.6646 625.055 28.1546 624.835C28.6446 624.615 29.0496 624.28 29.3696 623.83H29.3996L29.1596 625H30.3896ZM34.1046 617.245L32.4996 625H33.7596L34.4946 621.565C34.5546 621.275 34.6346 620.965 34.7346 620.635C34.8346 620.295 34.9696 620 35.1396 619.75C35.3396 619.44 35.5746 619.175 35.8446 618.955C36.1246 618.735 36.4396 618.58 36.7896 618.49C36.9396 618.45 37.0646 618.43 37.1646 618.43C37.2646 618.42 37.3946 618.415 37.5546 618.415H37.7346C37.8246 618.415 37.8896 618.42 37.9296 618.43L38.2296 617.065C38.1496 617.045 38.0746 617.04 38.0046 617.05C37.9346 617.06 37.8596 617.065 37.7796 617.065C37.1296 617.065 36.5696 617.24 36.0996 617.59C35.6396 617.94 35.2596 618.38 34.9596 618.91H34.9296L35.3046 617.245H34.1046ZM43.531 619.705H44.806C44.776 618.795 44.501 618.13 43.981 617.71C43.471 617.28 42.776 617.065 41.896 617.065C41.206 617.065 40.591 617.2 40.051 617.47C39.521 617.73 39.071 618.085 38.701 618.535C38.341 618.975 38.066 619.48 37.876 620.05C37.696 620.62 37.606 621.215 37.606 621.835C37.606 622.895 37.871 623.715 38.401 624.295C38.941 624.875 39.741 625.165 40.801 625.165C41.711 625.165 42.471 624.935 43.081 624.475C43.691 624.015 44.111 623.345 44.341 622.465H43.066C42.886 622.945 42.601 623.33 42.211 623.62C41.821 623.91 41.351 624.055 40.801 624.055C40.441 624.055 40.136 623.995 39.886 623.875C39.646 623.755 39.451 623.595 39.301 623.395C39.151 623.195 39.041 622.96 38.971 622.69C38.911 622.42 38.881 622.135 38.881 621.835C38.881 621.415 38.946 620.99 39.076 620.56C39.206 620.12 39.396 619.725 39.646 619.375C39.906 619.025 40.221 618.74 40.591 618.52C40.971 618.3 41.406 618.19 41.896 618.19C42.406 618.19 42.806 618.325 43.096 618.595C43.386 618.855 43.531 619.225 43.531 619.705ZM46.8177 621.505H52.6527C52.6727 621.395 52.6977 621.25 52.7277 621.07C52.7577 620.89 52.7727 620.7 52.7727 620.5C52.7727 619.41 52.5077 618.565 51.9777 617.965C51.4577 617.365 50.6277 617.065 49.4877 617.065C48.9577 617.065 48.4477 617.185 47.9577 617.425C47.4777 617.665 47.0527 618.005 46.6827 618.445C46.3227 618.885 46.0327 619.415 45.8127 620.035C45.6027 620.645 45.4977 621.32 45.4977 622.06C45.4977 622.4 45.5477 622.755 45.6477 623.125C45.7477 623.485 45.9227 623.82 46.1727 624.13C46.4227 624.43 46.7577 624.68 47.1777 624.88C47.6077 625.07 48.1427 625.165 48.7827 625.165C49.2027 625.165 49.6027 625.11 49.9827 625C50.3627 624.89 50.7077 624.73 51.0177 624.52C51.3277 624.3 51.5927 624.03 51.8127 623.71C52.0327 623.38 52.1927 623 52.2927 622.57H51.0177C50.8377 623.05 50.5627 623.42 50.1927 623.68C49.8227 623.93 49.3527 624.055 48.7827 624.055C48.5227 624.055 48.2727 624.015 48.0327 623.935C47.7927 623.845 47.5777 623.725 47.3877 623.575C47.1977 623.415 47.0477 623.22 46.9377 622.99C46.8277 622.75 46.7727 622.48 46.7727 622.18C46.7727 621.95 46.7877 621.725 46.8177 621.505ZM51.4977 620.38H46.9977C47.0877 620.08 47.2077 619.8 47.3577 619.54C47.5077 619.27 47.6927 619.035 47.9127 618.835C48.1327 618.635 48.3877 618.48 48.6777 618.37C48.9777 618.25 49.3127 618.19 49.6827 618.19C50.0327 618.19 50.3277 618.255 50.5677 618.385C50.8077 618.505 50.9977 618.67 51.1377 618.88C51.2877 619.08 51.3877 619.315 51.4377 619.585C51.4977 619.845 51.5177 620.11 51.4977 620.38ZM56.5693 618.91L56.9143 617.245H55.2343L54.8893 618.91H56.5693ZM53.9593 623.335L53.6293 625H55.3093L55.6543 623.335H53.9593ZM62.7739 617.98H64.1239C64.1439 617.65 64.2089 617.335 64.3189 617.035C64.4289 616.725 64.5789 616.46 64.7689 616.24C64.9689 616.01 65.2089 615.83 65.4889 615.7C65.7689 615.56 66.0889 615.49 66.4489 615.49C66.9989 615.49 67.4339 615.645 67.7539 615.955C68.0739 616.265 68.2339 616.705 68.2339 617.275C68.2339 617.545 68.1989 617.785 68.1289 617.995C68.0589 618.205 67.9589 618.4 67.8289 618.58C67.7089 618.75 67.5639 618.915 67.3939 619.075C67.2239 619.225 67.0439 619.375 66.8539 619.525C66.5039 619.785 66.1389 620.025 65.7589 620.245C65.3789 620.465 65.0039 620.69 64.6339 620.92C64.2639 621.15 63.9089 621.39 63.5689 621.64C63.2289 621.89 62.9239 622.175 62.6539 622.495C62.3939 622.815 62.1739 623.18 61.9939 623.59C61.8239 623.99 61.7189 624.46 61.6789 625H68.4439L68.6839 623.875H63.1489C63.2189 623.685 63.3189 623.505 63.4489 623.335C63.5789 623.155 63.7189 622.99 63.8689 622.84C64.0289 622.68 64.1939 622.535 64.3639 622.405C64.5439 622.275 64.7189 622.155 64.8889 622.045C65.1889 621.855 65.5139 621.665 65.8639 621.475C66.2139 621.275 66.5639 621.07 66.9139 620.86C67.2639 620.64 67.5989 620.41 67.9189 620.17C68.2389 619.92 68.5189 619.65 68.7589 619.36C69.0089 619.06 69.2089 618.735 69.3589 618.385C69.5089 618.025 69.5839 617.63 69.5839 617.2C69.5839 616.76 69.5089 616.365 69.3589 616.015C69.2089 615.665 68.9989 615.37 68.7289 615.13C68.4689 614.88 68.1539 614.69 67.7839 614.56C67.4239 614.43 67.0289 614.365 66.5989 614.365C66.0289 614.365 65.5189 614.45 65.0689 614.62C64.6189 614.79 64.2339 615.035 63.9139 615.355C63.5939 615.665 63.3389 616.045 63.1489 616.495C62.9589 616.935 62.8339 617.43 62.7739 617.98ZM71.8139 621.265C71.8139 621.015 71.8389 620.7 71.8889 620.32C71.9389 619.94 72.0189 619.535 72.1289 619.105C72.2389 618.675 72.3789 618.245 72.5489 617.815C72.7189 617.385 72.9189 617 73.1489 616.66C73.3889 616.31 73.6639 616.03 73.9739 615.82C74.2839 615.6 74.6289 615.49 75.0089 615.49C75.3189 615.49 75.5739 615.545 75.7739 615.655C75.9739 615.755 76.1339 615.895 76.2539 616.075C76.3739 616.245 76.4589 616.445 76.5089 616.675C76.5689 616.905 76.6039 617.14 76.6139 617.38C76.6339 617.62 76.6389 617.86 76.6289 618.1C76.6289 618.33 76.6289 618.545 76.6289 618.745C76.6289 618.895 76.6039 619.135 76.5539 619.465C76.5139 619.785 76.4439 620.145 76.3439 620.545C76.2539 620.935 76.1289 621.34 75.9689 621.76C75.8189 622.17 75.6289 622.545 75.3989 622.885C75.1689 623.225 74.8989 623.505 74.5889 623.725C74.2789 623.945 73.9289 624.055 73.5389 624.055C72.9089 624.055 72.4639 623.805 72.2039 623.305C71.9439 622.795 71.8139 622.115 71.8139 621.265ZM70.4639 621.055C70.4639 621.635 70.5089 622.175 70.5989 622.675C70.6989 623.175 70.8639 623.61 71.0939 623.98C71.3239 624.35 71.6239 624.64 71.9939 624.85C72.3739 625.06 72.8439 625.165 73.4039 625.165C73.9939 625.165 74.5139 625.045 74.9639 624.805C75.4139 624.555 75.8089 624.235 76.1489 623.845C76.4889 623.455 76.7739 623.015 77.0039 622.525C77.2439 622.025 77.4339 621.525 77.5739 621.025C77.7139 620.515 77.8139 620.03 77.8739 619.57C77.9439 619.11 77.9789 618.715 77.9789 618.385C77.9789 616.965 77.7339 615.94 77.2439 615.31C76.7539 614.68 76.0439 614.365 75.1139 614.365C74.5639 614.365 74.0639 614.475 73.6139 614.695C73.1639 614.915 72.7689 615.205 72.4289 615.565C72.0889 615.925 71.7939 616.34 71.5439 616.81C71.2939 617.28 71.0889 617.765 70.9289 618.265C70.7689 618.755 70.6489 619.245 70.5689 619.735C70.4989 620.215 70.4639 620.655 70.4639 621.055ZM79.4438 617.98H80.7938C80.8138 617.65 80.8788 617.335 80.9888 617.035C81.0988 616.725 81.2488 616.46 81.4388 616.24C81.6388 616.01 81.8788 615.83 82.1588 615.7C82.4388 615.56 82.7588 615.49 83.1188 615.49C83.6688 615.49 84.1038 615.645 84.4238 615.955C84.7438 616.265 84.9038 616.705 84.9038 617.275C84.9038 617.545 84.8688 617.785 84.7988 617.995C84.7288 618.205 84.6288 618.4 84.4988 618.58C84.3788 618.75 84.2338 618.915 84.0638 619.075C83.8938 619.225 83.7138 619.375 83.5238 619.525C83.1738 619.785 82.8088 620.025 82.4288 620.245C82.0488 620.465 81.6738 620.69 81.3038 620.92C80.9338 621.15 80.5788 621.39 80.2388 621.64C79.8988 621.89 79.5938 622.175 79.3238 622.495C79.0638 622.815 78.8438 623.18 78.6638 623.59C78.4938 623.99 78.3888 624.46 78.3488 625H85.1138L85.3538 623.875H79.8188C79.8888 623.685 79.9888 623.505 80.1188 623.335C80.2488 623.155 80.3888 622.99 80.5388 622.84C80.6988 622.68 80.8638 622.535 81.0338 622.405C81.2138 622.275 81.3888 622.155 81.5588 622.045C81.8588 621.855 82.1838 621.665 82.5338 621.475C82.8838 621.275 83.2338 621.07 83.5838 620.86C83.9338 620.64 84.2688 620.41 84.5888 620.17C84.9088 619.92 85.1888 619.65 85.4288 619.36C85.6788 619.06 85.8788 618.735 86.0288 618.385C86.1788 618.025 86.2538 617.63 86.2538 617.2C86.2538 616.76 86.1788 616.365 86.0288 616.015C85.8788 615.665 85.6688 615.37 85.3988 615.13C85.1388 614.88 84.8238 614.69 84.4538 614.56C84.0938 614.43 83.6988 614.365 83.2688 614.365C82.6988 614.365 82.1888 614.45 81.7388 614.62C81.2888 614.79 80.9038 615.035 80.5838 615.355C80.2638 615.665 80.0088 616.045 79.8188 616.495C79.6288 616.935 79.5038 617.43 79.4438 617.98ZM88.4838 621.265C88.4838 621.015 88.5088 620.7 88.5588 620.32C88.6088 619.94 88.6888 619.535 88.7988 619.105C88.9088 618.675 89.0488 618.245 89.2188 617.815C89.3888 617.385 89.5888 617 89.8188 616.66C90.0588 616.31 90.3338 616.03 90.6438 615.82C90.9538 615.6 91.2988 615.49 91.6788 615.49C91.9888 615.49 92.2438 615.545 92.4438 615.655C92.6438 615.755 92.8038 615.895 92.9238 616.075C93.0438 616.245 93.1288 616.445 93.1788 616.675C93.2388 616.905 93.2738 617.14 93.2838 617.38C93.3038 617.62 93.3088 617.86 93.2988 618.1C93.2988 618.33 93.2988 618.545 93.2988 618.745C93.2988 618.895 93.2738 619.135 93.2238 619.465C93.1838 619.785 93.1138 620.145 93.0138 620.545C92.9238 620.935 92.7988 621.34 92.6388 621.76C92.4888 622.17 92.2988 622.545 92.0688 622.885C91.8388 623.225 91.5688 623.505 91.2588 623.725C90.9488 623.945 90.5988 624.055 90.2088 624.055C89.5788 624.055 89.1338 623.805 88.8738 623.305C88.6138 622.795 88.4838 622.115 88.4838 621.265ZM87.1338 621.055C87.1338 621.635 87.1788 622.175 87.2688 622.675C87.3688 623.175 87.5338 623.61 87.7638 623.98C87.9938 624.35 88.2938 624.64 88.6638 624.85C89.0438 625.06 89.5138 625.165 90.0738 625.165C90.6638 625.165 91.1838 625.045 91.6338 624.805C92.0838 624.555 92.4788 624.235 92.8188 623.845C93.1588 623.455 93.4438 623.015 93.6738 622.525C93.9138 622.025 94.1038 621.525 94.2438 621.025C94.3838 620.515 94.4838 620.03 94.5438 619.57C94.6138 619.11 94.6488 618.715 94.6488 618.385C94.6488 616.965 94.4038 615.94 93.9138 615.31C93.4238 614.68 92.7138 614.365 91.7838 614.365C91.2338 614.365 90.7338 614.475 90.2838 614.695C89.8338 614.915 89.4388 615.205 89.0988 615.565C88.7588 615.925 88.4638 616.34 88.2138 616.81C87.9638 617.28 87.7588 617.765 87.5988 618.265C87.4388 618.755 87.3188 619.245 87.2388 619.735C87.1688 620.215 87.1338 620.655 87.1338 621.055ZM95.6788 623.335L95.3188 625H96.1588C96.1088 625.17 96.0588 625.335 96.0088 625.495C95.9588 625.655 95.8938 625.8 95.8138 625.93C95.7338 626.07 95.6288 626.185 95.4988 626.275C95.3788 626.375 95.2188 626.44 95.0187 626.47L94.8687 627.19C95.3888 627.15 95.7888 627 96.0688 626.74C96.3588 626.49 96.5788 626.18 96.7288 625.81C96.8888 625.45 97.0037 625.05 97.0737 624.61C97.1538 624.17 97.2438 623.745 97.3438 623.335H95.6788ZM105.813 614.29L103.548 625H104.973L105.933 620.425H109.098H109.668C109.828 620.435 109.988 620.47 110.148 620.53C110.308 620.59 110.443 620.7 110.553 620.86C110.663 621.02 110.733 621.25 110.763 621.55C110.803 621.84 110.783 622.225 110.703 622.705C110.593 623.255 110.543 623.725 110.553 624.115C110.563 624.505 110.603 624.8 110.673 625H112.158C112.048 624.79 111.983 624.575 111.963 624.355C111.943 624.135 111.943 623.91 111.963 623.68C111.983 623.44 112.013 623.205 112.053 622.975C112.093 622.735 112.123 622.495 112.143 622.255C112.173 621.985 112.173 621.725 112.143 621.475C112.123 621.225 112.068 621 111.978 620.8C111.898 620.59 111.778 620.41 111.618 620.26C111.468 620.11 111.278 620 111.048 619.93V619.9C111.408 619.85 111.733 619.74 112.023 619.57C112.323 619.4 112.578 619.185 112.788 618.925C112.998 618.665 113.163 618.375 113.283 618.055C113.403 617.725 113.463 617.38 113.463 617.02C113.463 616.49 113.363 616.05 113.163 615.7C112.973 615.35 112.713 615.07 112.383 614.86C112.053 614.65 111.673 614.505 111.243 614.425C110.823 614.335 110.388 614.29 109.938 614.29H105.813ZM106.188 619.225L106.983 615.49H109.938C110.208 615.49 110.468 615.515 110.718 615.565C110.968 615.605 111.188 615.685 111.378 615.805C111.578 615.925 111.738 616.09 111.858 616.3C111.978 616.51 112.038 616.78 112.038 617.11C112.038 617.3 112.003 617.52 111.933 617.77C111.873 618.01 111.748 618.24 111.558 618.46C111.368 618.67 111.098 618.85 110.748 619C110.408 619.15 109.958 619.225 109.398 619.225H106.188ZM119.337 614.29L112.902 625H114.477L116.352 621.775H120.867L121.362 625H122.832L120.897 614.29H119.337ZM116.997 620.575L119.862 615.55H119.892L120.687 620.575H116.997ZM127.707 619.405L123.072 625H124.692L128.352 620.47L130.512 625H131.982L129.267 619.6L133.677 614.29H132.072L128.637 618.52L126.657 614.29H125.127L127.707 619.405ZM134.882 620.56C134.882 619.91 134.972 619.27 135.152 618.64C135.342 618 135.622 617.43 135.992 616.93C136.362 616.43 136.822 616.025 137.372 615.715C137.932 615.395 138.587 615.235 139.337 615.235C139.837 615.235 140.272 615.33 140.642 615.52C141.022 615.7 141.342 615.95 141.602 616.27C141.862 616.58 142.057 616.95 142.187 617.38C142.317 617.81 142.382 618.275 142.382 618.775C142.382 619.415 142.287 620.05 142.097 620.68C141.917 621.31 141.642 621.875 141.272 622.375C140.912 622.875 140.462 623.28 139.922 623.59C139.382 623.9 138.757 624.055 138.047 624.055C137.507 624.055 137.037 623.97 136.637 623.8C136.247 623.63 135.922 623.395 135.662 623.095C135.402 622.785 135.207 622.415 135.077 621.985C134.947 621.555 134.882 621.08 134.882 620.56ZM133.457 620.56C133.457 622.05 133.852 623.205 134.642 624.025C135.442 624.835 136.577 625.24 138.047 625.24C138.937 625.24 139.737 625.065 140.447 624.715C141.167 624.355 141.772 623.875 142.262 623.275C142.762 622.675 143.142 621.985 143.402 621.205C143.672 620.425 143.807 619.615 143.807 618.775C143.807 618.115 143.702 617.495 143.492 616.915C143.292 616.335 142.997 615.835 142.607 615.415C142.227 614.985 141.757 614.65 141.197 614.41C140.647 614.16 140.027 614.035 139.337 614.035C138.427 614.035 137.607 614.215 136.877 614.575C136.147 614.925 135.527 615.4 135.017 616C134.517 616.6 134.132 617.295 133.862 618.085C133.592 618.865 133.457 619.69 133.457 620.56ZM156.228 617.455H157.653C157.673 616.855 157.578 616.34 157.368 615.91C157.168 615.48 156.888 615.13 156.528 614.86C156.168 614.58 155.748 614.375 155.268 614.245C154.798 614.105 154.298 614.035 153.768 614.035C153.288 614.035 152.813 614.1 152.343 614.23C151.883 614.36 151.468 614.555 151.098 614.815C150.738 615.075 150.443 615.4 150.213 615.79C149.983 616.17 149.868 616.62 149.868 617.14C149.868 617.54 149.933 617.89 150.063 618.19C150.193 618.48 150.368 618.735 150.588 618.955C150.808 619.165 151.063 619.345 151.353 619.495C151.643 619.635 151.948 619.75 152.268 619.84L153.723 620.23C153.983 620.3 154.228 620.38 154.458 620.47C154.688 620.56 154.888 620.675 155.058 620.815C155.238 620.945 155.378 621.11 155.478 621.31C155.578 621.5 155.628 621.73 155.628 622C155.628 622.36 155.548 622.67 155.388 622.93C155.238 623.19 155.038 623.405 154.788 623.575C154.538 623.735 154.248 623.855 153.918 623.935C153.598 624.015 153.273 624.055 152.943 624.055C152.513 624.055 152.118 624.015 151.758 623.935C151.398 623.845 151.088 623.7 150.828 623.5C150.578 623.3 150.388 623.035 150.258 622.705C150.128 622.375 150.073 621.97 150.093 621.49H148.668C148.618 622.15 148.688 622.72 148.878 623.2C149.078 623.67 149.363 624.055 149.733 624.355C150.113 624.655 150.573 624.875 151.113 625.015C151.653 625.165 152.243 625.24 152.883 625.24C153.363 625.24 153.848 625.175 154.338 625.045C154.838 624.915 155.288 624.72 155.688 624.46C156.088 624.19 156.413 623.855 156.663 623.455C156.923 623.045 157.053 622.56 157.053 622C157.053 621.52 156.978 621.115 156.828 620.785C156.688 620.455 156.498 620.185 156.258 619.975C156.018 619.755 155.743 619.58 155.433 619.45C155.123 619.31 154.803 619.195 154.473 619.105L153.033 618.715C152.793 618.645 152.563 618.565 152.343 618.475C152.133 618.385 151.948 618.275 151.788 618.145C151.638 618.005 151.518 617.845 151.428 617.665C151.338 617.475 151.293 617.25 151.293 616.99C151.293 616.67 151.373 616.4 151.533 616.18C151.693 615.96 151.893 615.78 152.133 615.64C152.383 615.5 152.653 615.4 152.943 615.34C153.233 615.27 153.508 615.235 153.768 615.235C154.138 615.235 154.478 615.27 154.788 615.34C155.098 615.41 155.358 615.535 155.568 615.715C155.788 615.885 155.953 616.115 156.063 616.405C156.183 616.685 156.238 617.035 156.228 617.455ZM164.335 625L165.97 617.245H164.695L163.795 621.535C163.725 621.855 163.605 622.17 163.435 622.48C163.275 622.78 163.075 623.05 162.835 623.29C162.595 623.52 162.32 623.705 162.01 623.845C161.71 623.985 161.38 624.055 161.02 624.055C160.64 624.055 160.32 623.97 160.06 623.8C159.8 623.62 159.67 623.345 159.67 622.975C159.67 622.905 159.675 622.82 159.685 622.72C159.695 622.61 159.71 622.5 159.73 622.39C159.75 622.27 159.77 622.155 159.79 622.045C159.81 621.935 159.83 621.845 159.85 621.775L160.84 617.245H159.565L158.62 621.67C158.55 621.97 158.495 622.255 158.455 622.525C158.415 622.795 158.395 623.015 158.395 623.185C158.395 623.875 158.57 624.38 158.92 624.7C159.28 625.01 159.825 625.165 160.555 625.165C161.095 625.165 161.61 625.055 162.1 624.835C162.59 624.615 162.995 624.28 163.315 623.83H163.345L163.105 625H164.335ZM168.05 617.245L166.445 625H167.705L168.44 621.565C168.5 621.275 168.58 620.965 168.68 620.635C168.78 620.295 168.915 620 169.085 619.75C169.285 619.44 169.52 619.175 169.79 618.955C170.07 618.735 170.385 618.58 170.735 618.49C170.885 618.45 171.01 618.43 171.11 618.43C171.21 618.42 171.34 618.415 171.5 618.415H171.68C171.77 618.415 171.835 618.42 171.875 618.43L172.175 617.065C172.095 617.045 172.02 617.04 171.95 617.05C171.88 617.06 171.805 617.065 171.725 617.065C171.075 617.065 170.515 617.24 170.045 617.59C169.585 617.94 169.205 618.38 168.905 618.91H168.875L169.25 617.245H168.05ZM174.605 625L178.91 617.245H177.53L174.17 623.695H174.14L173.48 617.245H172.13L173.24 625H174.605ZM180.192 621.505H186.027C186.047 621.395 186.072 621.25 186.102 621.07C186.132 620.89 186.147 620.7 186.147 620.5C186.147 619.41 185.882 618.565 185.352 617.965C184.832 617.365 184.002 617.065 182.862 617.065C182.332 617.065 181.822 617.185 181.332 617.425C180.852 617.665 180.427 618.005 180.057 618.445C179.697 618.885 179.407 619.415 179.187 620.035C178.977 620.645 178.872 621.32 178.872 622.06C178.872 622.4 178.922 622.755 179.022 623.125C179.122 623.485 179.297 623.82 179.547 624.13C179.797 624.43 180.132 624.68 180.552 624.88C180.982 625.07 181.517 625.165 182.157 625.165C182.577 625.165 182.977 625.11 183.357 625C183.737 624.89 184.082 624.73 184.392 624.52C184.702 624.3 184.967 624.03 185.187 623.71C185.407 623.38 185.567 623 185.667 622.57H184.392C184.212 623.05 183.937 623.42 183.567 623.68C183.197 623.93 182.727 624.055 182.157 624.055C181.897 624.055 181.647 624.015 181.407 623.935C181.167 623.845 180.952 623.725 180.762 623.575C180.572 623.415 180.422 623.22 180.312 622.99C180.202 622.75 180.147 622.48 180.147 622.18C180.147 621.95 180.162 621.725 180.192 621.505ZM184.872 620.38H180.372C180.462 620.08 180.582 619.8 180.732 619.54C180.882 619.27 181.067 619.035 181.287 618.835C181.507 618.635 181.762 618.48 182.052 618.37C182.352 618.25 182.687 618.19 183.057 618.19C183.407 618.19 183.702 618.255 183.942 618.385C184.182 618.505 184.372 618.67 184.512 618.88C184.662 619.08 184.762 619.315 184.812 619.585C184.872 619.845 184.892 620.11 184.872 620.38ZM189.223 626.305L194.353 617.245H192.958L189.703 623.41H189.673L188.773 617.245H187.408L188.773 625L187.993 626.275C187.843 626.525 187.678 626.725 187.498 626.875C187.318 627.035 187.083 627.115 186.793 627.115C186.693 627.115 186.573 627.095 186.433 627.055C186.293 627.015 186.173 626.965 186.073 626.905L185.848 627.94C185.968 628 186.108 628.045 186.268 628.075C186.428 628.115 186.583 628.135 186.733 628.135C187.053 628.135 187.333 628.085 187.573 627.985C187.813 627.895 188.028 627.765 188.218 627.595C188.408 627.435 188.583 627.24 188.743 627.01C188.903 626.79 189.063 626.555 189.223 626.305Z" fill="#FFC6C6"/>
</svg>
