<svg width="605" height="469" viewBox="0 0 605 469" fill="none" xmlns="http://www.w3.org/2000/svg">
<path d="M37.68 15.08V1.8H5.36V61H19.84V38.44H37.04V25.16H19.84V15.08H37.68ZM105.749 31.4C105.749 13.96 91.7488 0.679999 74.4688 0.679999C64.3888 0.679999 55.5088 4.84 49.4288 12.84C47.9088 14.84 46.4688 17.16 45.5888 19.48C43.9888 23.56 43.2688 27.72 43.2688 32.12C43.2688 49.16 57.6688 62.12 74.3888 62.12C91.7488 62.12 105.749 48.92 105.749 31.4ZM90.6288 31.48C90.6288 40.52 84.2288 48.84 74.7088 48.84C64.8688 48.84 58.3888 40.68 58.3888 31.24C58.3888 21.96 64.8688 13.96 74.5488 13.96C84.2288 13.96 90.6288 22.28 90.6288 31.48ZM159.156 37.56V1.8H144.036V37.56C144.036 43.16 143.636 48.84 136.516 48.84C129.716 48.84 128.836 42.92 128.836 37.56V1.8H113.716V37.56C113.716 45.08 114.276 50.12 119.636 55.8C123.956 60.36 130.516 62.12 136.676 62.12C142.996 62.12 148.756 60.28 153.236 55.72C158.356 50.6 159.156 44.6 159.156 37.56ZM219.655 61V1.8H205.175L205.815 38.84L205.655 39L182.775 1.8H169.735V61H184.215L183.815 25.08L183.975 25L206.535 61H219.655ZM280.838 31.24C280.838 24.68 279.238 18.2 275.398 12.84C268.678 3.56 259.958 1.8 249.238 1.8H229.638V61H250.358C269.718 61 280.838 50.68 280.838 31.24ZM265.718 31.48C265.718 41.08 261.558 47.72 251.238 47.72H244.758V15.08H251.318C261.398 15.08 265.718 22.04 265.718 31.48ZM322.693 61V47.72H304.293V37.56H322.133V24.28H304.293V15.08H322.693V1.8H289.813V61H322.693ZM377.679 61L361.599 40.84C370.959 39.32 376.319 31.32 376.319 22.2C376.319 16.04 373.919 9.96 369.039 6.04C363.919 1.96 357.039 1.8 350.799 1.8H332.079V61H346.559V41.88H346.719L360.399 61H377.679ZM361.839 23.08C361.839 29.16 357.599 31.56 351.919 31.56H346.559V15.08H352.079C357.279 15.08 361.839 17.24 361.839 23.08ZM422.984 43.96C422.984 34.68 416.984 30.6 409.144 27C406.664 25.88 398.904 22.84 397.464 20.44C396.984 19.72 396.904 18.84 396.904 17.96C396.904 15.16 399.464 13.32 402.104 13.32C405.944 13.32 407.064 15.8 407.544 19.08H422.504C422.344 14.44 421.624 11.16 418.584 7.4C414.824 2.84 408.344 0.679999 402.584 0.679999C392.504 0.679999 381.864 7.08 381.864 18.12C381.864 27.4 388.664 31.88 396.344 35.08C398.104 35.8 399.864 36.52 401.624 37.32C404.744 38.68 407.944 39.96 407.944 43.8C407.944 47 405.304 49.48 402.184 49.48C397.784 49.48 396.024 45.24 396.024 41.4H380.984V43.32C380.984 55.96 390.424 62.12 402.344 62.12C414.024 62.12 422.984 56.36 422.984 43.96ZM65.28 111.4C65.28 93.96 51.28 80.68 34 80.68C23.92 80.68 15.04 84.84 8.96 92.84C7.44 94.84 6 97.16 5.12 99.48C3.52 103.56 2.8 107.72 2.8 112.12C2.8 129.16 17.2 142.12 33.92 142.12C51.28 142.12 65.28 128.92 65.28 111.4ZM50.16 111.48C50.16 120.52 43.76 128.84 34.24 128.84C24.4 128.84 17.92 120.68 17.92 111.24C17.92 101.96 24.4 93.96 34.08 93.96C43.76 93.96 50.16 102.28 50.16 111.48ZM105.727 95.08V81.8H73.4069V141H87.8869V118.44H105.087V105.16H87.8869V95.08H105.727ZM170.372 95.08V81.8H131.972V95.08H143.652V141H158.772V95.08H170.372ZM226.054 141V81.8H210.934V104.04H191.574V81.8H176.454V141H191.574V117.32H210.934V141H226.054ZM269.646 141V127.72H251.246V117.56H269.086V104.28H251.246V95.08H269.646V81.8H236.766V141H269.646ZM335.528 95.08V81.8H297.128V95.08H308.808V141H323.928V95.08H335.528ZM400.358 111.4C400.358 93.96 386.358 80.68 369.078 80.68C358.998 80.68 350.118 84.84 344.038 92.84C342.518 94.84 341.078 97.16 340.198 99.48C338.598 103.56 337.878 107.72 337.878 112.12C337.878 129.16 352.278 142.12 368.998 142.12C386.358 142.12 400.358 128.92 400.358 111.4ZM385.238 111.48C385.238 120.52 378.838 128.84 369.318 128.84C359.478 128.84 352.998 120.68 352.998 111.24C352.998 101.96 359.478 93.96 369.158 93.96C378.838 93.96 385.238 102.28 385.238 111.48ZM453.045 101.8C453.045 95.72 450.725 90.04 446.085 86.12C441.205 82.04 433.925 81.8 427.845 81.8H408.485V141H422.965V122.44H429.525C436.165 122.44 441.685 121.8 446.805 117.32C450.965 113.64 453.045 107.24 453.045 101.8ZM438.565 102.04C438.565 108.04 434.085 109.16 429.125 109.16H422.965V95.08H428.565C433.525 95.08 438.565 95.88 438.565 102.04ZM33.12 221V161.8H8.32V174.52H18V221H33.12ZM96.2531 199.64V183.16C96.2531 173.88 92.0931 166.36 83.4531 162.6C80.6531 161.4 77.4531 160.68 74.4131 160.68C71.3731 160.68 68.3331 161.32 65.4531 162.44C56.4931 166.04 52.0931 173.64 52.0931 183.16V199.64C52.0931 209.08 56.5731 216.6 65.3731 220.28C68.2531 221.48 71.2931 222.12 74.4131 222.12C77.7731 222.12 81.1331 221.4 84.1731 219.96C92.4931 216.12 96.2531 208.52 96.2531 199.64ZM81.1331 200.04C81.1331 204.68 79.6131 208.84 74.1731 208.84C68.9731 208.84 67.2131 204.6 67.2131 200.04V182.76C67.2131 178.28 68.9731 173.96 74.1731 173.96C79.6131 173.96 81.1331 178.12 81.1331 182.76V200.04ZM145.706 199.64V183.16C145.706 173.88 141.546 166.36 132.906 162.6C130.106 161.4 126.906 160.68 123.866 160.68C120.826 160.68 117.786 161.32 114.906 162.44C105.946 166.04 101.546 173.64 101.546 183.16V199.64C101.546 209.08 106.026 216.6 114.826 220.28C117.706 221.48 120.746 222.12 123.866 222.12C127.226 222.12 130.586 221.4 133.626 219.96C141.946 216.12 145.706 208.52 145.706 199.64ZM130.586 200.04C130.586 204.68 129.066 208.84 123.626 208.84C118.426 208.84 116.666 204.6 116.666 200.04V182.76C116.666 178.28 118.426 173.96 123.626 173.96C129.066 173.96 130.586 178.12 130.586 182.76V200.04ZM231.404 221L207.884 161.8H195.964L172.204 221H188.444L191.564 212.44H212.124L215.004 221H231.404ZM208.124 200.44H195.724L201.804 180.2H201.964H202.044L208.124 200.44ZM293.965 190.44C293.965 189.4 293.965 188.36 293.885 187.32H258.765V199.4H276.445C274.605 205.96 268.765 208.92 262.285 208.92C252.205 208.92 246.045 200.84 246.045 191.16C246.045 181.8 252.525 173.96 262.205 173.96C267.805 173.96 272.525 176.76 275.245 181.64H292.205C288.605 169 275.405 160.68 262.605 160.68C245.245 160.68 230.925 173.4 230.925 191.16C230.925 208.68 244.925 222.2 262.365 222.2C280.525 222.2 293.965 208.6 293.965 190.44ZM334.646 221V207.72H316.246V197.56H334.086V184.28H316.246V175.08H334.646V161.8H301.766V221H334.646ZM393.952 221V161.8H379.472L380.112 198.84L379.952 199L357.072 161.8H344.032V221H358.512L358.112 185.08L358.272 185L380.832 221H393.952ZM463.455 198.84H447.615C444.975 204.68 440.015 208.84 433.375 208.84C423.695 208.84 417.455 200.36 417.455 191.24C417.455 182.12 423.695 173.96 433.295 173.96C439.935 173.96 445.295 178.2 447.615 184.28H463.455C462.895 180.84 461.375 177.48 459.455 174.6C453.535 165.64 444.095 160.68 433.375 160.68C416.175 160.68 402.335 173.96 402.335 191.32C402.335 208.68 416.335 222.12 433.535 222.12C447.855 222.12 460.015 212.84 463.455 198.84ZM486.418 221V161.8H471.298V221H486.418ZM530.037 221V207.72H511.637V197.56H529.477V184.28H511.637V175.08H530.037V161.8H497.157V221H530.037ZM578.063 203.96C578.063 194.68 572.063 190.6 564.223 187C561.743 185.88 553.983 182.84 552.543 180.44C552.063 179.72 551.983 178.84 551.983 177.96C551.983 175.16 554.543 173.32 557.183 173.32C561.023 173.32 562.143 175.8 562.623 179.08H577.583C577.423 174.44 576.703 171.16 573.663 167.4C569.903 162.84 563.423 160.68 557.663 160.68C547.583 160.68 536.943 167.08 536.943 178.12C536.943 187.4 543.743 191.88 551.423 195.08C553.183 195.8 554.943 196.52 556.703 197.32C559.823 198.68 563.023 199.96 563.023 203.8C563.023 207 560.383 209.48 557.263 209.48C552.863 209.48 551.103 205.24 551.103 201.4H536.063V203.32C536.063 215.96 545.503 222.12 557.423 222.12C569.103 222.12 578.063 216.36 578.063 203.96ZM59.92 301L36.4 241.8H24.48L0.72 301H16.96L20.08 292.44H40.64L43.52 301H59.92ZM36.64 280.44H24.24L30.32 260.2H30.48H30.56L36.64 280.44ZM111.585 301L95.505 280.84C104.865 279.32 110.225 271.32 110.225 262.2C110.225 256.04 107.825 249.96 102.945 246.04C97.825 241.96 90.945 241.8 84.705 241.8H65.985V301H80.465V281.88H80.625L94.305 301H111.585ZM95.745 263.08C95.745 269.16 91.505 271.56 85.825 271.56H80.465V255.08H85.985C91.185 255.08 95.745 257.24 95.745 263.08ZM151.131 301V287.72H132.731V277.56H150.571V264.28H132.731V255.08H151.131V241.8H118.251V301H151.131ZM228.004 262.92C228.004 257.64 226.644 252.52 223.044 248.44C218.404 243.16 211.364 240.68 204.404 240.68C191.444 240.68 181.444 250.04 181.444 263.16C181.444 270.92 185.124 277.8 192.244 281.32C194.644 282.52 197.364 283.24 200.084 283.24C200.964 283.24 202.084 283.24 202.964 282.92L203.124 283.08L190.084 301H207.604L222.324 279.32C225.764 274.28 228.004 269.08 228.004 262.92ZM212.884 262.12C212.884 266.76 209.204 269.96 204.724 269.96C200.084 269.96 196.564 266.52 196.564 261.88C196.564 257.32 200.244 253.96 204.724 253.96C209.364 253.96 212.884 257.48 212.884 262.12ZM275.137 301V288.28H255.057C263.937 280.52 274.737 270.68 274.737 257.88C274.737 255.56 274.177 253.24 273.217 251.08C269.777 243.88 262.257 240.68 254.577 240.68C247.377 240.68 240.337 243.56 236.337 249.72C233.537 254.04 232.977 258.28 232.817 263.32H247.217C247.457 258.92 248.577 253.96 254.017 253.96C257.457 253.96 259.617 256.36 259.617 259.72C259.617 265 254.897 271.08 251.457 274.84C246.097 280.76 240.017 284.92 233.377 289.24V301H275.137ZM344.51 287.72C344.51 279.8 338.11 273.24 330.11 273.24C322.11 273.24 315.63 279.72 315.63 287.72C315.63 295.72 322.11 302.2 330.11 302.2C338.03 302.2 344.51 295.64 344.51 287.72ZM329.79 241.8H320.51L296.03 301H305.23L329.79 241.8ZM310.43 255.08C310.43 247.08 304.03 240.6 296.03 240.6C288.03 240.6 281.63 247.16 281.63 255.08C281.63 263 288.11 269.48 296.03 269.48C303.95 269.48 310.43 263 310.43 255.08ZM335.63 287.72C335.63 290.76 333.15 293.32 330.11 293.32C327.07 293.32 324.51 290.76 324.51 287.72C324.51 284.6 326.99 282.12 330.11 282.12C333.23 282.12 335.63 284.68 335.63 287.72ZM301.55 255C301.55 258.04 299.07 260.6 296.03 260.6C293.07 260.6 290.51 258.04 290.51 255.08C290.51 251.96 292.91 249.48 296.03 249.48C299.07 249.48 301.55 251.96 301.55 255Z" fill="#FFC6C6"/>
<path d="M77.12 321.8H61.84L53.76 360.44H53.6L45.04 321.8H33.44L24.72 360.28H24.56L16.64 321.8H1.28L16.56 381H30.24L39.12 342.68H39.28L48.16 381H61.44L77.12 321.8ZM133.476 381V321.8H118.356V344.04H98.9956V321.8H83.8756V381H98.9956V357.32H118.356V381H133.476ZM159.308 381V321.8H144.188V381H159.308ZM203.888 335.08V321.8H165.488V335.08H177.168V381H192.288V335.08H203.888ZM242.849 381V367.72H224.449V357.56H242.289V344.28H224.449V335.08H242.849V321.8H209.969V381H242.849ZM339.403 381V321.8H319.883L308.283 360.76H308.123L296.363 321.8H276.923V381H290.843L290.363 336.68L290.523 336.52L303.163 381H313.163L325.803 336.52L325.963 336.68L325.483 381H339.403ZM383.006 381V367.72H364.606V357.56H382.446V344.28H364.606V335.08H383.006V321.8H350.126V381H383.006ZM442.311 381V321.8H427.831L428.471 358.84L428.311 359L405.431 321.8H392.391V381H406.871L406.471 345.08L406.631 345L429.191 381H442.311Z" fill="#F4F4F4"/>
<path d="M4.31633 455.985L4.69133 454.29H3.88133L3.55133 455.865L2.11133 455.13L1.73633 455.82L3.16133 456.54L2.00633 457.8L2.56133 458.355L3.73133 457.05L4.43633 458.595L5.17133 458.25L4.43633 456.75L6.04133 456.54L5.96633 455.82L4.31633 455.985ZM13.6698 457.455H15.0948C15.1148 456.855 15.0198 456.34 14.8098 455.91C14.6098 455.48 14.3298 455.13 13.9698 454.86C13.6098 454.58 13.1898 454.375 12.7098 454.245C12.2398 454.105 11.7398 454.035 11.2098 454.035C10.7298 454.035 10.2548 454.1 9.78477 454.23C9.32477 454.36 8.90977 454.555 8.53977 454.815C8.17977 455.075 7.88477 455.4 7.65477 455.79C7.42477 456.17 7.30977 456.62 7.30977 457.14C7.30977 457.54 7.37477 457.89 7.50477 458.19C7.63477 458.48 7.80977 458.735 8.02977 458.955C8.24977 459.165 8.50477 459.345 8.79477 459.495C9.08477 459.635 9.38977 459.75 9.70977 459.84L11.1648 460.23C11.4248 460.3 11.6698 460.38 11.8998 460.47C12.1298 460.56 12.3298 460.675 12.4998 460.815C12.6798 460.945 12.8198 461.11 12.9198 461.31C13.0198 461.5 13.0698 461.73 13.0698 462C13.0698 462.36 12.9898 462.67 12.8298 462.93C12.6798 463.19 12.4798 463.405 12.2298 463.575C11.9798 463.735 11.6898 463.855 11.3598 463.935C11.0398 464.015 10.7148 464.055 10.3848 464.055C9.95477 464.055 9.55977 464.015 9.19977 463.935C8.83977 463.845 8.52977 463.7 8.26977 463.5C8.01977 463.3 7.82977 463.035 7.69977 462.705C7.56977 462.375 7.51477 461.97 7.53477 461.49H6.10977C6.05977 462.15 6.12977 462.72 6.31977 463.2C6.51977 463.67 6.80477 464.055 7.17477 464.355C7.55477 464.655 8.01477 464.875 8.55477 465.015C9.09477 465.165 9.68477 465.24 10.3248 465.24C10.8048 465.24 11.2898 465.175 11.7798 465.045C12.2798 464.915 12.7298 464.72 13.1298 464.46C13.5298 464.19 13.8548 463.855 14.1048 463.455C14.3648 463.045 14.4948 462.56 14.4948 462C14.4948 461.52 14.4198 461.115 14.2698 460.785C14.1298 460.455 13.9398 460.185 13.6998 459.975C13.4598 459.755 13.1848 459.58 12.8748 459.45C12.5648 459.31 12.2448 459.195 11.9148 459.105L10.4748 458.715C10.2348 458.645 10.0048 458.565 9.78477 458.475C9.57477 458.385 9.38977 458.275 9.22977 458.145C9.07977 458.005 8.95977 457.845 8.86977 457.665C8.77977 457.475 8.73477 457.25 8.73477 456.99C8.73477 456.67 8.81477 456.4 8.97477 456.18C9.13477 455.96 9.33477 455.78 9.57477 455.64C9.82477 455.5 10.0948 455.4 10.3848 455.34C10.6748 455.27 10.9498 455.235 11.2098 455.235C11.5798 455.235 11.9198 455.27 12.2298 455.34C12.5398 455.41 12.7998 455.535 13.0098 455.715C13.2298 455.885 13.3948 456.115 13.5048 456.405C13.6248 456.685 13.6798 457.035 13.6698 457.455ZM15.8663 461.94C15.8663 462.41 15.9413 462.845 16.0913 463.245C16.2413 463.635 16.4563 463.975 16.7363 464.265C17.0163 464.545 17.3563 464.765 17.7563 464.925C18.1663 465.085 18.6263 465.165 19.1363 465.165C19.8163 465.165 20.4213 465.03 20.9513 464.76C21.4813 464.49 21.9313 464.13 22.3013 463.68C22.6713 463.22 22.9513 462.695 23.1413 462.105C23.3313 461.515 23.4263 460.905 23.4263 460.275C23.4263 459.225 23.1513 458.43 22.6013 457.89C22.0513 457.34 21.2513 457.065 20.2013 457.065C19.5213 457.065 18.9113 457.2 18.3713 457.47C17.8413 457.74 17.3863 458.1 17.0063 458.55C16.6363 459 16.3513 459.52 16.1513 460.11C15.9613 460.7 15.8663 461.31 15.8663 461.94ZM17.1413 461.925C17.1413 461.525 17.2013 461.105 17.3213 460.665C17.4513 460.225 17.6413 459.825 17.8913 459.465C18.1413 459.095 18.4513 458.79 18.8213 458.55C19.1913 458.31 19.6213 458.19 20.1113 458.19C20.4613 458.19 20.7613 458.25 21.0113 458.37C21.2713 458.48 21.4863 458.635 21.6563 458.835C21.8263 459.025 21.9513 459.255 22.0313 459.525C22.1113 459.795 22.1513 460.08 22.1513 460.38C22.1513 460.76 22.0863 461.165 21.9563 461.595C21.8363 462.025 21.6513 462.425 21.4013 462.795C21.1613 463.155 20.8613 463.455 20.5013 463.695C20.1513 463.935 19.7413 464.055 19.2713 464.055C18.5713 464.055 18.0413 463.86 17.6813 463.47C17.3213 463.08 17.1413 462.565 17.1413 461.925ZM30.3896 465L32.0246 457.245H30.7496L29.8496 461.535C29.7796 461.855 29.6596 462.17 29.4896 462.48C29.3296 462.78 29.1296 463.05 28.8896 463.29C28.6496 463.52 28.3746 463.705 28.0646 463.845C27.7646 463.985 27.4346 464.055 27.0746 464.055C26.6946 464.055 26.3746 463.97 26.1146 463.8C25.8546 463.62 25.7246 463.345 25.7246 462.975C25.7246 462.905 25.7296 462.82 25.7396 462.72C25.7496 462.61 25.7646 462.5 25.7846 462.39C25.8046 462.27 25.8246 462.155 25.8446 462.045C25.8646 461.935 25.8846 461.845 25.9046 461.775L26.8946 457.245H25.6196L24.6746 461.67C24.6046 461.97 24.5496 462.255 24.5096 462.525C24.4696 462.795 24.4496 463.015 24.4496 463.185C24.4496 463.875 24.6246 464.38 24.9746 464.7C25.3346 465.01 25.8796 465.165 26.6096 465.165C27.1496 465.165 27.6646 465.055 28.1546 464.835C28.6446 464.615 29.0496 464.28 29.3696 463.83H29.3996L29.1596 465H30.3896ZM34.1046 457.245L32.4996 465H33.7596L34.4946 461.565C34.5546 461.275 34.6346 460.965 34.7346 460.635C34.8346 460.295 34.9696 460 35.1396 459.75C35.3396 459.44 35.5746 459.175 35.8446 458.955C36.1246 458.735 36.4396 458.58 36.7896 458.49C36.9396 458.45 37.0646 458.43 37.1646 458.43C37.2646 458.42 37.3946 458.415 37.5546 458.415H37.7346C37.8246 458.415 37.8896 458.42 37.9296 458.43L38.2296 457.065C38.1496 457.045 38.0746 457.04 38.0046 457.05C37.9346 457.06 37.8596 457.065 37.7796 457.065C37.1296 457.065 36.5696 457.24 36.0996 457.59C35.6396 457.94 35.2596 458.38 34.9596 458.91H34.9296L35.3046 457.245H34.1046ZM43.531 459.705H44.806C44.776 458.795 44.501 458.13 43.981 457.71C43.471 457.28 42.776 457.065 41.896 457.065C41.206 457.065 40.591 457.2 40.051 457.47C39.521 457.73 39.071 458.085 38.701 458.535C38.341 458.975 38.066 459.48 37.876 460.05C37.696 460.62 37.606 461.215 37.606 461.835C37.606 462.895 37.871 463.715 38.401 464.295C38.941 464.875 39.741 465.165 40.801 465.165C41.711 465.165 42.471 464.935 43.081 464.475C43.691 464.015 44.111 463.345 44.341 462.465H43.066C42.886 462.945 42.601 463.33 42.211 463.62C41.821 463.91 41.351 464.055 40.801 464.055C40.441 464.055 40.136 463.995 39.886 463.875C39.646 463.755 39.451 463.595 39.301 463.395C39.151 463.195 39.041 462.96 38.971 462.69C38.911 462.42 38.881 462.135 38.881 461.835C38.881 461.415 38.946 460.99 39.076 460.56C39.206 460.12 39.396 459.725 39.646 459.375C39.906 459.025 40.221 458.74 40.591 458.52C40.971 458.3 41.406 458.19 41.896 458.19C42.406 458.19 42.806 458.325 43.096 458.595C43.386 458.855 43.531 459.225 43.531 459.705ZM46.8177 461.505H52.6527C52.6727 461.395 52.6977 461.25 52.7277 461.07C52.7577 460.89 52.7727 460.7 52.7727 460.5C52.7727 459.41 52.5077 458.565 51.9777 457.965C51.4577 457.365 50.6277 457.065 49.4877 457.065C48.9577 457.065 48.4477 457.185 47.9577 457.425C47.4777 457.665 47.0527 458.005 46.6827 458.445C46.3227 458.885 46.0327 459.415 45.8127 460.035C45.6027 460.645 45.4977 461.32 45.4977 462.06C45.4977 462.4 45.5477 462.755 45.6477 463.125C45.7477 463.485 45.9227 463.82 46.1727 464.13C46.4227 464.43 46.7577 464.68 47.1777 464.88C47.6077 465.07 48.1427 465.165 48.7827 465.165C49.2027 465.165 49.6027 465.11 49.9827 465C50.3627 464.89 50.7077 464.73 51.0177 464.52C51.3277 464.3 51.5927 464.03 51.8127 463.71C52.0327 463.38 52.1927 463 52.2927 462.57H51.0177C50.8377 463.05 50.5627 463.42 50.1927 463.68C49.8227 463.93 49.3527 464.055 48.7827 464.055C48.5227 464.055 48.2727 464.015 48.0327 463.935C47.7927 463.845 47.5777 463.725 47.3877 463.575C47.1977 463.415 47.0477 463.22 46.9377 462.99C46.8277 462.75 46.7727 462.48 46.7727 462.18C46.7727 461.95 46.7877 461.725 46.8177 461.505ZM51.4977 460.38H46.9977C47.0877 460.08 47.2077 459.8 47.3577 459.54C47.5077 459.27 47.6927 459.035 47.9127 458.835C48.1327 458.635 48.3877 458.48 48.6777 458.37C48.9777 458.25 49.3127 458.19 49.6827 458.19C50.0327 458.19 50.3277 458.255 50.5677 458.385C50.8077 458.505 50.9977 458.67 51.1377 458.88C51.2877 459.08 51.3877 459.315 51.4377 459.585C51.4977 459.845 51.5177 460.11 51.4977 460.38ZM56.5693 458.91L56.9143 457.245H55.2343L54.8893 458.91H56.5693ZM53.9593 463.335L53.6293 465H55.3093L55.6543 463.335H53.9593ZM62.7739 457.98H64.1239C64.1439 457.65 64.2089 457.335 64.3189 457.035C64.4289 456.725 64.5789 456.46 64.7689 456.24C64.9689 456.01 65.2089 455.83 65.4889 455.7C65.7689 455.56 66.0889 455.49 66.4489 455.49C66.9989 455.49 67.4339 455.645 67.7539 455.955C68.0739 456.265 68.2339 456.705 68.2339 457.275C68.2339 457.545 68.1989 457.785 68.1289 457.995C68.0589 458.205 67.9589 458.4 67.8289 458.58C67.7089 458.75 67.5639 458.915 67.3939 459.075C67.2239 459.225 67.0439 459.375 66.8539 459.525C66.5039 459.785 66.1389 460.025 65.7589 460.245C65.3789 460.465 65.0039 460.69 64.6339 460.92C64.2639 461.15 63.9089 461.39 63.5689 461.64C63.2289 461.89 62.9239 462.175 62.6539 462.495C62.3939 462.815 62.1739 463.18 61.9939 463.59C61.8239 463.99 61.7189 464.46 61.6789 465H68.4439L68.6839 463.875H63.1489C63.2189 463.685 63.3189 463.505 63.4489 463.335C63.5789 463.155 63.7189 462.99 63.8689 462.84C64.0289 462.68 64.1939 462.535 64.3639 462.405C64.5439 462.275 64.7189 462.155 64.8889 462.045C65.1889 461.855 65.5139 461.665 65.8639 461.475C66.2139 461.275 66.5639 461.07 66.9139 460.86C67.2639 460.64 67.5989 460.41 67.9189 460.17C68.2389 459.92 68.5189 459.65 68.7589 459.36C69.0089 459.06 69.2089 458.735 69.3589 458.385C69.5089 458.025 69.5839 457.63 69.5839 457.2C69.5839 456.76 69.5089 456.365 69.3589 456.015C69.2089 455.665 68.9989 455.37 68.7289 455.13C68.4689 454.88 68.1539 454.69 67.7839 454.56C67.4239 454.43 67.0289 454.365 66.5989 454.365C66.0289 454.365 65.5189 454.45 65.0689 454.62C64.6189 454.79 64.2339 455.035 63.9139 455.355C63.5939 455.665 63.3389 456.045 63.1489 456.495C62.9589 456.935 62.8339 457.43 62.7739 457.98ZM71.8139 461.265C71.8139 461.015 71.8389 460.7 71.8889 460.32C71.9389 459.94 72.0189 459.535 72.1289 459.105C72.2389 458.675 72.3789 458.245 72.5489 457.815C72.7189 457.385 72.9189 457 73.1489 456.66C73.3889 456.31 73.6639 456.03 73.9739 455.82C74.2839 455.6 74.6289 455.49 75.0089 455.49C75.3189 455.49 75.5739 455.545 75.7739 455.655C75.9739 455.755 76.1339 455.895 76.2539 456.075C76.3739 456.245 76.4589 456.445 76.5089 456.675C76.5689 456.905 76.6039 457.14 76.6139 457.38C76.6339 457.62 76.6389 457.86 76.6289 458.1C76.6289 458.33 76.6289 458.545 76.6289 458.745C76.6289 458.895 76.6039 459.135 76.5539 459.465C76.5139 459.785 76.4439 460.145 76.3439 460.545C76.2539 460.935 76.1289 461.34 75.9689 461.76C75.8189 462.17 75.6289 462.545 75.3989 462.885C75.1689 463.225 74.8989 463.505 74.5889 463.725C74.2789 463.945 73.9289 464.055 73.5389 464.055C72.9089 464.055 72.4639 463.805 72.2039 463.305C71.9439 462.795 71.8139 462.115 71.8139 461.265ZM70.4639 461.055C70.4639 461.635 70.5089 462.175 70.5989 462.675C70.6989 463.175 70.8639 463.61 71.0939 463.98C71.3239 464.35 71.6239 464.64 71.9939 464.85C72.3739 465.06 72.8439 465.165 73.4039 465.165C73.9939 465.165 74.5139 465.045 74.9639 464.805C75.4139 464.555 75.8089 464.235 76.1489 463.845C76.4889 463.455 76.7739 463.015 77.0039 462.525C77.2439 462.025 77.4339 461.525 77.5739 461.025C77.7139 460.515 77.8139 460.03 77.8739 459.57C77.9439 459.11 77.9789 458.715 77.9789 458.385C77.9789 456.965 77.7339 455.94 77.2439 455.31C76.7539 454.68 76.0439 454.365 75.1139 454.365C74.5639 454.365 74.0639 454.475 73.6139 454.695C73.1639 454.915 72.7689 455.205 72.4289 455.565C72.0889 455.925 71.7939 456.34 71.5439 456.81C71.2939 457.28 71.0889 457.765 70.9289 458.265C70.7689 458.755 70.6489 459.245 70.5689 459.735C70.4989 460.215 70.4639 460.655 70.4639 461.055ZM79.4438 457.98H80.7938C80.8138 457.65 80.8788 457.335 80.9888 457.035C81.0988 456.725 81.2488 456.46 81.4388 456.24C81.6388 456.01 81.8788 455.83 82.1588 455.7C82.4388 455.56 82.7588 455.49 83.1188 455.49C83.6688 455.49 84.1038 455.645 84.4238 455.955C84.7438 456.265 84.9038 456.705 84.9038 457.275C84.9038 457.545 84.8688 457.785 84.7988 457.995C84.7288 458.205 84.6288 458.4 84.4988 458.58C84.3788 458.75 84.2338 458.915 84.0638 459.075C83.8938 459.225 83.7138 459.375 83.5238 459.525C83.1738 459.785 82.8088 460.025 82.4288 460.245C82.0488 460.465 81.6738 460.69 81.3038 460.92C80.9338 461.15 80.5788 461.39 80.2388 461.64C79.8988 461.89 79.5938 462.175 79.3238 462.495C79.0638 462.815 78.8438 463.18 78.6638 463.59C78.4938 463.99 78.3888 464.46 78.3488 465H85.1138L85.3538 463.875H79.8188C79.8888 463.685 79.9888 463.505 80.1188 463.335C80.2488 463.155 80.3888 462.99 80.5388 462.84C80.6988 462.68 80.8638 462.535 81.0338 462.405C81.2138 462.275 81.3888 462.155 81.5588 462.045C81.8588 461.855 82.1838 461.665 82.5338 461.475C82.8838 461.275 83.2338 461.07 83.5838 460.86C83.9338 460.64 84.2688 460.41 84.5888 460.17C84.9088 459.92 85.1888 459.65 85.4288 459.36C85.6788 459.06 85.8788 458.735 86.0288 458.385C86.1788 458.025 86.2538 457.63 86.2538 457.2C86.2538 456.76 86.1788 456.365 86.0288 456.015C85.8788 455.665 85.6688 455.37 85.3988 455.13C85.1388 454.88 84.8238 454.69 84.4538 454.56C84.0938 454.43 83.6988 454.365 83.2688 454.365C82.6988 454.365 82.1888 454.45 81.7388 454.62C81.2888 454.79 80.9038 455.035 80.5838 455.355C80.2638 455.665 80.0088 456.045 79.8188 456.495C79.6288 456.935 79.5038 457.43 79.4438 457.98ZM88.4838 461.265C88.4838 461.015 88.5088 460.7 88.5588 460.32C88.6088 459.94 88.6888 459.535 88.7988 459.105C88.9088 458.675 89.0488 458.245 89.2188 457.815C89.3888 457.385 89.5888 457 89.8188 456.66C90.0588 456.31 90.3338 456.03 90.6438 455.82C90.9538 455.6 91.2988 455.49 91.6788 455.49C91.9888 455.49 92.2438 455.545 92.4438 455.655C92.6438 455.755 92.8038 455.895 92.9238 456.075C93.0438 456.245 93.1288 456.445 93.1788 456.675C93.2388 456.905 93.2738 457.14 93.2838 457.38C93.3038 457.62 93.3088 457.86 93.2988 458.1C93.2988 458.33 93.2988 458.545 93.2988 458.745C93.2988 458.895 93.2738 459.135 93.2238 459.465C93.1838 459.785 93.1138 460.145 93.0138 460.545C92.9238 460.935 92.7988 461.34 92.6388 461.76C92.4888 462.17 92.2988 462.545 92.0688 462.885C91.8388 463.225 91.5688 463.505 91.2588 463.725C90.9488 463.945 90.5988 464.055 90.2088 464.055C89.5788 464.055 89.1338 463.805 88.8738 463.305C88.6138 462.795 88.4838 462.115 88.4838 461.265ZM87.1338 461.055C87.1338 461.635 87.1788 462.175 87.2688 462.675C87.3688 463.175 87.5338 463.61 87.7638 463.98C87.9938 464.35 88.2938 464.64 88.6638 464.85C89.0438 465.06 89.5138 465.165 90.0738 465.165C90.6638 465.165 91.1838 465.045 91.6338 464.805C92.0838 464.555 92.4788 464.235 92.8188 463.845C93.1588 463.455 93.4438 463.015 93.6738 462.525C93.9138 462.025 94.1038 461.525 94.2438 461.025C94.3838 460.515 94.4838 460.03 94.5438 459.57C94.6138 459.11 94.6488 458.715 94.6488 458.385C94.6488 456.965 94.4038 455.94 93.9138 455.31C93.4238 454.68 92.7138 454.365 91.7838 454.365C91.2338 454.365 90.7338 454.475 90.2838 454.695C89.8338 454.915 89.4388 455.205 89.0988 455.565C88.7588 455.925 88.4638 456.34 88.2138 456.81C87.9638 457.28 87.7588 457.765 87.5988 458.265C87.4388 458.755 87.3188 459.245 87.2388 459.735C87.1688 460.215 87.1338 460.655 87.1338 461.055ZM95.6788 463.335L95.3188 465H96.1588C96.1088 465.17 96.0588 465.335 96.0088 465.495C95.9588 465.655 95.8938 465.8 95.8138 465.93C95.7338 466.07 95.6288 466.185 95.4988 466.275C95.3788 466.375 95.2188 466.44 95.0187 466.47L94.8687 467.19C95.3888 467.15 95.7888 467 96.0688 466.74C96.3588 466.49 96.5788 466.18 96.7288 465.81C96.8888 465.45 97.0037 465.05 97.0737 464.61C97.1538 464.17 97.2438 463.745 97.3438 463.335H95.6788ZM105.813 454.29L103.548 465H104.973L105.933 460.425H109.098H109.668C109.828 460.435 109.988 460.47 110.148 460.53C110.308 460.59 110.443 460.7 110.553 460.86C110.663 461.02 110.733 461.25 110.763 461.55C110.803 461.84 110.783 462.225 110.703 462.705C110.593 463.255 110.543 463.725 110.553 464.115C110.563 464.505 110.603 464.8 110.673 465H112.158C112.048 464.79 111.983 464.575 111.963 464.355C111.943 464.135 111.943 463.91 111.963 463.68C111.983 463.44 112.013 463.205 112.053 462.975C112.093 462.735 112.123 462.495 112.143 462.255C112.173 461.985 112.173 461.725 112.143 461.475C112.123 461.225 112.068 461 111.978 460.8C111.898 460.59 111.778 460.41 111.618 460.26C111.468 460.11 111.278 460 111.048 459.93V459.9C111.408 459.85 111.733 459.74 112.023 459.57C112.323 459.4 112.578 459.185 112.788 458.925C112.998 458.665 113.163 458.375 113.283 458.055C113.403 457.725 113.463 457.38 113.463 457.02C113.463 456.49 113.363 456.05 113.163 455.7C112.973 455.35 112.713 455.07 112.383 454.86C112.053 454.65 111.673 454.505 111.243 454.425C110.823 454.335 110.388 454.29 109.938 454.29H105.813ZM106.188 459.225L106.983 455.49H109.938C110.208 455.49 110.468 455.515 110.718 455.565C110.968 455.605 111.188 455.685 111.378 455.805C111.578 455.925 111.738 456.09 111.858 456.3C111.978 456.51 112.038 456.78 112.038 457.11C112.038 457.3 112.003 457.52 111.933 457.77C111.873 458.01 111.748 458.24 111.558 458.46C111.368 458.67 111.098 458.85 110.748 459C110.408 459.15 109.958 459.225 109.398 459.225H106.188ZM119.337 454.29L112.902 465H114.477L116.352 461.775H120.867L121.362 465H122.832L120.897 454.29H119.337ZM116.997 460.575L119.862 455.55H119.892L120.687 460.575H116.997ZM127.707 459.405L123.072 465H124.692L128.352 460.47L130.512 465H131.982L129.267 459.6L133.677 454.29H132.072L128.637 458.52L126.657 454.29H125.127L127.707 459.405ZM134.882 460.56C134.882 459.91 134.972 459.27 135.152 458.64C135.342 458 135.622 457.43 135.992 456.93C136.362 456.43 136.822 456.025 137.372 455.715C137.932 455.395 138.587 455.235 139.337 455.235C139.837 455.235 140.272 455.33 140.642 455.52C141.022 455.7 141.342 455.95 141.602 456.27C141.862 456.58 142.057 456.95 142.187 457.38C142.317 457.81 142.382 458.275 142.382 458.775C142.382 459.415 142.287 460.05 142.097 460.68C141.917 461.31 141.642 461.875 141.272 462.375C140.912 462.875 140.462 463.28 139.922 463.59C139.382 463.9 138.757 464.055 138.047 464.055C137.507 464.055 137.037 463.97 136.637 463.8C136.247 463.63 135.922 463.395 135.662 463.095C135.402 462.785 135.207 462.415 135.077 461.985C134.947 461.555 134.882 461.08 134.882 460.56ZM133.457 460.56C133.457 462.05 133.852 463.205 134.642 464.025C135.442 464.835 136.577 465.24 138.047 465.24C138.937 465.24 139.737 465.065 140.447 464.715C141.167 464.355 141.772 463.875 142.262 463.275C142.762 462.675 143.142 461.985 143.402 461.205C143.672 460.425 143.807 459.615 143.807 458.775C143.807 458.115 143.702 457.495 143.492 456.915C143.292 456.335 142.997 455.835 142.607 455.415C142.227 454.985 141.757 454.65 141.197 454.41C140.647 454.16 140.027 454.035 139.337 454.035C138.427 454.035 137.607 454.215 136.877 454.575C136.147 454.925 135.527 455.4 135.017 456C134.517 456.6 134.132 457.295 133.862 458.085C133.592 458.865 133.457 459.69 133.457 460.56ZM156.228 457.455H157.653C157.673 456.855 157.578 456.34 157.368 455.91C157.168 455.48 156.888 455.13 156.528 454.86C156.168 454.58 155.748 454.375 155.268 454.245C154.798 454.105 154.298 454.035 153.768 454.035C153.288 454.035 152.813 454.1 152.343 454.23C151.883 454.36 151.468 454.555 151.098 454.815C150.738 455.075 150.443 455.4 150.213 455.79C149.983 456.17 149.868 456.62 149.868 457.14C149.868 457.54 149.933 457.89 150.063 458.19C150.193 458.48 150.368 458.735 150.588 458.955C150.808 459.165 151.063 459.345 151.353 459.495C151.643 459.635 151.948 459.75 152.268 459.84L153.723 460.23C153.983 460.3 154.228 460.38 154.458 460.47C154.688 460.56 154.888 460.675 155.058 460.815C155.238 460.945 155.378 461.11 155.478 461.31C155.578 461.5 155.628 461.73 155.628 462C155.628 462.36 155.548 462.67 155.388 462.93C155.238 463.19 155.038 463.405 154.788 463.575C154.538 463.735 154.248 463.855 153.918 463.935C153.598 464.015 153.273 464.055 152.943 464.055C152.513 464.055 152.118 464.015 151.758 463.935C151.398 463.845 151.088 463.7 150.828 463.5C150.578 463.3 150.388 463.035 150.258 462.705C150.128 462.375 150.073 461.97 150.093 461.49H148.668C148.618 462.15 148.688 462.72 148.878 463.2C149.078 463.67 149.363 464.055 149.733 464.355C150.113 464.655 150.573 464.875 151.113 465.015C151.653 465.165 152.243 465.24 152.883 465.24C153.363 465.24 153.848 465.175 154.338 465.045C154.838 464.915 155.288 464.72 155.688 464.46C156.088 464.19 156.413 463.855 156.663 463.455C156.923 463.045 157.053 462.56 157.053 462C157.053 461.52 156.978 461.115 156.828 460.785C156.688 460.455 156.498 460.185 156.258 459.975C156.018 459.755 155.743 459.58 155.433 459.45C155.123 459.31 154.803 459.195 154.473 459.105L153.033 458.715C152.793 458.645 152.563 458.565 152.343 458.475C152.133 458.385 151.948 458.275 151.788 458.145C151.638 458.005 151.518 457.845 151.428 457.665C151.338 457.475 151.293 457.25 151.293 456.99C151.293 456.67 151.373 456.4 151.533 456.18C151.693 455.96 151.893 455.78 152.133 455.64C152.383 455.5 152.653 455.4 152.943 455.34C153.233 455.27 153.508 455.235 153.768 455.235C154.138 455.235 154.478 455.27 154.788 455.34C155.098 455.41 155.358 455.535 155.568 455.715C155.788 455.885 155.953 456.115 156.063 456.405C156.183 456.685 156.238 457.035 156.228 457.455ZM164.335 465L165.97 457.245H164.695L163.795 461.535C163.725 461.855 163.605 462.17 163.435 462.48C163.275 462.78 163.075 463.05 162.835 463.29C162.595 463.52 162.32 463.705 162.01 463.845C161.71 463.985 161.38 464.055 161.02 464.055C160.64 464.055 160.32 463.97 160.06 463.8C159.8 463.62 159.67 463.345 159.67 462.975C159.67 462.905 159.675 462.82 159.685 462.72C159.695 462.61 159.71 462.5 159.73 462.39C159.75 462.27 159.77 462.155 159.79 462.045C159.81 461.935 159.83 461.845 159.85 461.775L160.84 457.245H159.565L158.62 461.67C158.55 461.97 158.495 462.255 158.455 462.525C158.415 462.795 158.395 463.015 158.395 463.185C158.395 463.875 158.57 464.38 158.92 464.7C159.28 465.01 159.825 465.165 160.555 465.165C161.095 465.165 161.61 465.055 162.1 464.835C162.59 464.615 162.995 464.28 163.315 463.83H163.345L163.105 465H164.335ZM168.05 457.245L166.445 465H167.705L168.44 461.565C168.5 461.275 168.58 460.965 168.68 460.635C168.78 460.295 168.915 460 169.085 459.75C169.285 459.44 169.52 459.175 169.79 458.955C170.07 458.735 170.385 458.58 170.735 458.49C170.885 458.45 171.01 458.43 171.11 458.43C171.21 458.42 171.34 458.415 171.5 458.415H171.68C171.77 458.415 171.835 458.42 171.875 458.43L172.175 457.065C172.095 457.045 172.02 457.04 171.95 457.05C171.88 457.06 171.805 457.065 171.725 457.065C171.075 457.065 170.515 457.24 170.045 457.59C169.585 457.94 169.205 458.38 168.905 458.91H168.875L169.25 457.245H168.05ZM174.605 465L178.91 457.245H177.53L174.17 463.695H174.14L173.48 457.245H172.13L173.24 465H174.605ZM180.192 461.505H186.027C186.047 461.395 186.072 461.25 186.102 461.07C186.132 460.89 186.147 460.7 186.147 460.5C186.147 459.41 185.882 458.565 185.352 457.965C184.832 457.365 184.002 457.065 182.862 457.065C182.332 457.065 181.822 457.185 181.332 457.425C180.852 457.665 180.427 458.005 180.057 458.445C179.697 458.885 179.407 459.415 179.187 460.035C178.977 460.645 178.872 461.32 178.872 462.06C178.872 462.4 178.922 462.755 179.022 463.125C179.122 463.485 179.297 463.82 179.547 464.13C179.797 464.43 180.132 464.68 180.552 464.88C180.982 465.07 181.517 465.165 182.157 465.165C182.577 465.165 182.977 465.11 183.357 465C183.737 464.89 184.082 464.73 184.392 464.52C184.702 464.3 184.967 464.03 185.187 463.71C185.407 463.38 185.567 463 185.667 462.57H184.392C184.212 463.05 183.937 463.42 183.567 463.68C183.197 463.93 182.727 464.055 182.157 464.055C181.897 464.055 181.647 464.015 181.407 463.935C181.167 463.845 180.952 463.725 180.762 463.575C180.572 463.415 180.422 463.22 180.312 462.99C180.202 462.75 180.147 462.48 180.147 462.18C180.147 461.95 180.162 461.725 180.192 461.505ZM184.872 460.38H180.372C180.462 460.08 180.582 459.8 180.732 459.54C180.882 459.27 181.067 459.035 181.287 458.835C181.507 458.635 181.762 458.48 182.052 458.37C182.352 458.25 182.687 458.19 183.057 458.19C183.407 458.19 183.702 458.255 183.942 458.385C184.182 458.505 184.372 458.67 184.512 458.88C184.662 459.08 184.762 459.315 184.812 459.585C184.872 459.845 184.892 460.11 184.872 460.38ZM189.223 466.305L194.353 457.245H192.958L189.703 463.41H189.673L188.773 457.245H187.408L188.773 465L187.993 466.275C187.843 466.525 187.678 466.725 187.498 466.875C187.318 467.035 187.083 467.115 186.793 467.115C186.693 467.115 186.573 467.095 186.433 467.055C186.293 467.015 186.173 466.965 186.073 466.905L185.848 467.94C185.968 468 186.108 468.045 186.268 468.075C186.428 468.115 186.583 468.135 186.733 468.135C187.053 468.135 187.333 468.085 187.573 467.985C187.813 467.895 188.028 467.765 188.218 467.595C188.408 467.435 188.583 467.24 188.743 467.01C188.903 466.79 189.063 466.555 189.223 466.305Z" fill="#FFC6C6"/>
</svg>
