<svg width="799" height="1402" viewBox="0 0 799 1402" fill="none" xmlns="http://www.w3.org/2000/svg">
<circle cx="748.5" cy="1081.5" r="50.5" fill="#FFC6C6"/>
<path d="M597.001 4.4026e-05C597.001 55.8405 642.269 101.108 698.109 101.108" stroke="#F4F4F4" strokeWidth="50"/>
<path fill-rule="evenodd" clip-rule="evenodd" d="M312.321 1253L312.321 1380.47C277.312 1380.24 249 1351.8 249 1316.73C249 1281.67 277.312 1253.22 312.321 1253Z" fill="#222220"/>
<path fill-rule="evenodd" clip-rule="evenodd" d="M249.321 1253L249.321 1380.47C214.312 1380.24 186 1351.8 186 1316.73C186 1281.67 214.312 1253.22 249.321 1253Z" fill="#222220"/>
<path d="M421.622 1273.91H417.266C416.54 1275.51 415.176 1276.66 413.35 1276.66C410.688 1276.66 408.972 1274.32 408.972 1271.82C408.972 1269.31 410.688 1267.06 413.328 1267.06C415.154 1267.06 416.628 1268.23 417.266 1269.9H421.622C421.468 1268.96 421.05 1268.03 420.522 1267.24C418.894 1264.78 416.298 1263.41 413.35 1263.41C408.62 1263.41 404.814 1267.06 404.814 1271.84C404.814 1276.61 408.664 1280.31 413.394 1280.31C417.332 1280.31 420.676 1277.76 421.622 1273.91ZM502.231 1273.55V1263.72H498.073V1273.55C498.073 1275.09 497.963 1276.66 496.005 1276.66C494.135 1276.66 493.893 1275.03 493.893 1273.55V1263.72H489.735V1273.55C489.735 1275.62 489.889 1277.01 491.363 1278.57C492.551 1279.82 494.355 1280.31 496.049 1280.31C497.787 1280.31 499.371 1279.8 500.603 1278.55C502.011 1277.14 502.231 1275.49 502.231 1273.55ZM580.226 1280V1276.35H575.408V1263.72H571.25V1280H580.226ZM658.531 1276.19V1272.67H654.747V1268.87H651.227V1272.67H647.443V1276.19H651.227V1280H654.747V1276.19H658.531ZM414.78 1352.37V1348.72H404.22V1352.37H407.432V1365H411.59V1352.37H414.78ZM494.905 1358.55V1348.72H490.747V1358.55C490.747 1360.09 490.637 1361.66 488.679 1361.66C486.809 1361.66 486.567 1360.03 486.567 1358.55V1348.72H482.409V1358.55C482.409 1360.62 482.563 1362.01 484.037 1363.57C485.225 1364.82 487.029 1365.31 488.723 1365.31C490.461 1365.31 492.045 1364.8 493.277 1363.55C494.685 1362.14 494.905 1360.49 494.905 1358.55ZM576.354 1365L571.932 1359.46C574.506 1359.04 575.98 1356.84 575.98 1354.33C575.98 1352.64 575.32 1350.96 573.978 1349.89C572.57 1348.76 570.678 1348.72 568.962 1348.72H563.814V1365H567.796V1359.74H567.84L571.602 1365H576.354ZM571.998 1354.57C571.998 1356.24 570.832 1356.9 569.27 1356.9H567.796V1352.37H569.314C570.744 1352.37 571.998 1352.97 571.998 1354.57ZM653.229 1365V1361.35H648.169V1358.55H653.075V1354.9H648.169V1352.37H653.229V1348.72H644.187V1365H653.229Z" fill="#222220"/>
<circle cx="8.5" cy="795.5" r="8.5" transform="rotate(-180 8.5 795.5)" fill="#222220"/>
<circle cx="8.5" cy="834.5" r="8.5" transform="rotate(-180 8.5 834.5)" fill="#222220"/>
<path fill-rule="evenodd" clip-rule="evenodd" d="M0.0289237 778L17 778C16.7412 782.462 13.041 786 8.51446 786C3.98789 786 0.287731 782.462 0.0289237 778Z" fill="#222220"/>
<path fill-rule="evenodd" clip-rule="evenodd" d="M0.0289237 856L17 856C16.7412 860.462 13.041 864 8.51446 864C3.98789 864 0.287731 860.462 0.0289237 856Z" fill="#222220"/>
<path fill-rule="evenodd" clip-rule="evenodd" d="M0.0289237 888L17 888C16.7412 892.462 13.041 896 8.51446 896C3.98789 896 0.287731 892.462 0.0289237 888Z" fill="#222220"/>
<path fill-rule="evenodd" clip-rule="evenodd" d="M0.0289237 769L17 769C16.7412 773.462 13.041 777 8.51446 777C3.98789 777 0.287731 773.462 0.0289237 769Z" fill="#222220"/>
<path fill-rule="evenodd" clip-rule="evenodd" d="M16.9984 816H0.0273438C0.286153 811.538 3.98631 808 8.51288 808C13.0395 808 16.7396 811.538 16.9984 816Z" fill="#222220"/>
<path d="M489.565 286H525.434V324.64H564V360.36H525.434V399H489.565V360.36H451V324.64H489.565V286Z" fill="#F4F4F4"/>
<path d="M564 734L564 804.5L497 804.5" stroke="#FFC6C6" strokeWidth="40"/>
<path d="M87.8906 297.919L16.9987 361.838L16.9987 234L87.8906 297.919Z" fill="#F4F4F4"/>
</svg>
