<svg width="645" height="1226" viewBox="0 0 645 1226" fill="none" xmlns="http://www.w3.org/2000/svg">
<circle cx="600.5" cy="1125.5" r="8.5" transform="rotate(-180 600.5 1125.5)" fill="#222220"/>
<circle cx="600.5" cy="1164.5" r="8.5" transform="rotate(-180 600.5 1164.5)" fill="#222220"/>
<path fill-rule="evenodd" clip-rule="evenodd" d="M592.029 1108L609 1108C608.741 1112.46 605.041 1116 600.514 1116C595.988 1116 592.288 1112.46 592.029 1108Z" fill="#222220"/>
<path fill-rule="evenodd" clip-rule="evenodd" d="M592.029 1186L609 1186C608.741 1190.46 605.041 1194 600.514 1194C595.988 1194 592.288 1190.46 592.029 1186Z" fill="#222220"/>
<path fill-rule="evenodd" clip-rule="evenodd" d="M592.029 1218L609 1218C608.741 1222.46 605.041 1226 600.514 1226C595.988 1226 592.288 1222.46 592.029 1218Z" fill="#222220"/>
<path fill-rule="evenodd" clip-rule="evenodd" d="M592.029 1099L609 1099C608.741 1103.46 605.041 1107 600.514 1107C595.988 1107 592.288 1103.46 592.029 1099Z" fill="#222220"/>
<path fill-rule="evenodd" clip-rule="evenodd" d="M608.998 1146H592.027C592.286 1141.54 595.986 1138 600.513 1138C605.039 1138 608.74 1141.54 608.998 1146Z" fill="#222220"/>
<path d="M523.001 555C523.001 610.841 568.269 656.108 624.109 656.108" stroke="#F4F4F4" stroke-width="50"/>
<circle cx="50.5" cy="50.5" r="50.5" fill="#FFC6C6"/>
<path d="M183.565 686H219.434V724.64H258V760.36H219.434V799H183.565V760.36H145V724.64H183.565V686Z" fill="#F4F4F4"/>
<path d="M101 1099L101 1169.5L34 1169.5" stroke="#FFC6C6" stroke-width="40"/>
<path d="M644.891 246.919L573.999 310.838L573.999 183L644.891 246.919Z" fill="#F4F4F4"/>
</svg>
