<svg width="645" height="1258" viewBox="0 0 645 1258" fill="none" xmlns="http://www.w3.org/2000/svg">
<circle cx="66.5" cy="209.5" r="8.5" transform="rotate(-180 66.5 209.5)" fill="#222220"/>
<circle cx="66.5" cy="248.5" r="8.5" transform="rotate(-180 66.5 248.5)" fill="#222220"/>
<path fill-rule="evenodd" clip-rule="evenodd" d="M58.0289 192L75 192C74.7412 196.462 71.041 200 66.5145 200C61.9879 200 58.2877 196.462 58.0289 192Z" fill="#222220"/>
<path fill-rule="evenodd" clip-rule="evenodd" d="M58.0289 270L75 270C74.7412 274.462 71.041 278 66.5145 278C61.9879 278 58.2877 274.462 58.0289 270Z" fill="#222220"/>
<path fill-rule="evenodd" clip-rule="evenodd" d="M58.0289 302L75 302C74.7412 306.462 71.041 310 66.5145 310C61.9879 310 58.2877 306.462 58.0289 302Z" fill="#222220"/>
<path fill-rule="evenodd" clip-rule="evenodd" d="M58.0289 183L75 183C74.7412 187.462 71.041 191 66.5145 191C61.9879 191 58.2877 187.462 58.0289 183Z" fill="#222220"/>
<path fill-rule="evenodd" clip-rule="evenodd" d="M74.9984 230H58.0273C58.2862 225.538 61.9863 222 66.5129 222C71.0395 222 74.7396 225.538 74.9984 230Z" fill="#222220"/>
<path d="M422.001 537C422.001 592.841 467.269 638.108 523.109 638.108" stroke="#F4F4F4" stroke-width="50"/>
<circle cx="472.5" cy="1143.5" r="50.5" fill="#FFC6C6"/>
<path d="M69.5653 500H105.434V538.64H144V574.36H105.434V613H69.5653V574.36H31V538.64H69.5653V500Z" fill="#F4F4F4"/>
<path d="M557 187L557 257.5L490 257.5" stroke="#FFC6C6" stroke-width="40"/>
<path d="M74.8906 1193.92L3.99874 1257.84L3.99874 1130L74.8906 1193.92Z" fill="#F4F4F4"/>
<path fill-rule="evenodd" clip-rule="evenodd" d="M212.321 921.002L212.321 1048.47C177.312 1048.25 149 1019.8 149 984.735C149 949.674 177.312 921.224 212.321 921.002Z" fill="#222220"/>
<path fill-rule="evenodd" clip-rule="evenodd" d="M151.321 921.002L151.321 1048.47C116.312 1048.25 88 1019.8 88 984.735C88 949.674 116.312 921.224 151.321 921.002Z" fill="#222220"/>
<path d="M284.622 949.906H280.266C279.54 951.512 278.176 952.656 276.35 952.656C273.688 952.656 271.972 950.324 271.972 947.816C271.972 945.308 273.688 943.064 276.328 943.064C278.154 943.064 279.628 944.23 280.266 945.902H284.622C284.468 944.956 284.05 944.032 283.522 943.24C281.894 940.776 279.298 939.412 276.35 939.412C271.62 939.412 267.814 943.064 267.814 947.838C267.814 952.612 271.664 956.308 276.394 956.308C280.332 956.308 283.676 953.756 284.622 949.906ZM365.231 949.554V939.72H361.073V949.554C361.073 951.094 360.963 952.656 359.005 952.656C357.135 952.656 356.893 951.028 356.893 949.554V939.72H352.735V949.554C352.735 951.622 352.889 953.008 354.363 954.57C355.551 955.824 357.355 956.308 359.049 956.308C360.787 956.308 362.371 955.802 363.603 954.548C365.011 953.14 365.231 951.49 365.231 949.554ZM443.226 956V952.348H438.408V939.72H434.25V956H443.226ZM521.531 952.194V948.674H517.747V944.868H514.227V948.674H510.443V952.194H514.227V956H517.747V952.194H521.531ZM277.78 1028.37V1024.72H267.22V1028.37H270.432V1041H274.59V1028.37H277.78ZM357.905 1034.55V1024.72H353.747V1034.55C353.747 1036.09 353.637 1037.66 351.679 1037.66C349.809 1037.66 349.567 1036.03 349.567 1034.55V1024.72H345.409V1034.55C345.409 1036.62 345.563 1038.01 347.037 1039.57C348.225 1040.82 350.029 1041.31 351.723 1041.31C353.461 1041.31 355.045 1040.8 356.277 1039.55C357.685 1038.14 357.905 1036.49 357.905 1034.55ZM439.354 1041L434.932 1035.46C437.506 1035.04 438.98 1032.84 438.98 1030.33C438.98 1028.64 438.32 1026.96 436.978 1025.89C435.57 1024.76 433.678 1024.72 431.962 1024.72H426.814V1041H430.796V1035.74H430.84L434.602 1041H439.354ZM434.998 1030.57C434.998 1032.24 433.832 1032.9 432.27 1032.9H430.796V1028.37H432.314C433.744 1028.37 434.998 1028.97 434.998 1030.57ZM516.229 1041V1037.35H511.169V1034.55H516.075V1030.9H511.169V1028.37H516.229V1024.72H507.187V1041H516.229Z" fill="#222220"/>
</svg>
