<svg width="905" height="1336" viewBox="0 0 905 1336" fill="none" xmlns="http://www.w3.org/2000/svg">
<circle cx="26.5" cy="1235.5" r="8.5" transform="rotate(-180 26.5 1235.5)" fill="#222220"/>
<circle cx="26.5" cy="1274.5" r="8.5" transform="rotate(-180 26.5 1274.5)" fill="#222220"/>
<path fill-rule="evenodd" clip-rule="evenodd" d="M18.0289 1218L35 1218C34.7412 1222.46 31.041 1226 26.5145 1226C21.9879 1226 18.2877 1222.46 18.0289 1218Z" fill="#222220"/>
<path fill-rule="evenodd" clip-rule="evenodd" d="M18.0289 1296L35 1296C34.7412 1300.46 31.041 1304 26.5145 1304C21.9879 1304 18.2877 1300.46 18.0289 1296Z" fill="#222220"/>
<path fill-rule="evenodd" clip-rule="evenodd" d="M18.0289 1328L35 1328C34.7412 1332.46 31.041 1336 26.5145 1336C21.9879 1336 18.2877 1332.46 18.0289 1328Z" fill="#222220"/>
<path fill-rule="evenodd" clip-rule="evenodd" d="M18.0289 1209L35 1209C34.7412 1213.46 31.041 1217 26.5145 1217C21.9879 1217 18.2877 1213.46 18.0289 1209Z" fill="#222220"/>
<path fill-rule="evenodd" clip-rule="evenodd" d="M34.9984 1256H18.0273C18.2862 1251.54 21.9863 1248 26.5129 1248C31.0395 1248 34.7396 1251.54 34.9984 1256Z" fill="#222220"/>
<path d="M729.001 4.4026e-05C729.001 55.8405 774.269 101.108 830.109 101.108" stroke="#F4F4F4" stroke-width="50"/>
<circle cx="519.5" cy="971.5" r="50.5" fill="#FFC6C6"/>
<path fill-rule="evenodd" clip-rule="evenodd" d="M593.321 1179L593.321 1306.47C558.312 1306.25 530 1277.8 530 1242.74C530 1207.67 558.312 1179.22 593.321 1179Z" fill="#222220"/>
<path fill-rule="evenodd" clip-rule="evenodd" d="M532.321 1179L532.321 1306.47C497.312 1306.25 469 1277.8 469 1242.74C469 1207.67 497.312 1179.22 532.321 1179Z" fill="#222220"/>
<path d="M665.622 1207.91H661.266C660.54 1209.51 659.176 1210.66 657.35 1210.66C654.688 1210.66 652.972 1208.32 652.972 1205.82C652.972 1203.31 654.688 1201.06 657.328 1201.06C659.154 1201.06 660.628 1202.23 661.266 1203.9H665.622C665.468 1202.96 665.05 1202.03 664.522 1201.24C662.894 1198.78 660.298 1197.41 657.35 1197.41C652.62 1197.41 648.814 1201.06 648.814 1205.84C648.814 1210.61 652.664 1214.31 657.394 1214.31C661.332 1214.31 664.676 1211.76 665.622 1207.91ZM746.231 1207.55V1197.72H742.073V1207.55C742.073 1209.09 741.963 1210.66 740.005 1210.66C738.135 1210.66 737.893 1209.03 737.893 1207.55V1197.72H733.735V1207.55C733.735 1209.62 733.889 1211.01 735.363 1212.57C736.551 1213.82 738.355 1214.31 740.049 1214.31C741.787 1214.31 743.371 1213.8 744.603 1212.55C746.011 1211.14 746.231 1209.49 746.231 1207.55ZM824.226 1214V1210.35H819.408V1197.72H815.25V1214H824.226ZM902.531 1210.19V1206.67H898.747V1202.87H895.227V1206.67H891.443V1210.19H895.227V1214H898.747V1210.19H902.531ZM658.78 1286.37V1282.72H648.22V1286.37H651.432V1299H655.59V1286.37H658.78ZM738.905 1292.55V1282.72H734.747V1292.55C734.747 1294.09 734.637 1295.66 732.679 1295.66C730.809 1295.66 730.567 1294.03 730.567 1292.55V1282.72H726.409V1292.55C726.409 1294.62 726.563 1296.01 728.037 1297.57C729.225 1298.82 731.029 1299.31 732.723 1299.31C734.461 1299.31 736.045 1298.8 737.277 1297.55C738.685 1296.14 738.905 1294.49 738.905 1292.55ZM820.354 1299L815.932 1293.46C818.506 1293.04 819.98 1290.84 819.98 1288.33C819.98 1286.64 819.32 1284.96 817.978 1283.89C816.57 1282.76 814.678 1282.72 812.962 1282.72H807.814V1299H811.796V1293.74H811.84L815.602 1299H820.354ZM815.998 1288.57C815.998 1290.24 814.832 1290.9 813.27 1290.9H811.796V1286.37H813.314C814.744 1286.37 815.998 1286.97 815.998 1288.57ZM897.229 1299V1295.35H892.169V1292.55H897.075V1288.9H892.169V1286.37H897.229V1282.72H888.187V1299H897.229Z" fill="#222220"/>
<path d="M547.565 208H583.434V246.64H622V282.36H583.434V321H547.565V282.36H509V246.64H547.565V208Z" fill="#F4F4F4"/>
<path d="M830 566L830 636.5L763 636.5" stroke="#FFC6C6" stroke-width="40"/>
<path d="M70.8906 219.919L-0.00125733 283.838L-0.00125885 156L70.8906 219.919Z" fill="#F4F4F4"/>
</svg>
