<svg width="486" height="472" viewBox="0 0 486 472" fill="none" xmlns="http://www.w3.org/2000/svg">
<path d="M872.511 -468.57C730.034 -412.777 597.965 -334.675 457.871 -273.769C430.111 -261.701 401.456 -249.73 372.175 -241.685C344.403 -234.054 391.811 -275.12 392.686 -275.821C471.895 -339.381 577.317 -368.827 675.709 -386.087C743.142 -397.917 814.091 -402.866 882.417 -395.083C893.967 -393.767 926.637 -395.019 917.265 -375.563C882.465 -303.314 793.206 -253.128 728.925 -212.231C644.562 -158.558 555.395 -116.135 461.507 -81.7605C436.696 -72.6766 411.616 -64.9209 386.104 -58.1264C378.719 -56.1596 367.053 -51.1833 358.965 -51.406C351.276 -51.6177 368.889 -63.495 375.458 -67.4712C413.636 -90.5805 456.159 -107.036 497.537 -123.329C575.29 -153.944 654.704 -179.242 735.985 -198.759C754.216 -203.137 809.864 -220.174 775.021 -183.019C734.684 -140.007 680.758 -106.509 631.257 -75.7113C550.775 -25.6383 467.073 19.672 379.738 56.7418C283.053 97.7805 176.483 132.326 72.2157 148.665C65.8961 149.656 47.0105 153.432 40.1862 149.964C25.5449 142.522 64.3559 127.376 78.6784 119.412C167.513 70.0202 263.196 28.2126 360.274 -2.2733C395.533 -13.3461 442.928 -30.845 480.999 -24.5289C500.323 -21.3229 484.378 4.61533 480.147 13.7606C452.875 72.6935 421.59 136.013 378.195 184.789C352.275 213.923 316.607 240.475 279.321 253.245C273.981 255.073 243.174 260.884 251.277 246.249C276.805 200.146 341.507 180.241 388.281 166.624C430.138 154.439 482.84 138.589 526.806 151.047C562.978 161.297 519.818 202.669 508.03 215.171C467.614 258.038 414.856 287.753 356.659 298.496C350.394 299.652 299.612 308.922 302.464 291.995C310.19 246.156 382.102 230.291 417.224 223.115C462.978 213.767 514.638 207.383 560.944 218.334C582.444 223.419 561.031 266.066 556.969 278.009C534.197 344.958 501.027 416.19 444.219 460.795" stroke="#222220" stroke-width="2" stroke-linecap="round" stroke-linejoin="round"/>
</svg>
