<svg width="111" height="46" viewBox="0 0 111 46" fill="none" xmlns="http://www.w3.org/2000/svg">
<path d="M20.3515 37.8183C19.8174 40.0504 18.5396 42.0343 16.7282 43.4437C14.9167 44.8531 12.6796 45.604 10.3847 45.5729C9.03047 45.5928 7.68577 45.3438 6.42853 44.8401C5.17128 44.3365 4.02651 43.5883 3.06055 42.639C2.0946 41.6897 1.32669 40.558 0.801331 39.3097C0.275971 38.0614 0.00360482 36.7212 3.5543e-05 35.3668C-0.00353374 34.0125 0.261755 32.6709 0.780528 31.4198C1.2993 30.1687 2.06124 29.0331 3.02217 28.0787C3.9831 27.1242 5.12393 26.37 6.3785 25.8598C7.63307 25.3495 8.97645 25.0934 10.3308 25.1062C12.6502 25.0637 14.9134 25.8222 16.7388 27.2538C18.5641 28.6855 19.8401 30.7027 20.3515 32.9655H15.0749C14.7308 31.9711 14.0882 31.1071 13.2348 30.4915C12.3813 29.8759 11.3587 29.5387 10.3065 29.526C6.92171 29.526 5.02998 32.484 5.02998 35.2833C5.02998 38.2678 7.05538 41.1461 10.3331 41.1461C13.4787 41.1461 14.7576 38.5078 15.0773 37.816L20.3515 37.8183Z" fill="#222220"/>
<path d="M27.4252 25.4785V37.391C27.4252 38.7199 27.5034 41.1479 29.983 41.1479C32.4845 41.1479 32.4844 38.9638 32.4844 37.391V25.4785H37.521V37.391C37.521 40.696 36.8018 42.1594 35.5495 43.4406C34.8268 44.1573 33.9636 44.7165 33.0142 45.0833C32.0648 45.45 31.0498 45.6163 30.033 45.5716C28.5931 45.5716 25.9814 45.2253 24.3562 43.4664C22.7311 41.6802 22.3848 40.295 22.3848 37.3902V25.4785H27.4252Z" fill="#222220"/>
<path d="M40.8281 25.4785H45.8662V40.7758H51.7017V45.2002H40.8281V25.4785Z" fill="#222220"/>
<path d="M54.1652 29.9014H50.2754V25.4785H63.0665V29.9014H59.2017V45.2002H54.1652V29.9014Z" fill="#222220"/>
<path d="M69.4623 25.4785V37.391C69.4623 38.7199 69.5405 41.1479 72.0216 41.1479C74.5231 41.1479 74.5231 38.9638 74.5231 37.391V25.4785H79.5589V37.391C79.5589 40.696 78.8397 42.1594 77.5874 43.4406C76.8648 44.1574 76.0016 44.7167 75.0522 45.0835C74.1028 45.4502 73.0877 45.6164 72.0709 45.5716C70.6326 45.5716 68.0209 45.2253 66.3949 43.4664C64.7682 41.6802 64.4219 40.295 64.4219 37.3902V25.4785H69.4623Z" fill="#222220"/>
<path d="M82.8016 25.4785H89.038C92.5026 25.4785 93.8338 25.9038 95.1143 26.8903C95.8951 27.5493 96.5181 28.3751 96.9375 29.3068C97.3569 30.2385 97.562 31.2524 97.5376 32.2739C97.5376 34.5409 96.365 37.8709 92.6339 38.483L97.991 45.1995H92.236L87.6787 38.8293H87.6247V45.2002H82.8008L82.8016 25.4785ZM87.6255 35.3929H89.4117C92.3697 35.3929 92.7168 33.527 92.7168 32.5678C92.7168 30.7816 91.4105 29.9022 89.4649 29.9022H87.6263L87.6255 35.3929Z" fill="#222220"/>
<path d="M99.9199 25.4785H110.873V29.9014H104.741V32.9665H110.682V37.391H104.741V40.7758H110.871V45.2002H99.9199V25.4785Z" fill="#222220"/>
<path d="M6.44989 17.706L5.41101 20.5577H0L7.91638 0.835938H11.8867L19.7225 20.5577H14.2592L13.3 17.706H6.44989ZM7.83587 13.7083H11.9664L9.94101 6.96609H9.86283L7.83587 13.7083Z" fill="#222220"/>
<path d="M21.0125 0.835938H27.5413C29.7544 0.835938 33.6981 0.835923 36.2558 4.50996C37.5087 6.30277 38.1446 8.45431 38.0678 10.6401C38.0678 16.0238 35.403 20.5545 27.9134 20.5545H21.0117L21.0125 0.835938ZM26.0491 16.1332H28.2081C31.9658 16.1332 33.0313 13.5215 33.0313 10.7222C33.0545 9.4404 32.7225 8.17721 32.0721 7.07241C31.4859 6.19299 30.4728 5.26039 28.2339 5.26039H26.0451L26.0491 16.1332Z" fill="#222220"/>
<path d="M44.4238 7.07227H48.6872V11.6843H53.2712V15.9478H48.6872V20.5599H44.4238V15.9478H39.8398V11.6843H44.4238V7.07227Z" fill="#222220"/>
<path d="M55.748 0.835938H62.2777C64.4891 0.835938 68.4344 0.835923 70.9922 4.50996C72.2453 6.30267 72.8815 8.45422 72.805 10.6401C72.805 16.0238 70.1401 20.5545 62.6506 20.5545H55.7488L55.748 0.835938ZM60.7846 16.1332H62.9437C66.7014 16.1332 67.7668 13.5215 67.7668 10.7222C67.79 9.44039 67.4581 8.17719 66.8077 7.07241C66.2214 6.19299 65.2083 5.26039 62.9695 5.26039H60.7807L60.7846 16.1332Z" fill="#222220"/>
</svg>
