<svg width="1920" height="410" viewBox="0 0 1920 410" fill="none" xmlns="http://www.w3.org/2000/svg">
<rect width="2350" height="72" transform="translate(-170.627) rotate(8.28392)" fill="#F4F4F4"/>
<path d="M-43.6612 45.8474L-43.0393 41.5764L-53.4337 40.063L-56.2058 59.1023L-51.5489 59.7803L-50.4925 52.5248L-44.9609 53.3302L-44.339 49.0592L-49.8707 48.2538L-49.3987 45.012L-43.6612 45.8474ZM-27.1764 63.3289L-31.9686 43.1883L-35.8021 42.6301L-46.2156 60.5568L-40.9927 61.3173L-39.5885 58.7104L-32.9762 59.6731L-32.4508 62.5609L-27.1764 63.3289ZM-33.7007 55.6265L-37.6887 55.0459L-34.7855 48.8212L-34.7341 48.8287L-34.7083 48.8324L-33.7007 55.6265ZM-20.3631 64.3209L-17.591 45.2816L-22.4537 44.5736L-25.2258 63.6129L-20.3631 64.3209ZM-6.28325 66.3709L-5.66141 62.0999L-11.296 61.2795L-9.14577 46.5112L-14.0085 45.8032L-16.7806 64.8425L-6.28325 66.3709ZM0.491244 67.3572L3.26331 48.318L-1.59941 47.61L-4.37148 66.6492L0.491244 67.3572ZM19.9998 70.1976L22.7719 51.1584L18.115 50.4803L16.5864 62.4227L16.5275 62.4667L10.911 49.4314L6.71719 48.8208L3.94512 67.8601L8.60202 68.5381L10.1554 56.9672L10.2106 56.949L15.7803 69.5833L19.9998 70.1976ZM44.3497 63.7062C44.3984 63.3717 44.4471 63.0372 44.4701 62.699L33.1752 61.0545L32.6095 64.9395L38.2955 65.7674C37.3966 67.791 35.3798 68.4695 33.2958 68.1661C30.054 67.6941 28.4512 64.807 28.9045 61.6939C29.3428 58.6836 31.7939 56.4656 34.9071 56.9189C36.7081 57.1811 38.095 58.3026 38.7412 59.9995L44.1957 60.7936C43.6298 56.5599 39.7742 53.266 35.6576 52.6667C30.0744 51.8538 24.8734 55.2741 24.0417 60.9859C23.2214 66.6205 27.0908 71.6242 32.6997 72.4408C38.5401 73.2912 43.4993 69.5466 44.3497 63.7062Z" fill="#222220"/>
<path d="M177.011 77.9768L177.633 73.7058L167.238 72.1924L164.466 91.2317L169.123 91.9097L170.179 84.6542L175.711 85.4596L176.333 81.1886L170.801 80.3832L171.273 77.1414L177.011 77.9768ZM193.495 95.4583L188.703 75.3177L184.87 74.7595L174.456 92.6862L179.679 93.4467L181.083 90.8398L187.696 91.8025L188.221 94.6903L193.495 95.4583ZM186.971 87.7559L182.983 87.1753L185.886 80.9506L185.938 80.9581L185.964 80.9618L186.971 87.7559ZM200.309 96.4503L203.081 77.411L198.218 76.703L195.446 95.7423L200.309 96.4503ZM214.389 98.5003L215.01 94.2293L209.376 93.4089L211.526 78.6406L206.663 77.9326L203.891 96.9719L214.389 98.5003ZM221.163 99.4866L223.935 80.4474L219.072 79.7394L216.3 98.7786L221.163 99.4866ZM240.672 102.327L243.444 83.2878L238.787 82.6097L237.258 94.5521L237.199 94.5961L231.583 81.5608L227.389 80.9502L224.617 99.9895L229.274 100.668L230.827 89.0966L230.882 89.0784L236.452 101.713L240.672 102.327ZM265.022 95.8356C265.07 95.5011 265.119 95.1666 265.142 94.8284L253.847 93.1839L253.281 97.0689L258.967 97.8968C258.068 99.9204 256.052 100.599 253.968 100.295C250.726 99.8235 249.123 96.9364 249.576 93.8233C250.015 90.813 252.466 88.595 255.579 89.0483C257.38 89.3105 258.767 90.432 259.413 92.1288L264.868 92.923C264.302 88.6893 260.446 85.3954 256.329 84.796C250.746 83.9832 245.545 87.4035 244.714 93.1153C243.893 98.7498 247.763 103.754 253.372 104.57C259.212 105.421 264.171 101.676 265.022 95.8356Z" fill="#222220"/>
<path d="M397.685 110.106L398.306 105.835L387.912 104.322L385.14 123.361L389.797 124.039L390.853 116.784L396.385 117.589L397.007 113.318L391.475 112.513L391.947 109.271L397.685 110.106ZM414.169 127.588L409.377 107.447L405.544 106.889L395.13 124.816L400.353 125.576L401.757 122.969L408.37 123.932L408.895 126.82L414.169 127.588ZM407.645 119.885L403.657 119.305L406.56 113.08L406.612 113.087L406.637 113.091L407.645 119.885ZM420.983 128.58L423.755 109.54L418.892 108.832L416.12 127.872L420.983 128.58ZM435.062 130.63L435.684 126.359L430.05 125.538L432.2 110.77L427.337 110.062L424.565 129.101L435.062 130.63ZM441.837 131.616L444.609 112.577L439.746 111.869L436.974 130.908L441.837 131.616ZM461.346 134.456L464.118 115.417L459.461 114.739L457.932 126.681L457.873 126.725L452.257 113.69L448.063 113.08L445.291 132.119L449.948 132.797L451.501 121.226L451.556 121.208L457.126 133.842L461.346 134.456ZM485.695 127.965C485.744 127.631 485.793 127.296 485.816 126.958L474.521 125.313L473.955 129.198L479.641 130.026C478.742 132.05 476.726 132.728 474.641 132.425C471.4 131.953 469.797 129.066 470.25 125.953C470.688 122.942 473.14 120.724 476.253 121.178C478.054 121.44 479.441 122.561 480.087 124.258L485.541 125.052C484.976 120.819 481.12 117.525 477.003 116.925C471.42 116.113 466.219 119.533 465.387 125.245C464.567 130.879 468.437 135.883 474.045 136.7C479.886 137.55 484.845 133.805 485.695 127.965Z" fill="#222220"/>
<path d="M618.358 142.236L618.98 137.965L608.586 136.451L605.814 155.49L610.471 156.168L611.527 148.913L617.059 149.718L617.681 145.447L612.149 144.642L612.621 141.4L618.358 142.236ZM634.843 159.717L630.051 139.576L626.217 139.018L615.804 156.945L621.027 157.705L622.431 155.099L629.043 156.061L629.569 158.949L634.843 159.717ZM628.319 152.015L624.331 151.434L627.234 145.209L627.285 145.217L627.311 145.221L628.319 152.015ZM641.656 160.709L644.429 141.67L639.566 140.962L636.794 160.001L641.656 160.709ZM655.736 162.759L656.358 158.488L650.724 157.668L652.874 142.899L648.011 142.191L645.239 161.231L655.736 162.759ZM662.511 163.745L665.283 144.706L660.42 143.998L657.648 163.037L662.511 163.745ZM682.019 166.586L684.791 147.547L680.135 146.869L678.606 158.811L678.547 158.855L672.931 145.82L668.737 145.209L665.965 164.248L670.622 164.926L672.175 153.355L672.23 153.337L677.8 165.971L682.019 166.586ZM706.369 160.094C706.418 159.76 706.467 159.425 706.49 159.087L695.195 157.443L694.629 161.328L700.315 162.156C699.416 164.179 697.399 164.858 695.315 164.554C692.073 164.082 690.471 161.195 690.924 158.082C691.362 155.072 693.813 152.854 696.927 153.307C698.728 153.569 700.115 154.691 700.761 156.388L706.215 157.182C705.649 152.948 701.794 149.654 697.677 149.055C692.094 148.242 686.893 151.662 686.061 157.374C685.241 163.009 689.11 168.012 694.719 168.829C700.56 169.679 705.519 165.935 706.369 160.094Z" fill="#222220"/>
<path d="M839.03 174.365L839.652 170.094L829.258 168.581L826.486 187.62L831.142 188.298L832.199 181.043L837.731 181.848L838.352 177.577L832.821 176.772L833.293 173.53L839.03 174.365ZM855.515 191.847L850.723 171.706L846.889 171.148L836.476 189.075L841.699 189.835L843.103 187.228L849.715 188.191L850.241 191.079L855.515 191.847ZM848.991 184.145L845.003 183.564L847.906 177.339L847.957 177.347L847.983 177.351L848.991 184.145ZM862.328 192.839L865.1 173.8L860.238 173.092L857.466 192.131L862.328 192.839ZM876.408 194.889L877.03 190.618L871.395 189.798L873.546 175.029L868.683 174.321L865.911 193.361L876.408 194.889ZM883.183 195.875L885.955 176.836L881.092 176.128L878.32 195.167L883.183 195.875ZM902.691 198.716L905.463 179.676L900.806 178.998L899.278 190.941L899.219 190.985L893.602 177.95L889.409 177.339L886.637 196.378L891.293 197.056L892.847 185.485L892.902 185.467L898.472 198.101L902.691 198.716ZM927.041 192.224C927.09 191.89 927.138 191.555 927.161 191.217L915.867 189.573L915.301 193.458L920.987 194.285C920.088 196.309 918.071 196.988 915.987 196.684C912.745 196.212 911.143 193.325 911.596 190.212C912.034 187.202 914.485 184.984 917.598 185.437C919.399 185.699 920.786 186.821 921.433 188.518L926.887 189.312C926.321 185.078 922.466 181.784 918.349 181.185C912.766 180.372 907.565 183.792 906.733 189.504C905.913 195.139 909.782 200.142 915.391 200.959C921.231 201.809 926.191 198.065 927.041 192.224Z" fill="#222220"/>
<path d="M1059.7 206.495L1060.33 202.224L1049.93 200.71L1047.16 219.75L1051.82 220.428L1052.87 213.172L1058.4 213.978L1059.03 209.707L1053.49 208.901L1053.97 205.659L1059.7 206.495ZM1076.19 223.976L1071.4 203.836L1067.56 203.278L1057.15 221.204L1062.37 221.965L1063.78 219.358L1070.39 220.321L1070.91 223.208L1076.19 223.976ZM1069.66 216.274L1065.68 215.693L1068.58 209.469L1068.63 209.476L1068.66 209.48L1069.66 216.274ZM1083 224.968L1085.77 205.929L1080.91 205.221L1078.14 224.26L1083 224.968ZM1097.08 227.018L1097.7 222.747L1092.07 221.927L1094.22 207.159L1089.36 206.451L1086.58 225.49L1097.08 227.018ZM1103.86 228.005L1106.63 208.965L1101.77 208.257L1098.99 227.297L1103.86 228.005ZM1123.37 230.845L1126.14 211.806L1121.48 211.128L1119.95 223.07L1119.89 223.114L1114.28 210.079L1110.08 209.468L1107.31 228.508L1111.97 229.186L1113.52 217.615L1113.58 217.596L1119.15 230.231L1123.37 230.845ZM1147.71 224.354C1147.76 224.019 1147.81 223.685 1147.84 223.346L1136.54 221.702L1135.97 225.587L1141.66 226.415C1140.76 228.438 1138.75 229.117 1136.66 228.814C1133.42 228.342 1131.82 225.455 1132.27 222.341C1132.71 219.331 1135.16 217.113 1138.27 217.566C1140.07 217.829 1141.46 218.95 1142.11 220.647L1147.56 221.441C1147 217.207 1143.14 213.913 1139.02 213.314C1133.44 212.501 1128.24 215.922 1127.41 221.633C1126.59 227.268 1130.46 232.272 1136.06 233.088C1141.91 233.939 1146.86 230.194 1147.71 224.354Z" fill="#222220"/>
<path d="M1280.38 238.624L1281 234.353L1270.61 232.84L1267.83 251.879L1272.49 252.557L1273.55 245.302L1279.08 246.107L1279.7 241.836L1274.17 241.031L1274.64 237.789L1280.38 238.624ZM1296.86 256.106L1292.07 235.965L1288.24 235.407L1277.82 253.334L1283.05 254.094L1284.45 251.487L1291.06 252.45L1291.59 255.338L1296.86 256.106ZM1290.34 248.403L1286.35 247.823L1289.25 241.598L1289.3 241.606L1289.33 241.609L1290.34 248.403ZM1303.68 257.098L1306.45 238.058L1301.59 237.35L1298.81 256.39L1303.68 257.098ZM1317.76 259.148L1318.38 254.877L1312.74 254.056L1314.89 239.288L1310.03 238.58L1307.26 257.619L1317.76 259.148ZM1324.53 260.134L1327.3 241.095L1322.44 240.387L1319.67 259.426L1324.53 260.134ZM1344.04 262.974L1346.81 243.935L1342.15 243.257L1340.63 255.2L1340.57 255.244L1334.95 242.208L1330.76 241.598L1327.98 260.637L1332.64 261.315L1334.19 249.744L1334.25 249.726L1339.82 262.36L1344.04 262.974ZM1368.39 256.483C1368.44 256.149 1368.49 255.814 1368.51 255.476L1357.21 253.831L1356.65 257.716L1362.33 258.544C1361.44 260.568 1359.42 261.246 1357.33 260.943C1354.09 260.471 1352.49 257.584 1352.94 254.471C1353.38 251.46 1355.83 249.242 1358.95 249.696C1360.75 249.958 1362.13 251.079 1362.78 252.776L1368.23 253.57C1367.67 249.337 1363.81 246.043 1359.7 245.444C1354.11 244.631 1348.91 248.051 1348.08 253.763C1347.26 259.397 1351.13 264.401 1356.74 265.218C1362.58 266.068 1367.54 262.323 1368.39 256.483Z" fill="#222220"/>
<path d="M1501.05 270.754L1501.67 266.483L1491.28 264.969L1488.51 284.009L1493.16 284.687L1494.22 277.431L1499.75 278.236L1500.37 273.965L1494.84 273.16L1495.31 269.918L1501.05 270.754ZM1517.54 288.235L1512.74 268.095L1508.91 267.536L1498.5 285.463L1503.72 286.224L1505.12 283.617L1511.74 284.579L1512.26 287.467L1517.54 288.235ZM1511.01 280.533L1507.02 279.952L1509.93 273.727L1509.98 273.735L1510 273.739L1511.01 280.533ZM1524.35 289.227L1527.12 270.188L1522.26 269.48L1519.49 288.519L1524.35 289.227ZM1538.43 291.277L1539.05 287.006L1533.42 286.186L1535.57 271.417L1530.7 270.709L1527.93 289.749L1538.43 291.277ZM1545.2 292.263L1547.98 273.224L1543.11 272.516L1540.34 291.555L1545.2 292.263ZM1564.71 295.104L1567.48 276.065L1562.83 275.387L1561.3 287.329L1561.24 287.373L1555.62 274.338L1551.43 273.727L1548.66 292.766L1553.31 293.444L1554.87 281.873L1554.92 281.855L1560.49 294.49L1564.71 295.104ZM1589.06 288.612C1589.11 288.278 1589.16 287.943 1589.18 287.605L1577.89 285.961L1577.32 289.846L1583.01 290.674C1582.11 292.697 1580.09 293.376 1578.01 293.072C1574.77 292.6 1573.16 289.713 1573.62 286.6C1574.05 283.59 1576.51 281.372 1579.62 281.825C1581.42 282.087 1582.81 283.209 1583.45 284.906L1588.91 285.7C1588.34 281.466 1584.49 278.172 1580.37 277.573C1574.79 276.76 1569.59 280.18 1568.75 285.892C1567.93 291.527 1571.8 296.53 1577.41 297.347C1583.25 298.197 1588.21 294.453 1589.06 288.612Z" fill="#222220"/>
<path d="M1721.72 302.884L1722.35 298.613L1711.95 297.099L1709.18 316.138L1713.84 316.816L1714.89 309.561L1720.42 310.366L1721.05 306.095L1715.52 305.29L1715.99 302.048L1721.72 302.884ZM1738.21 320.365L1733.42 300.224L1729.58 299.666L1719.17 317.593L1724.39 318.353L1725.8 315.747L1732.41 316.709L1732.93 319.597L1738.21 320.365ZM1731.69 312.663L1727.7 312.082L1730.6 305.857L1730.65 305.865L1730.68 305.869L1731.69 312.663ZM1745.02 321.357L1747.79 302.318L1742.93 301.61L1740.16 320.649L1745.02 321.357ZM1759.1 323.407L1759.72 319.136L1754.09 318.316L1756.24 303.547L1751.38 302.839L1748.61 321.879L1759.1 323.407ZM1765.88 324.393L1768.65 305.354L1763.79 304.646L1761.01 323.685L1765.88 324.393ZM1785.39 327.234L1788.16 308.195L1783.5 307.516L1781.97 319.459L1781.91 319.503L1776.3 306.468L1772.1 305.857L1769.33 324.896L1773.99 325.574L1775.54 314.003L1775.6 313.985L1781.17 326.619L1785.39 327.234ZM1809.74 320.742C1809.78 320.408 1809.83 320.073 1809.86 319.735L1798.56 318.091L1798 321.976L1803.68 322.804C1802.78 324.827 1800.77 325.506 1798.68 325.202C1795.44 324.73 1793.84 321.843 1794.29 318.73C1794.73 315.72 1797.18 313.502 1800.29 313.955C1802.09 314.217 1803.48 315.339 1804.13 317.036L1809.58 317.83C1809.02 313.596 1805.16 310.302 1801.04 309.703C1795.46 308.89 1790.26 312.31 1789.43 318.022C1788.61 323.657 1792.48 328.66 1798.09 329.477C1803.93 330.327 1808.89 326.583 1809.74 320.742Z" fill="#222220"/>
</svg>
