<svg width="1920" height="218" viewBox="0 0 1920 218" fill="none" xmlns="http://www.w3.org/2000/svg">
<rect width="2127" height="72" transform="translate(-66 145.46) rotate(-3.92137)" fill="#FFC6C6"/>
<path d="M67.7873 163.428L67.4921 159.123L57.0127 159.841L58.3285 179.036L63.0235 178.714L62.5221 171.399L68.099 171.017L67.8038 166.711L62.2269 167.093L62.0029 163.825L67.7873 163.428ZM87.5953 177.03L78.6535 158.357L74.7885 158.622L68.4004 178.345L73.666 177.984L74.4874 175.14L81.1537 174.683L82.2778 177.394L87.5953 177.03ZM79.5901 170.881L75.5695 171.156L77.091 164.459L77.1429 164.455L77.1689 164.453L79.5901 170.881ZM94.4643 176.559L93.1486 157.364L88.2461 157.7L89.5618 176.895L94.4643 176.559ZM108.659 175.586L108.364 171.28L102.683 171.669L101.663 156.78L96.7604 157.116L98.0762 176.311L108.659 175.586ZM115.489 175.118L114.173 155.923L109.271 156.259L110.587 175.454L115.489 175.118ZM135.157 173.769L133.842 154.574L129.147 154.896L130.177 166.892L130.129 166.947L121.884 155.394L117.656 155.684L118.971 174.879L123.666 174.557L122.738 162.919L122.788 162.89L130.903 174.061L135.157 173.769ZM157.584 162.277C157.561 161.94 157.538 161.602 157.489 161.267L146.102 162.047L146.37 165.964L152.103 165.571C151.652 167.739 149.824 168.829 147.723 168.973C144.455 169.197 142.278 166.714 142.063 163.575C141.855 160.54 143.782 157.854 146.92 157.639C148.736 157.515 150.329 158.318 151.319 159.84L156.818 159.463C155.37 155.444 150.905 153.04 146.755 153.324C141.126 153.71 136.766 158.153 137.16 163.911C137.55 169.592 142.39 173.665 148.044 173.277C153.933 172.873 157.988 168.165 157.584 162.277Z" fill="#222220"/>
<path d="M290.266 148.178L289.971 143.873L279.491 144.591L280.807 163.786L285.502 163.464L285.001 156.149L290.577 155.767L290.282 151.461L284.705 151.843L284.481 148.575L290.266 148.178ZM310.074 161.78L301.132 143.107L297.267 143.372L290.879 163.095L296.145 162.734L296.966 159.89L303.632 159.433L304.756 162.144L310.074 161.78ZM302.069 155.631L298.048 155.906L299.57 149.209L299.621 149.205L299.647 149.203L302.069 155.631ZM316.943 161.309L315.627 142.114L310.725 142.45L312.04 161.645L316.943 161.309ZM331.138 160.336L330.843 156.03L325.162 156.419L324.141 141.53L319.239 141.866L320.555 161.061L331.138 160.336ZM337.968 159.868L336.652 140.673L331.749 141.009L333.065 160.204L337.968 159.868ZM357.636 158.519L356.32 139.324L351.625 139.646L352.656 151.642L352.608 151.697L344.362 140.144L340.134 140.434L341.45 159.629L346.145 159.307L345.217 147.669L345.267 147.64L353.382 158.811L357.636 158.519ZM380.063 147.027C380.04 146.69 380.017 146.352 379.968 146.017L368.58 146.797L368.849 150.714L374.581 150.321C374.131 152.489 372.303 153.579 370.202 153.723C366.933 153.947 364.757 151.464 364.541 148.325C364.333 145.29 366.26 142.604 369.399 142.389C371.215 142.265 372.807 143.068 373.798 144.59L379.297 144.213C377.849 140.194 373.384 137.79 369.233 138.074C363.605 138.46 359.244 142.903 359.639 148.661C360.028 154.342 364.868 158.415 370.523 158.027C376.411 157.623 380.467 152.915 380.063 147.027Z" fill="#222220"/>
<path d="M512.744 132.928L512.449 128.622L501.97 129.34L503.286 148.535L507.981 148.214L507.479 140.899L513.056 140.516L512.761 136.21L507.184 136.593L506.96 133.324L512.744 132.928ZM532.552 146.529L523.61 127.857L519.746 128.122L513.357 147.845L518.623 147.484L519.444 144.639L526.111 144.182L527.235 146.894L532.552 146.529ZM524.547 140.38L520.527 140.656L522.048 133.958L522.1 133.955L522.126 133.953L524.547 140.38ZM539.421 146.058L538.106 126.863L533.203 127.199L534.519 146.394L539.421 146.058ZM553.616 145.085L553.321 140.779L547.641 141.169L546.62 126.28L541.717 126.616L543.033 145.811L553.616 145.085ZM560.446 144.617L559.13 125.422L554.228 125.758L555.544 144.953L560.446 144.617ZM580.114 143.269L578.799 124.074L574.104 124.396L575.134 136.391L575.086 136.447L566.841 124.894L562.613 125.183L563.928 144.378L568.623 144.057L567.695 132.419L567.745 132.389L575.86 143.56L580.114 143.269ZM602.541 131.776C602.518 131.439 602.495 131.102 602.446 130.766L591.059 131.547L591.327 135.464L597.06 135.071C596.609 137.239 594.781 138.328 592.68 138.472C589.412 138.696 587.235 136.213 587.02 133.075C586.812 130.04 588.739 127.354 591.877 127.139C593.693 127.014 595.286 127.817 596.276 129.339L601.775 128.962C600.327 124.944 595.862 122.539 591.712 122.824C586.083 123.21 581.723 127.652 582.117 133.411C582.507 139.091 587.347 143.164 593.001 142.776C598.89 142.373 602.945 137.664 602.541 131.776Z" fill="#222220"/>
<path d="M735.221 117.677L734.926 113.372L724.446 114.09L725.762 133.285L730.457 132.963L729.956 125.648L735.533 125.266L735.237 120.96L729.66 121.342L729.436 118.074L735.221 117.677ZM755.029 131.279L746.087 112.606L742.222 112.871L735.834 132.594L741.1 132.233L741.921 129.389L748.587 128.932L749.711 131.643L755.029 131.279ZM747.024 125.13L743.003 125.405L744.525 118.708L744.577 118.704L744.602 118.702L747.024 125.13ZM761.898 130.808L760.582 111.613L755.68 111.949L756.995 131.144L761.898 130.808ZM776.093 129.835L775.798 125.529L770.117 125.918L769.096 111.029L764.194 111.365L765.51 130.56L776.093 129.835ZM782.923 129.367L781.607 110.172L776.705 110.508L778.02 129.703L782.923 129.367ZM802.591 128.018L801.275 108.823L796.58 109.145L797.611 121.141L797.563 121.196L789.317 109.643L785.089 109.933L786.405 129.128L791.1 128.806L790.172 117.168L790.222 117.139L798.337 128.31L802.591 128.018ZM825.018 116.526C824.995 116.189 824.972 115.851 824.923 115.516L813.535 116.296L813.804 120.213L819.536 119.82C819.086 121.988 817.258 123.078 815.157 123.222C811.889 123.446 809.712 120.963 809.496 117.824C809.288 114.789 811.215 112.103 814.354 111.888C816.17 111.764 817.762 112.567 818.753 114.089L824.252 113.712C822.804 109.693 818.339 107.289 814.188 107.573C808.56 107.959 804.199 112.402 804.594 118.16C804.983 123.841 809.823 127.914 815.478 127.526C821.366 127.122 825.422 122.414 825.018 116.526Z" fill="#222220"/>
<path d="M957.699 102.427L957.404 98.1211L946.925 98.8394L948.241 118.034L952.936 117.713L952.434 110.398L958.011 110.015L957.716 105.71L952.139 106.092L951.915 102.823L957.699 102.427ZM977.507 116.028L968.566 97.356L964.701 97.6209L958.312 117.344L963.578 116.983L964.399 114.138L971.066 113.681L972.19 116.393L977.507 116.028ZM969.502 109.879L965.482 110.155L967.003 103.457L967.055 103.454L967.081 103.452L969.502 109.879ZM984.376 115.557L983.061 96.3624L978.158 96.6984L979.474 115.893L984.376 115.557ZM998.571 114.584L998.276 110.278L992.596 110.668L991.575 95.7787L986.672 96.1148L987.988 115.31L998.571 114.584ZM1005.4 114.116L1004.09 94.9212L999.183 95.2572L1000.5 114.452L1005.4 114.116ZM1025.07 112.768L1023.75 93.5729L1019.06 93.8948L1020.09 105.89L1020.04 105.946L1011.8 94.3926L1007.57 94.6825L1008.88 113.877L1013.58 113.556L1012.65 101.918L1012.7 101.888L1020.82 113.06L1025.07 112.768ZM1047.5 101.275C1047.47 100.938 1047.45 100.601 1047.4 100.265L1036.01 101.046L1036.28 104.963L1042.02 104.57C1041.56 106.738 1039.74 107.827 1037.64 107.971C1034.37 108.195 1032.19 105.712 1031.98 102.574C1031.77 99.5389 1033.69 96.8529 1036.83 96.6377C1038.65 96.5132 1040.24 97.3162 1041.23 98.838L1046.73 98.4611C1045.28 94.4427 1040.82 92.0384 1036.67 92.3229C1031.04 92.7088 1026.68 97.1514 1027.07 102.91C1027.46 108.591 1032.3 112.663 1037.96 112.275C1043.84 111.872 1047.9 107.163 1047.5 101.275Z" fill="#222220"/>
<path d="M1180.18 87.177L1179.88 82.8711L1169.4 83.5894L1170.72 102.784L1175.41 102.463L1174.91 95.1477L1180.49 94.7654L1180.19 90.4595L1174.62 90.8418L1174.39 87.5735L1180.18 87.177ZM1199.99 100.778L1191.04 82.106L1187.18 82.3709L1180.79 102.094L1186.06 101.733L1186.88 98.8882L1193.54 98.4312L1194.67 101.143L1199.99 100.778ZM1191.98 94.6292L1187.96 94.9048L1189.48 88.2071L1189.53 88.2035L1189.56 88.2018L1191.98 94.6292ZM1206.85 100.307L1205.54 81.1124L1200.64 81.4484L1201.95 100.643L1206.85 100.307ZM1221.05 99.3343L1220.75 95.0284L1215.07 95.4178L1214.05 80.5287L1209.15 80.8648L1210.47 100.06L1221.05 99.3343ZM1227.88 98.8661L1226.56 79.6712L1221.66 80.0072L1222.98 99.2022L1227.88 98.8661ZM1247.55 97.5179L1246.23 78.3229L1241.54 78.6448L1242.57 90.6404L1242.52 90.6958L1234.27 79.1426L1230.05 79.4325L1231.36 98.6274L1236.06 98.3056L1235.13 86.6678L1235.18 86.6383L1243.29 97.8095L1247.55 97.5179ZM1269.98 86.0253C1269.95 85.6881 1269.93 85.3509 1269.88 85.0154L1258.49 85.796L1258.76 89.7128L1264.49 89.3199C1264.04 91.4878 1262.21 92.5773 1260.11 92.7213C1256.85 92.9454 1254.67 90.4624 1254.45 87.3238C1254.25 84.2889 1256.17 81.6029 1259.31 81.3877C1261.13 81.2632 1262.72 82.0662 1263.71 83.588L1269.21 83.2111C1267.76 79.1927 1263.3 76.7884 1259.15 77.0729C1253.52 77.4588 1249.16 81.9014 1249.55 87.6598C1249.94 93.3405 1254.78 97.4131 1260.43 97.0254C1266.32 96.6218 1270.38 91.9135 1269.98 86.0253Z" fill="#222220"/>
<path d="M1402.66 71.9265L1402.36 67.6206L1391.88 68.3389L1393.2 87.5339L1397.89 87.212L1397.39 79.8972L1402.97 79.5149L1402.67 75.209L1397.1 75.5913L1396.87 72.323L1402.66 71.9265ZM1422.46 85.5277L1413.52 66.8555L1409.66 67.1204L1403.27 86.8435L1408.53 86.4825L1409.36 83.6377L1416.02 83.1807L1417.15 85.8922L1422.46 85.5277ZM1414.46 79.3788L1410.44 79.6544L1411.96 72.9566L1412.01 72.9531L1412.04 72.9513L1414.46 79.3788ZM1429.33 85.0568L1428.02 65.8619L1423.11 66.1979L1424.43 85.3929L1429.33 85.0568ZM1443.53 84.0838L1443.23 79.7779L1437.55 80.1673L1436.53 65.2782L1431.63 65.6143L1432.94 84.8093L1443.53 84.0838ZM1450.36 83.6156L1449.04 64.4207L1444.14 64.7567L1445.45 83.9517L1450.36 83.6156ZM1470.03 82.2674L1468.71 63.0725L1464.01 63.3943L1465.05 75.3899L1465 75.4453L1456.75 63.8922L1452.52 64.182L1453.84 83.3769L1458.53 83.0551L1457.61 71.4173L1457.66 71.3878L1465.77 82.559L1470.03 82.2674ZM1492.45 70.7748C1492.43 70.4376 1492.41 70.1004 1492.36 69.7649L1480.97 70.5455L1481.24 74.4623L1486.97 74.0694C1486.52 76.2373 1484.69 77.3268 1482.59 77.4708C1479.32 77.6949 1477.15 75.2119 1476.93 72.0733C1476.72 69.0384 1478.65 66.3524 1481.79 66.1372C1483.6 66.0128 1485.2 66.8157 1486.19 68.3375L1491.69 67.9606C1490.24 63.9422 1485.77 61.5379 1481.62 61.8224C1475.99 62.2083 1471.63 66.6509 1472.03 72.4094C1472.42 78.09 1477.26 82.1626 1482.91 81.775C1488.8 81.3713 1492.86 76.663 1492.45 70.7748Z" fill="#222220"/>
<path d="M1625.13 56.676L1624.84 52.3701L1614.36 53.0884L1615.68 72.2834L1620.37 71.9615L1619.87 64.6467L1625.45 64.2644L1625.15 59.9585L1619.57 60.3408L1619.35 57.0725L1625.13 56.676ZM1644.94 70.2772L1636 51.605L1632.14 51.8699L1625.75 71.593L1631.01 71.232L1631.83 68.3872L1638.5 67.9302L1639.62 70.6417L1644.94 70.2772ZM1636.94 64.1283L1632.92 64.4039L1634.44 57.7061L1634.49 57.7026L1634.52 57.7008L1636.94 64.1283ZM1651.81 69.8063L1650.5 50.6114L1645.59 50.9474L1646.91 70.1424L1651.81 69.8063ZM1666.01 68.8333L1665.71 64.5274L1660.03 64.9168L1659.01 50.0278L1654.11 50.3638L1655.42 69.5588L1666.01 68.8333ZM1672.84 68.3651L1671.52 49.1702L1666.62 49.5062L1667.93 68.7012L1672.84 68.3651ZM1692.5 67.0169L1691.19 47.822L1686.49 48.1438L1687.52 60.1394L1687.48 60.1948L1679.23 48.6417L1675 48.9315L1676.32 68.1264L1681.01 67.8046L1680.08 56.1668L1680.14 56.1373L1688.25 67.3085L1692.5 67.0169ZM1714.93 55.5243C1714.91 55.1871 1714.88 54.8499 1714.84 54.5144L1703.45 55.295L1703.72 59.2118L1709.45 58.8189C1709 60.9868 1707.17 62.0763 1705.07 62.2203C1701.8 62.4444 1699.62 59.9614 1699.41 56.8228C1699.2 53.7879 1701.13 51.1019 1704.27 50.8867C1706.08 50.7623 1707.68 51.5652 1708.67 53.0871L1714.16 52.7101C1712.72 48.6917 1708.25 46.2875 1704.1 46.5719C1698.47 46.9578 1694.11 51.4004 1694.51 57.1589C1694.9 62.8395 1699.74 66.9121 1705.39 66.5245C1711.28 66.1208 1715.33 61.4125 1714.93 55.5243Z" fill="#222220"/>
<path d="M1847.61 41.4255L1847.32 37.1196L1836.84 37.8379L1838.15 57.0329L1842.85 56.7111L1842.35 49.3962L1847.92 49.0139L1847.63 44.708L1842.05 45.0903L1841.83 41.822L1847.61 41.4255ZM1867.42 55.0267L1858.48 36.3545L1854.61 36.6194L1848.22 56.3425L1853.49 55.9815L1854.31 53.1367L1860.98 52.6797L1862.1 55.3912L1867.42 55.0267ZM1859.41 48.8778L1855.39 49.1534L1856.92 42.4556L1856.97 42.4521L1856.99 42.4503L1859.41 48.8778ZM1874.29 54.5559L1872.97 35.3609L1868.07 35.697L1869.39 54.8919L1874.29 54.5559ZM1888.48 53.5828L1888.19 49.2769L1882.51 49.6663L1881.49 34.7773L1876.58 35.1133L1877.9 54.3083L1888.48 53.5828ZM1895.31 53.1146L1894 33.9197L1889.1 34.2557L1890.41 53.4507L1895.31 53.1146ZM1914.98 51.7664L1913.67 32.5715L1908.97 32.8933L1910 44.8889L1909.95 44.9443L1901.71 33.3912L1897.48 33.681L1898.8 52.876L1903.49 52.5541L1902.56 40.9163L1902.61 40.8869L1910.73 52.058L1914.98 51.7664ZM1937.41 40.2738C1937.39 39.9366 1937.36 39.5994 1937.31 39.264L1925.93 40.0445L1926.19 43.9613L1931.93 43.5684C1931.48 45.7363 1929.65 46.8258 1927.55 46.9699C1924.28 47.1939 1922.1 44.711 1921.89 41.5723C1921.68 38.5374 1923.61 35.8514 1926.74 35.6362C1928.56 35.5118 1930.15 36.3147 1931.14 37.8366L1936.64 37.4596C1935.19 33.4412 1930.73 31.037 1926.58 31.3215C1920.95 31.7073 1916.59 36.1499 1916.98 41.9084C1917.37 47.589 1922.21 51.6616 1927.87 51.274C1933.76 50.8704 1937.81 46.162 1937.41 40.2738Z" fill="#222220"/>
</svg>
