<svg width="2324" height="501" viewBox="0 0 2324 501" fill="none" xmlns="http://www.w3.org/2000/svg">
<rect width="2350" height="72" transform="translate(0 429.85) rotate(-10.5396)" fill="#ADAEA5"/>
<path d="M134.968 432.279L134.178 428.036L123.851 429.957L127.371 448.873L131.997 448.012L130.656 440.803L136.152 439.781L135.362 435.538L129.867 436.56L129.268 433.34L134.968 432.279ZM156.211 443.507L145.177 425.989L141.368 426.698L137.296 447.026L142.485 446.061L142.973 443.14L149.542 441.918L150.971 444.482L156.211 443.507ZM147.551 438.321L143.589 439.059L144.328 432.23L144.379 432.221L144.405 432.216L147.551 438.321ZM162.98 442.247L159.461 423.332L154.63 424.231L158.149 443.146L162.98 442.247ZM176.969 439.645L176.179 435.402L170.581 436.443L167.851 421.771L163.02 422.67L166.54 441.585L176.969 439.645ZM183.699 438.393L180.18 419.477L175.349 420.376L178.868 439.291L183.699 438.393ZM203.081 434.786L199.561 415.871L194.935 416.732L197.341 428.529L197.3 428.589L187.778 418.063L183.611 418.839L187.13 437.754L191.757 436.893L189.494 425.44L189.54 425.405L198.889 435.566L203.081 434.786ZM224.034 420.786C223.972 420.453 223.91 420.121 223.823 419.794L212.601 421.881L213.319 425.741L218.968 424.69C218.77 426.895 217.08 428.188 215.01 428.574C211.789 429.173 209.341 426.957 208.765 423.864C208.209 420.874 209.813 417.983 212.906 417.408C214.695 417.075 216.37 417.689 217.529 419.087L222.948 418.079C221.047 414.254 216.334 412.38 212.245 413.141C206.698 414.173 202.878 419.089 203.934 424.763C204.976 430.361 210.253 433.849 215.825 432.812C221.627 431.732 225.113 426.588 224.034 420.786Z" fill="#222220"/>
<path d="M354.206 391.489L353.417 387.246L343.09 389.167L346.609 408.083L351.236 407.222L349.894 400.013L355.39 398.991L354.601 394.748L349.105 395.77L348.506 392.55L354.206 391.489ZM375.45 402.717L364.415 385.199L360.607 385.908L356.534 406.236L361.723 405.271L362.211 402.35L368.78 401.128L370.21 403.692L375.45 402.717ZM366.789 397.531L362.827 398.268L363.566 391.44L363.618 391.43L363.643 391.426L366.789 397.531ZM382.219 401.457L378.699 382.542L373.868 383.441L377.387 402.356L382.219 401.457ZM396.207 398.855L395.417 394.612L389.819 395.653L387.09 380.981L382.259 381.88L385.778 400.795L396.207 398.855ZM402.937 397.602L399.418 378.687L394.587 379.586L398.106 398.501L402.937 397.602ZM422.319 393.996L418.8 375.081L414.173 375.942L416.579 387.739L416.538 387.799L407.016 377.273L402.849 378.049L406.369 396.964L410.995 396.103L408.732 384.65L408.778 384.615L418.127 394.776L422.319 393.996ZM443.272 379.996C443.21 379.663 443.148 379.331 443.061 379.003L431.84 381.091L432.558 384.951L438.207 383.9C438.009 386.105 436.319 387.398 434.248 387.784C431.028 388.383 428.579 386.167 428.004 383.074C427.447 380.084 429.052 377.193 432.144 376.618C433.934 376.285 435.608 376.899 436.768 378.297L442.187 377.288C440.285 373.464 435.573 371.59 431.483 372.351C425.936 373.383 422.117 378.299 423.172 383.973C424.214 389.571 429.491 393.059 435.063 392.022C440.866 390.942 444.352 385.798 443.272 379.996Z" fill="#222220"/>
<path d="M573.442 350.699L572.653 346.456L562.326 348.377L565.845 367.293L570.472 366.432L569.131 359.223L574.627 358.201L573.837 353.958L568.341 354.98L567.742 351.76L573.442 350.699ZM594.686 361.927L583.652 344.409L579.843 345.118L575.771 365.446L580.959 364.48L581.448 361.56L588.017 360.338L589.446 362.902L594.686 361.927ZM586.025 356.741L582.063 357.478L582.803 350.65L582.854 350.64L582.879 350.636L586.025 356.741ZM601.455 360.667L597.936 341.752L593.105 342.651L596.624 361.566L601.455 360.667ZM615.443 358.065L614.654 353.821L609.056 354.863L606.326 340.191L601.495 341.09L605.014 360.005L615.443 358.065ZM622.174 356.812L618.654 337.897L613.823 338.796L617.342 357.711L622.174 356.812ZM641.555 353.206L638.036 334.291L633.409 335.152L635.816 346.949L635.774 347.009L626.252 336.483L622.086 337.259L625.605 356.174L630.232 355.313L627.968 343.86L628.015 343.825L637.363 353.986L641.555 353.206ZM662.508 339.206C662.447 338.873 662.385 338.541 662.297 338.213L651.076 340.301L651.794 344.161L657.443 343.11C657.245 345.315 655.555 346.608 653.485 346.994C650.264 347.593 647.815 345.377 647.24 342.284C646.683 339.294 648.288 336.403 651.381 335.828C653.17 335.495 654.845 336.109 656.004 337.507L661.423 336.498C659.521 332.674 654.809 330.8 650.719 331.561C645.172 332.593 641.353 337.509 642.409 343.183C643.45 348.781 648.727 352.269 654.3 351.232C660.102 350.152 663.588 345.008 662.508 339.206Z" fill="#222220"/>
<path d="M792.681 309.909L791.891 305.666L781.564 307.587L785.084 326.502L789.71 325.642L788.369 318.433L793.865 317.411L793.075 313.168L787.58 314.19L786.98 310.969L792.681 309.909ZM813.924 321.137L802.89 303.619L799.081 304.328L795.009 324.656L800.198 323.69L800.686 320.77L807.255 319.548L808.684 322.112L813.924 321.137ZM805.264 315.951L801.302 316.688L802.041 309.86L802.092 309.85L802.118 309.846L805.264 315.951ZM820.693 319.877L817.174 300.962L812.343 301.861L815.862 320.776L820.693 319.877ZM834.681 317.275L833.892 313.031L828.294 314.073L825.564 299.401L820.733 300.3L824.252 319.215L834.681 317.275ZM841.412 316.022L837.893 297.107L833.061 298.006L836.581 316.921L841.412 316.022ZM860.794 312.416L857.274 293.501L852.648 294.362L855.054 306.159L855.012 306.219L845.49 295.693L841.324 296.469L844.843 315.384L849.47 314.523L847.207 303.07L847.253 303.035L856.601 313.196L860.794 312.416ZM881.747 298.416C881.685 298.083 881.623 297.751 881.536 297.423L870.314 299.511L871.032 303.371L876.681 302.32C876.483 304.525 874.793 305.818 872.723 306.203C869.502 306.803 867.054 304.587 866.478 301.494C865.922 298.504 867.526 295.613 870.619 295.038C872.408 294.705 874.083 295.319 875.242 296.717L880.661 295.708C878.759 291.884 874.047 290.01 869.957 290.771C864.411 291.803 860.591 296.719 861.647 302.393C862.689 307.991 867.966 311.479 873.538 310.442C879.34 309.362 882.826 304.218 881.747 298.416Z" fill="#222220"/>
<path d="M1011.92 269.119L1011.13 264.876L1000.8 266.797L1004.32 285.712L1008.95 284.852L1007.61 277.643L1013.1 276.621L1012.31 272.378L1006.82 273.4L1006.22 270.179L1011.92 269.119ZM1033.16 280.347L1022.13 262.829L1018.32 263.538L1014.25 283.866L1019.44 282.9L1019.92 279.98L1026.49 278.758L1027.92 281.321L1033.16 280.347ZM1024.5 275.161L1020.54 275.898L1021.28 269.07L1021.33 269.06L1021.36 269.056L1024.5 275.161ZM1039.93 279.087L1036.41 260.172L1031.58 261.071L1035.1 279.986L1039.93 279.087ZM1053.92 276.485L1053.13 272.241L1047.53 273.283L1044.8 258.611L1039.97 259.51L1043.49 278.425L1053.92 276.485ZM1060.65 275.232L1057.13 256.317L1052.3 257.216L1055.82 276.131L1060.65 275.232ZM1080.03 271.626L1076.51 252.711L1071.88 253.572L1074.29 265.369L1074.25 265.429L1064.73 254.903L1060.56 255.679L1064.08 274.594L1068.71 273.733L1066.44 262.28L1066.49 262.245L1075.84 272.406L1080.03 271.626ZM1100.98 257.625C1100.92 257.293 1100.86 256.961 1100.77 256.633L1089.55 258.721L1090.27 262.581L1095.92 261.53C1095.72 263.735 1094.03 265.028 1091.96 265.413C1088.74 266.013 1086.29 263.797 1085.72 260.704C1085.16 257.714 1086.76 254.823 1089.86 254.248C1091.65 253.915 1093.32 254.529 1094.48 255.927L1099.9 254.918C1098 251.094 1093.28 249.22 1089.19 249.981C1083.65 251.013 1079.83 255.928 1080.88 261.603C1081.93 267.201 1087.2 270.689 1092.78 269.652C1098.58 268.572 1102.06 263.428 1100.98 257.625Z" fill="#222220"/>
<path d="M1231.16 228.329L1230.37 224.086L1220.04 226.007L1223.56 244.922L1228.19 244.062L1226.84 236.853L1232.34 235.831L1231.55 231.588L1226.06 232.61L1225.46 229.389L1231.16 228.329ZM1252.4 239.556L1241.37 222.039L1237.56 222.748L1233.48 243.076L1238.67 242.11L1239.16 239.19L1245.73 237.968L1247.16 240.531L1252.4 239.556ZM1243.74 234.371L1239.78 235.108L1240.52 228.28L1240.57 228.27L1240.59 228.266L1243.74 234.371ZM1259.17 238.297L1255.65 219.382L1250.82 220.281L1254.34 239.196L1259.17 238.297ZM1273.16 235.695L1272.37 231.451L1266.77 232.493L1264.04 217.821L1259.21 218.72L1262.73 237.635L1273.16 235.695ZM1279.89 234.442L1276.37 215.527L1271.54 216.426L1275.06 235.341L1279.89 234.442ZM1299.27 230.836L1295.75 211.921L1291.12 212.782L1293.53 224.579L1293.49 224.639L1283.97 214.113L1279.8 214.888L1283.32 233.804L1287.95 232.943L1285.68 221.49L1285.73 221.455L1295.08 231.616L1299.27 230.836ZM1320.22 216.835C1320.16 216.503 1320.1 216.171 1320.01 215.843L1308.79 217.931L1309.51 221.791L1315.16 220.74C1314.96 222.945 1313.27 224.238 1311.2 224.623C1307.98 225.223 1305.53 223.007 1304.95 219.914C1304.4 216.924 1306 214.033 1309.09 213.458C1310.88 213.125 1312.56 213.739 1313.72 215.137L1319.14 214.128C1317.24 210.304 1312.52 208.43 1308.43 209.191C1302.89 210.223 1299.07 215.138 1300.12 220.813C1301.16 226.411 1306.44 229.899 1312.01 228.862C1317.82 227.782 1321.3 222.638 1320.22 216.835Z" fill="#222220"/>
<path d="M1450.39 187.539L1449.6 183.296L1439.28 185.217L1442.8 204.132L1447.42 203.272L1446.08 196.063L1451.58 195.041L1450.79 190.798L1445.29 191.82L1444.69 188.599L1450.39 187.539ZM1471.64 198.766L1460.6 181.249L1456.79 181.958L1452.72 202.286L1457.91 201.32L1458.4 198.4L1464.97 197.178L1466.4 199.741L1471.64 198.766ZM1462.98 193.581L1459.01 194.318L1459.75 187.49L1459.81 187.48L1459.83 187.476L1462.98 193.581ZM1478.41 197.507L1474.89 178.592L1470.06 179.491L1473.57 198.406L1478.41 197.507ZM1492.39 194.905L1491.6 190.661L1486.01 191.703L1483.28 177.031L1478.45 177.929L1481.97 196.845L1492.39 194.905ZM1499.12 193.652L1495.61 174.737L1490.77 175.636L1494.29 194.551L1499.12 193.652ZM1518.51 190.046L1514.99 171.131L1510.36 171.992L1512.77 183.789L1512.73 183.849L1503.2 173.323L1499.04 174.098L1502.56 193.014L1507.18 192.153L1504.92 180.7L1504.97 180.665L1514.31 190.826L1518.51 190.046ZM1539.46 176.045C1539.4 175.713 1539.34 175.381 1539.25 175.053L1528.03 177.141L1528.75 181.001L1534.39 179.95C1534.2 182.155 1532.51 183.448 1530.44 183.833C1527.22 184.433 1524.77 182.217 1524.19 179.124C1523.63 176.133 1525.24 173.243 1528.33 172.668C1530.12 172.335 1531.8 172.949 1532.96 174.347L1538.37 173.338C1536.47 169.514 1531.76 167.64 1527.67 168.401C1522.12 169.433 1518.3 174.348 1519.36 180.023C1520.4 185.621 1525.68 189.109 1531.25 188.072C1537.05 186.992 1540.54 181.848 1539.46 176.045Z" fill="#222220"/>
<path d="M1669.63 146.749L1668.84 142.506L1658.52 144.427L1662.03 163.342L1666.66 162.482L1665.32 155.273L1670.82 154.251L1670.03 150.008L1664.53 151.03L1663.93 147.809L1669.63 146.749ZM1690.88 157.976L1679.84 140.459L1676.03 141.168L1671.96 161.496L1677.15 160.53L1677.64 157.61L1684.21 156.387L1685.64 158.951L1690.88 157.976ZM1682.21 152.791L1678.25 153.528L1678.99 146.7L1679.04 146.69L1679.07 146.686L1682.21 152.791ZM1697.64 156.717L1694.13 137.802L1689.29 138.7L1692.81 157.616L1697.64 156.717ZM1711.63 154.114L1710.84 149.871L1705.25 150.913L1702.52 136.241L1697.68 137.139L1701.2 156.055L1711.63 154.114ZM1718.36 152.862L1714.84 133.947L1710.01 134.846L1713.53 153.761L1718.36 152.862ZM1737.74 149.256L1734.23 130.341L1729.6 131.202L1732.01 142.998L1731.96 143.059L1722.44 132.533L1718.28 133.308L1721.79 152.224L1726.42 151.363L1724.16 139.91L1724.2 139.875L1733.55 150.036L1737.74 149.256ZM1758.7 135.255C1758.64 134.923 1758.57 134.591 1758.49 134.263L1747.27 136.351L1747.98 140.211L1753.63 139.16C1753.43 141.365 1751.74 142.658 1749.67 143.043C1746.45 143.643 1744 141.427 1743.43 138.334C1742.87 135.343 1744.48 132.453 1747.57 131.878C1749.36 131.545 1751.03 132.159 1752.19 133.556L1757.61 132.548C1755.71 128.724 1751 126.85 1746.91 127.611C1741.36 128.643 1737.54 133.558 1738.6 139.233C1739.64 144.831 1744.92 148.319 1750.49 147.282C1756.29 146.202 1759.78 141.058 1758.7 135.255Z" fill="#222220"/>
<path d="M1888.87 105.959L1888.08 101.716L1877.75 103.637L1881.27 122.553L1885.9 121.692L1884.56 114.484L1890.05 113.461L1889.26 109.218L1883.77 110.24L1883.17 107.02L1888.87 105.959ZM1910.11 117.187L1899.08 99.6697L1895.27 100.378L1891.2 120.706L1896.39 119.741L1896.87 116.82L1903.44 115.598L1904.87 118.162L1910.11 117.187ZM1901.45 112.002L1897.49 112.739L1898.23 105.91L1898.28 105.901L1898.31 105.896L1901.45 112.002ZM1916.88 115.927L1913.36 97.0121L1908.53 97.9109L1912.05 116.826L1916.88 115.927ZM1930.87 113.325L1930.08 109.082L1924.48 110.123L1921.75 95.451L1916.92 96.3499L1920.44 115.265L1930.87 113.325ZM1937.6 112.073L1934.08 93.1573L1929.25 94.0561L1932.77 112.972L1937.6 112.073ZM1956.98 108.467L1953.46 89.5513L1948.84 90.4121L1951.24 102.209L1951.2 102.27L1941.68 91.7437L1937.51 92.5189L1941.03 111.434L1945.66 110.573L1943.4 99.1202L1943.44 99.0851L1952.79 109.247L1956.98 108.467ZM1977.94 94.4658C1977.87 94.1335 1977.81 93.8012 1977.72 93.4737L1966.5 95.5615L1967.22 99.4212L1972.87 98.3702C1972.67 100.576 1970.98 101.869 1968.91 102.254C1965.69 102.853 1963.24 100.638 1962.67 97.5446C1962.11 94.5539 1963.71 91.6637 1966.81 91.0882C1968.6 90.7553 1970.27 91.3694 1971.43 92.7669L1976.85 91.7587C1974.95 87.934 1970.24 86.0603 1966.15 86.8213C1960.6 87.8533 1956.78 92.7688 1957.84 98.4434C1958.88 104.041 1964.15 107.529 1969.73 106.492C1975.53 105.413 1979.01 100.268 1977.94 94.4658Z" fill="#222220"/>
<path d="M2108.11 65.1692L2107.32 60.926L2096.99 62.8473L2100.51 81.7627L2105.14 80.9019L2103.8 73.6936L2109.29 72.6711L2108.5 68.428L2103.01 69.4504L2102.41 66.2297L2108.11 65.1692ZM2129.35 76.3968L2118.32 58.8796L2114.51 59.5882L2110.44 79.9161L2115.62 78.9507L2116.11 76.0301L2122.68 74.8079L2124.11 77.3718L2129.35 76.3968ZM2120.69 71.2115L2116.73 71.9486L2117.47 65.1202L2117.52 65.1107L2117.54 65.1059L2120.69 71.2115ZM2136.12 75.1374L2132.6 56.222L2127.77 57.1209L2131.29 76.0363L2136.12 75.1374ZM2150.11 72.5349L2149.32 68.2917L2143.72 69.3332L2140.99 54.661L2136.16 55.5598L2139.68 74.4752L2150.11 72.5349ZM2156.84 71.2827L2153.32 52.3673L2148.49 53.2661L2152.01 72.1815L2156.84 71.2827ZM2176.22 67.6766L2172.7 48.7612L2168.07 49.622L2170.48 61.4189L2170.44 61.4795L2160.92 50.9536L2156.75 51.7288L2160.27 70.6442L2164.9 69.7834L2162.63 58.3302L2162.68 58.2951L2172.03 68.4566L2176.22 67.6766ZM2197.17 53.6758C2197.11 53.3435 2197.05 53.0112 2196.96 52.6836L2185.74 54.7714L2186.46 58.6312L2192.11 57.5802C2191.91 59.7856 2190.22 61.0785 2188.15 61.4637C2184.93 62.063 2182.48 59.8475 2181.9 56.7545C2181.35 53.7639 2182.95 50.8736 2186.05 50.2982C2187.84 49.9653 2189.51 50.5793 2190.67 51.9769L2196.09 50.9687C2194.19 47.144 2189.47 45.2703 2185.38 46.0312C2179.84 47.0632 2176.02 51.9788 2177.07 57.6534C2178.12 63.2513 2183.39 66.7389 2188.96 65.7022C2194.77 64.6226 2198.25 59.4782 2197.17 53.6758Z" fill="#222220"/>
</svg>
