<svg width="24" height="24" viewBox="0 0 24 24" fill="none" xmlns="http://www.w3.org/2000/svg">
<g clip-path="url(#clip0)">
<path d="M12 2.16215C15.2041 2.16215 15.5837 2.17439 16.849 2.23212C18.019 2.28547 18.6544 2.48096 19.0773 2.6453C19.6374 2.86299 20.0371 3.12302 20.457 3.54291C20.877 3.96286 21.137 4.3626 21.3547 4.92273C21.519 5.34557 21.7145 5.98096 21.7679 7.15095C21.8256 8.41629 21.8378 8.79584 21.8378 11.9999C21.8378 15.2041 21.8256 15.5836 21.7679 16.849C21.7145 18.019 21.519 18.6543 21.3547 19.0772C21.137 19.6373 20.877 20.0371 20.4571 20.457C20.0371 20.8769 19.6374 21.1369 19.0773 21.3546C18.6544 21.519 18.019 21.7144 16.849 21.7678C15.5839 21.8255 15.2044 21.8378 12 21.8378C8.79563 21.8378 8.41618 21.8255 7.15097 21.7678C5.98098 21.7144 5.34559 21.519 4.92274 21.3546C4.36261 21.1369 3.96287 20.8769 3.54297 20.457C3.12308 20.0371 2.863 19.6373 2.64531 19.0772C2.48097 18.6543 2.28548 18.019 2.23213 16.849C2.1744 15.5836 2.16216 15.2041 2.16216 11.9999C2.16216 8.79584 2.1744 8.41629 2.23213 7.15095C2.28548 5.98096 2.48097 5.34557 2.64531 4.92273C2.863 4.3626 3.12303 3.96286 3.54297 3.54296C3.96287 3.12302 4.36261 2.86299 4.92274 2.6453C5.34559 2.48096 5.98098 2.28547 7.15097 2.23212C8.41632 2.17439 8.79587 2.16215 12 2.16215ZM12 0C8.741 0 8.33234 0.0138138 7.05241 0.072213C5.77516 0.130469 4.90283 0.333342 4.13954 0.629958C3.35044 0.936626 2.68123 1.34694 2.01406 2.01406C1.34695 2.68122 0.936629 3.35043 0.630008 4.13953C0.333343 4.90282 0.13047 5.77514 0.0722133 7.05239C0.0138139 8.33231 0 8.74096 0 11.9999C0 15.259 0.0138139 15.6676 0.0722133 16.9475C0.13047 18.2248 0.333343 19.0971 0.630008 19.8604C0.936629 20.6495 1.34695 21.3187 2.01406 21.9859C2.68123 22.653 3.35044 23.0633 4.13954 23.3699C4.90283 23.6666 5.77516 23.8694 7.05241 23.9277C8.33234 23.9861 8.741 23.9999 12 23.9999C15.259 23.9999 15.6677 23.9861 16.9476 23.9277C18.2248 23.8694 19.0972 23.6666 19.8605 23.3699C20.6496 23.0633 21.3188 22.653 21.9859 21.9859C22.653 21.3187 23.0634 20.6495 23.37 19.8604C23.6667 19.0971 23.8695 18.2248 23.9278 16.9475C23.9862 15.6676 24 15.259 24 11.9999C24 8.74096 23.9862 8.33231 23.9278 7.05239C23.8695 5.77514 23.6667 4.90282 23.37 4.13953C23.0634 3.35043 22.653 2.68122 21.9859 2.01406C21.3188 1.34694 20.6496 0.936626 19.8605 0.629958C19.0972 0.333342 18.2248 0.130469 16.9476 0.072213C15.6677 0.0138138 15.259 0 12 0Z" fill="#FFC6C6"/>
<path d="M12.0059 5.84375C8.60262 5.84375 5.84375 8.60261 5.84375 12.0059C5.84375 15.4092 8.60262 18.168 12.0059 18.168C15.4092 18.168 18.1681 15.4092 18.1681 12.0059C18.1681 8.60261 15.4092 5.84375 12.0059 5.84375ZM12.0059 16.0059C9.79676 16.0059 8.00591 14.215 8.00591 12.0059C8.00591 9.79675 9.79676 8.0059 12.0059 8.0059C14.2151 8.0059 16.0059 9.79675 16.0059 12.0059C16.0059 14.215 14.2151 16.0059 12.0059 16.0059Z" fill="#FFC6C6"/>
<path d="M19.8507 5.59627C19.8507 6.39152 19.206 7.03625 18.4107 7.03625C17.6154 7.03625 16.9707 6.39152 16.9707 5.59627C16.9707 4.80098 17.6154 4.15625 18.4107 4.15625C19.206 4.15625 19.8507 4.80098 19.8507 5.59627Z" fill="#FFC6C6"/>
</g>
<defs>
<clipPath id="clip0">
<rect width="24" height="23.9999" fill="white"/>
</clipPath>
</defs>
</svg>
