<svg width="24" height="24" viewBox="0 0 24 24" fill="none" xmlns="http://www.w3.org/2000/svg">
<path fillRule="evenodd" clipRule="evenodd" d="M5.77475 4.28389C5.77475 5.52898 4.82671 6.5366 3.34415 6.5366C1.91935 6.5366 0.971323 5.52898 1.00066 4.28389C0.971323 2.97828 1.91933 2 3.37255 2C4.82669 2 5.74633 2.97828 5.77475 4.28389ZM1.11986 22.8191V8.31621H5.62712V22.8181H1.11986V22.8191Z" fill="#FFC6C6"/>
<path fillRule="evenodd" clipRule="evenodd" d="M9.23931 12.9441C9.23931 11.1352 9.17971 9.59301 9.12012 8.31767H13.0351L13.2432 10.3045H13.3322C13.9254 9.38489 15.4079 7.99219 17.8101 7.99219C20.7752 7.99219 22.9995 9.94968 22.9995 14.2186V22.8205H18.4922V14.7833C18.4922 12.9139 17.8404 11.6394 16.2093 11.6394C14.9633 11.6394 14.2224 12.4995 13.9263 13.3292C13.8071 13.6263 13.7484 14.0407 13.7484 14.4569V22.8205H9.24113V12.9441H9.23931Z" fill="#FFC6C6"/>
</svg>
