<svg width="208" height="52" viewBox="0 0 208 52" fill="none" xmlns="http://www.w3.org/2000/svg">
<path fill-rule="evenodd" clip-rule="evenodd" d="M81 52L81 -1.04908e-06L105 0L105 52L81 52Z" fill="#F4F4F4"/>
<path d="M81 26L52 52L52 -1.26763e-06L81 26Z" fill="#F4F4F4"/>
<path fill-rule="evenodd" clip-rule="evenodd" d="M128.484 -1.32174e-06C128.484 15.749 141.251 28.5161 157 28.5161L157 52C128.281 52 105 28.7188 105 7.31287e-07L128.484 -1.32174e-06Z" fill="#F4F4F4"/>
<path fill-rule="evenodd" clip-rule="evenodd" d="M28.5161 52C28.5161 36.251 15.749 23.4839 0 23.4839L0 0C28.7188 0 52 23.2812 52 52H28.5161Z" fill="#F4F4F4"/>
<path d="M208 26C208 40.3594 196.583 52 182.5 52C168.417 52 157 40.3594 157 26C157 11.6406 168.417 0 182.5 0C196.583 0 208 11.6406 208 26Z" fill="#F4F4F4"/>
</svg>
