<svg width="69" height="78" viewBox="0 0 69 78" fill="none" xmlns="http://www.w3.org/2000/svg">
<path d="M68.9 32.5H51.4L46 44.6L37.3 35.8C43.3 31.6 47.5 26.5 47.5 18.8C47.5 8 38.6 0.599999 28.1 0.599999C17.2 0.599999 7.6 8.39999 7.6 19.7C7.6 26 10.2 31.2 14.6 35.7C7.2 40.7 0.9 46.2 0.9 56C0.9 69.3 13.3 77.5 25.6 77.5C34.4 77.5 41.2 74.1 47.7 68.5L56.4 77.5L67.7 66.4L57.6 56C59.9 53 61.7 49.7 63.2 46.2L68.9 32.5ZM32.5 18.7C32.5 22.2 30.2 24.6 27.9 26.9C25.8 24.7 23.7 22.1 23.7 18.9C23.7 16.2 25.4 14 28.2 14C31 14 32.5 16.1 32.5 18.7ZM36.6 57.6C34.1 60.5 31.4 61.6 27.6 61.6C23.2 61.6 19.1 59.1 19.1 54.3C19.1 50.4 22 47.9 24.8 45.7L36.6 57.6Z" fill="#222220"/>
</svg>
