<svg width="453" height="170" viewBox="0 0 453 170" fill="none" xmlns="http://www.w3.org/2000/svg">
<path d="M214.622 41.906H210.266C209.54 43.512 208.176 44.656 206.35 44.656C203.688 44.656 201.972 42.324 201.972 39.816C201.972 37.308 203.688 35.064 206.328 35.064C208.154 35.064 209.628 36.23 210.266 37.902H214.622C214.468 36.956 214.05 36.032 213.522 35.24C211.894 32.776 209.298 31.412 206.35 31.412C201.62 31.412 197.814 35.064 197.814 39.838C197.814 44.612 201.664 48.308 206.394 48.308C210.332 48.308 213.676 45.756 214.622 41.906ZM295.231 41.554V31.72H291.073V41.554C291.073 43.094 290.963 44.656 289.005 44.656C287.135 44.656 286.893 43.028 286.893 41.554V31.72H282.735V41.554C282.735 43.622 282.889 45.008 284.363 46.57C285.551 47.824 287.355 48.308 289.049 48.308C290.787 48.308 292.371 47.802 293.603 46.548C295.011 45.14 295.231 43.49 295.231 41.554ZM373.226 48V44.348H368.408V31.72H364.25V48H373.226ZM451.531 44.194V40.674H447.747V36.868H444.227V40.674H440.443V44.194H444.227V48H447.747V44.194H451.531ZM207.78 120.372V116.72H197.22V120.372H200.432V133H204.59V120.372H207.78ZM287.905 126.554V116.72H283.747V126.554C283.747 128.094 283.637 129.656 281.679 129.656C279.809 129.656 279.567 128.028 279.567 126.554V116.72H275.409V126.554C275.409 128.622 275.563 130.008 277.037 131.57C278.225 132.824 280.029 133.308 281.723 133.308C283.461 133.308 285.045 132.802 286.277 131.548C287.685 130.14 287.905 128.49 287.905 126.554ZM369.354 133L364.932 127.456C367.506 127.038 368.98 124.838 368.98 122.33C368.98 120.636 368.32 118.964 366.978 117.886C365.57 116.764 363.678 116.72 361.962 116.72H356.814V133H360.796V127.742H360.84L364.602 133H369.354ZM364.998 122.572C364.998 124.244 363.832 124.904 362.27 124.904H360.796V120.372H362.314C363.744 120.372 364.998 120.966 364.998 122.572ZM446.229 133V129.348H441.169V126.554H446.075V122.902H441.169V120.372H446.229V116.72H437.187V133H446.229Z" fill="#222220"/>
<path fillRule="evenodd" clipRule="evenodd" d="M124.321 19.0019L124.321 146.469C89.3118 146.246 61 117.797 61 82.7353C61 47.6735 89.3118 19.2243 124.321 19.0019Z" fill="#222220"/>
<path fillRule="evenodd" clipRule="evenodd" d="M63.3212 19.0019L63.3212 146.469C28.3118 146.246 -1.25328e-06 117.797 -2.78588e-06 82.7353C-4.31848e-06 47.6735 28.3118 19.2243 63.3212 19.0019Z" fill="#222220"/>
</svg>
